<svg width="215" height="222" viewBox="0 0 215 222" fill="none" xmlns="http://www.w3.org/2000/svg">
<g filter="url(#filter0_d_109_33)">
<rect x="24.458" y="18" width="165.693" height="165.693" rx="82.8464" fill="white"/>
</g>
<mask id="mask0_109_33" style="mask-type:alpha" maskUnits="userSpaceOnUse" x="24" y="18" width="167" height="166">
<rect x="24.458" y="18" width="165.693" height="165.693" rx="82.8464" fill="white"/>
</mask>
<g mask="url(#mask0_109_33)">
<path d="M114.349 116.813L114.493 127.92C115.069 138.492 119.491 155.811 113.485 156.14C107.458 156.469 93.7391 139.727 93.1632 129.154L92.5461 118.006L114.369 116.792L114.349 116.813Z" fill="#ED9681"/>
<path d="M125.476 151.204L137.118 187.61C137.118 187.61 110.07 207.212 70.3723 192.567L75.1854 165.396C75.1854 165.396 68.7063 160.809 70.866 142.215L93.1624 129.092L108.959 141.207C109.844 142.071 114.101 140.179 114.04 139.006L114.615 130.039C114.451 130.039 114.759 130.039 114.615 130.039C114.842 130.039 115.212 130.039 115.418 129.997L119.799 131.972C119.799 131.972 119.963 131.972 120.046 131.993" fill="#AC85BC"/>
<path d="M74.3014 83.7797V79.7071C74.3014 78.802 73.9723 78.0821 73.3347 77.5679C72.6971 76.9303 71.9155 76.6012 71.0104 76.6012H67.1435C66.2385 76.6012 65.4569 76.9303 64.8193 77.5679C64.1816 78.0821 63.8525 78.802 63.8525 79.7071V83.7797C63.8525 84.6847 64.1816 85.4046 64.8193 85.9188C65.4569 86.5564 66.2385 86.8855 67.1435 86.8855H71.0104C71.9155 86.8855 72.6971 86.5564 73.3347 85.9188C73.9723 85.4046 74.3014 84.6847 74.3014 83.7797Z" fill="#FFECAC"/>
<path d="M98.9844 109.655H111.387C114.226 109.655 116.612 108.688 118.566 106.755C120.499 104.821 121.466 102.497 121.466 99.7821V78.2672C121.466 75.5522 120.499 73.2279 118.566 71.2945C116.632 69.361 114.246 68.3943 111.387 68.3943H98.9844C96.1459 68.3943 93.76 69.361 91.8059 71.2945C89.8725 73.2279 88.9058 75.5522 88.9058 78.2672V99.7821C88.9058 102.497 89.8725 104.821 91.8059 106.755C93.7394 108.688 96.1254 109.655 98.9844 109.655Z" fill="#F58720"/>
<path d="M109.062 73.3925H101.308C99.4978 73.3925 97.9551 74.0301 96.6593 75.3259C95.3635 76.6217 94.7258 78.1644 94.7258 79.9744V97.9926C94.7258 99.8026 95.3635 101.345 96.6593 102.641C97.9551 103.937 99.4978 104.575 101.308 104.575H109.062C110.872 104.575 112.415 103.937 113.711 102.641C115.007 101.345 115.644 99.8026 115.644 97.9926V79.9744C115.644 78.1644 115.007 76.6217 113.711 75.3259C112.415 74.0301 110.872 73.3925 109.062 73.3925Z" fill="#D2EAFA"/>
<path d="M134.074 95.689C134.074 97.3757 134.712 98.7949 136.008 99.9467C137.18 101.243 138.599 101.88 140.265 101.88C141.931 101.88 143.433 101.243 144.729 99.9467C145.901 98.7743 146.477 97.3551 146.477 95.689C146.477 94.0024 145.901 92.5215 144.729 91.2256C143.556 90.0532 142.075 89.4773 140.265 89.4773C138.579 89.4773 137.16 90.0532 136.008 91.2256C134.712 92.5215 134.074 94.0024 134.074 95.689Z" fill="#F4A289"/>
<path d="M70.4759 99.9467C71.6483 98.7743 72.2242 97.3551 72.2242 95.689C72.2242 94.0024 71.6483 92.5215 70.4759 91.2256C69.3035 90.0532 67.8226 89.4773 66.0125 89.4773C64.3259 89.4773 62.8449 90.0532 61.5491 91.2256C60.3767 92.5215 59.8008 94.0024 59.8008 95.689C59.8008 97.3757 60.3767 98.7949 61.5491 99.9467C62.8449 101.243 64.3259 101.88 66.0125 101.88C67.6991 101.88 69.1801 101.243 70.4759 99.9467Z" fill="#F4A289"/>
<path d="M110.626 61.0104C110.091 60.4756 109.577 60.2288 109.063 60.2288C107.5 60.2288 106.471 60.9487 105.957 62.3679C99.4778 61.0721 93.0193 60.6813 86.5813 61.1955C73.911 62.2239 67.1233 68.8882 66.1978 81.1677V90.2796C66.1978 101.016 69.8178 110.19 77.0786 117.8C84.1748 125.287 92.8342 129.031 103.057 129.031C113.279 129.031 121.774 125.226 129.035 117.595C136.131 110.108 139.669 100.996 139.669 90.2796V81.1677C140.204 76.6426 139.422 72.4465 137.345 68.5591C133.334 60.8253 124.798 58.501 111.757 61.5863C111.51 61.7303 111.12 61.5452 110.605 61.0309L110.626 61.0104Z" fill="#F5B897"/>
<g opacity="0.1">
<path d="M102.214 89.1892C102.09 91.9043 100.918 94.1051 98.7169 95.7712C96.6395 97.5812 94.1918 98.3628 91.3533 98.0954C88.6383 97.972 86.3757 96.8613 84.5657 94.8044C82.7556 92.727 81.9123 90.4027 82.0357 87.8317" stroke="#212020" stroke-width="1.54265" stroke-linecap="round" stroke-linejoin="round"/>
</g>
<g opacity="0.1">
<path d="M121.631 89.1892C121.507 91.9043 120.335 94.1051 118.134 95.7712C116.056 97.5812 113.671 98.3628 110.955 98.0954C108.117 97.972 105.793 96.8613 103.983 94.8044C102.296 92.727 101.535 90.4027 101.658 87.8317" stroke="#212020" stroke-width="1.54265" stroke-linecap="round" stroke-linejoin="round"/>
</g>
<path d="M112.538 77.2799C107.622 77.2799 104.393 79.5425 102.85 84.0676C101.164 79.5425 97.8728 77.2799 92.9569 77.2799C90.1185 77.2799 87.7325 78.2466 85.7785 80.1801C83.701 82.2575 82.6726 84.7052 82.6726 87.5437C82.6726 90.3821 83.701 92.7681 85.7785 94.7221C87.7119 96.7996 90.0979 97.828 92.9569 97.828C97.7289 97.828 101.04 95.5037 102.85 90.8552C103.488 92.9327 104.722 94.5987 106.532 95.8945C108.219 97.1904 110.214 97.828 112.538 97.828C115.377 97.828 117.763 96.7996 119.717 94.7221C121.794 92.7887 122.823 90.4027 122.823 87.5437C122.823 84.6846 121.794 82.237 119.717 80.1801C117.783 78.2466 115.397 77.2799 112.538 77.2799Z" fill="white"/>
<path d="M117.989 90.6701C119.161 89.4977 119.737 88.0784 119.737 86.4124C119.737 84.8697 119.161 83.5122 117.989 82.3398C116.96 81.1674 115.603 80.5914 113.916 80.5914C112.373 80.5914 111.016 81.1674 109.844 82.3398C108.671 83.5122 108.095 84.8697 108.095 86.4124C108.095 88.099 108.671 89.5182 109.844 90.6701C111.016 91.8425 112.373 92.4184 113.916 92.4184C115.603 92.4184 116.96 91.8425 117.989 90.6701Z" fill="#B47052"/>
<path d="M115.644 86.8443C117.186 86.8443 117.968 86.0627 117.968 84.5201C117.968 82.9774 117.186 82.1958 115.644 82.1958C115.129 82.1958 114.615 82.4632 114.101 82.9774C113.587 83.4916 113.319 84.0058 113.319 84.5201C113.319 86.0627 114.101 86.8443 115.644 86.8443Z" fill="#212020"/>
<path d="M120.355 88.4898C121.918 88.4898 122.7 87.6465 122.7 85.9599C122.7 84.2732 121.918 83.4711 120.355 83.4711C118.668 83.4711 117.825 84.2938 117.825 85.9599C117.825 87.6259 118.668 88.4898 120.355 88.4898Z" fill="#FDF8E4"/>
<path d="M98.5935 90.6701C99.7659 89.4977 100.342 88.0784 100.342 86.4124C100.342 84.8697 99.7659 83.5122 98.5935 82.3398C97.565 81.1674 96.2075 80.5914 94.5209 80.5914C92.8343 80.5914 91.4767 81.1674 90.4483 82.3398C89.2759 83.5122 88.7 84.8697 88.7 86.4124C88.7 88.099 89.2759 89.5182 90.4483 90.6701C91.4767 91.8425 92.8343 92.4184 94.5209 92.4184C96.2075 92.4184 97.565 91.8425 98.5935 90.6701Z" fill="#B47052"/>
<path d="M98.0996 86.6181C98.6138 86.2273 98.8812 85.7131 98.8812 85.0755C98.8812 83.5328 98.0996 82.7512 96.5569 82.7512C95.0143 82.7512 94.2327 83.5328 94.2327 85.0755C94.2327 86.6181 95.0143 87.3997 96.5569 87.3997C97.1946 87.3997 97.7293 87.1323 98.0996 86.6181Z" fill="#212020"/>
<path d="M116.611 71.9321C118.626 71.9321 120.436 72.7754 122.082 74.4209C123.357 76.0664 123.995 77.7119 123.974 79.3574" stroke="#44352B" stroke-width="2.13914" stroke-linecap="round" stroke-linejoin="round"/>
<path d="M78.6009 85.6309C78.2306 84.5407 78.3335 82.8952 78.8888 80.6944C79.0945 79.6865 79.3825 78.8432 79.7939 78.1644" stroke="#44352B" stroke-width="2.13914" stroke-linecap="round" stroke-linejoin="round"/>
<g opacity="0.5">
<path d="M99.6826 106.426H104.146" stroke="#212020" stroke-width="1.35753" stroke-linecap="round" stroke-linejoin="round"/>
</g>
<path d="M102.09 115.27C99.1073 114.879 96.927 113.46 95.5077 111.013H95.1169C94.8495 113.09 95.3843 114.879 96.6596 116.443C97.832 118.129 99.4364 119.034 101.514 119.158C103.591 119.425 105.381 118.89 106.944 117.615C108.487 116.319 109.392 114.715 109.659 112.761L109.268 112.576C107.335 114.777 104.949 115.682 102.09 115.291V115.27Z" fill="white"/>
<path d="M101.925 115.25C98.9427 114.859 96.7624 113.44 95.3432 110.992H94.9524C94.685 113.069 95.2198 114.859 96.495 116.422C97.6675 118.109 99.2718 119.014 101.349 119.137C103.427 119.405 105.216 118.87 106.779 117.594C108.322 116.299 109.227 114.694 109.494 112.74L109.104 112.555C107.17 114.756 104.784 115.661 101.925 115.27V115.25Z" stroke="#44352B" stroke-width="1.02843" stroke-linecap="round" stroke-linejoin="round"/>
<path d="M82.117 107.331C82.8986 106.426 83.2894 105.397 83.2894 104.225C83.2894 103.053 82.8986 102.086 82.117 101.325C81.212 100.42 80.1835 99.9673 79.0111 99.9673C77.8387 99.9673 76.872 100.42 76.1109 101.325C75.2059 102.106 74.7534 103.073 74.7534 104.225C74.7534 105.397 75.2059 106.426 76.1109 107.331C76.8926 108.112 77.8593 108.503 79.0111 108.503C80.163 108.503 81.212 108.112 82.117 107.331Z" fill="#E78081"/>
<path d="M128.253 107.331C129.035 106.426 129.425 105.397 129.425 104.225C129.425 103.053 129.035 102.086 128.253 101.325C127.348 100.42 126.32 99.9673 125.147 99.9673C123.975 99.9673 123.008 100.42 122.247 101.325C121.342 102.106 120.889 103.073 120.889 104.225C120.889 105.377 121.342 106.426 122.247 107.331C123.029 108.112 123.995 108.503 125.147 108.503C126.299 108.503 127.348 108.112 128.253 107.331Z" fill="#E78081"/>
<path d="M83.475 43.7325C84.5035 43.7325 86.0667 44.185 88.1235 45.09C82.6934 45.6042 77.6541 48.0725 73.0056 52.4536L67.5755 58.6653C69.3855 57.7603 71.6481 56.8553 74.3631 55.9503C70.3522 58.2745 67.123 62.9231 64.6753 69.9164C62.2276 76.375 61.6311 81.0235 62.9269 83.8825C64.3462 87.5026 65.7654 91.6986 67.1847 96.4911L70.0848 89.1275C72.7999 83.9648 75.9058 80.8589 79.3819 79.8305C85.0588 78.1439 90.5506 75.3054 95.8574 71.2945C94.6849 73.1045 92.7515 75.2437 90.0364 77.6913L86.3546 80.7972C95.5283 78.7198 102.131 75.6345 106.121 71.5002C105.093 74.2152 102.254 76.992 97.5851 79.8305C104.167 79.0489 109.741 76.6012 114.266 72.4669C116.591 70.5334 118.215 68.6 119.121 66.646C120.663 70.6569 123.317 74.0096 127.06 76.7246C128.993 78.1439 130.742 79.1106 132.284 79.6248C131.894 78.8432 131.647 77.6913 131.503 76.1281L131.318 73.989L137.529 82.9158C139.73 85.8982 140.512 89.3126 139.854 93.2001C143.35 82.3399 144.441 74.8529 143.145 70.7186C142.363 68.1269 140.944 65.6175 138.887 63.1493L135.781 60.0434L139.463 61.7918C138.167 58.9533 136.049 56.3616 133.066 54.0374L128.993 51.3223C131.832 49.2449 134.362 48.1548 136.563 48.0313C134.362 46.2213 131.462 45.4397 127.842 45.7071L122.987 46.6738C121.815 43.5679 119.038 41.3054 114.657 39.8862L108.26 38.7137C110.194 40.0096 111.551 41.5522 112.333 43.3623C106.656 41.2848 100.115 40.7706 92.7515 41.8196L83.4545 43.7531L83.475 43.7325Z" fill="#662F18"/>
<path d="M99.2311 90.6291C100.794 90.6291 101.576 89.7858 101.576 88.0992C101.576 86.4125 100.794 85.6104 99.2311 85.6104C97.5445 85.6104 96.7012 86.4331 96.7012 88.0992C96.7012 89.7652 97.5445 90.6291 99.2311 90.6291Z" fill="#FDF8E4"/>
<path d="M114.411 181.851L109.947 183.64C107.726 184.525 105.196 183.455 104.312 181.234L103.468 179.156C102.584 176.935 103.653 174.405 105.875 173.521L110.338 171.731L114.411 181.851Z" fill="#FCC6AE"/>
<path d="M114.411 181.851L109.947 183.64C107.726 184.525 105.196 183.455 104.312 181.234L103.468 179.156C102.584 176.935 103.653 174.405 105.875 173.521L110.338 171.731L114.411 181.851Z" fill="#FCC6AE"/>
<path d="M107.849 172.719L111.922 182.838L114.946 181.008L110.338 171.731L107.849 172.719Z" fill="#FCC6AE"/>
<path d="M107.849 172.719L111.922 182.838L114.658 181.707C115.48 181.357 115.789 180.37 115.316 179.63L110.318 171.731L107.849 172.719Z" fill="#FCC6AE"/>
<path d="M112.991 175.866L115.541 180.452C115.994 179.835 114.163 173.192 113.546 172.739L108.733 169.243C108.116 168.79 107.252 168.934 106.8 169.551L105.463 171.032C105.01 171.649 107.417 172.102 108.013 172.554L111.037 176.154C111.654 176.606 112.518 176.462 112.97 175.845L112.991 175.866Z" fill="#FCC6AE"/>
<path d="M108.178 143.141C107.54 142.4 105.051 142.462 101.431 140.241C97.729 149.682 95.4459 156.901 90.2832 157.745C84.3183 158.711 78.6619 151.615 71.4423 143.47C70.4961 145.959 70.6813 151.985 72.3062 156.86C75.6794 166.877 86.4986 171.217 93.2451 170.477C101.329 169.613 106.059 154.022 108.157 143.141H108.178Z" fill="#FCC6AE"/>
<path d="M113.875 180.987C110.975 181.398 111.037 177.964 109.371 174.96C120.869 170.168 124.797 166.568 125.867 162.825C127.142 158.341 127.533 144.951 124.509 134.502C127.122 135.037 130.68 138.348 132.449 141.248C137.262 149.188 138.393 157.292 137.18 164.676C135.863 172.698 126.052 179.979 113.875 181.008V180.987Z" fill="#FCC6AE"/>
<path d="M124.447 155.544C129.63 155.112 137.632 151.574 140.018 150.134C137.632 145.547 130.535 134.091 127.45 131.972C124.262 129.771 117.351 129.853 114.78 130.08C117.063 138.842 124.426 155.544 124.426 155.544H124.447Z" fill="#AC85BC"/>
<path d="M115.932 137.032C115.603 136.497 114.904 136.291 114.04 136.374C114.945 135.345 115.295 134.255 114.842 133.535C114.431 132.898 113.485 132.733 112.374 132.98C113.156 132.034 113.464 131.067 113.053 130.429C112.641 129.792 111.633 129.689 110.441 130.018C113.382 127.241 117.537 122.716 115.418 120.618C114.637 119.857 107.89 127.118 105.072 129.73C103.961 130.532 102.912 130.635 102.316 128.722C101.349 126.295 100.259 125.184 98.9221 124.835C98.017 124.608 99.0043 131.705 99.5391 135.736C99.5186 136.456 99.6008 137.217 99.8271 138.04C100.732 141.434 103.056 143.82 105.936 144.107C107.437 144.272 109.865 143.573 113.711 140.796H113.752C115.542 139.685 116.529 137.999 115.932 137.011V137.032Z" fill="#FCC6AE"/>
<path d="M71.5248 167.7C78.5592 169.263 88.2265 161.776 89.0081 157.827C86.3959 152.808 81.5623 143.902 70.8666 142.256C67.5756 149.167 71.5453 167.72 71.5453 167.72L71.5248 167.7Z" fill="#AC85BC"/>
</g>
<path d="M147.319 16C144.44 16 143 17.8717 143 21.6358V49.2595C143 53.003 144.44 54.8953 147.319 54.8953H185.742C188.621 54.8953 190.061 53.0236 190.061 49.2595V21.6358C190.061 17.8923 188.621 16 185.742 16H147.319Z" fill="#EC4893"/>
<path d="M176.178 40.4562H164.968L156.515 71.5354L176.178 40.4562Z" fill="#EC4893"/>
<path d="M164.248 45.0018C164.824 44.4259 165.502 44.1585 166.305 44.1585C167.107 44.1585 167.806 44.4465 168.361 45.0018C168.937 45.5777 169.205 46.2565 169.205 47.0587C169.205 47.8609 168.917 48.5396 168.361 49.1155C167.785 49.6915 167.107 49.9589 166.305 49.9589C165.502 49.9589 164.824 49.6709 164.248 49.1155C163.672 48.5602 163.384 47.8609 163.384 47.0587C163.384 46.2565 163.672 45.5572 164.248 45.0018ZM167.868 41.6697L164.782 41.8959C163.733 35.2317 163.343 28.6292 163.61 22.0883C163.836 21.7592 164.042 21.5124 164.207 21.3479C165.729 19.9903 167.415 19.9903 169.246 21.3479C169.287 21.4096 169.308 21.4918 169.349 21.5535C170.007 28.9788 169.513 35.6842 167.868 41.6903V41.6697Z" fill="#FFCF10"/>
<defs>
<filter id="filter0_d_109_33" x="0.458008" y="8" width="213.693" height="213.693" filterUnits="userSpaceOnUse" color-interpolation-filters="sRGB">
<feFlood flood-opacity="0" result="BackgroundImageFix"/>
<feColorMatrix in="SourceAlpha" type="matrix" values="0 0 0 0 0 0 0 0 0 0 0 0 0 0 0 0 0 0 127 0" result="hardAlpha"/>
<feOffset dy="14"/>
<feGaussianBlur stdDeviation="12"/>
<feComposite in2="hardAlpha" operator="out"/>
<feColorMatrix type="matrix" values="0 0 0 0 0 0 0 0 0 0 0 0 0 0 0 0 0 0 0.06 0"/>
<feBlend mode="normal" in2="BackgroundImageFix" result="effect1_dropShadow_109_33"/>
<feBlend mode="normal" in="SourceGraphic" in2="effect1_dropShadow_109_33" result="shape"/>
</filter>
</defs>
</svg>
