<svg width="215" height="222" viewBox="0 0 215 222" fill="none" xmlns="http://www.w3.org/2000/svg">
<g filter="url(#filter0_d_109_32)">
<rect x="24.458" y="18" width="165.693" height="165.693" rx="82.8464" fill="white"/>
</g>
<mask id="mask0_109_32" style="mask-type:alpha" maskUnits="userSpaceOnUse" x="24" y="18" width="167" height="166">
<rect x="24.458" y="18" width="165.693" height="165.693" rx="82.8464" fill="white"/>
</mask>
<g mask="url(#mask0_109_32)">
<path d="M56.039 145.763L57.9473 144.661L10.9763 63.3054L9.06809 64.4071L56.039 145.763Z" fill="#C8CFD3"/>
<path d="M136.369 131.873C135.801 131.328 134.1 131.284 133.358 131.568L114.77 139.182C114.203 139.422 109.665 143.174 108.814 144.352C108.291 145.072 107.418 148.934 108.225 149.305L119.548 147.298C119.919 147.472 120.355 147.472 120.726 147.298L137.22 139.487C137.83 139.16 138.878 137.96 138.812 137.262C138.638 135.189 138.965 134.448 136.325 131.895" fill="#404040"/>
<path d="M139.904 138.048L143.481 135.866C145.249 134.775 145.816 132.463 144.725 130.696L143.721 129.037C142.631 127.27 140.318 126.703 138.551 127.794L134.995 129.976L139.925 138.048H139.904Z" fill="#F1B38A"/>
<path d="M139.904 138.048L143.481 135.866C145.249 134.775 145.816 132.463 144.725 130.696L143.721 129.037C142.631 127.27 140.318 126.703 138.551 127.794L134.995 129.976L139.925 138.048H139.904Z" fill="#F1B38A"/>
<path d="M136.959 128.775L141.868 136.847L139.032 138.004L134.974 129.975L136.959 128.775Z" fill="#F1B38A"/>
<path d="M136.958 128.775L141.889 136.847L139.685 138.156C139.031 138.549 138.18 138.244 137.896 137.546L134.995 129.975L136.98 128.775H136.958Z" fill="#F1B38A"/>
<path d="M136.479 133.968L138.355 138.113C137.701 138.113 134.014 133.4 134.035 132.724L134.101 127.575C134.101 126.921 134.646 126.376 135.323 126.397L137.046 126.245C137.701 126.245 136.784 128.143 136.763 128.819L137.701 132.79C137.701 133.444 137.155 133.989 136.479 133.968Z" fill="#F1B38A"/>
<path d="M71.4432 138.047C71.4432 138.047 61.3858 145.749 52.441 138.767C52.441 138.767 49.5394 139.705 49.1467 141.56C49.1467 141.56 54.2518 160.322 74.6938 149.108L75.9592 137.393L71.4432 138.047Z" fill="#404040"/>
<path d="M118.808 140.055C118.655 138.767 118.546 138.048 118.546 138.048L94.9844 134.579L71.4226 138.048C71.4226 138.048 71.3135 138.767 71.1608 140.055C70.419 146.338 66.4266 166.278 69.3064 184.255C69.3064 184.255 75.3059 185.302 93.479 185.346H96.3588C114.619 185.302 120.052 184.255 120.052 184.255C122.931 166.278 119.484 146.338 118.764 140.055H118.808Z" fill="#404040"/>
<path d="M48.3182 142.52L46.4202 139.116C45.4821 137.437 46.093 135.299 47.7728 134.36L49.3436 133.488C51.0453 132.55 53.1615 133.161 54.0996 134.84L55.9977 138.244L48.2964 142.52H48.3182Z" fill="#F1B38A"/>
<path d="M48.3182 142.52L46.4202 139.116C45.4821 137.437 46.093 135.299 47.7728 134.36L49.3436 133.488C51.0453 132.55 53.1615 133.161 54.0996 134.84L55.9977 138.244L48.2964 142.52H48.3182Z" fill="#F1B38A"/>
<path d="M54.9502 136.346L47.2708 140.622L49.0379 142.869L55.9974 138.222L54.9502 136.346Z" fill="#F1B38A"/>
<path d="M54.9505 136.346L47.2493 140.622L48.4492 142.694C48.7982 143.305 49.6273 143.458 50.1727 143.022L55.9977 138.222L54.9505 136.346Z" fill="#F1B38A"/>
<path d="M52.965 140.774L49.5398 143.283C50.0852 143.589 55.2121 141.451 55.5175 140.905L57.8301 136.695C58.1355 136.149 57.9391 135.473 57.3937 135.189L56.3465 134.622C55.8011 134.317 55.1248 134.513 54.8412 135.058L52.5287 139.269C52.2232 139.814 52.4196 140.491 52.965 140.774Z" fill="#F1B38A"/>
<path d="M79.8421 136.607H78.2495C77.4181 136.607 76.7441 137.281 76.7441 138.113V184.495C76.7441 185.326 77.4181 186 78.2495 186H79.8421C80.6735 186 81.3474 185.326 81.3474 184.495V138.113C81.3474 137.281 80.6735 136.607 79.8421 136.607Z" fill="black"/>
<path d="M111.738 136.607H110.145C109.314 136.607 108.64 137.281 108.64 138.113V184.495C108.64 185.326 109.314 186 110.145 186H111.738C112.569 186 113.243 185.326 113.243 184.495V138.113C113.243 137.281 112.569 136.607 111.738 136.607Z" fill="black"/>
<path d="M85.8211 122.296V131.001C85.8211 139.247 89.9226 145.945 94.9841 145.945C100.045 145.945 104.147 139.247 104.147 131.001V122.296H85.7993H85.8211Z" fill="#F1B38A"/>
<path d="M84.598 145.814L84.6853 152.861L95.0045 145.683L84.5107 138.767L84.598 145.814Z" fill="white"/>
<path d="M105.477 152.621L105.39 145.574L105.302 138.527L95.0049 145.683L105.477 152.621Z" fill="white"/>
<path d="M136.173 102.966C136.173 106.261 133.489 108.944 130.195 108.944C126.901 108.944 124.217 106.261 124.217 102.966C124.217 99.6721 126.901 96.9886 130.195 96.9886C133.489 96.9886 136.173 99.6721 136.173 102.966Z" fill="#F4AA92"/>
<path d="M65.7718 102.966C65.7718 106.261 63.0884 108.944 59.7941 108.944C56.4998 108.944 53.8164 106.261 53.8164 102.966C53.8164 99.6721 56.4998 96.9886 59.7941 96.9886C63.0884 96.9886 65.7718 99.6721 65.7718 102.966Z" fill="#F4AA92"/>
<path d="M131.46 75.0195V98.5377C131.46 118.194 115.534 134.12 95.8994 134.12C76.2645 134.12 60.3167 118.194 60.3167 98.5377V75.0195C60.3167 71.8125 60.8839 68.5182 61.9529 65.3548C62.3892 64.0895 62.891 62.8459 63.4582 61.6678H128.319C128.886 62.8678 129.41 64.1113 129.824 65.3548C130.893 68.5182 131.46 71.8125 131.46 75.0195Z" fill="#F5BFA0"/>
<path d="M129.824 65.3548C129.366 64.024 128.821 62.6932 128.188 61.406C127.555 60.097 126.835 58.8317 126.006 57.6099C125.374 56.6064 124.654 55.6465 123.89 54.7302C122.516 53.0503 121.032 51.5668 119.44 50.345C118.153 49.2979 116.822 48.4252 115.404 47.6616C112.153 45.9381 108.641 45.0218 105.063 45H100.067H96.6851H86.6931C83.1152 45.0218 79.5809 45.9381 76.3303 47.6834C74.934 48.4252 73.5814 49.3197 72.2942 50.3669C70.7235 51.6322 69.2399 53.0939 67.8437 54.752C67.0801 55.6683 66.3602 56.6282 65.7275 57.6318C64.8984 58.8535 64.1785 60.1188 63.5458 61.4278C62.935 62.715 62.3895 64.024 61.9314 65.3766C60.8624 68.54 60.2952 71.8343 60.2952 75.0413V79.2519C60.2952 80.7354 61.5169 81.9353 63.0004 81.9353L96.6851 81.8917H100.067L128.755 81.9353C130.239 81.9353 131.439 80.7354 131.439 79.2519V75.0413C131.439 71.8343 130.872 68.54 129.824 65.3766" fill="#D1962C"/>
<path d="M129.825 65.3548C129.367 64.024 128.822 62.6932 128.189 61.406C127.556 60.097 126.836 58.8317 126.007 57.6099C125.375 56.6064 124.655 55.6465 123.891 54.7302C122.517 53.0503 121.033 51.5668 119.44 50.345C118.153 49.2979 116.823 48.4252 115.404 47.6616C112.154 45.9381 108.641 45.0218 105.063 45H100.067H96.6859H95.5732H95.9659H100.962C104.54 45.0218 108.052 45.9381 111.325 47.6616C112.721 48.4034 114.074 49.2979 115.361 50.345C116.932 51.5886 118.437 53.0721 119.811 54.7302C120.575 55.6465 121.295 56.6064 121.928 57.6099C122.757 58.8317 123.477 60.097 124.109 61.406C124.72 62.6932 125.265 64.0022 125.745 65.3548C126.814 68.5182 127.382 71.8125 127.382 75.0195V79.2301C127.382 80.6918 126.182 81.8699 124.72 81.8917H128.756C130.24 81.8917 131.44 80.6918 131.44 79.2301V75.0195C131.44 71.8125 130.872 68.5182 129.825 65.3548Z" fill="#AE772B"/>
<path d="M127.359 79.2519V75.0195C127.359 71.8125 126.792 68.5182 125.744 65.3548C125.286 64.024 124.741 62.6932 124.108 61.406C123.475 60.097 122.755 58.8317 121.926 57.6099C121.294 56.6064 120.574 55.6465 119.81 54.7302C118.436 53.0503 116.952 51.5668 115.36 50.345C114.073 49.2979 112.742 48.4252 111.324 47.6616C108.051 45.9381 99.3027 45.0218 95.7248 45H95.9866H95.5939H92.8232H96.3139C99.8918 45 98.1465 45.9163 101.419 47.6616C102.815 48.4034 104.168 49.2979 105.455 50.345C107.026 51.5886 108.531 53.0721 109.906 54.7302C110.669 55.6465 111.389 56.6064 112.022 57.6099C112.851 58.8317 113.571 60.097 114.203 61.406C114.836 62.6932 115.36 64.0022 115.84 65.3548C116.909 68.5182 117.476 71.8125 117.476 75.0195V79.2519C117.476 80.7136 121.556 81.8699 120.116 81.9135H124.741C126.202 81.9135 127.381 80.7136 127.381 79.2519" fill="#BF862B"/>
<path d="M60.3821 77.3103V84.0734C60.4039 100.109 76.3518 113.089 95.9866 113.089C115.621 113.089 131.547 100.065 131.526 84.0298V77.3757C131.526 77.3757 121.665 77.463 107.637 62.6932C107.091 62.126 106.306 61.6678 105.128 61.6678C103.95 61.6678 102.706 62.0824 102.03 63.3041C101.353 64.5258 88.6999 77.3103 60.3821 77.3103Z" fill="#F5BFA0"/>
<path d="M64.8113 89.7675C64.9858 90.3129 65.0731 90.9019 65.0731 91.5128L64.8113 89.7675Z" fill="#F5AB93"/>
<path opacity="0.1" d="M94.8308 96.4433C94.4817 101.265 90.1838 104.864 85.2315 104.515C80.2792 104.166 76.5267 99.9776 76.8758 95.1561" stroke="#211F1F" stroke-width="1.52715" stroke-linecap="round" stroke-linejoin="round"/>
<path opacity="0.1" d="M112.219 96.4433C111.87 101.265 107.572 104.864 102.62 104.515C97.6673 104.166 93.9149 99.9776 94.264 95.1561" stroke="#211F1F" stroke-width="1.52715" stroke-linecap="round" stroke-linejoin="round"/>
<path d="M103.819 85.4479C99.8046 85.4479 96.3794 88.0222 95.1141 91.6219C93.8487 88.0222 90.4453 85.4479 86.4093 85.4479C81.3042 85.4479 77.1809 89.5712 77.1809 94.6763C77.1809 99.7813 81.3042 103.905 86.4093 103.905C90.4235 103.905 93.8487 101.33 95.1141 97.7306C96.3794 101.33 99.7828 103.905 103.819 103.905C108.924 103.905 113.047 99.7813 113.047 94.6763C113.047 89.5712 108.924 85.4479 103.819 85.4479Z" fill="white"/>
<path d="M104.102 101.243C106.994 101.243 109.338 98.8987 109.338 96.007C109.338 93.1152 106.994 90.771 104.102 90.771C101.211 90.771 98.8665 93.1152 98.8665 96.007C98.8665 98.8987 101.211 101.243 104.102 101.243Z" fill="#BC7B5B"/>
<path d="M104.125 97.8612C105.269 97.8612 106.197 96.9333 106.197 95.7886C106.197 94.644 105.269 93.7161 104.125 93.7161C102.98 93.7161 102.052 94.644 102.052 95.7886C102.052 96.9333 102.98 97.8612 104.125 97.8612Z" fill="#211F1F"/>
<path d="M81.7406 96.6615C82.4274 96.6615 82.9841 96.1048 82.9841 95.418C82.9841 94.7312 82.4274 94.1744 81.7406 94.1744C81.0538 94.1744 80.4971 94.7312 80.4971 95.418C80.4971 96.1048 81.0538 96.6615 81.7406 96.6615Z" fill="#FDF9E7"/>
<path d="M109.404 100.414C110.621 100.414 111.607 99.4274 111.607 98.2104C111.607 96.9935 110.621 96.007 109.404 96.007C108.187 96.007 107.2 96.9935 107.2 98.2104C107.2 99.4274 108.187 100.414 109.404 100.414Z" fill="#FDF9E7"/>
<path d="M86.693 101.243C89.5847 101.243 91.929 98.8987 91.929 96.007C91.929 93.1152 89.5847 90.771 86.693 90.771C83.8013 90.771 81.457 93.1152 81.457 96.007C81.457 98.8987 83.8013 101.243 86.693 101.243Z" fill="#BC7B5B"/>
<path d="M86.6273 97.6215C87.7719 97.6215 88.6998 96.6935 88.6998 95.5489C88.6998 94.4042 87.7719 93.4763 86.6273 93.4763C85.4826 93.4763 84.5547 94.4042 84.5547 95.5489C84.5547 96.6935 85.4826 97.6215 86.6273 97.6215Z" fill="#211F1F"/>
<path d="M90.9693 100.458C92.1863 100.458 93.1728 99.4711 93.1728 98.2541C93.1728 97.0372 92.1863 96.0507 90.9693 96.0507C89.7524 96.0507 88.7659 97.0372 88.7659 98.2541C88.7659 99.4711 89.7524 100.458 90.9693 100.458Z" fill="#FDF9E7"/>
<path opacity="0.5" d="M99.3684 84.226C100.677 83.0261 102.445 82.328 104.364 82.4153C106.044 82.4807 107.571 83.157 108.728 84.226" stroke="#4C3A2E" stroke-width="2.07257" stroke-linecap="round" stroke-linejoin="round"/>
<path opacity="0.5" d="M80.8901 84.226C82.1991 83.0261 83.9663 82.328 85.8861 82.4153C87.566 82.4807 89.0931 83.157 90.2494 84.226" stroke="#4C3A2E" stroke-width="2.07257" stroke-linecap="round" stroke-linejoin="round"/>
<path opacity="0.1" d="M98.3649 112.042H93.958" stroke="#211F1F" stroke-width="1.41807" stroke-linecap="round" stroke-linejoin="round"/>
<path d="M73.8871 113.504C76.0077 113.504 77.7268 111.785 77.7268 109.664C77.7268 107.543 76.0077 105.824 73.8871 105.824C71.7665 105.824 70.0474 107.543 70.0474 109.664C70.0474 111.785 71.7665 113.504 73.8871 113.504Z" fill="#EFA08B"/>
<path d="M115.207 113.504C117.328 113.504 119.047 111.785 119.047 109.664C119.047 107.543 117.328 105.824 115.207 105.824C113.087 105.824 111.367 107.543 111.367 109.664C111.367 111.785 113.087 113.504 115.207 113.504Z" fill="#EFA08B"/>
<path d="M100.852 117.518C100.94 119.896 98.8015 121.903 96.0745 122.012C93.3474 122.121 91.0785 120.267 90.9912 117.889" stroke="#211F1F" stroke-width="1.17809" stroke-linecap="round" stroke-linejoin="round"/>
</g>
<path fill-rule="evenodd" clip-rule="evenodd" d="M179.537 113.695C179.537 115.9 177.757 117.68 175.552 117.68C173.347 117.68 171.567 115.9 171.567 113.695C171.567 111.491 173.347 109.71 175.552 109.71C177.757 109.71 179.537 111.491 179.537 113.695Z" fill="#F57E25"/>
<path fill-rule="evenodd" clip-rule="evenodd" d="M178.329 114.034C178.329 114.373 178.604 114.628 178.922 114.628C179.24 114.628 179.516 114.352 179.516 114.034V99.1111C179.516 98.7719 179.24 98.5176 178.922 98.5176C178.604 98.5176 178.329 98.7931 178.329 99.1111V114.034Z" fill="#F57E25"/>
<path fill-rule="evenodd" clip-rule="evenodd" d="M151.578 101.718C151.578 103.923 149.797 105.704 147.593 105.704C145.388 105.704 143.607 103.923 143.607 101.718C143.607 99.5139 145.388 97.7333 147.593 97.7333C149.797 97.7333 151.578 99.5139 151.578 101.718Z" fill="#F57E25"/>
<path fill-rule="evenodd" clip-rule="evenodd" d="M150.369 102.036C150.369 102.375 150.645 102.63 150.963 102.63C151.281 102.63 151.556 102.354 151.556 102.036V87.1344C151.556 86.7952 151.281 86.5197 150.963 86.5197C150.645 86.5197 150.369 86.7952 150.369 87.1344V102.036Z" fill="#F57E25"/>
<path fill-rule="evenodd" clip-rule="evenodd" d="M164.507 96.0375C164.507 98.2421 162.727 100.023 160.522 100.023C158.318 100.023 156.537 98.2421 156.537 96.0375C156.537 93.833 158.318 92.0524 160.522 92.0524C162.727 92.0524 164.507 93.833 164.507 96.0375Z" fill="#F57E25"/>
<path fill-rule="evenodd" clip-rule="evenodd" d="M163.3 96.3555C163.3 96.6947 163.575 96.949 163.893 96.949C164.211 96.949 164.487 96.6735 164.487 96.3555V81.4324C164.487 81.0932 164.211 80.8389 163.893 80.8389C163.575 80.8389 163.3 81.1144 163.3 81.4324V96.3555Z" fill="#F57E25"/>
<path d="M151.514 85.3538V88.6394L163.384 83.4672V80.2027L151.514 85.3326V85.3538ZM150.941 90.0596C150.835 90.0596 150.73 90.0384 150.624 89.9748C150.454 89.8688 150.369 89.6993 150.369 89.5085V84.9934C150.369 84.7602 150.496 84.5694 150.708 84.4635L163.702 78.8249C163.872 78.7401 164.084 78.7613 164.232 78.8673C164.402 78.9733 164.487 79.1429 164.487 79.3336V83.8275C164.487 84.0607 164.36 84.2515 164.148 84.3575L151.153 90.0172C151.153 90.0172 151.005 90.0596 150.92 90.0596H150.941Z" fill="#F57E25"/>
<path d="M167.136 157.659H164.699V185.576H167.136V157.659Z" fill="#F57E25"/>
<path d="M166.521 155.921L186.977 154.14L197.194 125.015L174.491 129.339L152.7 128.915L144.793 157.828L166.521 155.921Z" fill="#FFE100"/>
<path d="M173.558 129.36L175.423 129.19L166.796 155.899L164.931 156.069L173.558 129.36Z" fill="#F57E25"/>
<path d="M144.476 160.414L187.252 156.662V154.119L144.476 157.849V160.414Z" fill="#F57E25"/>
<path d="M186.977 154.14C185.98 152.211 184.92 150.303 183.882 148.374C182.843 146.445 181.783 144.559 180.745 142.651L177.544 136.97L174.3 131.31L174.004 130.78L173.516 131.225C168.662 135.571 163.829 139.959 159.038 144.389C156.643 146.615 154.248 148.819 151.873 151.066C149.499 153.313 147.146 155.56 144.793 157.828C147.295 155.73 149.775 153.61 152.234 151.49C154.693 149.349 157.152 147.208 159.589 145.046C164.465 140.722 169.34 136.376 174.152 131.967L173.368 131.883L176.696 137.5L180.066 143.075C181.211 144.919 182.334 146.784 183.479 148.629C184.645 150.473 185.768 152.317 186.955 154.14H186.977Z" fill="#F57E25"/>
<defs>
<filter id="filter0_d_109_32" x="0.458008" y="8" width="213.693" height="213.693" filterUnits="userSpaceOnUse" color-interpolation-filters="sRGB">
<feFlood flood-opacity="0" result="BackgroundImageFix"/>
<feColorMatrix in="SourceAlpha" type="matrix" values="0 0 0 0 0 0 0 0 0 0 0 0 0 0 0 0 0 0 127 0" result="hardAlpha"/>
<feOffset dy="14"/>
<feGaussianBlur stdDeviation="12"/>
<feComposite in2="hardAlpha" operator="out"/>
<feColorMatrix type="matrix" values="0 0 0 0 0 0 0 0 0 0 0 0 0 0 0 0 0 0 0.06 0"/>
<feBlend mode="normal" in2="BackgroundImageFix" result="effect1_dropShadow_109_32"/>
<feBlend mode="normal" in="SourceGraphic" in2="effect1_dropShadow_109_32" result="shape"/>
</filter>
</defs>
</svg>
