<svg width="215" height="222" viewBox="0 0 215 222" fill="none" xmlns="http://www.w3.org/2000/svg">
<g filter="url(#filter0_d_109_31)">
<rect x="24.458" y="18" width="165.693" height="165.693" rx="82.8464" fill="white"/>
</g>
<mask id="mask0_109_31" style="mask-type:alpha" maskUnits="userSpaceOnUse" x="24" y="18" width="167" height="166">
<rect x="24.458" y="18" width="165.693" height="165.693" rx="82.8464" fill="white"/>
</mask>
<g mask="url(#mask0_109_31)">
<path d="M136.01 150.114L135.41 149.174C135.41 149.174 124.558 145.557 117.063 133.645L112.626 139.021C112.626 139.021 120.361 150.873 132.312 155.13L135.99 150.114H136.01Z" fill="#F8CAC7"/>
<path d="M111.327 138.302L108.969 135.764C107.81 134.504 107.89 132.526 109.149 131.367L110.328 130.287C111.587 129.128 113.566 129.208 114.725 130.467L117.063 133.005L111.307 138.322L111.327 138.302Z" fill="#F8CAC7"/>
<path d="M111.327 138.302L108.969 135.764C107.81 134.504 107.89 132.526 109.149 131.367L110.328 130.287C111.587 129.128 113.566 129.208 114.725 130.467L117.063 133.005L111.307 138.322L111.327 138.302Z" fill="#F8CAC7"/>
<path d="M115.784 131.566L110.008 136.883L112.027 138.441L117.083 132.985L115.784 131.566Z" fill="#F8CAC7"/>
<path d="M115.784 131.566L110.008 136.883L111.467 138.441C111.907 138.901 112.646 138.861 113.026 138.362L117.063 133.005L115.764 131.586L115.784 131.566Z" fill="#F8CAC7"/>
<path d="M114.984 135.823L112.546 138.701C113.066 138.841 117.083 135.923 117.223 135.404L118.342 131.287C118.482 130.767 118.182 130.207 117.642 130.067L116.303 129.548C115.784 129.408 116.083 131.127 115.944 131.646L114.285 134.604C114.145 135.124 114.445 135.684 114.984 135.823Z" fill="#F8CAC7"/>
<path d="M136.75 145.917L129.635 144.078C129.096 143.938 128.556 144.278 128.456 144.817L125.498 156.829L131.054 164.963L140.868 157.289L137.45 146.956L136.73 145.937L136.75 145.917Z" fill="#69BE5A"/>
<path d="M119.342 100.188C122 88.2764 131.094 81.5411 141.666 80.1021C150.96 78.843 161.633 79.6224 169.267 86.3178C173.025 89.6155 175.583 94.1923 176.862 99.2887C177.022 99.9283 177.102 100.588 177.102 101.227C177.142 104.445 176.942 114.418 173.264 119.495L147.522 139.161L125.038 126.51C120.601 120.394 119.342 100.208 119.342 100.208V100.188Z" fill="#A57139"/>
<path d="M165.869 84.4993C165.869 84.4993 168.567 81.2016 171.245 81.5414C171.245 81.5414 166.069 78.6034 162.711 81.0817C162.711 81.0817 161.971 76.6648 159.014 77.0245C159.014 77.0245 159.853 82.1809 157.674 83.0803C155.496 83.9996 165.869 84.4793 165.869 84.4793V84.4993Z" fill="#A57139"/>
<path d="M139.827 134.984L139.727 142.978C139.307 150.573 136.13 163.024 140.467 163.264C144.804 163.504 154.657 151.473 155.076 143.858L155.516 135.843L139.827 134.984Z" fill="#F6BCB9"/>
<path d="M131.833 159.707L123.459 185.869C123.459 185.869 147.082 200.119 175.622 189.606L171.745 172.398C171.745 172.398 161.612 166.862 169.547 152.971L155.077 143.818L142.785 155.29C142.146 155.909 139.088 154.55 139.128 153.711L139.647 144.497C139.548 144.497 139.767 144.497 139.647 144.497C139.488 144.497 139.228 144.497 139.068 144.477L135.91 145.896C135.91 145.896 135.79 145.896 135.73 145.896" fill="#69BE5A"/>
<path d="M174.883 115.877C174.943 134.445 159.254 142.139 146.203 141.14C133.152 140.141 126.476 127.33 127.636 112.24C128.795 97.1505 140.307 85.7385 153.358 86.7378C166.409 87.7371 174.823 100.748 174.883 115.858V115.877Z" fill="#A57139"/>
<path d="M120.361 107.243L119.901 113.319C118.802 127.709 129.874 140.28 144.604 141.42C159.354 142.539 172.185 131.786 173.284 117.396L173.744 111.421C173.744 111.421 163.95 110.741 154.437 96.6708C154.077 96.1312 153.498 95.6715 152.618 95.6116C151.739 95.5516 135.71 89.276 135.131 90.3552C134.551 91.4145 121.52 89.316 120.341 107.263" fill="#F8CAC7"/>
<path d="M123.979 109.282C124.098 109.702 124.178 110.121 124.178 110.581L123.979 109.282Z" fill="#F5AA92"/>
<path d="M127.416 115.558C127.416 118.116 129.495 120.194 132.053 120.194C134.611 120.194 136.69 118.116 136.69 115.558C136.69 112.999 134.611 110.921 132.053 110.921C129.495 110.921 127.416 112.999 127.416 115.558Z" fill="#EDC9A5"/>
<path d="M179 113.739C179 116.177 177.021 118.156 174.583 118.156C172.145 118.156 170.166 116.177 170.166 113.739C170.166 111.301 172.145 109.322 174.583 109.322C177.021 109.322 179 111.301 179 113.739Z" fill="#F6BCB9"/>
<path opacity="0.1" d="M139.088 113.959C138.809 117.796 135.391 120.674 131.434 120.394C127.477 120.114 124.499 116.777 124.778 112.939" stroke="#211F1F" stroke-width="1.21915" stroke-linecap="round" stroke-linejoin="round"/>
<path opacity="0.1" d="M152.938 113.959C152.658 117.796 149.24 120.674 145.283 120.394C141.326 120.114 138.348 116.777 138.628 112.939" stroke="#211F1F" stroke-width="1.21915" stroke-linecap="round" stroke-linejoin="round"/>
<path d="M146.243 105.205C143.045 105.205 140.307 107.263 139.308 110.121C138.308 107.263 135.59 105.205 132.372 105.205C128.315 105.205 125.018 108.503 125.018 112.56C125.018 116.617 128.315 119.915 132.372 119.915C135.57 119.915 138.308 117.856 139.308 114.998C140.307 117.856 143.025 119.915 146.243 119.915C150.3 119.915 153.598 116.617 153.598 112.56C153.598 108.503 150.3 105.205 146.243 105.205Z" fill="white"/>
<path d="M150.64 113.619C150.64 115.917 148.782 117.796 146.463 117.796C144.145 117.796 142.286 115.937 142.286 113.619C142.286 111.301 144.145 109.442 146.463 109.442C148.782 109.442 150.64 111.301 150.64 113.619Z" fill="#87871D"/>
<path d="M146.163 113.259C146.163 114.179 145.423 114.918 144.504 114.918C143.584 114.918 142.845 114.179 142.845 113.259C142.845 112.34 143.584 111.6 144.504 111.6C145.423 111.6 146.163 112.34 146.163 113.259Z" fill="#211F1F"/>
<path d="M128.656 114.139C129.196 114.139 129.635 113.7 129.635 113.159C129.635 112.619 129.196 112.18 128.656 112.18C128.115 112.18 127.676 112.619 127.676 113.159C127.676 113.7 128.115 114.139 128.656 114.139Z" fill="#FCF9E7"/>
<path d="M150.32 117.136C151.291 117.136 152.079 116.349 152.079 115.378C152.079 114.406 151.291 113.619 150.32 113.619C149.348 113.619 148.561 114.406 148.561 115.378C148.561 116.349 149.348 117.136 150.32 117.136Z" fill="#FCF9E7"/>
<path d="M136.769 113.619C136.769 115.917 134.911 117.796 132.592 117.796C130.274 117.796 128.415 115.937 128.415 113.619C128.415 111.301 130.274 109.442 132.592 109.442C134.911 109.442 136.769 111.301 136.769 113.619Z" fill="#87871D"/>
<path d="M132.212 113.059C132.212 113.979 131.472 114.718 130.553 114.718C129.634 114.718 128.894 113.979 128.894 113.059C128.894 112.14 129.634 111.401 130.553 111.401C131.472 111.401 132.212 112.14 132.212 113.059Z" fill="#211F1F"/>
<path d="M136.489 117.136C137.461 117.136 138.248 116.349 138.248 115.378C138.248 114.406 137.461 113.619 136.489 113.619C135.518 113.619 134.731 114.406 134.731 115.378C134.731 116.349 135.518 117.136 136.489 117.136Z" fill="#FCF9E7"/>
<path opacity="0.1" d="M137.349 126.35H140.467" stroke="#211F1F" stroke-width="1.09923" stroke-linecap="round" stroke-linejoin="round"/>
<path opacity="0.5" d="M155.416 127.569C157.104 127.569 158.473 126.2 158.473 124.511C158.473 122.823 157.104 121.454 155.416 121.454C153.727 121.454 152.358 122.823 152.358 124.511C152.358 126.2 153.727 127.569 155.416 127.569Z" fill="#F3A1A3"/>
<path opacity="0.5" d="M130.134 124.511C130.134 126.21 128.755 127.569 127.076 127.569C125.397 127.569 124.018 126.19 124.018 124.511C124.018 122.833 125.397 121.454 127.076 121.454C128.755 121.454 130.134 122.833 130.134 124.511Z" fill="#F3A1A3"/>
<path d="M136.35 117.136C137.321 117.136 138.109 116.349 138.109 115.378C138.109 114.406 137.321 113.619 136.35 113.619C135.379 113.619 134.591 114.406 134.591 115.378C134.591 116.349 135.379 117.136 136.35 117.136Z" fill="#FCF9E7"/>
<path d="M136.449 129.948C136.449 129.948 136.449 130.008 136.449 130.028C136.449 132.086 138.128 133.765 140.187 133.765C142.245 133.765 143.924 132.086 143.924 130.028C143.924 130.008 143.924 129.968 143.924 129.948H136.449Z" fill="white" stroke="#4C3A2E" stroke-width="0.579596" stroke-linecap="round" stroke-linejoin="round"/>
<path opacity="0.5" d="M141.907 104.345C142.926 103.406 144.305 102.866 145.784 102.926C147.103 102.986 148.282 103.506 149.182 104.325" stroke="#4C3A2E" stroke-width="1.59889" stroke-linecap="round" stroke-linejoin="round"/>
<path opacity="0.5" d="M127.556 104.345C128.575 103.406 129.954 102.866 131.433 102.926C132.752 102.986 133.931 103.506 134.831 104.325" stroke="#4C3A2E" stroke-width="1.59889" stroke-linecap="round" stroke-linejoin="round"/>
<path d="M163.93 103.886C163.93 103.886 169.027 114.339 165.309 123.412C163.59 127.629 166.428 129.328 169.706 125.131C171.145 123.292 173.024 120.594 173.224 117.976C173.683 112.04 175.482 104.985 174.483 101.727C173.863 99.7488 168.667 100.868 166.908 101.987L163.93 103.886Z" fill="#A57139"/>
<path d="M167.408 165.463L166.949 166.282C166.949 166.282 174.323 176.615 159.254 183.13C159.254 183.13 164.23 187.407 164.31 187.587C164.37 187.767 181.758 179.753 174.503 166.882L167.408 165.483V165.463Z" fill="#F8CAC7"/>
<path d="M164.53 188.447L161.932 190.725C160.633 191.865 158.674 191.725 157.535 190.446L156.475 189.246C155.336 187.947 155.476 185.989 156.755 184.849L159.353 182.571L164.53 188.467V188.447Z" fill="#F8CAC7"/>
<path d="M164.53 188.447L161.932 190.725C160.633 191.865 158.674 191.725 157.535 190.446L156.475 189.246C155.336 187.947 155.476 185.989 156.755 184.849L159.353 182.571L164.53 188.467V188.447Z" fill="#F8CAC7"/>
<path d="M157.915 183.81L163.091 189.706L164.71 187.747L159.354 182.551L157.915 183.81Z" fill="#F8CAC7"/>
<path d="M157.915 183.81L163.091 189.706L164.67 188.287C165.15 187.867 165.11 187.108 164.63 186.728L159.374 182.551L157.935 183.81H157.915Z" fill="#F8CAC7"/>
<path d="M162.152 184.73L164.97 187.228C165.13 186.708 162.312 182.631 161.792 182.471L157.695 181.252C157.175 181.092 156.616 181.392 156.456 181.912L155.896 183.251C155.736 183.77 157.475 183.51 157.995 183.67L160.913 185.389C161.432 185.549 161.992 185.249 162.152 184.73Z" fill="#F8CAC7"/>
<path d="M171.625 153.951L177.801 172.258C177.961 172.758 177.661 173.257 177.061 173.457L167.848 176.715C166.968 177.015 165.929 176.595 165.789 175.856L164.05 166.422C164.05 166.422 162.371 153.911 170.046 153.091C170.766 153.011 171.445 153.391 171.625 153.931V153.951Z" fill="#69BE5A"/>
<path d="M165.909 111.78C165.31 110.481 164.53 108.822 163.531 106.704C163.311 106.244 162.852 105.924 162.332 105.904C160.313 105.784 154.817 104.885 148.981 98.9293C148.302 98.2497 147.163 98.4096 146.723 99.249C145.444 101.707 142.566 105.984 137.03 108.383C135.95 108.862 134.791 107.863 135.111 106.724C135.551 105.125 136.01 103.006 136.01 101.048C136.01 99.6488 134.212 99.0892 133.432 100.248C130.594 104.545 119.302 113.619 117.843 109.362C117.643 108.762 118.143 103.006 120.061 97.4903C122.1 91.6144 125.817 85.9983 134.052 86.1382C155.197 86.458 168.887 99.7687 167.948 103.886C167.288 106.704 168.468 108.303 168.568 111.161C168.628 112.68 166.529 113.179 165.889 111.8L165.909 111.78Z" fill="#A57139"/>
<path d="M77.0003 85.8382C90.431 86.8175 97.4861 100.508 98.6453 117.916C98.7652 119.595 99.045 121.274 99.4447 122.912C101.863 132.805 100.924 140.4 93.4489 143.498L95.5274 140.2C93.0092 142.958 89.5516 144.457 85.1147 144.657L87.0733 140.98C85.0347 143.298 81.4772 143.958 76.2808 144.297H60.7117C58.4133 144.257 56.2748 143.778 54.576 143.218L55.3754 145.277C53.077 145.297 51.618 143.998 49.9792 142.199C49.7993 143.138 50.0391 144.178 50.5188 145.277C35.1295 141.399 35.4293 133.365 37.9076 122.013C38.4072 119.755 38.6071 117.476 38.5871 115.178C38.4472 93.5129 52.4175 78.8031 76.9404 85.8582L77.0003 85.8382Z" fill="#414042"/>
<path d="M78.5802 134.984L78.6801 142.978C79.0998 150.573 77.9806 163.024 73.6436 163.264C69.3066 163.504 63.7505 151.473 63.3308 143.858L62.8911 135.843L78.5802 134.984Z" fill="#F3A188"/>
<path d="M81.8375 155.55L82.8368 156.009C82.8368 156.009 87.9532 166.242 100.804 171.958L96.1076 177.115C96.1076 177.115 83.2765 171.139 77.3806 159.907L81.8375 155.55Z" fill="#FBCEB9"/>
<path d="M97.0474 178.334L99.9054 180.293C101.324 181.272 103.263 180.912 104.242 179.493L105.162 178.174C106.141 176.755 105.781 174.816 104.362 173.837L101.504 171.878L97.0673 178.334H97.0474Z" fill="#FBCEB9"/>
<path d="M97.0474 178.334L99.9054 180.293C101.324 181.272 103.263 180.912 104.242 179.493L105.162 178.174C106.141 176.755 105.781 174.816 104.362 173.837L101.504 171.878L97.0673 178.334H97.0474Z" fill="#FBCEB9"/>
<path d="M103.063 172.958L98.6258 179.413L96.7871 177.654L101.484 171.859L103.063 172.958Z" fill="#FBCEB9"/>
<path d="M103.063 172.958L98.6258 179.413L96.887 178.174C96.3673 177.814 96.3074 177.055 96.7471 176.615L101.484 171.859L103.063 172.938V172.958Z" fill="#FBCEB9"/>
<path d="M98.9663 174.357L96.448 177.175C96.2282 176.675 98.5465 172.298 99.0462 172.078L102.963 170.379C103.463 170.16 104.043 170.379 104.263 170.899L104.962 172.158C105.182 172.658 103.423 172.598 102.923 172.818L100.245 174.876C99.7457 175.096 99.1661 174.876 98.9463 174.357H98.9663Z" fill="#FBCEB9"/>
<path d="M82.6969 145.917C83.4563 146.436 85.395 148.115 90.8512 162.005L87.2537 167.881L82.5969 145.917C82.5969 145.917 82.6769 145.917 82.7168 145.917H82.6969Z" fill="#55C0CF"/>
<path d="M86.574 159.707L94.9482 185.869C94.9482 185.869 75.3019 200.119 46.7618 189.606L46.6619 172.398C46.6619 172.398 56.7948 166.862 48.8603 152.971L63.3302 143.818L75.6217 155.29C76.2612 155.909 79.3191 154.55 79.2791 153.711L78.7595 144.497C78.6396 144.497 78.8594 144.497 78.7595 144.497C78.9194 144.497 79.1792 144.497 79.3391 144.477L82.4969 145.896C82.4969 145.896 82.6168 145.896 82.6768 145.896" fill="#55C0CF"/>
<path d="M45.383 169.62L46.3024 169.42C46.3024 169.42 53.937 179.553 64.6696 167.142C64.6696 167.142 67.2478 173.178 67.4077 173.298C67.5476 173.417 56.7151 185.349 47.1418 178.974C45.5429 177.914 44.6835 175.996 44.9033 174.097L45.403 169.62H45.383Z" fill="#FBCEB9"/>
<path d="M68.1467 173.797L71.1047 171.998C72.5836 171.099 73.0433 169.18 72.144 167.721L71.3045 166.342C70.4052 164.863 68.4865 164.404 67.0275 165.303L64.0696 167.102L68.1268 173.797H68.1467Z" fill="#FBCEB9"/>
<path d="M68.1467 173.797L71.1047 171.998C72.5836 171.099 73.0433 169.18 72.144 167.721L71.3045 166.342C70.4052 164.863 68.4865 164.404 67.0275 165.303L64.0696 167.102L68.1268 173.797H68.1467Z" fill="#FBCEB9"/>
<path d="M65.728 166.082L69.8051 172.798L67.4268 173.737L64.0891 167.082L65.728 166.082Z" fill="#FBCEB9"/>
<path d="M65.728 166.082L69.8051 172.778L67.9664 173.857C67.4268 174.177 66.7073 173.937 66.4874 173.337L64.0891 167.062L65.728 166.062V166.082Z" fill="#FBCEB9"/>
<path d="M65.3286 170.399L66.8675 173.837C66.3279 173.837 63.29 169.92 63.29 169.36L63.35 165.083C63.35 164.543 63.8097 164.104 64.3493 164.104L65.7883 163.984C66.3279 163.984 65.5685 165.563 65.5485 166.102L66.3279 169.4C66.3279 169.94 65.8682 170.379 65.3286 170.379V170.399Z" fill="#FBCEB9"/>
<path d="M47.6412 153.132L43.1643 169.44C43.0244 169.94 43.3642 170.42 43.9837 170.599L53.3972 173.258C54.2966 173.517 55.3158 172.998 55.3958 172.258L56.0353 165.103C56.0353 165.103 56.8947 152.512 49.1801 152.192C48.4606 152.172 47.8011 152.592 47.6612 153.132H47.6412Z" fill="#55C0CF"/>
<path d="M63.2512 142.279L77.8211 155.33L77.5613 157.129C77.1815 159.727 74.1037 160.886 72.1051 159.207L57.7151 147.056L63.2512 142.279Z" fill="white"/>
<path d="M77.8198 155.33L79.2588 156.649C80.2182 157.528 81.7571 156.789 81.6771 155.51L81.2175 146.236L78.7592 144.517L77.8198 155.35" fill="white"/>
<path d="M58.5139 83.9996C63.9302 82.7005 68.9267 82.2408 73.5435 82.6405C79.1396 83.1402 83.9362 84.839 87.9334 87.777C92.3903 91.0547 95.6081 95.7114 97.5467 101.747L97.9065 103.406C77.5207 106.304 57.9943 112.72 39.3473 122.673C37.2687 118.795 36.6092 113.799 37.3287 107.683C38.0482 101.447 40.4065 96.2111 44.4038 91.974C48.1212 88.0168 52.8379 85.3587 58.5139 83.9996Z" fill="#414042"/>
<path d="M53.7771 119.455C53.897 120.694 53.5572 121.813 52.7578 122.793C51.9583 123.772 50.939 124.312 49.6799 124.432C48.4408 124.552 47.3216 124.212 46.3423 123.412C45.3629 122.613 44.8233 121.594 44.7034 120.334C44.5835 119.095 44.9232 117.976 45.7227 116.997C46.5221 116.017 47.5414 115.478 48.8005 115.358C50.0397 115.238 51.1589 115.578 52.1382 116.377C53.1175 117.177 53.6572 118.196 53.7771 119.455Z" fill="#F3A188"/>
<path d="M66.8471 93.0934C67.2468 92.3739 67.8064 91.9941 68.486 91.9342C69.4853 91.8342 70.2447 92.2939 70.7644 93.2932C71.9036 95.4917 74.6217 97.1905 78.9387 98.3897C83.2557 99.5689 89.3714 100.009 97.2859 99.7088C98.3651 102.047 98.9447 105.625 99.0247 110.421C99.7442 118.076 97.9854 124.851 93.7483 130.767C89.4713 136.643 83.9752 139.941 77.2399 140.64C70.4846 141.3 64.4688 139.181 59.1924 134.265C53.9161 129.328 50.9182 123.032 50.1987 115.398L49.5991 109.022C51.0981 108.882 52.9168 108.123 55.0953 106.724C59.4722 103.926 63.3895 99.389 66.8471 93.0934Z" fill="#FBCEB9"/>
<path d="M73.4835 109.042C76.7013 109.042 79.4194 111.101 80.4187 113.979C81.418 111.101 84.1561 109.042 87.3538 109.042C91.431 109.042 94.7287 112.34 94.7287 116.417C94.7287 120.494 91.431 123.792 87.3538 123.792C84.1361 123.792 81.418 121.733 80.4187 118.855C79.4194 121.733 76.6813 123.792 73.4835 123.792C69.4063 123.792 66.1086 120.494 66.1086 116.417C66.1086 112.34 69.4063 109.042 73.4835 109.042Z" fill="white"/>
<path d="M75.202 119.715C77.5089 119.715 79.3791 117.845 79.3791 115.538C79.3791 113.231 77.5089 111.36 75.202 111.36C72.895 111.36 71.0249 113.231 71.0249 115.538C71.0249 117.845 72.895 119.715 75.202 119.715Z" fill="#BB7B5A"/>
<path d="M75.9411 118.575C76.8572 118.575 77.5999 117.833 77.5999 116.917C77.5999 116 76.8572 115.258 75.9411 115.258C75.0249 115.258 74.2822 116 74.2822 116.917C74.2822 117.833 75.0249 118.575 75.9411 118.575Z" fill="#211F1F"/>
<path d="M91.1109 117.996C91.6518 117.996 92.0902 117.557 92.0902 117.016C92.0902 116.476 91.6518 116.037 91.1109 116.037C90.57 116.037 90.1316 116.476 90.1316 117.016C90.1316 117.557 90.57 117.996 91.1109 117.996Z" fill="#FDF9E7"/>
<path d="M89.0721 119.715C91.3791 119.715 93.2492 117.845 93.2492 115.538C93.2492 113.231 91.3791 111.36 89.0721 111.36C86.7652 111.36 84.895 113.231 84.895 115.538C84.895 117.845 86.7652 119.715 89.0721 119.715Z" fill="#BB7B5A"/>
<path d="M89.9125 118.376C90.8287 118.376 91.5713 117.633 91.5713 116.717C91.5713 115.801 90.8287 115.058 89.9125 115.058C88.9964 115.058 88.2537 115.801 88.2537 116.717C88.2537 117.633 88.9964 118.376 89.9125 118.376Z" fill="#211F1F"/>
<path opacity="0.5" d="M77.0405 108.063C76.0012 107.104 74.5822 106.544 73.0633 106.624C71.7242 106.684 70.5051 107.223 69.5857 108.063" stroke="#4C3A2E" stroke-width="1.77876" stroke-linecap="round" stroke-linejoin="round"/>
<path opacity="0.5" d="M91.791 108.063C90.7517 107.104 89.3327 106.544 87.8138 106.624C86.4747 106.684 85.2555 107.223 84.3362 108.063" stroke="#4C3A2E" stroke-width="1.77876" stroke-linecap="round" stroke-linejoin="round"/>
<path d="M87.3744 126.07C92.7168 126.07 97.0477 124.164 97.0477 121.813C97.0477 119.462 92.7168 117.556 87.3744 117.556C82.032 117.556 77.7012 119.462 77.7012 121.813C77.7012 124.164 82.032 126.07 87.3744 126.07Z" fill="#FBCEB9"/>
<path d="M73.4626 126.07C78.805 126.07 83.1358 124.164 83.1358 121.813C83.1358 119.462 78.805 117.556 73.4626 117.556C68.1202 117.556 63.7893 119.462 63.7893 121.813C63.7893 124.164 68.1202 126.07 73.4626 126.07Z" fill="#FBCEB9"/>
<path d="M71.7445 115.218C72.8373 115.218 73.7231 114.332 73.7231 113.239C73.7231 112.146 72.8373 111.26 71.7445 111.26C70.6517 111.26 69.7659 112.146 69.7659 113.239C69.7659 114.332 70.6517 115.218 71.7445 115.218Z" fill="#FDF9E7"/>
<path d="M86.4344 115.218C87.5272 115.218 88.4131 114.332 88.4131 113.239C88.4131 112.146 87.5272 111.26 86.4344 111.26C85.3417 111.26 84.4558 112.146 84.4558 113.239C84.4558 114.332 85.3417 115.218 86.4344 115.218Z" fill="#FDF9E7"/>
<mask id="mask1_109_31" style="mask-type:luminance" maskUnits="userSpaceOnUse" x="58" y="122" width="8" height="8">
<path d="M59.6695 122.328L58.7368 128.554L64.9827 129.49L65.9154 123.264L59.6695 122.328Z" fill="white"/>
</mask>
<g mask="url(#mask1_109_31)">
<path d="M59.1928 126.191C59.1128 125.351 59.3527 124.592 59.8923 123.912C60.4519 123.233 61.1514 122.853 62.0108 122.773C62.8702 122.693 63.6497 122.913 64.3292 123.472C65.0087 124.012 65.3685 124.712 65.4684 125.571C65.5483 126.43 65.3285 127.21 64.7689 127.889C64.2093 128.569 63.5098 128.949 62.6504 129.029C61.791 129.109 61.0115 128.889 60.352 128.329C59.6724 127.769 59.2927 127.07 59.2127 126.211" fill="#F29398"/>
</g>
<path d="M85.015 128.369C85.3548 128.329 85.6546 128.289 85.9344 128.249C85.3348 130.527 83.8159 131.746 81.4375 131.926C79.0392 132.046 77.3604 131.007 76.421 128.828C76.2012 128.309 76.0813 127.789 76.0613 127.209L76.3211 127.03C77.86 128.469 80.778 128.908 85.035 128.369" fill="white"/>
<path d="M85.015 128.369C85.3548 128.329 85.6546 128.289 85.9344 128.249C85.3348 130.527 83.8159 131.746 81.4375 131.926C79.0392 132.046 77.3604 131.007 76.421 128.828C76.2012 128.309 76.0813 127.789 76.0613 127.209L76.3211 127.03C77.86 128.469 80.778 128.908 85.035 128.369H85.015Z" fill="white" stroke="#4C3A2E" stroke-width="0.519638" stroke-linecap="round" stroke-linejoin="round"/>
<path opacity="0.1" d="M81.2976 125.191H84.4154" stroke="#211F1F" stroke-width="1.09923" stroke-linecap="round" stroke-linejoin="round"/>
<path d="M60.4928 102.587C54.2971 109.062 52.5983 115.917 52.6582 126.07C52.6582 126.65 52.2185 127.15 51.6189 127.21L52.1386 127.17L47.5618 111.421C52.0187 91.9341 57.6148 93.1532 65.3094 89.6757L73.3438 86.0582C73.3438 86.0582 80.6987 85.0989 87.9536 87.817C104.242 93.9127 101.544 113.559 101.364 112.959C99.4256 106.404 90.4918 108.023 81.7979 104.066C82.8372 106.584 84.1163 109.122 86.015 111.68C78.7201 111.46 74.443 108.343 69.9462 102.027L71.8049 109.182C66.1088 108.123 61.6519 108.802 60.4928 102.647V102.587Z" fill="#414042"/>
<path d="M60.7922 94.0525L55.6558 94.8719L59.2333 98.6293L60.7922 94.0525Z" fill="#EF509C"/>
<path d="M62.3312 89.1161L60.7922 94.0526L65.7288 92.5137L62.3312 89.1161Z" fill="#EF509C"/>
</g>
<path d="M138.845 9C142.218 9 143.897 10.8556 143.897 14.5669V41.8867C143.897 45.598 142.218 47.4536 138.845 47.4536H93.8764C90.5038 47.4536 88.8242 45.598 88.8242 41.8867V14.5669C88.8242 10.8556 90.5173 9 93.89 9H138.859H138.845Z" fill="#FFCF01"/>
<path d="M123 40H135.691L145.254 75.1487L123 40Z" fill="#FFCF01"/>
<path d="M94.1609 15.5422C94.5402 15.5422 94.8517 15.6911 95.1226 15.9756C95.3799 16.26 95.5018 16.5986 95.4883 16.9779C95.3935 19.3618 95.3529 21.705 95.3529 23.9941C95.3529 24.7797 95.3529 25.4028 95.3799 25.8633C95.3935 26.3238 95.4341 26.7572 95.5018 27.15C95.5696 27.5428 95.6373 27.8273 95.7321 28.0169C95.8134 28.193 95.9624 28.3555 96.152 28.4774C96.3416 28.5993 96.5583 28.6941 96.7886 28.7212C97.0189 28.7483 97.3168 28.7619 97.7096 28.7619C98.0889 28.7619 98.414 28.8973 98.6849 29.1682C98.9558 29.4391 99.0912 29.7642 99.0912 30.1434C99.0912 30.5227 98.9558 30.8478 98.6849 31.1187C98.414 31.3896 98.0889 31.525 97.7096 31.525C96.8699 31.525 96.152 31.4166 95.556 31.2135C94.9601 31.0103 94.4589 30.7123 94.0796 30.3331C93.7004 29.9538 93.3889 29.4526 93.1721 28.816C92.9554 28.1794 92.8064 27.4887 92.7116 26.7301C92.6303 25.9716 92.5762 25.0641 92.5762 23.9941C92.5762 22.0437 92.6303 19.6733 92.7387 16.8695C92.7387 16.4903 92.8877 16.1788 93.1721 15.9079C93.4566 15.6505 93.7952 15.5286 94.1745 15.5422H94.1609Z" fill="white"/>
<path d="M96.3148 30.1434C96.3148 29.7642 96.4503 29.4391 96.7347 29.1682C97.0056 28.8973 97.3442 28.7619 97.7099 28.7619C97.9537 28.7619 98.2517 28.7483 98.6039 28.7212C98.9831 28.6806 99.2947 28.64 99.5249 28.5858C99.7552 28.5316 99.9855 28.4503 100.175 28.342C100.378 28.2201 100.514 28.0846 100.609 27.9086C100.703 27.7325 100.771 27.5022 100.825 27.2042C100.879 26.9062 100.893 26.5676 100.893 26.1884C100.893 25.8091 100.852 25.335 100.798 24.7526C100.758 24.3598 100.879 24.0077 101.15 23.7097C101.421 23.4117 101.76 23.2627 102.166 23.2491C102.532 23.2491 102.843 23.3575 103.101 23.6013C103.372 23.8451 103.521 24.1431 103.548 24.4953C103.561 24.6578 103.588 24.8881 103.615 25.186C103.683 25.8633 103.737 26.3374 103.764 26.6083C103.792 26.8791 103.859 27.1907 103.968 27.5428C104.076 27.895 104.171 28.1253 104.279 28.2201C104.388 28.3149 104.564 28.4233 104.821 28.5452C105.078 28.6671 105.349 28.7348 105.647 28.7483C105.945 28.7619 106.351 28.7754 106.88 28.7754C107.259 28.7754 107.584 28.9109 107.855 29.1818C108.126 29.4527 108.275 29.7777 108.275 30.157C108.275 30.5362 108.139 30.8613 107.855 31.1322C107.584 31.4031 107.259 31.5386 106.88 31.5386C105.796 31.5386 104.889 31.4031 104.157 31.1458C103.426 30.8884 102.83 30.4279 102.342 29.7913C101.868 30.4279 101.245 30.8884 100.487 31.1458C99.7281 31.4167 98.7935 31.5386 97.6964 31.5386C97.3171 31.5386 96.9921 31.4031 96.7212 31.1322C96.4503 30.8613 96.3013 30.5362 96.3013 30.157L96.3148 30.1434ZM97.1004 35.1008C97.1004 34.7351 97.2494 34.3965 97.5338 34.1121C97.8183 33.8276 98.1705 33.6786 98.5768 33.6786C98.9831 33.6786 99.3488 33.8547 99.6062 34.1933C99.8635 34.532 99.999 34.8299 99.999 35.1008C99.999 35.2634 99.9584 35.453 99.8906 35.6833C99.8229 35.9 99.6604 36.1167 99.4301 36.347C99.1999 36.5772 98.9019 36.672 98.5362 36.672C98.2653 36.672 98.0215 36.6178 97.8183 36.4959C97.6151 36.374 97.4526 36.225 97.3713 36.049C97.2765 35.8729 97.2088 35.6968 97.1681 35.5343C97.1275 35.3717 97.1004 35.2363 97.1004 35.1144V35.1008Z" fill="white"/>
<path d="M108.262 25.9581C107.896 25.8633 107.625 25.6466 107.422 25.3079C107.219 24.9693 107.178 24.6307 107.273 24.265C107.571 23.1272 108.126 22.2197 108.939 21.556C109.751 20.8923 110.632 20.5673 111.621 20.5673C111.837 20.5673 112.068 20.5808 112.311 20.6214C112.555 20.6621 112.772 20.7027 112.948 20.7433C113.138 20.784 113.368 20.8652 113.639 20.9736C113.91 21.082 114.126 21.1768 114.262 21.2174C114.397 21.2716 114.628 21.3799 114.939 21.556C115.251 21.7321 115.454 21.8405 115.549 21.8811C115.643 21.9217 115.86 22.0572 116.212 22.2604C116.565 22.4635 116.768 22.5854 116.835 22.6125C118.447 23.52 119.599 24.0889 120.276 24.3056C120.655 24.4275 120.926 24.6713 121.102 25.0506C121.278 25.4298 121.278 25.7955 121.129 26.1613C121.034 26.378 120.899 26.5676 120.709 26.7166C120.52 26.8656 120.316 26.9604 120.1 27.001C119.599 27.0958 119.07 27.2719 118.501 27.5293C117.933 27.7866 117.228 28.1659 116.375 28.6535C115.671 29.0598 115.034 29.3849 114.465 29.6694C113.896 29.9403 113.192 30.2382 112.379 30.5498C111.566 30.8613 110.686 31.0916 109.765 31.2541C108.844 31.4166 107.896 31.4979 106.921 31.4979C106.541 31.4979 106.216 31.3625 105.945 31.0916C105.675 30.8207 105.539 30.4956 105.539 30.1163C105.539 29.7371 105.675 29.412 105.945 29.1411C106.216 28.8702 106.541 28.7348 106.921 28.7348C107.733 28.7348 108.519 28.667 109.277 28.5316C110.036 28.3961 110.767 28.2065 111.458 27.9356C112.149 27.6647 112.758 27.4074 113.273 27.1636C113.788 26.9062 114.37 26.5947 115.007 26.229C115.589 25.8904 116.063 25.6601 116.429 25.5111C116.131 25.3892 115.82 25.2267 115.481 25.0235C113.463 23.8857 112.176 23.3169 111.634 23.3169C111.309 23.3169 110.984 23.4523 110.659 23.7097C110.334 23.967 110.104 24.3869 109.968 24.9558C109.873 25.3215 109.657 25.5924 109.318 25.7955C108.979 25.9987 108.641 26.0394 108.275 25.9445L108.262 25.9581Z" fill="white"/>
<path d="M124.813 23.8315C125.179 23.7367 125.517 23.7773 125.856 23.9805C126.195 24.1701 126.398 24.4545 126.506 24.8203C127.034 26.7572 127.292 28.4367 127.292 29.8589C127.292 31.5249 126.804 32.9742 125.815 34.2339C124.827 35.48 123.459 36.4552 121.671 37.146C121.318 37.2815 120.966 37.2679 120.614 37.1189C120.262 36.9564 120.018 36.7126 119.883 36.3469C119.747 35.9947 119.761 35.6425 119.91 35.2904C120.059 34.9382 120.316 34.6944 120.668 34.559C122.023 34.0442 122.998 33.3941 123.608 32.622C124.217 31.85 124.515 30.9289 124.515 29.8725C124.515 28.7347 124.285 27.2989 123.824 25.5381C123.729 25.1724 123.77 24.8338 123.973 24.4952C124.176 24.1566 124.447 23.9534 124.813 23.845V23.8315ZM131.138 30.1433C131.138 30.5226 131.003 30.8477 130.732 31.1186C130.461 31.3895 130.136 31.5249 129.757 31.5249C128.023 31.5249 126.696 31.0509 125.761 30.1027C125.544 29.8725 125.341 29.6151 125.165 29.3307C124.989 29.0462 124.84 28.7889 124.732 28.5586C124.623 28.3419 124.501 28.0304 124.38 27.624C124.258 27.2177 124.176 26.9332 124.136 26.7572C124.095 26.5811 124.014 26.2425 123.892 25.7684C123.865 25.6465 123.838 25.5381 123.824 25.4839C123.729 25.1182 123.784 24.7796 124 24.441C124.204 24.1159 124.488 23.8992 124.867 23.8179C125.233 23.7231 125.572 23.7908 125.91 23.994C126.235 24.1972 126.452 24.4816 126.533 24.8473C126.967 26.6488 127.387 27.7595 127.766 28.1658C128.145 28.5586 128.809 28.7618 129.757 28.7618C130.136 28.7618 130.461 28.8972 130.732 29.1681C131.003 29.439 131.138 29.7641 131.138 30.1433Z" fill="white"/>
<path d="M136.15 25.0371C135.73 25.0371 135.405 25.186 135.175 25.4705C134.944 25.7549 134.687 26.3509 134.403 27.2449C134.308 27.5158 134.227 27.746 134.159 27.9356C134.091 28.1253 133.996 28.3555 133.874 28.64C133.753 28.9244 133.631 29.1682 133.509 29.3714C133.387 29.5746 133.224 29.7913 133.048 30.0351C132.872 30.2789 132.669 30.4821 132.452 30.6446C132.236 30.8071 131.992 30.9561 131.721 31.1051C131.45 31.2541 131.152 31.3625 130.813 31.4302C130.475 31.4979 130.123 31.5386 129.73 31.5386C129.337 31.5386 129.025 31.4031 128.754 31.1322C128.484 30.8613 128.348 30.5362 128.348 30.157C128.348 29.7777 128.484 29.4527 128.754 29.1818C129.025 28.9109 129.35 28.7754 129.73 28.7754C130.312 28.7754 130.718 28.64 130.935 28.3555C131.152 28.0846 131.423 27.4345 131.734 26.4186C132.154 25.0912 132.71 24.0618 133.414 23.344C134.118 22.6261 135.053 22.2604 136.231 22.2604C137.057 22.2604 137.802 22.5042 138.48 22.9918C139.157 23.4794 139.685 24.116 140.051 24.9152C140.417 25.7143 140.606 26.5812 140.606 27.5022C140.606 28.2201 140.484 28.8702 140.227 29.4391C139.97 30.008 139.631 30.4685 139.211 30.8071C138.791 31.1458 138.331 31.4166 137.816 31.5927C137.315 31.7688 136.787 31.8636 136.258 31.8636C134.85 31.8636 133.604 31.4437 132.52 30.604C132.222 30.3737 132.046 30.0757 131.992 29.6829C131.951 29.3037 132.032 28.9515 132.263 28.6535C132.493 28.3555 132.791 28.1794 133.184 28.1253C133.563 28.0846 133.915 28.1659 134.213 28.3962C134.484 28.5993 134.809 28.7619 135.175 28.8973C135.54 29.0328 135.906 29.0869 136.258 29.0869C136.746 29.0869 137.125 28.965 137.41 28.7212C137.681 28.4774 137.816 28.0711 137.816 27.4887C137.816 26.7031 137.626 26.0936 137.261 25.6737C136.895 25.2402 136.516 25.0371 136.123 25.0371H136.15Z" fill="white"/>
<path d="M83.0542 42.9026C80.2505 42.9026 78.8418 44.6634 78.8418 48.1986V74.164C78.8418 77.6991 80.2505 79.46 83.0542 79.46H120.451C123.255 79.46 124.664 77.6991 124.664 74.164V48.1986C124.664 44.6634 123.255 42.9026 120.451 42.9026H83.0542Z" fill="#00B0DF"/>
<path d="M85.3977 64.2356H86.9959L65.1753 77.4282L85.3977 54.7543V64.2356Z" fill="#00B0DF"/>
<path d="M86.0067 50.9888C85.9661 50.8669 85.9661 50.7314 86.0338 50.596C86.1015 50.4605 86.1964 50.3793 86.3183 50.3251L90.91 48.6862C91.0319 48.6455 91.1673 48.6455 91.3027 48.7133C91.4382 48.781 91.5195 48.8758 91.5736 48.9977C91.6143 49.1196 91.6143 49.2551 91.5466 49.3905C91.4788 49.526 91.384 49.6072 91.2621 49.6614L86.6704 51.3003C86.5485 51.341 86.4131 51.341 86.2776 51.2732C86.1422 51.2055 86.0609 51.1107 86.0067 50.9888ZM86.0067 53.3456C85.9661 53.2237 85.9661 53.0882 86.0338 52.9528C86.1015 52.8173 86.1964 52.7361 86.3183 52.6819L90.91 51.043C91.0319 51.0023 91.1673 51.0023 91.3027 51.0701C91.4382 51.1378 91.5195 51.2326 91.5736 51.3545C91.6143 51.49 91.6143 51.6119 91.5466 51.7473C91.4788 51.8827 91.384 51.964 91.2621 52.0182L86.6704 53.6571C86.5485 53.6978 86.4131 53.6978 86.2776 53.63C86.1422 53.5623 86.0609 53.4675 86.0067 53.3456Z" fill="white"/>
<path d="M95.0149 55.2013C95.3942 55.1606 95.7328 55.2555 96.0308 55.4857C96.3287 55.716 96.5048 56.0275 96.559 56.3932C96.8976 59.2512 97.0737 61.7705 97.0737 63.9512C97.0737 68.421 94.6356 70.6559 89.7595 70.6559C88.9468 70.6559 87.9039 70.6017 86.6036 70.4798C86.2379 70.4527 85.9263 70.2766 85.669 69.9786C85.4252 69.6807 85.3168 69.342 85.3575 68.9628C85.3846 68.5835 85.5606 68.272 85.8586 68.0282C86.1566 67.7844 86.4952 67.676 86.8745 67.7167C88.1206 67.8386 89.0687 67.8927 89.7595 67.8927C90.2607 67.8927 90.6941 67.8927 91.0463 67.8521C91.3984 67.825 91.7371 67.7844 92.0757 67.7167C92.4143 67.6489 92.6987 67.5541 92.9155 67.4322C93.1322 67.3103 93.3353 67.1613 93.525 66.9717C93.7146 66.7821 93.8636 66.5518 93.9584 66.2674C94.0668 65.9829 94.1345 65.6579 94.2022 65.2786C94.2564 64.8993 94.2835 64.4524 94.2835 63.9512C94.2835 61.7028 94.1345 59.2918 93.823 56.7318C93.7823 56.3526 93.8771 56.014 94.1074 55.716C94.3512 55.418 94.6492 55.2419 95.0149 55.2013ZM89.0958 66.1184C88.7301 66.0371 88.4321 65.8475 88.2019 65.5224C87.9716 65.1973 87.9039 64.8587 87.9852 64.4795C88.0935 63.8835 88.1612 63.2875 88.1612 62.678C88.1612 60.9578 87.782 59.2783 87.037 57.6123C86.8745 57.2601 86.8609 56.9079 87.0099 56.5422C87.1589 56.1765 87.3892 55.9192 87.7278 55.7702C88.08 55.6212 88.4321 55.6076 88.7978 55.7431C89.1636 55.8785 89.4209 56.1223 89.5699 56.4745C90.4909 58.4927 90.9515 60.565 90.9515 62.678C90.9515 63.5178 90.8837 64.2898 90.7347 65.0077C90.6535 65.3734 90.4639 65.6714 90.1388 65.8881C89.8137 66.1048 89.4751 66.1726 89.0958 66.1048V66.1184ZM95.665 62.5696C96.0443 62.5696 96.3694 62.7051 96.6403 62.9895C96.9112 63.2604 97.0602 63.599 97.0602 63.9648C97.0602 64.8181 97.1008 65.5089 97.1821 66.0371C97.2633 66.5654 97.3988 66.9582 97.602 67.2291C97.7916 67.4999 98.0083 67.676 98.2521 67.7708C98.4959 67.8521 98.821 67.9063 99.2138 67.9063C99.593 67.9063 99.9181 68.0417 100.189 68.3126C100.46 68.5835 100.609 68.9086 100.609 69.2879C100.609 69.6671 100.473 69.9922 100.189 70.2631C99.9181 70.534 99.5795 70.6694 99.2138 70.6694C98.3469 70.6694 97.5884 70.5069 96.9383 70.1683C96.2881 69.8296 95.7734 69.3556 95.3942 68.7461C95.0149 68.1366 94.7305 67.4322 94.5408 66.6466C94.3512 65.861 94.2564 64.9671 94.2564 63.9648C94.2564 63.5855 94.3918 63.2604 94.6763 62.9895C94.9472 62.7186 95.2723 62.5696 95.6515 62.5696H95.665Z" fill="white"/>
<path d="M99.4573 64.913C99.4573 64.0326 99.6605 63.2063 100.067 62.4343C100.473 61.6622 101.042 61.0256 101.773 60.5516C102.505 60.0639 103.304 59.8201 104.184 59.8201C104.74 59.8201 105.241 59.9285 105.674 60.1452C106.121 60.3619 106.487 60.6328 106.771 60.985C107.056 61.3236 107.3 61.7164 107.489 62.1769C107.679 62.6375 107.828 63.0709 107.909 63.5314C107.991 63.9919 108.031 64.4254 108.031 64.8723C108.031 65.5902 107.909 66.2539 107.665 66.8499C107.422 67.4459 107.083 67.947 106.65 68.3669C106.216 68.7732 105.715 69.1389 105.16 69.4369C104.604 69.7485 103.981 69.9923 103.318 70.1684C102.654 70.3444 101.977 70.4799 101.313 70.5612C100.649 70.6424 99.9585 70.6831 99.2541 70.6831C98.8749 70.6831 98.5498 70.5476 98.2789 70.2767C98.008 70.0058 97.8726 69.6807 97.8726 69.3015C97.8726 68.9222 98.008 68.5972 98.2789 68.3263C98.5498 68.0554 98.8749 67.9199 99.2541 67.9199C103.67 67.9199 105.878 66.8499 105.878 64.7098C105.878 64.1003 105.688 63.6127 105.322 63.2199C104.956 62.8271 104.577 62.6375 104.198 62.6375C103.724 62.6375 103.277 62.8677 102.871 63.3147C102.464 63.7617 102.261 64.3035 102.261 64.9401C102.261 65.4683 102.546 65.9559 103.101 66.4029C103.656 66.8634 104.401 67.2291 105.336 67.5C106.27 67.7709 107.273 67.9199 108.329 67.9199C109.101 67.9199 109.684 67.8116 110.063 67.5813C110.442 67.351 110.645 67.0395 110.645 66.6332C110.645 65.2787 109.196 64.1003 106.284 63.1251C104.212 62.4343 102.397 61.6758 100.866 60.8495C100.527 60.6735 100.311 60.389 100.202 60.0233C100.094 59.6576 100.121 59.3054 100.311 58.9668C100.487 58.6282 100.771 58.4115 101.137 58.3031C101.503 58.1948 101.855 58.2219 102.193 58.4115C103.209 58.9533 104.902 59.6576 107.246 60.5245C107.855 60.7412 108.41 60.9714 108.912 61.1882C109.413 61.4184 109.927 61.7029 110.483 62.0686C111.038 62.4343 111.499 62.8135 111.878 63.2199C112.257 63.6262 112.555 64.1274 112.812 64.6963C113.056 65.2787 113.178 65.8882 113.178 66.5519C113.178 67.3917 112.948 68.1366 112.487 68.7732C112.027 69.4098 111.431 69.8839 110.713 70.1954C109.995 70.507 109.21 70.6695 108.356 70.6695C107.787 70.6695 107.191 70.6289 106.582 70.5341C105.959 70.4528 105.309 70.3173 104.631 70.1413C103.954 69.9652 103.318 69.7214 102.722 69.4098C102.126 69.0983 101.584 68.7326 101.096 68.3398C100.609 67.9335 100.229 67.4323 99.9449 66.8499C99.6605 66.2539 99.525 65.6173 99.525 64.9265L99.4573 64.913Z" fill="white"/>
<path d="M118.135 49.2146C118.027 49.2958 117.891 49.3229 117.756 49.3094C117.621 49.2823 117.499 49.2146 117.417 49.1062C117.147 48.7405 116.808 48.5644 116.415 48.5644C116.022 48.5644 115.697 48.727 115.386 49.0385C115.074 49.35 114.925 49.7428 114.925 50.2033C114.925 50.5961 115.034 50.867 115.264 51.0296C115.494 51.1921 115.846 51.2734 116.347 51.2734C116.957 51.2734 117.648 51.1379 118.42 50.867C118.569 50.8264 118.704 50.84 118.84 50.9077C118.975 50.9754 119.056 51.0838 119.097 51.2327C119.124 51.3547 119.111 51.4766 119.056 51.5985C119.002 51.7204 118.907 51.8016 118.772 51.8423L114.18 53.4406C114.058 53.4812 113.923 53.4812 113.787 53.4135C113.652 53.3457 113.571 53.2509 113.517 53.129C113.476 53.0071 113.476 52.8717 113.544 52.7362C113.611 52.6008 113.706 52.5195 113.828 52.4653L115.115 52.0183C114.736 51.8694 114.438 51.6391 114.221 51.3276C114.004 51.016 113.896 50.6368 113.896 50.1898C113.896 49.4448 114.153 48.8218 114.668 48.2935C115.183 47.7653 115.765 47.5079 116.442 47.5079C117.174 47.5079 117.783 47.833 118.257 48.4832C118.338 48.5915 118.366 48.727 118.352 48.8624C118.338 49.0114 118.271 49.1198 118.149 49.201L118.135 49.2146ZM115.86 55.2014C116.239 55.1607 116.578 55.2555 116.889 55.4858C117.201 55.7161 117.377 56.0276 117.417 56.3933C117.621 57.8697 117.756 59.1023 117.824 60.1181C117.905 61.1204 117.932 62.3395 117.932 63.7752C117.932 65.9288 117.851 67.9741 117.688 69.8975C117.648 70.2767 117.485 70.5882 117.201 70.8456C116.916 71.0894 116.578 71.1978 116.198 71.1707C115.819 71.13 115.508 70.9675 115.264 70.6695C115.02 70.3715 114.898 70.0465 114.939 69.6672C115.101 67.7168 115.183 65.7528 115.183 63.7752C115.183 62.3801 115.155 61.2153 115.074 60.2942C114.993 59.3732 114.871 58.1948 114.681 56.7455C114.641 56.3662 114.736 56.0276 114.966 55.7161C115.196 55.4045 115.508 55.2285 115.873 55.1878L115.86 55.2014Z" fill="white"/>
<defs>
<filter id="filter0_d_109_31" x="0.458008" y="8" width="213.693" height="213.693" filterUnits="userSpaceOnUse" color-interpolation-filters="sRGB">
<feFlood flood-opacity="0" result="BackgroundImageFix"/>
<feColorMatrix in="SourceAlpha" type="matrix" values="0 0 0 0 0 0 0 0 0 0 0 0 0 0 0 0 0 0 127 0" result="hardAlpha"/>
<feOffset dy="14"/>
<feGaussianBlur stdDeviation="12"/>
<feComposite in2="hardAlpha" operator="out"/>
<feColorMatrix type="matrix" values="0 0 0 0 0 0 0 0 0 0 0 0 0 0 0 0 0 0 0.06 0"/>
<feBlend mode="normal" in2="BackgroundImageFix" result="effect1_dropShadow_109_31"/>
<feBlend mode="normal" in="SourceGraphic" in2="effect1_dropShadow_109_31" result="shape"/>
</filter>
</defs>
</svg>
