<svg width="215" height="222" viewBox="0 0 215 222" fill="none" xmlns="http://www.w3.org/2000/svg">
<g filter="url(#filter0_d_109_35)">
<rect x="24.458" y="18" width="165.693" height="165.693" rx="82.8464" fill="white"/>
</g>
<g clip-path="url(#clip0_109_35)">
<path d="M66.8124 99.8712C66.8124 99.8712 62.661 94.9182 57.0092 94.9182C51.3575 94.9182 44 98.6586 44 109.181C44 119.704 53.1044 128.089 63.0926 128.13C63.0926 128.13 73.5739 113.887 66.8124 99.8712Z" fill="#2899D5"/>
<path d="M62.271 123.773C62.271 123.773 46.2612 126.485 46.2612 137.111C46.2612 147.736 53.7215 147.119 55.3656 147.119C57.0098 147.119 64.8605 146.215 69.0736 140.296C69.0736 140.296 69.3408 125.006 62.271 123.752V123.773Z" fill="#00B0DF"/>
<path d="M61.6537 116.374C63.0101 156.676 91.2893 147.736 127.316 145.825C163.529 143.893 192.979 138.138 192.979 113.517C192.979 88.8964 163.57 81.2101 127.316 81.2101C91.0632 81.2101 60.811 91.3626 61.6537 116.374Z" fill="#5FC8D7"/>
<path d="M193 113.517C193 124.225 187.431 131.377 178.141 136.186C172.859 130.37 169.633 122.683 169.633 114.196C169.633 105.112 173.353 96.8704 179.354 90.9515C187.903 95.9867 193 103.303 193 113.517Z" fill="#2899D5"/>
<path d="M141.97 135.528L143.224 145.619C143.224 146.626 142.915 147.572 142.299 148.373C138.826 152.956 129.023 168.041 109.622 167.98C94.5367 167.938 91.5773 153.737 96.7563 147.12L138.045 135.22L141.991 135.508L141.97 135.528Z" fill="#2899D5"/>
<path d="M145.831 123.474C148.216 123.155 149.811 120.361 149.393 117.234C148.975 114.106 146.703 111.829 144.318 112.148C141.933 112.466 140.338 115.26 140.756 118.388C141.174 121.515 143.446 123.793 145.831 123.474Z" fill="#0D68BA"/>
<path d="M119.617 124.92C122.002 124.601 123.597 121.808 123.179 118.68C122.761 115.552 120.489 113.275 118.104 113.594C115.719 113.913 114.124 116.706 114.542 119.834C114.96 122.962 117.232 125.239 119.617 124.92Z" fill="#0D68BA"/>
<path d="M94.2942 124.903C96.6793 124.584 98.2741 121.79 97.8562 118.663C97.4383 115.535 95.1661 113.258 92.781 113.576C90.3959 113.895 88.8012 116.689 89.219 119.816C89.6369 122.944 91.9091 125.221 94.2942 124.903Z" fill="#0D68BA"/>
<path d="M141.971 135.528C141.971 135.528 134.161 161.67 110.526 161.218C86.8919 160.766 95.5853 141.879 109.047 133.042L141.971 135.528Z" fill="#00B0DF"/>
<path d="M84.035 87.5197C84.035 87.5197 116.24 73.6678 168.42 84.9713L163.118 93.8496L150.458 100.693L126.228 102.543L96.8798 100.323L86.7478 98.5765L79.2053 95.7198C79.2053 95.7198 81.1988 89.1022 81.3633 88.8761C81.5277 88.65 84.035 87.4991 84.035 87.4991V87.5197Z" fill="#2C2355"/>
<path d="M167.557 84.8065C166.94 85.8341 163.097 96.11 153.808 96.4594C144.539 96.8087 122.24 98.1035 114.205 98.1035C106.169 98.1035 80.1709 100.755 81.2807 93.0889C81.8151 89.3485 86.3981 88.7319 86.9735 86.8C87.549 84.8682 81.589 85.5258 79.3078 88.6703C77.0265 91.8147 75.8551 94.7536 77.4375 96.9115C79.02 99.0694 88.1861 103.694 108.779 103.694C129.372 103.694 148.156 104.043 154.815 102.337C161.474 100.631 170.208 92.9861 170.537 87.3549C170.866 81.7238 167.536 84.786 167.536 84.786L167.557 84.8065Z" fill="#FFCF01"/>
<mask id="mask0_109_35" style="mask-type:luminance" maskUnits="userSpaceOnUse" x="81" y="80" width="87" height="19">
<path d="M167.577 84.7862H167.557C166.94 85.8343 163.097 96.1102 153.828 96.4596C144.539 96.7884 122.261 98.1037 114.225 98.1037C106.189 98.1037 80.2118 100.775 81.3011 93.0891C81.8354 89.3487 86.439 88.7321 86.9939 86.8002C87.035 86.6564 87.035 86.5331 87.0145 86.4303C96.0161 83.4298 125.097 75.764 167.577 84.7862Z" fill="white"/>
</mask>
<g mask="url(#mask0_109_35)">
<path d="M129.023 92.1643C129.023 92.1643 147.273 96.5007 151.876 95.2676C154.199 95.021 152.986 94.1372 153.562 93.459C154.815 93.7878 155.678 95.6786 155.678 95.6786C155.678 95.6786 157.096 95.432 156.459 92.6575C153.993 88.0539 151.239 89.2254 148.65 90.0063C148.65 90.0063 134.49 84.6629 130.482 82.8749C130.482 82.8749 130.05 89.4925 129.002 92.1848L129.023 92.1643Z" fill="#F4D9BF"/>
<path d="M153.603 91.5066C153.603 91.5066 152.349 91.7532 152.328 93.7673C152.123 95.8636 152.369 110.517 152.369 110.517C152.369 110.517 152.575 111.483 153.705 111.442C154.589 111.401 154.877 110.394 154.877 110.394C154.877 110.394 155.206 96.3362 154.959 94.5071C154.61 91.8971 154.26 91.4655 153.582 91.5271L153.603 91.5066Z" fill="#2B5A91"/>
<g style="mix-blend-mode:multiply" opacity="0.77">
<path d="M153.603 91.5066C153.603 91.5066 152.349 91.7532 152.328 93.7673C152.123 95.8636 152.369 110.517 152.369 110.517C152.369 110.517 152.575 111.483 153.705 111.442C154.589 111.401 154.877 110.394 154.877 110.394C154.877 110.394 155.206 96.3362 154.959 94.5071C154.61 91.8971 154.26 91.4655 153.582 91.5271L153.603 91.5066Z" fill="#2B3F7A"/>
</g>
<path d="M155.246 114.298C154.938 114.278 154.054 114.093 153.787 113.353C153.787 113.353 155.555 92.678 153.13 93.2945C153.13 93.2945 153.52 90.6845 155.246 91.4654C156.993 92.2258 157.137 92.5136 157.199 93.685C157.281 95.3702 157.692 98.2064 157.425 104.207C157.261 107.578 156.87 113.6 156.87 113.6C156.87 113.6 156.438 114.401 155.226 114.298H155.246Z" fill="#2B5A91"/>
<path d="M134.407 100.097C134.407 100.097 133.955 104.105 131.818 106.92C126.413 114.031 119.857 114.072 112.355 114.011C105.594 113.949 100.785 111.853 99.1201 108.77C100.723 106.941 102.306 103.18 102.737 100.673C104.977 87.7045 106.21 78.3124 113.239 76.1956C113.239 76.1956 124.892 76.9765 126.516 79.3811C128.139 81.7856 129.886 90.5818 131.16 93.0069C133.195 96.9117 133.955 98.9669 134.407 100.097Z" fill="#F05A28"/>
<path d="M131.037 91.4655C131.037 91.4655 147.807 95.2265 152.411 93.9728C154.733 93.7262 152.822 90.9312 155.391 91.8971C156.645 92.226 157.508 94.1167 157.508 94.1167C157.508 94.1167 158.926 93.8701 158.289 91.0956C155.823 86.492 153.069 87.6635 150.479 88.4444C150.479 88.4444 136.319 83.101 132.311 81.313C132.311 81.313 132.065 88.7938 131.017 91.4861L131.037 91.4655Z" fill="#F4D9BF"/>
<path d="M113.218 76.216C113.218 76.216 115.582 75.7845 119.651 76.4832C124.83 77.3669 132.044 79.5043 132.64 80.2853C133.688 81.6828 133.236 89.4719 131.427 92.1025C131.427 92.1025 121.028 90.6022 116.404 89.2047C116.404 89.2047 112.684 88.6498 110.649 84.1901C109.457 81.58 110.629 78.6 113.198 76.216H113.218Z" fill="#F05A28"/>
<path d="M136.442 49.3962L122.22 36.3458L108.43 42.4291L97.0033 45.0803L101.196 56.0755L100.045 67.7283C100.045 67.7283 99.0379 64.6867 95.9551 65.6937C92.8518 66.7007 93.4889 74.9009 100.826 73.0923C100.826 73.0923 101.956 75.2913 106.621 76.9766C119.487 80.6553 127.481 75.8462 127.481 75.8462C142.998 66.7624 136.442 49.4167 136.442 49.4167V49.3962Z" fill="#F4D9BF"/>
</g>
<path d="M133.297 97.4253C125.652 97.7747 118.212 98.1035 114.225 98.1035C111.779 98.1035 107.628 98.3502 103.106 98.494C104.278 91.6503 105.264 85.9369 107.176 81.9499C107.998 80.2235 109.005 78.826 110.258 77.7984C111.122 77.0997 112.108 76.5653 113.238 76.2159C113.238 76.2159 118.685 76.5859 122.651 77.5724C124.48 78.045 126.001 78.641 126.515 79.4015C126.72 79.7097 126.926 80.1002 127.111 80.5524C128.036 82.6486 128.961 86.2041 129.783 89.0813C130.111 90.2117 130.42 91.2393 130.728 92.0202H130.749C130.81 92.2257 130.872 92.4313 130.954 92.5957C131.016 92.7601 131.098 92.9039 131.16 93.0273C132.125 94.8769 132.804 96.3155 133.297 97.4253Z" fill="#F05A28"/>
<path d="M100.189 34.0439C89.5229 38.7708 83.7273 52.1294 88.3514 64.7071C92.9756 77.2642 106.19 76.8326 106.19 76.8326C106.334 76.8737 106.458 76.9148 106.601 76.9559C101.936 75.2707 100.806 73.0717 100.806 73.0717C93.4688 74.8802 92.8317 66.6801 95.935 65.673C99.0383 64.666 100.025 67.7077 100.025 67.7077L101.176 56.0548L101.813 58.9732L104.341 49.6427L109.52 51.0402L111.123 45.1213L123.7 48.5123L125.303 42.5934L137.244 45.8201C130.503 26.707 110.342 29.5431 100.189 34.0439Z" fill="#B02C15"/>
<path d="M136.442 49.3962L122.22 36.3458L108.43 42.4291L97.003 45.0803L101.196 56.0755L100.045 67.7283C100.045 67.7283 99.0377 64.6867 95.9549 65.6937C92.8516 66.7007 93.4887 74.9009 100.826 73.0923C100.826 73.0923 101.956 75.2913 106.621 76.9766C119.487 80.6553 127.481 75.8462 127.481 75.8462C142.998 66.7624 136.442 49.4167 136.442 49.4167V49.3962Z" fill="#F4D9BF"/>
<path d="M138.374 44.2786L134.983 42.5523L138.148 42.1207C130.195 32.893 121.193 35.6469 121.193 35.6469C121.193 35.6469 122.405 33.1807 122.097 33.0985C121.768 33.0368 118.028 35.9552 118.028 35.9552L115.459 32.1326L116.384 35.6264C113.897 34.4344 108.903 33.6739 98.5243 39.2846C91.5779 43.025 88.3718 49.3755 87.0154 53.1775L88.7623 53.6297L88.8856 53.5475C88.865 53.568 88.8445 53.6091 88.8239 53.6297L99.2026 56.3425C100.58 51.8006 101.874 48.2657 101.874 48.2657L100.682 55.1094C102.799 54.0407 109.91 46.2927 109.91 46.2927L110.074 49.0261C111.945 47.5669 113.527 44.4842 113.527 44.4842C117.781 46.9709 122.056 49.7865 122.056 49.7865L127.338 42.5728C138.621 46.5188 137.799 63.8439 137.799 63.8439C138.251 58.9115 138.374 44.2581 138.374 44.2581V44.2786Z" fill="#B02C15"/>
<path d="M109.929 31.105C109.929 31.105 111.656 28.31 111.327 28.2278C110.998 28.1661 107.258 31.0845 107.258 31.0845L104.689 27.2618L106.148 31.8038C105.305 31.3927 99.4275 33.4685 95.4404 36.9212L114.225 40.8876L116.259 38.1132L121.582 31.3516C117.205 30.0774 109.909 31.0845 109.909 31.0845L109.929 31.105Z" fill="#B02C15"/>
<path opacity="0.1" d="M118.829 61.4597L121.439 61.3364" stroke="#211F1F" stroke-width="0.822069" stroke-linecap="round" stroke-linejoin="round"/>
<path opacity="0.5" d="M106.251 67.3171C107.67 67.3171 108.82 66.167 108.82 64.7482C108.82 63.3294 107.67 62.1792 106.251 62.1792C104.833 62.1792 103.682 63.3294 103.682 64.7482C103.682 66.167 104.833 67.3171 106.251 67.3171Z" fill="#FCA4A4"/>
<path opacity="0.5" d="M133.914 66.0428C135.333 66.0428 136.483 64.8927 136.483 63.4739C136.483 62.0551 135.333 60.9049 133.914 60.9049C132.495 60.9049 131.345 62.0551 131.345 63.4739C131.345 64.8927 132.495 66.0428 133.914 66.0428Z" fill="#FCA4A4"/>
<path d="M119.671 66.2895C117.657 66.1251 115.951 65.0153 114.924 63.4329H114.616C114.369 66.269 116.506 68.7969 119.384 69.0435C122.261 69.2901 124.768 67.1527 125.015 64.2755H124.809C123.535 65.6319 121.665 66.454 119.651 66.269L119.671 66.2895Z" fill="white" stroke="#4C3A2E" stroke-width="0.760414" stroke-linecap="round" stroke-linejoin="round"/>
<path d="M109.683 54.6368C110.485 53.7325 111.656 53.1365 112.951 53.0749C114.102 53.0132 115.171 53.3626 116.034 53.9997" stroke="#7A344B" stroke-width="1.35641" stroke-miterlimit="10" stroke-linecap="round"/>
<path d="M123.042 54.0408C123.988 53.2804 125.221 52.8694 126.515 52.9927C127.666 53.116 128.673 53.6298 129.413 54.3902" stroke="#7A344B" stroke-width="1.35641" stroke-miterlimit="10" stroke-linecap="round"/>
<path d="M112.459 90.9515L112.931 91.7942C112.931 91.7942 105.348 102.419 120.844 109.119C120.844 109.119 115.726 113.517 115.644 113.702C115.582 113.887 97.7024 105.646 105.163 92.4107L112.459 90.9721V90.9515Z" fill="#F4D9BF"/>
<path d="M115.397 114.566L118.069 116.909C119.405 118.08 121.419 117.936 122.591 116.621L123.68 115.388C124.851 114.052 124.707 112.038 123.392 110.866L120.72 108.523L115.397 114.586V114.566Z" fill="#F4D9BF"/>
<path d="M115.397 114.566L118.069 116.909C119.405 118.08 121.419 117.936 122.591 116.621L123.68 115.388C124.851 114.052 124.707 112.038 123.392 110.866L120.72 108.523L115.397 114.586V114.566Z" fill="#F4D9BF"/>
<path d="M122.2 109.818L116.877 115.881L115.233 113.846L120.72 108.523L122.2 109.818Z" fill="#F4D9BF"/>
<path d="M122.199 109.818L116.876 115.881L115.253 114.422C114.76 113.99 114.801 113.209 115.294 112.819L120.699 108.523L122.179 109.818H122.199Z" fill="#F4D9BF"/>
<path d="M117.842 110.743L114.944 113.312C114.78 112.777 117.678 108.585 118.212 108.42L122.425 107.167C122.959 107.002 123.535 107.311 123.699 107.845L124.275 109.222C124.439 109.756 122.651 109.489 122.117 109.653L119.116 111.421C118.582 111.585 118.006 111.277 117.842 110.743Z" fill="#F4D9BF"/>
<path d="M108.122 79.1138L101.772 97.9392C101.607 98.4529 101.915 98.9667 102.532 99.1723L112.006 102.522C112.911 102.83 113.979 102.399 114.123 101.638L115.911 91.938C115.911 91.938 117.638 79.0727 109.746 78.2301C109.006 78.1478 108.307 78.5383 108.122 79.0932V79.1138Z" fill="#F05A28"/>
</g>
<defs>
<filter id="filter0_d_109_35" x="0.458008" y="8" width="213.693" height="213.693" filterUnits="userSpaceOnUse" color-interpolation-filters="sRGB">
<feFlood flood-opacity="0" result="BackgroundImageFix"/>
<feColorMatrix in="SourceAlpha" type="matrix" values="0 0 0 0 0 0 0 0 0 0 0 0 0 0 0 0 0 0 127 0" result="hardAlpha"/>
<feOffset dy="14"/>
<feGaussianBlur stdDeviation="12"/>
<feComposite in2="hardAlpha" operator="out"/>
<feColorMatrix type="matrix" values="0 0 0 0 0 0 0 0 0 0 0 0 0 0 0 0 0 0 0.06 0"/>
<feBlend mode="normal" in2="BackgroundImageFix" result="effect1_dropShadow_109_35"/>
<feBlend mode="normal" in="SourceGraphic" in2="effect1_dropShadow_109_35" result="shape"/>
</filter>
<clipPath id="clip0_109_35">
<rect width="149" height="140.718" fill="white" transform="translate(44 27.2823)"/>
</clipPath>
</defs>
</svg>
