<svg width="215" height="222" viewBox="0 0 215 222" fill="none" xmlns="http://www.w3.org/2000/svg">
<g filter="url(#filter0_d_109_37)">
<rect x="24.458" y="18" width="165.693" height="165.693" rx="82.8464" fill="white"/>
</g>
<path d="M69.4994 124.738L29.7113 131.832C26.9031 132.335 24.1983 130.443 23.6958 127.634L17.8428 94.8669C17.1186 90.8171 18.4784 79.6286 24.4348 78.5644L56.0643 72.9184C61.8285 71.8985 67.0311 81.3874 67.8293 85.9397L73.6674 118.707C74.17 121.515 72.2781 124.22 69.4699 124.723L69.4994 124.738Z" fill="#5FC8D7"/>
<path d="M70.9331 132.807L31.145 139.902C28.3368 140.404 25.632 138.513 25.1295 135.704L18.035 95.9162C17.5325 93.108 19.4243 90.4032 22.2326 89.9007L62.0207 82.8062C64.8289 82.3037 67.5337 84.1956 68.0362 87.0038L75.1307 126.792C75.6332 129.6 73.7414 132.305 70.9331 132.807Z" fill="#2899D5"/>
<path d="M66.3515 128.787L34.0421 134.552C31.7659 134.965 29.5637 133.428 29.1646 131.152L23.4004 98.8427C22.9865 96.5666 24.5237 94.3643 26.7998 93.9652L59.1092 88.201C61.3853 87.8019 63.5876 89.3243 63.9866 91.6004L69.7509 123.91C70.15 126.186 68.6276 128.388 66.3515 128.787Z" fill="#E7EEF1"/>
<path d="M182.228 131.95L142.203 126.26C139.38 125.861 137.4 123.215 137.799 120.392L142.484 87.4324C143.06 83.3678 147.849 73.1548 153.85 74.012L185.657 78.5347C191.451 79.3624 193.416 90.0041 192.766 94.586L188.081 127.546C187.682 130.369 185.036 132.349 182.213 131.95H182.228Z" fill="#AC85BC"/>
<path d="M181.074 140.065L141.05 134.374C138.227 133.975 136.246 131.33 136.645 128.506L142.336 88.4819C142.735 85.6589 145.38 83.6783 148.203 84.0774L188.228 89.7677C191.051 90.1668 193.032 92.8124 192.633 95.6355L186.942 135.66C186.543 138.483 183.897 140.464 181.074 140.065Z" fill="#765694"/>
<path d="M177.986 134.803L145.484 130.177C143.193 129.852 141.582 127.708 141.907 125.418L146.534 92.916C146.859 90.6251 149.002 89.0141 151.293 89.3392L183.794 93.9654C186.085 94.2906 187.696 96.4337 187.371 98.7246L182.745 131.226C182.42 133.517 180.277 135.128 177.986 134.803Z" fill="#E7EEF1"/>
<path d="M41.5353 111.583C41.6979 110.859 41.9787 110.209 42.3778 109.617C42.7768 109.026 43.2794 108.524 43.8853 108.11C44.4913 107.696 45.1712 107.4 45.925 107.253L51.6006 106.1L52.7091 111.554C52.8569 112.307 52.8569 113.061 52.7091 113.785C52.5613 114.51 52.2805 115.19 51.8814 115.796C51.4823 116.402 50.9798 116.919 50.3738 117.362C49.7678 117.806 49.088 118.101 48.3342 118.249C47.5804 118.397 46.8266 118.397 46.0876 118.234C45.3486 118.072 44.6687 117.791 44.0331 117.392C43.4124 116.993 42.8803 116.49 42.4221 115.884C41.9787 115.278 41.6683 114.584 41.5205 113.83C41.3727 113.076 41.3727 112.337 41.5205 111.613L41.5353 111.583ZM41.8309 102.759C42.1117 102.316 42.5256 102.035 43.0429 101.932C43.5602 101.828 44.0479 101.932 44.4765 102.213C44.92 102.508 45.186 102.922 45.2895 103.439C45.3929 103.957 45.2895 104.415 45.0086 104.843C44.7278 105.272 44.314 105.553 43.7967 105.656C43.2794 105.76 42.7916 105.656 42.363 105.376C41.9344 105.095 41.6535 104.696 41.5649 104.178C41.4762 103.661 41.5649 103.173 41.8309 102.73V102.759ZM45.7181 114.924C46.2649 115.293 46.8709 115.397 47.5213 115.263C47.8464 115.204 48.1272 115.071 48.3933 114.909C48.6593 114.731 48.8663 114.51 49.0288 114.258C49.1914 113.992 49.3097 113.712 49.3836 113.416C49.4575 113.106 49.4575 112.795 49.3836 112.455L48.8367 109.75L46.4866 110.223C46.1467 110.297 45.8659 110.43 45.6146 110.652C45.3634 110.874 45.1564 111.125 44.9939 111.435C44.8313 111.746 44.713 112.071 44.6687 112.411C44.6096 112.751 44.6244 113.091 44.6835 113.401C44.8165 114.052 45.1564 114.569 45.7033 114.924H45.7181ZM45.9989 101.917C46.2797 101.474 46.6936 101.193 47.2109 101.089C47.7282 100.986 48.2159 101.089 48.6445 101.37C49.088 101.666 49.354 102.08 49.4575 102.597C49.5609 103.114 49.4575 103.572 49.1766 104.001C48.8958 104.43 48.482 104.71 47.9647 104.814C47.4474 104.917 46.9596 104.814 46.531 104.533C46.1024 104.237 45.8215 103.853 45.7329 103.336C45.6442 102.819 45.7329 102.331 45.9989 101.887V101.917Z" fill="#EF509C"/>
<path d="M156.805 118.737C156.185 118.323 155.653 117.82 155.224 117.229C154.795 116.638 154.485 115.988 154.308 115.263C154.13 114.539 154.101 113.8 154.219 113.032L155.283 106.262L158.668 106.794L157.559 113.785C157.5 114.125 157.515 114.45 157.604 114.761C157.692 115.071 157.81 115.352 157.988 115.603C158.165 115.855 158.387 116.076 158.653 116.239C158.919 116.401 159.215 116.52 159.54 116.579L166.738 117.717C167.063 117.761 167.373 117.746 167.669 117.673C167.964 117.584 168.245 117.451 168.497 117.273C168.748 117.081 168.969 116.86 169.132 116.594C169.295 116.328 169.413 116.032 169.472 115.707L167.137 115.337C166.368 115.219 165.674 114.953 165.053 114.569C164.432 114.17 163.9 113.697 163.486 113.12C163.057 112.544 162.762 111.908 162.57 111.184C162.378 110.46 162.348 109.721 162.466 108.967C162.584 108.213 162.85 107.504 163.279 106.883C163.708 106.262 164.21 105.73 164.816 105.302C165.422 104.873 166.087 104.563 166.826 104.37C167.565 104.178 168.304 104.134 169.073 104.252C169.842 104.37 170.536 104.636 171.157 105.05C171.778 105.464 172.31 105.967 172.738 106.558C173.167 107.149 173.477 107.799 173.655 108.524C173.832 109.248 173.862 109.987 173.743 110.755L172.916 116.002L172.886 116.224V116.254C172.738 116.978 172.458 117.643 172.044 118.234C171.63 118.825 171.142 119.328 170.566 119.742C169.989 120.156 169.339 120.451 168.644 120.643C167.935 120.821 167.225 120.865 166.486 120.747L158.875 119.55C158.106 119.431 157.426 119.165 156.791 118.751L156.805 118.737ZM166.368 98.7835C166.797 98.4731 167.27 98.3549 167.787 98.4288C168.304 98.5027 168.733 98.7687 169.029 99.1974C169.339 99.626 169.442 100.099 169.369 100.631C169.295 101.163 169.043 101.547 168.615 101.858C168.186 102.168 167.713 102.272 167.196 102.198C166.679 102.124 166.25 101.858 165.954 101.444C165.644 101.015 165.54 100.557 165.614 100.055C165.688 99.5521 165.954 99.1087 166.368 98.7983V98.7835ZM165.688 110.238C165.747 110.593 165.88 110.918 166.058 111.214C166.235 111.509 166.457 111.76 166.708 111.967C166.959 112.174 167.255 112.307 167.595 112.352L169.96 112.721L170.388 109.972C170.433 109.647 170.418 109.337 170.344 109.026C170.27 108.716 170.137 108.435 169.96 108.184C169.782 107.932 169.561 107.725 169.295 107.563C169.029 107.4 168.733 107.297 168.408 107.238C167.743 107.134 167.152 107.267 166.619 107.666C166.087 108.065 165.777 108.583 165.674 109.233C165.629 109.558 165.629 109.898 165.703 110.238H165.688ZM170.566 99.4486C170.994 99.1382 171.467 99.02 171.985 99.0939C172.502 99.1678 172.931 99.4338 173.226 99.8625C173.522 100.291 173.64 100.764 173.566 101.296C173.492 101.828 173.241 102.213 172.812 102.523C172.384 102.833 171.911 102.937 171.393 102.863C170.876 102.789 170.448 102.523 170.137 102.109C169.827 101.68 169.723 101.222 169.797 100.72C169.871 100.217 170.137 99.7738 170.551 99.4634L170.566 99.4486Z" fill="#2899D5"/>
<path d="M124.807 125.033L84.5162 121.87C81.6784 121.649 79.5353 119.136 79.757 116.298L82.3583 83.1167C82.6834 79.0226 86.8071 68.5287 92.8522 69.0164L124.881 71.5291C130.719 71.9873 133.35 82.4959 132.98 87.0926L130.379 120.274C130.157 123.112 127.645 125.255 124.807 125.033Z" fill="#EF509C"/>
<path d="M79.0966 124.477L82.2611 84.1778C82.4856 81.3192 84.9806 79.1875 87.8392 79.412L128.139 82.5765C130.997 82.801 133.129 85.296 132.905 88.1546L129.74 128.454C129.516 131.313 127.021 133.444 124.162 133.22L83.8623 130.055C81.0038 129.831 78.8721 127.336 79.0966 124.477Z" fill="#E80A89"/>
<path d="M86.7227 88.3529L84.154 121.064C83.9719 123.383 85.7044 125.411 88.0236 125.593L120.735 128.162C123.054 128.344 125.082 126.612 125.264 124.292L127.833 91.5811C128.015 89.2619 126.282 87.2341 123.963 87.052L91.2518 84.4833C88.9326 84.3011 86.9048 86.0336 86.7227 88.3529Z" fill="#E7EEF1"/>
<path d="M96.7393 111.258H99.9613V93.9061H103.287V106.661C104.425 105.464 105.607 104.548 106.864 103.942C108.12 103.336 109.391 103.025 110.677 103.025C111.446 103.025 112.17 103.173 112.85 103.484C113.53 103.794 114.121 104.208 114.638 104.725C115.155 105.242 115.554 105.848 115.85 106.528C116.146 107.208 116.293 107.947 116.293 108.716V114.273H96.7688L96.7393 111.258ZM112.864 108.479C112.864 108.154 112.805 107.844 112.672 107.548C112.539 107.253 112.377 107.001 112.155 106.78C111.933 106.558 111.682 106.381 111.401 106.262C111.12 106.144 110.795 106.085 110.47 106.085C110.13 106.085 109.687 106.144 109.14 106.262C108.593 106.381 108.002 106.632 107.351 107.016C106.701 107.4 106.021 107.918 105.312 108.598C104.602 109.277 103.922 110.164 103.272 111.258H112.85V108.479H112.864Z" fill="#AC85BC"/>
<defs>
<filter id="filter0_d_109_37" x="0.458008" y="8" width="213.693" height="213.693" filterUnits="userSpaceOnUse" color-interpolation-filters="sRGB">
<feFlood flood-opacity="0" result="BackgroundImageFix"/>
<feColorMatrix in="SourceAlpha" type="matrix" values="0 0 0 0 0 0 0 0 0 0 0 0 0 0 0 0 0 0 127 0" result="hardAlpha"/>
<feOffset dy="14"/>
<feGaussianBlur stdDeviation="12"/>
<feComposite in2="hardAlpha" operator="out"/>
<feColorMatrix type="matrix" values="0 0 0 0 0 0 0 0 0 0 0 0 0 0 0 0 0 0 0.06 0"/>
<feBlend mode="normal" in2="BackgroundImageFix" result="effect1_dropShadow_109_37"/>
<feBlend mode="normal" in="SourceGraphic" in2="effect1_dropShadow_109_37" result="shape"/>
</filter>
</defs>
</svg>
