<svg width="215" height="222" viewBox="0 0 215 222" fill="none" xmlns="http://www.w3.org/2000/svg">
<g filter="url(#filter0_d_109_30)">
<rect x="24.458" y="18" width="165.693" height="165.693" rx="82.8464" fill="white"/>
</g>
<mask id="mask0_109_30" style="mask-type:alpha" maskUnits="userSpaceOnUse" x="24" y="18" width="167" height="166">
<rect x="24.458" y="18" width="165.693" height="165.693" rx="82.8464" fill="white"/>
</mask>
<g mask="url(#mask0_109_30)">
<path d="M245.926 143.841C245.926 131.924 232.561 121.743 205.855 113.299C179.149 104.88 146.895 100.658 109.091 100.658C71.2881 100.658 39.0335 104.88 12.3275 113.299C-14.4025 121.743 -27.7676 131.924 -27.7676 143.841C-27.7676 155.759 -14.4025 165.939 12.3034 174.359C39.0335 182.802 71.2881 187 109.067 187C146.871 187 179.101 182.778 205.831 174.359C232.561 165.939 245.902 155.759 245.902 143.841H245.926Z" fill="#FFD501"/>
<path d="M223 152.5C223 141.329 212.054 131.767 190.187 123.847C168.32 115.928 141.92 112 110.988 112C80.0554 112 53.6557 115.96 31.7885 123.847C9.92129 131.767 -1.00024 141.297 -1.00024 152.5C-1.00024 163.704 9.92129 173.233 31.7885 181.12C53.6557 189.04 80.0554 193 110.988 193C141.92 193 168.32 189.04 190.187 181.12C212.054 173.201 223 163.671 223 152.5Z" fill="#FFF00F"/>
<g clip-path="url(#clip0_109_30)">
<path d="M102.32 82.9147C103.14 83.4696 103.646 84.2416 103.888 85.2548C104.129 86.2681 104.008 87.2089 103.526 88.0774C103.068 88.9459 102.368 89.5008 101.475 89.7179L74.0697 96.5934C73.1771 96.8347 72.3327 96.6658 71.5366 96.1109C70.7164 95.556 70.2098 94.7841 69.9685 93.7708C69.7273 92.7576 69.8479 91.8167 70.3304 90.9482C70.8129 90.0798 71.4884 89.5249 72.381 89.3078L99.7866 82.4323C100.679 82.2151 101.524 82.3599 102.32 82.9147Z" fill="#F0AB81"/>
<path d="M43.238 94.1807C43.4793 93.6982 43.5517 93.071 43.4069 92.3472L42.5143 87.3293L54.5284 85.2305L55.421 90.2484C55.5416 90.9721 55.807 91.527 56.2171 91.913C56.6754 92.299 57.2303 92.4437 57.9058 92.3472L57.6646 92.3955C57.8093 92.3955 57.9299 92.3472 58.0747 92.3472L60.27 104.892L43.4793 107.835L41.2839 95.2904C41.4528 95.2663 41.5976 95.2181 41.7664 95.1939H41.8147C42.4902 95.0492 42.9727 94.7114 43.238 94.2048V94.1807Z" fill="#F0AB81"/>
<path d="M34.7461 76.6422C34.8667 77.3177 34.7461 77.9208 34.336 78.4757C33.95 79.0306 33.4192 79.3683 32.7438 79.4889C32.0683 79.6096 31.4651 79.4889 30.9103 79.0788C30.3554 78.6928 30.0177 78.1621 29.897 77.5107C29.7764 76.8594 29.897 76.2321 30.3072 75.6772C30.6932 75.1224 31.2239 74.7846 31.8753 74.664C32.5266 74.5434 33.1539 74.664 33.7087 75.0741C34.2636 75.4601 34.6013 75.9909 34.722 76.6422H34.7461Z" fill="#F4A289"/>
<path d="M59.8849 73.9885C59.33 73.6025 58.9923 73.0718 58.8717 72.4204C58.751 71.769 58.8717 71.1418 59.2818 70.5869C59.6678 70.032 60.1985 69.6943 60.8499 69.5737C61.5012 69.4531 62.1285 69.5737 62.6833 69.9838C63.2382 70.3698 63.576 70.9005 63.6966 71.5519C63.8172 72.2274 63.6966 72.8305 63.2865 73.3854C62.9005 73.9402 62.3697 74.278 61.6942 74.3986C61.0187 74.5192 60.4156 74.3986 59.8608 73.9885H59.8849Z" fill="#F4A289"/>
<path d="M52.7439 81.3947C51.7548 82.3838 50.3315 83.011 48.5221 83.2764C46.7369 83.5659 45.1929 83.3729 43.9143 82.6974" stroke="#703043" stroke-width="0.675489" stroke-linecap="round" stroke-linejoin="round"/>
<path d="M31.2486 64.6524C31.3451 64.0252 31.4658 63.5186 31.5864 63.0843L57.5445 58.5248C57.8581 58.959 58.1476 59.4174 58.413 59.8999C59.0643 61.1302 59.5227 62.3606 59.7398 63.6633L61.3803 73.0719C62.0799 77.0042 61.2597 80.5988 58.9678 83.8798C56.676 87.1607 53.5639 89.1389 49.6316 89.8144C45.6993 90.4899 42.1047 89.6938 38.8238 87.4019C35.5428 85.1101 33.5887 81.998 32.8891 78.0657L31.2486 68.6571C31.0315 67.3785 31.0074 66.0517 31.2245 64.6766L31.2486 64.6524Z" fill="#F5B897"/>
<path d="M31.2485 64.6523C31.3691 63.9768 31.4897 63.422 31.6104 62.9636C31.7792 62.4087 31.9722 61.8539 32.2135 61.299C32.3582 60.9371 32.5753 60.5029 32.8648 59.9963C33.2508 59.2484 33.7333 58.5729 34.3123 57.9215C34.7707 57.3908 35.2532 56.9566 35.7357 56.5706C36.9178 55.6538 38.2446 55.0507 39.6921 54.7853L47.0984 53.4826C48.57 53.2414 49.9933 53.362 51.4408 53.8204C52.0439 54.0134 52.647 54.2787 53.226 54.6165C53.9739 55.0266 54.6735 55.5091 55.3249 56.064C55.7832 56.4499 56.121 56.7877 56.3622 57.0772C56.7965 57.5114 57.1825 57.9698 57.4961 58.4523C57.7614 58.8383 58.0751 59.3208 58.4369 59.8998C59.0883 61.1301 59.5467 62.3605 59.7638 63.6632L60.0533 65.3519C60.1015 65.6655 60.0533 65.9309 59.8603 66.1722C59.6914 66.4134 59.4502 66.5582 59.1607 66.6064L32.8407 71.2142C32.5512 71.2625 32.2859 71.2142 32.0205 71.0453C31.7792 70.8765 31.6345 70.6352 31.5862 70.3457L31.2967 68.657C31.0796 67.3784 31.0555 66.0515 31.2726 64.6764L31.2485 64.6523Z" fill="#CD8D2B"/>
<path d="M31.2482 64.6522C31.3688 63.9767 31.4895 63.4219 31.6101 62.9635C31.7789 62.4086 31.9719 61.8538 32.2132 61.2989C32.3579 60.937 32.5751 60.5028 32.8646 59.9962C33.2505 59.2483 33.733 58.5728 34.312 57.9215C34.7704 57.3907 35.2529 56.9565 35.7354 56.5705C36.9175 55.6538 38.2443 55.0506 39.6918 54.7853L41.2358 54.5199C39.8124 54.8094 38.5338 55.4125 37.3759 56.3051C36.8692 56.6911 36.3867 57.1254 35.9525 57.6561C35.3735 58.3075 34.891 58.983 34.505 59.7308C34.2155 60.2374 33.9984 60.6717 33.8537 61.0335C33.6124 61.5884 33.3953 62.1433 33.2505 62.6981C33.0817 63.3013 32.9611 63.8561 32.8887 64.3869C32.6957 65.762 32.6957 67.0888 32.9128 68.3674L33.2023 70.0562C33.2505 70.3698 33.3953 70.5869 33.6365 70.7558C33.8778 70.9246 34.1432 70.9729 34.4085 70.9246L32.8163 71.2141C32.5268 71.2624 32.2614 71.2141 31.9961 71.0453C31.7548 70.8764 31.6101 70.6351 31.5618 70.3456L31.2723 68.6569C31.0552 67.3783 31.0311 66.0515 31.2482 64.6764V64.6522Z" fill="#A66C26"/>
<path d="M32.8886 64.3628C32.961 63.8321 33.0816 63.2772 33.2505 62.6741C33.4193 62.1192 33.6123 61.5644 33.8536 61.0095C33.9983 60.6476 34.2154 60.2134 34.5049 59.7068C34.8909 58.9589 35.3734 58.2834 35.9524 57.632C36.4108 57.1013 36.8933 56.6671 37.3758 56.2811C37.9065 55.8709 38.8956 55.4126 40.319 54.9542C41.2598 54.6406 42.1524 54.3993 42.9244 54.2305C42.5384 54.327 42.2972 54.4717 42.1766 54.6406C41.9112 55.0748 41.6217 55.3885 41.3322 55.6056C40.8015 55.9916 40.3431 56.4499 39.9088 56.9566C39.354 57.6079 38.8474 58.2834 38.4372 59.0313C38.1478 59.5379 37.9306 59.9721 37.7859 60.334C37.5446 60.8889 37.3275 61.4437 37.1828 61.9986C37.0621 62.457 36.9174 63.0118 36.8209 63.6873C36.6279 65.0624 36.6279 66.3893 36.845 67.6679L37.1345 69.3566C37.1828 69.5737 36.9656 69.8632 36.5314 70.2251C36.2178 70.4905 36.1213 70.6352 36.2902 70.6111L34.4326 70.9488C34.1431 70.9971 33.8777 70.9488 33.6364 70.78C33.3952 70.6111 33.2505 70.3698 33.2022 70.0803L32.9127 68.3916C32.6956 67.113 32.6715 65.7862 32.8886 64.4111V64.3628Z" fill="#B97C27"/>
<path d="M31.8756 72.2515L31.4172 69.5737C32.0686 69.4772 32.9371 69.0671 33.9503 68.3675C36.025 66.9924 38.0274 64.8935 39.9332 61.9986C40.1262 61.6849 40.4398 61.4919 40.8741 61.4196C41.4531 61.3231 41.9114 61.4678 42.2251 61.8538C42.3939 62.0709 42.8282 62.3604 43.5278 62.7464C44.5169 63.2772 45.6508 63.7355 46.9294 64.1215C50.7652 65.2313 55.0835 65.376 59.8843 64.5317L60.3427 67.2577C60.8975 70.4663 59.9808 73.4578 57.5924 76.208C55.2041 78.9582 52.0679 80.6951 48.1356 81.3706C44.2033 82.0461 40.657 81.4913 37.4725 79.706C34.2881 77.9208 32.4305 75.436 31.8756 72.2274V72.2515Z" fill="#F5B897"/>
<path d="M46.2775 83.0352C46.9288 83.3247 47.6284 83.4453 48.3522 83.3971C49.0759 83.3488 49.7514 83.1317 50.3545 82.7698C50.9576 82.408 51.4643 81.9496 51.8503 81.3706H51.9709C52.0433 82.408 51.7296 83.3247 51.03 84.1208C50.3304 84.9169 49.4619 85.3512 48.4246 85.4235C47.3872 85.4959 46.4705 85.1823 45.6744 84.4827C44.8782 83.7831 44.4681 82.9146 44.3958 81.8772H44.6129C45.0712 82.3838 45.6261 82.794 46.2533 83.0593L46.2775 83.0352Z" fill="white"/>
<path d="M48.3762 83.397C47.6524 83.4453 46.9528 83.3247 46.3014 83.0352C45.6742 82.7457 45.1193 82.3597 44.661 81.8289H44.4438C44.5162 82.8904 44.9263 83.7589 45.7225 84.4585C46.5186 85.1581 47.4353 85.4717 48.4727 85.3994C49.51 85.327 50.3785 84.9169 51.0781 84.0966C51.7536 83.3005 52.0672 82.3838 52.019 81.3464H51.8984C51.5124 81.9254 51.0057 82.4079 50.4026 82.7457C49.7995 83.1075 49.124 83.3247 48.4003 83.3729L48.3762 83.397Z" fill="white" stroke="#44352B" stroke-width="0.289495" stroke-linecap="round" stroke-linejoin="round"/>
<path d="M54.3113 70.3458C53.4187 69.7427 52.4537 69.5497 51.3922 69.7427C50.4755 69.9357 49.7276 70.3699 49.1245 71.0936" stroke="#44352B" stroke-width="0.603116" stroke-linecap="round" stroke-linejoin="round"/>
<path d="M44.8303 71.6969C43.8653 71.1903 42.8762 71.1179 41.863 71.4315C40.9704 71.721 40.2708 72.2518 39.7642 73.0237" stroke="#44352B" stroke-width="0.603116" stroke-linecap="round" stroke-linejoin="round"/>
<path d="M39.4988 67.9573C39.933 66.6305 40.8498 65.8826 42.2731 65.7137H43.0692" stroke="#A66C26" stroke-width="0.554866" stroke-miterlimit="10" stroke-linecap="round"/>
<path d="M48.8359 65.545C49.9215 65.545 50.983 65.5933 52.0445 65.738C52.3581 65.8345 52.6476 65.9069 52.9612 66.0034C53.0819 66.0517 53.2025 66.124 53.3231 66.1723" stroke="#A66C26" stroke-width="0.554866" stroke-miterlimit="10" stroke-linecap="round"/>
<path d="M48.7627 79.7302L47.0498 80.0197" stroke="#212020" stroke-width="0.603116" stroke-linecap="round" stroke-linejoin="round"/>
<path d="M86.3487 135.965C86.3246 135.82 86.2763 135.651 86.2039 135.506C85.8903 134.903 85.3354 134.445 84.5152 134.131C83.9362 133.914 83.1642 133.769 82.2234 133.697C79.449 133.456 76.2646 133.239 72.7183 133.046C70.9089 132.949 67.7245 132.804 63.2132 132.611C61.2591 132.515 59.7392 132.563 58.7019 132.732C57.568 132.901 55.9999 133.383 53.9734 134.155C49.245 135.965 45.6987 137.34 43.3586 138.329C39.4745 139.921 36.0488 141.513 33.0574 143.057C30.1624 144.987 28.8838 147.713 29.2457 151.236C29.5352 154.034 30.8138 156.229 33.0574 157.846C33.2021 157.918 33.371 157.99 33.5399 158.063C34.0947 158.304 34.8426 158.545 35.7593 158.787C42.7796 160.717 50.6442 161.754 59.2808 161.899C60.9696 161.923 62.6824 161.923 64.4194 161.899C65.4326 161.874 66.1805 161.826 66.7354 161.778C67.5797 161.681 68.3276 161.513 68.9548 161.295C69.5097 161.103 70.1128 160.813 70.74 160.451C71.126 160.21 71.6809 159.848 72.4046 159.341C73.0078 158.907 73.6109 158.521 74.1657 158.111C76.1922 156.712 77.8568 155.506 79.2078 154.541C79.7868 154.106 80.3416 153.696 80.9206 153.262C81.379 152.9 81.8615 152.538 82.344 152.176C82.8024 151.839 83.2366 151.477 83.695 151.115C84.274 150.657 84.8771 150.222 85.4561 149.764C85.8903 149.45 86.3004 149.113 86.6864 148.727C87.4102 148.051 87.9168 147.231 88.2304 146.29C88.5923 145.277 88.7129 144.239 88.5923 143.202C88.4716 142.285 88.3269 141.393 88.1339 140.524C88.0615 140.235 87.9891 139.945 87.9168 139.656C87.5549 138.377 87.0483 137.147 86.3969 135.965M84.9977 139.439L86.2522 137.098C86.6382 138.015 86.9759 138.86 87.2413 139.656C87.579 140.645 87.7962 141.634 87.9168 142.647C88.0615 143.588 87.965 144.481 87.6273 145.349C87.2895 146.218 86.807 146.99 86.1557 147.665C85.4319 148.437 84.6599 149.113 83.8397 149.692C83.0918 150.246 82.344 150.825 81.6202 151.404C80.9448 151.935 80.2693 152.466 79.5938 152.997C78.9424 153.503 78.291 154.01 77.6397 154.516C76.5782 155.337 75.565 156.109 74.6241 156.784C73.442 157.653 72.2599 158.425 71.0778 159.1C69.9198 159.776 68.5447 160.21 66.9283 160.451C65.9634 159.052 65.4085 157.074 65.2155 154.541C64.8536 156.76 65.1673 158.714 66.1805 160.451C62.7307 160.861 58.6295 160.885 53.9011 160.524C49.1968 160.162 44.8061 159.559 40.729 158.762C36.652 157.942 34.4566 157.436 34.0947 157.243C33.7329 157.025 33.1298 156.615 32.3095 156.012C30.5243 153.6 30.1624 150.898 31.2239 147.906C31.2722 147.786 31.2963 147.665 31.3204 147.544C31.6823 147.906 32.0924 148.196 32.5749 148.389C32.7196 148.485 32.8885 148.558 33.0574 148.606C33.2263 148.678 33.4193 148.727 33.6122 148.799C35.2045 149.378 37.0379 149.909 39.0885 150.391C40.3913 150.705 42.2489 151.091 44.6854 151.573C48.6178 152.345 51.561 152.876 53.5151 153.165C55.5657 153.455 57.3268 153.624 58.7984 153.648C60.2941 153.672 61.5727 153.696 62.61 153.72C63.6715 153.72 64.54 153.576 65.2638 153.31C65.9875 153.045 67.2661 152.345 69.1237 151.187C70.9572 150.053 72.67 148.944 74.214 147.882C74.7689 147.52 75.2513 147.158 75.7097 146.845C76.3128 146.411 76.9159 146 77.5191 145.566C78.1945 145.036 78.87 144.529 79.5455 144.046C80.1969 143.564 80.8241 143.057 81.4272 142.551C82.0304 142.068 82.6335 141.61 83.2366 141.151C83.8156 140.693 84.3463 140.162 84.8288 139.607C84.8771 139.535 84.9253 139.463 84.9977 139.39M46.3259 146.435C47.4598 145.325 48.7866 144.553 50.2582 144.071C52.5983 143.371 54.7937 143.66 56.8443 144.987C53.0326 144.77 49.4139 145.518 46.0364 147.255L46.3259 146.435ZM44.0341 141.224C44.0341 141.224 44.2271 141.079 44.3236 141.007C46.0123 139.68 47.7493 139.632 49.5345 140.862L49.3415 141.079C46.9532 140.404 45.1921 140.452 44.0341 141.248V141.224Z" fill="#FF6441"/>
<path d="M44.2993 141.031C44.2993 141.031 44.1063 141.175 44.0098 141.248C45.1678 140.476 46.953 140.428 49.3172 141.103L49.5102 140.886C47.725 139.656 45.988 139.704 44.2993 141.031ZM50.2339 144.094C48.7623 144.577 47.4355 145.349 46.3016 146.459L46.0121 147.279C49.4137 145.542 53.0083 144.794 56.82 145.011C54.7694 143.708 52.574 143.395 50.2339 144.094ZM86.2038 137.074L84.9493 139.414C84.9493 139.414 84.8287 139.559 84.7804 139.631C84.2979 140.186 83.7672 140.717 83.1882 141.175C82.5851 141.634 81.9819 142.092 81.3788 142.575C80.7516 143.081 80.1244 143.588 79.4971 144.07C78.8216 144.577 78.1461 145.084 77.4706 145.59C76.8675 146.024 76.2644 146.459 75.6613 146.869C75.2029 147.182 74.7204 147.544 74.1656 147.906C72.6216 148.968 70.9329 150.077 69.0753 151.211C67.2418 152.345 65.9391 153.069 65.2153 153.334C64.5157 153.6 63.6231 153.744 62.5616 153.744C61.5243 153.744 60.2457 153.72 58.7499 153.672C57.2783 153.624 55.5172 153.455 53.4666 153.189C51.5126 152.924 48.5693 152.393 44.637 151.597C42.2004 151.115 40.3429 150.729 39.0401 150.415C36.9895 149.933 35.1561 149.402 33.5638 148.823C33.3708 148.751 33.202 148.678 33.009 148.63C32.8401 148.558 32.6953 148.485 32.5265 148.413C32.044 148.22 31.6339 147.93 31.272 147.568C31.272 147.689 31.2237 147.786 31.1755 147.93C30.114 150.922 30.4759 153.624 32.2611 156.036C33.0813 156.639 33.6845 157.049 34.0463 157.267C34.3841 157.46 36.6035 157.966 40.6806 158.786C44.7335 159.582 49.1242 160.161 53.8526 160.547C58.5811 160.909 62.6823 160.885 66.1321 160.475C65.1188 158.738 64.8052 156.784 65.1671 154.565C65.3601 157.098 65.915 159.076 66.8799 160.475C68.4963 160.234 69.8714 159.775 71.0294 159.124C72.1874 158.449 73.3695 157.677 74.5757 156.808C75.5165 156.133 76.5298 155.361 77.5913 154.54C78.2426 154.01 78.894 153.503 79.5454 153.021C80.2209 152.49 80.8963 151.959 81.5718 151.428C82.3197 150.849 83.0676 150.27 83.7913 149.716C84.6115 149.112 85.3835 148.437 86.1073 147.689C86.7586 147.014 87.2411 146.242 87.5789 145.373C87.9166 144.505 88.0131 143.612 87.8684 142.671C87.7477 141.658 87.5065 140.669 87.1929 139.68C86.9275 138.884 86.6139 138.039 86.2038 137.122V137.074Z" fill="#FF3633"/>
<path d="M41.2126 127.521C40.5371 127.69 40.0546 128.004 39.6927 128.414C39.1861 129.017 38.9449 129.958 38.9931 131.284C38.9931 133.311 39.3309 135 39.9581 136.399C40.513 137.653 41.4297 138.86 42.66 140.042C43.4803 140.79 44.6865 141.755 46.327 142.913C47.1714 143.516 47.8227 143.95 48.3052 144.239C49.0531 144.698 49.7527 145.036 50.4282 145.301C51.2484 145.615 52.1651 145.832 53.2025 145.952C54.0227 146.049 54.9636 146.073 56.0733 146.049C59.692 146.001 63.2383 145.518 66.664 144.601C67.6049 144.36 68.4975 143.926 69.366 143.347C70.2345 142.768 70.8135 142.358 71.103 142.092C71.3925 141.827 71.6337 141.489 71.8026 141.079C71.9715 140.693 72.1886 140.138 72.454 139.439C73.1536 137.557 73.6361 135.965 73.8773 134.662C74.1186 133.383 74.1427 132.418 73.9497 131.791C73.7567 131.164 72.7193 129.065 70.8135 125.47L41.2126 130.32V127.569V127.521Z" fill="#55A3F2"/>
<path d="M68.9789 150.608L62.996 147.062L61.0178 154.806L66.9766 156.712L68.9548 150.608H68.9789Z" fill="#F0AB81"/>
<path d="M58.244 140.307C58.4853 140.38 58.7265 140.452 58.9436 140.549L60.0775 141.079L47.8222 134.228C46.6883 133.408 45.5062 132.732 44.2759 132.177C42.4424 131.333 40.4883 130.778 38.4136 130.464L38.5824 131.574C40.4159 132.684 42.2976 133.721 44.2035 134.71C48.6907 137.002 53.3467 138.86 58.1958 140.331L58.244 140.307Z" fill="#4E8CF2"/>
<path d="M28.0398 124.12C26.8818 124.723 25.9409 125.543 25.2172 126.58C24.4935 127.618 24.0351 128.776 23.8421 130.078C23.6732 131.405 23.8421 132.636 24.2763 133.794C24.59 134.614 25.0966 135.434 25.7962 136.254C26.2787 136.857 26.9783 137.533 27.8468 138.353C30.5005 140.766 33.6849 143.154 37.4243 145.566C39.692 147.014 43.1418 149.064 47.7978 151.694C49.1488 152.466 50.2103 152.997 50.9823 153.262C52.1403 153.696 53.3948 153.962 54.794 154.01C56.0967 154.082 57.3271 153.962 58.4609 153.696C59.7395 153.383 60.8251 152.852 61.7419 152.128C61.7901 152.104 61.8142 152.056 61.8625 152.032C62.8034 151.284 63.4788 150.343 63.9131 149.209C64.082 148.775 64.2026 148.341 64.2508 147.906C64.2508 147.858 64.2508 147.81 64.2508 147.786C64.3473 147.062 64.275 146.338 64.082 145.639C63.7442 144.577 63.0687 143.588 62.0314 142.671C61.3318 142.068 60.3185 141.345 58.9675 140.548C58.9675 140.548 58.9675 140.548 58.9434 140.548C58.7022 140.476 58.4609 140.404 58.2438 140.307C53.3948 138.836 48.7387 136.954 44.2515 134.686C42.3216 133.721 40.464 132.66 38.6305 131.55L38.4616 130.44C40.5122 130.754 42.4663 131.309 44.3239 132.153C45.5543 132.708 46.7364 133.408 47.8702 134.204C47.8702 134.011 47.822 133.818 47.7737 133.649C46.2539 128.727 42.9005 125.591 37.7137 124.192C37.2554 124.047 36.7729 123.927 36.2663 123.782C34.4087 123.299 32.8888 123.058 31.6826 123.13C30.404 123.179 29.1978 123.516 28.0398 124.144V124.12Z" fill="#55A3F2"/>
<path d="M36.3629 100.839C37.1349 101.418 37.5209 102.094 37.4967 102.866L37.159 124.94C37.2314 126.243 36.7971 127.304 35.7839 128.1C34.8672 128.848 33.8057 129.186 32.5753 129.137C31.345 129.089 30.3317 128.896 29.5356 128.51C28.643 128.076 28.2088 127.473 28.2329 126.749L27.4368 106.991C27.4609 106.074 28.1846 104.699 29.608 102.842C31.1278 100.863 32.4064 99.8743 33.4438 99.9226C34.5777 99.9467 35.5426 100.26 36.3146 100.839H36.3629Z" fill="#F0AB81"/>
<path d="M43.0455 94.7838C42.8525 94.7115 42.6595 94.6873 42.4424 94.7115L34.1435 97.3652C33.9505 97.3893 33.8299 97.4617 33.7334 97.5823C31.8034 98.3543 30.2353 99.6088 29.0773 101.322C27.8711 103.107 27.3404 105.061 27.4127 107.208L27.6057 113.529L36.2182 113.239L41.212 132.853L72.3328 130.609L68.69 100.284L75.0106 99.9465L74.4316 88.3667L65.409 88.8009C64.058 88.8733 62.7553 89.1869 61.5491 89.7659C60.3911 90.3449 59.3779 91.1169 58.4853 92.0578H57.5203C57.3032 92.106 57.1343 92.2025 56.9895 92.3473C56.8448 92.4679 56.7483 92.6126 56.7242 92.7815C56.5312 94.1084 55.8798 95.1698 54.7942 95.9418C53.8533 96.5932 52.5265 97.0757 50.8136 97.3652C47.0261 98.0165 44.5654 97.2687 43.4074 95.1216C43.335 94.9768 43.1902 94.8562 43.0214 94.7838H43.0455Z" fill="#0FA242"/>
<path d="M83.8886 151.308L77.1337 151.26C77.1337 151.26 77.0372 151.26 76.9889 151.26C76.9166 151.26 76.8924 151.26 76.8683 151.26C76.8201 151.26 76.7959 151.26 76.7718 151.26L73.8286 150.874C73.8286 150.874 73.7321 150.85 73.6839 150.826C73.5874 150.826 73.515 150.826 73.4426 150.801L72.7189 150.633C72.7189 150.633 72.5259 150.367 72.3088 149.861C72.0916 149.354 71.3679 149.354 70.1858 149.909C69.1484 150.898 68.4488 152.08 68.1111 153.479C67.9422 154.251 67.9663 154.999 68.1834 155.723C68.7383 157.436 69.6792 158.859 71.006 159.969C71.585 160.427 72.2364 160.861 72.9842 161.223C73.0325 161.247 73.0807 161.296 73.129 161.32C74.3593 162.116 75.7103 162.502 77.1337 162.502C79.6668 162.55 81.8139 161.682 83.5508 159.896C86.3975 157.001 86.5182 154.131 83.8886 151.308Z" fill="#334E6D"/>
<path d="M67.4586 154.372L73.1278 150.367L66.8554 145.422L62.6819 150.102L67.4586 154.396V154.372Z" fill="#F0AB81"/>
<path d="M81.0413 128.076C80.5588 128.39 80.0522 128.703 79.5697 129.041L69.944 137.026C69.5339 137.364 69.1238 137.726 68.7136 138.088C67.1214 139.463 65.5774 140.935 64.1058 142.503C64.1058 142.551 64.0576 142.623 64.0576 142.672C63.8163 143.637 63.8163 144.602 64.0093 145.567C64.0817 145.784 64.1541 145.977 64.2506 146.194L64.9743 145.567C65.4086 145.205 65.8428 144.819 66.2771 144.457C67.6039 143.371 68.8101 142.165 69.944 140.838C71.681 139.149 73.4179 137.437 75.1308 135.748C77.8327 133.118 80.5588 130.489 83.309 127.883C83.7915 127.449 84.274 127.015 84.7565 126.605C84.7565 126.605 84.7806 126.556 84.8048 126.532C84.9978 126.412 85.2149 126.291 85.4079 126.194C83.8156 126.436 82.3923 127.039 81.1619 127.956L81.0413 128.076Z" fill="#4E8CF2"/>
<path d="M69.3645 129.716C69.1715 129.861 69.0026 130.03 68.8096 130.175C67.6034 131.116 66.5901 132.201 65.7458 133.432C63.864 136.206 63.3333 139.222 64.1053 142.503C65.5769 140.934 67.1209 139.487 68.7131 138.088C69.1232 137.726 69.5333 137.364 69.9434 137.026L79.5692 129.041C80.0517 128.727 80.5583 128.414 81.0408 128.076L81.1614 127.955C82.3918 127.039 83.8151 126.46 85.4073 126.194C85.1902 126.315 84.9972 126.411 84.8042 126.532C84.8042 126.532 84.756 126.58 84.756 126.604C84.2735 127.015 83.791 127.449 83.3085 127.883C80.5583 130.488 77.8322 133.118 75.1302 135.748C73.3933 137.436 71.6804 139.125 69.9434 140.838C68.8096 142.165 67.6034 143.371 66.2765 144.457C65.8423 144.818 65.408 145.18 64.9738 145.566L64.25 146.194C64.25 146.194 64.3465 146.314 64.3707 146.387C64.9738 147.207 65.6251 147.955 66.3248 148.678C66.6142 148.944 66.9279 149.209 67.2415 149.426C68.2065 150.078 69.2921 150.536 70.4983 150.801C71.7769 151.115 73.0073 151.043 74.1894 150.608C74.4306 150.512 74.696 150.415 74.9372 150.295C77.9769 148.799 80.9684 147.207 83.9599 145.518C84.9248 144.963 85.8657 144.408 86.7824 143.829C88.8572 142.599 90.7389 141.127 92.4517 139.415C93.9474 137.943 95.2984 136.327 96.4805 134.614C98.0969 132.298 99.0377 129.741 99.3031 126.918C99.4961 124.916 99.1584 123.034 98.2899 121.249C97.8074 120.284 97.1801 119.439 96.3599 118.716C95.1296 117.63 93.6821 117.003 91.9934 116.81C90.2564 116.81 88.5918 117.148 86.9996 117.871C82.7295 119.874 78.7489 122.31 75.0337 125.157C74.5513 125.519 74.0688 125.905 73.5621 126.315C72.1147 127.449 70.7154 128.583 69.3403 129.716H69.3645Z" fill="#55A3F2"/>
<g opacity="0.3">
<path d="M58.2674 91.9855C58.388 91.9855 58.4845 91.9132 58.5328 91.8649C59.353 91.0206 60.2456 90.3451 61.2589 89.8143C61.4519 89.7178 61.5966 89.7661 61.7414 89.9349C61.862 90.1038 61.862 90.2727 61.7172 90.4174L61.5725 90.5622C61.5725 90.5622 61.4278 90.6828 61.3071 90.6828H60.511C60.2939 90.7311 60.125 90.8276 59.9803 90.9723C59.8355 91.0929 59.739 91.2377 59.7149 91.4065C59.4495 93.2159 58.3398 94.5186 56.3375 95.3147C56.1686 95.3871 56.0238 95.3389 55.9032 95.1941C55.7826 95.0494 55.7826 94.9046 55.9032 94.7357C56.3375 94.1085 56.5787 93.433 56.6752 92.7093C56.6752 92.5404 56.7717 92.3957 56.9406 92.275C57.0853 92.1303 57.2542 92.0579 57.4713 92.0097H58.2674V91.9855Z" fill="#105528"/>
<path d="M74.4806 98.7402C74.4806 98.7402 74.6736 98.7402 74.7701 98.8126C74.8425 98.885 74.8666 98.9815 74.8907 99.078V99.464C74.8907 99.464 74.8907 99.657 74.8184 99.7293C74.746 99.8017 74.6495 99.85 74.553 99.85L72.1647 99.9706C72.1647 99.9706 71.9958 99.9706 71.9234 99.8982C71.851 99.8258 71.8028 99.7535 71.7787 99.657L71.7063 99.271C71.7063 99.271 71.7063 99.0539 71.7787 98.9815C71.851 98.885 71.9234 98.8367 72.044 98.8367L74.4565 98.7402H74.4806Z" fill="#105528"/>
<path d="M30.356 105.857C30.4043 107.618 31.0798 109.066 32.3342 110.248C33.5887 111.43 35.1086 112.009 36.8455 111.936L38.7996 111.888C39.0168 111.888 39.1615 111.985 39.1856 112.202L41.381 124.747C41.381 124.747 41.4533 124.94 41.5498 124.988C41.6463 125.06 41.7428 125.084 41.8393 125.06L38.8238 126.387C38.8238 126.387 38.6308 126.387 38.5343 126.315C38.4378 126.242 38.3895 126.17 38.3654 126.073L36.1701 113.529C36.1218 113.312 36.0012 113.215 35.8082 113.215L27.8953 113.48C27.8953 113.48 27.7023 113.48 27.6299 113.384C27.5576 113.312 27.5093 113.215 27.5093 113.119L27.3163 107.184C27.2439 105.037 27.7988 103.083 28.9809 101.298C30.1389 99.5605 31.707 98.3061 33.637 97.5341C33.7335 97.4376 33.8782 97.3652 34.0471 97.3169L35.2051 96.9551C33.6611 97.8718 32.4549 99.1022 31.5864 100.67C30.6938 102.262 30.2836 103.999 30.3319 105.857H30.356Z" fill="#105528"/>
</g>
<path d="M97.8802 86.9918L97.5907 85.1101C97.4219 84.0727 97.6149 83.1318 98.218 82.2875C98.797 81.4431 99.5931 80.9365 100.582 80.7435L102.585 80.4058C103.574 80.2369 104.466 80.454 105.286 81.0571C106.107 81.6602 106.589 82.5046 106.758 83.542L107.072 85.3995C107.168 86.0268 107.023 86.5817 106.686 87.0883C106.348 87.5949 105.89 87.8844 105.286 87.9809L100.413 88.8252C99.8343 88.9217 99.2795 88.8011 98.797 88.4393C98.3145 88.0774 98.025 87.5949 97.9285 86.9677L97.8802 86.9918Z" fill="#F0AB81"/>
<path d="M100.993 80.647C100.101 80.8641 99.4978 81.3225 99.1359 81.998C98.7981 82.6493 98.7016 83.4696 98.8705 84.4828L99.16 86.3645C99.2806 87.0883 99.4978 87.6673 99.7872 88.0774C100.149 88.6081 100.607 88.8011 101.138 88.7046L100.439 88.8494C99.8596 88.9459 99.3048 88.8011 98.7981 88.4151C98.2915 88.0291 98.002 87.5466 97.8814 86.9194L97.5678 85.0377C97.3989 84.0003 97.5919 83.0595 98.195 82.2151C98.774 81.3707 99.5701 80.8641 100.559 80.6711L100.969 80.5988L100.993 80.647Z" fill="#F0AB81"/>
<path d="M47.9918 127.835C48.5225 128.052 48.8361 128.558 48.9326 129.379C49.0291 130.199 48.8844 131.091 48.5225 132.056C48.1365 133.021 47.6299 133.769 47.0026 134.3C46.3513 134.831 45.7723 134.976 45.2415 134.783L29.1746 128.438C28.6438 128.221 28.3302 127.714 28.2096 126.894C28.1131 126.074 28.2578 125.181 28.6197 124.216C29.0057 123.251 29.5123 122.503 30.1395 121.972C30.7909 121.442 31.3699 121.273 31.9006 121.49L47.9676 127.835H47.9918Z" fill="#F0AB81"/>
<path d="M29.0286 128.534C28.5702 128.076 28.3048 127.666 28.2566 127.328L28.1842 127.111L27.9912 119.632C28.2083 120.838 28.4737 122.744 28.7391 125.301C28.8597 126.435 29.1251 127.159 29.5352 127.521L29.6799 127.593L45.6746 133.914H45.7228L45.6263 134.421V134.348L45.5539 134.855L45.2644 134.782L29.0527 128.534H29.0286Z" fill="#F0AB81"/>
<path d="M46.6152 124.819L49.8237 125.109C50.7646 125.205 51.5607 125.615 52.1638 126.339C52.7669 127.087 53.0323 127.931 52.9599 128.872L52.6222 132.587C52.5257 133.552 52.1156 134.324 51.3918 134.952C50.644 135.579 49.7996 135.844 48.8587 135.748L45.6502 135.458C45.0953 135.41 44.6128 135.169 44.2509 134.71C43.8891 134.276 43.7202 133.769 43.7926 133.215L44.3716 126.701C44.4198 126.146 44.6611 125.664 45.1194 125.302C45.5537 124.94 46.0603 124.795 46.6152 124.843V124.819Z" fill="#F0AB81"/>
<path d="M33.251 122.02C33.4199 122.02 33.6129 122.02 33.7576 122.02C33.2751 122.069 32.5514 122.165 31.5864 122.358C31.9 122.165 32.4549 122.045 33.251 122.045V122.02Z" fill="#F0AB81"/>
<path d="M105.866 78.2105C105.167 78.4035 104.395 78.8136 103.526 79.4167C102.079 80.4541 101.331 80.9848 101.307 80.9848C100.897 81.2502 100.631 81.4432 100.511 81.588C100.39 81.7086 100.318 81.8533 100.294 82.0222C100.27 82.1911 100.294 82.3599 100.342 82.5047C100.414 82.6494 100.559 82.7459 100.728 82.7942C100.897 82.8666 101.066 82.8666 101.235 82.7942C101.452 82.7459 101.741 82.5771 102.103 82.3117C102.296 82.5529 102.658 82.5529 103.14 82.3599C103.575 82.167 104.226 81.8292 105.07 81.3226C105.866 80.8642 106.421 80.43 106.759 79.9957C107.024 79.6821 107.169 79.3685 107.193 79.0549C107.193 78.6448 107.049 78.3553 106.735 78.1864C106.542 78.0899 106.252 78.0899 105.842 78.1864L105.866 78.2105Z" fill="#F0AB81"/>
</g>
<g clip-path="url(#clip1_109_30)">
<path d="M137.995 121.622C137.609 121.936 137.32 122.346 137.102 122.804C137.03 122.925 137.006 123.07 137.03 123.215C137.03 123.552 137.102 123.818 137.223 124.011C137.368 124.228 137.874 124.469 138.791 124.734C139.708 125.024 140.818 124.976 142.144 124.614C143.109 124.083 143.713 123.697 143.978 123.48C144.412 123.118 144.774 122.708 145.088 122.225C145.401 121.743 145.57 121.212 145.594 120.609C145.594 120.513 145.594 120.416 145.618 120.32C145.667 118.631 145.305 117.087 144.557 115.664C143.809 114.24 142.579 113.734 140.866 114.095C139.684 114.53 139.129 115.519 139.201 117.063C139.25 118.462 139.129 119.644 138.839 120.609C138.815 120.706 138.767 120.778 138.695 120.85C138.453 121.116 138.188 121.357 137.923 121.598L137.995 121.622Z" fill="#FF6127"/>
<path d="M138.261 122.201C136.862 124.155 135.631 126.206 134.594 128.377C134.16 129.246 133.629 130.042 132.954 130.766C134.594 130.524 136.91 127.943 139.902 123.07C142.917 118.197 143.351 115.519 141.252 115.06C141.18 115.157 141.084 115.253 140.987 115.326C140.698 117.787 139.781 120.078 138.237 122.201H138.261Z" fill="#E7A485"/>
<path d="M141.012 115.326C140.77 115.591 140.529 115.832 140.288 116.098C138.623 117.786 136.838 119.33 134.956 120.73C132.954 122.249 131.555 124.204 130.783 126.616C130.011 129.028 130.734 130.404 132.954 130.765C133.605 130.042 134.16 129.246 134.594 128.377C135.632 126.23 136.862 124.155 138.261 122.201C139.805 120.054 140.722 117.762 141.012 115.326Z" fill="#D8957A"/>
<path d="M144.461 109.222C144.703 107.944 144.413 106.038 143.593 103.505L120.12 100.393C118.407 102.926 116.453 107.485 114.233 114.095C112.979 117.835 112.086 120.609 111.555 122.418C111.435 122.877 111.314 123.335 111.194 123.769C111.097 124.035 111.049 124.3 111.049 124.59C111.049 124.879 111.049 125.12 111.097 125.362C111.145 125.723 111.194 126.085 111.218 126.447C111.266 126.906 111.411 127.34 111.652 127.726C111.941 128.184 112.279 128.57 112.689 128.884C113.389 129.463 114.113 129.969 114.909 130.428C115.777 130.934 116.646 131.393 117.49 131.851C118.286 132.237 119.082 132.527 119.927 132.671C120.747 132.84 121.591 132.888 122.412 132.792C123.256 132.792 124.124 132.768 124.993 132.768C125.885 132.888 126.778 132.985 127.647 133.106C128.25 133.178 128.877 133.178 129.504 133.106C130.083 132.985 130.662 132.864 131.217 132.72C132.11 132.527 132.906 132.189 133.629 131.73C133.967 131.513 134.281 131.272 134.594 131.007C134.86 130.79 135.053 130.548 135.173 130.283C135.487 129.632 135.777 129.004 136.066 128.353C136.38 127.702 136.645 127.05 136.91 126.399C137.176 125.748 137.417 125.096 137.658 124.421C137.9 123.745 138.141 123.094 138.358 122.418C138.889 120.706 139.347 118.944 139.709 117.159C140.022 116.846 140.312 116.532 140.626 116.218C142.507 114.288 143.786 111.997 144.413 109.391C144.413 109.343 144.413 109.295 144.413 109.222H144.461Z" fill="#FF9720"/>
<path d="M115.391 53.9045C114.619 54.6523 114.112 55.2313 113.871 55.5932C113.412 56.2928 113.195 57.0889 113.195 57.9815C113.195 58.5605 113.364 59.1877 113.654 59.8391C113.823 60.201 114.064 60.7076 114.426 61.359C114.908 62.4446 114.57 63.3854 113.437 64.2057C112.785 64.664 112.568 65.1465 112.713 65.7014C112.809 65.9909 113.147 66.4975 113.726 67.2212C114.305 67.9209 114.643 68.4998 114.739 68.9582C114.884 69.6819 114.619 70.3816 113.943 71.0571C112.689 72.3598 112.689 73.5901 113.943 74.7964C114.57 75.3995 115.342 75.8579 116.211 76.1956L129.19 79.5248L131.844 79.2112C133.967 78.9458 135.945 78.6804 137.754 78.3909V78.9458H137.851L150.83 75.6407L151.602 75.2789C152.205 74.9652 152.711 74.6275 153.097 74.2415C154.352 73.0594 154.352 71.8049 153.097 70.5022C152.422 69.8026 152.157 69.103 152.325 68.4033C152.422 67.945 152.76 67.366 153.315 66.6664C153.918 65.9426 154.255 65.436 154.328 65.1465C154.497 64.5917 154.255 64.1092 153.604 63.6508C152.47 62.8547 152.132 61.8897 152.615 60.8041C152.953 60.1527 153.218 59.6461 153.387 59.2842C153.701 58.6329 153.845 58.0056 153.869 57.4266C153.869 56.534 153.652 55.7379 153.194 55.0383C152.953 54.6764 152.422 54.1216 151.626 53.3496C150.878 52.6258 150.347 52.0227 150.034 51.4679C149.551 50.6235 149.286 49.6344 149.262 48.5247C149.213 45.3402 148.731 42.6141 147.766 40.3223C146.704 37.7651 145.353 35.9799 143.665 34.9425C141.855 33.8328 139.563 33.495 136.741 33.9534C135.631 34.1464 134.642 34.3394 133.725 34.5806L132.688 34.8701C127.791 33.1814 123.882 34.7495 120.939 39.5744C119.95 41.2149 119.13 43.1207 118.503 45.292C118.044 46.9324 117.779 48.211 117.755 49.1278C117.707 50.2375 117.441 51.2266 116.935 52.0469C116.621 52.5776 116.09 53.2048 115.342 53.9286L115.391 53.9045Z" fill="#683929"/>
<path d="M128.49 71.636C126.271 71.636 124.389 72.5045 122.845 74.2656C121.277 76.0026 120.505 78.1014 120.505 80.5863L121.832 96.8462L146.584 95.833V80.5863C146.584 74.6757 144.678 71.7084 140.866 71.7084L139.998 71.636C139.491 71.636 139.057 71.443 138.695 71.0329C138.333 70.6228 138.164 70.1644 138.164 69.5854V65.4119H130.324V69.5854C130.324 70.1644 130.155 70.6469 129.793 71.0329C129.431 71.4189 128.997 71.636 128.49 71.636Z" fill="#D8957A"/>
<path d="M122.845 56.534C123.304 56.0756 123.521 55.5449 123.521 54.9176C123.521 54.2904 123.304 53.7596 122.845 53.3254C122.411 52.867 121.88 52.6499 121.253 52.6499C120.626 52.6499 120.095 52.867 119.661 53.3254C119.202 53.7838 118.985 54.3145 118.985 54.9176C118.985 55.5207 119.202 56.0756 119.661 56.534C120.095 56.9682 120.626 57.1853 121.253 57.1853C121.88 57.1853 122.411 56.9682 122.845 56.534Z" fill="#F4A289"/>
<path d="M148.055 56.534C148.514 56.0756 148.731 55.5449 148.731 54.9176C148.731 54.2904 148.514 53.7596 148.055 53.3254C147.621 52.867 147.09 52.6499 146.463 52.6499C145.836 52.6499 145.305 52.867 144.847 53.3254C144.412 53.7596 144.195 54.2904 144.195 54.9176C144.195 55.5449 144.412 56.0756 144.847 56.534C145.305 56.9682 145.836 57.1853 146.463 57.1853C147.09 57.1853 147.621 56.9682 148.055 56.534Z" fill="#F4A289"/>
<path d="M120.577 48.0421V51.5884C120.577 55.8102 121.904 59.4048 124.509 62.3721C127.139 65.3395 130.299 66.8352 133.99 66.8352C137.705 66.8352 140.842 65.3395 143.471 62.348C146.077 59.3566 147.403 55.762 147.403 51.5643V48.0662C146.101 48.4522 144.605 48.5005 142.844 48.211C139.37 47.6561 136.523 45.7744 134.304 42.5176L120.553 48.018L120.577 48.0421Z" fill="#E7A485"/>
<g opacity="0.5">
<path d="M133.918 51.7573C133.846 52.7223 133.436 53.5184 132.688 54.1457C131.94 54.7729 131.071 55.0624 130.082 54.99C129.093 54.9177 128.273 54.5076 127.622 53.7838C126.97 53.0601 126.681 52.2157 126.753 51.2507" stroke="#212020" stroke-width="0.603116" stroke-linecap="round" stroke-linejoin="round"/>
</g>
<g opacity="0.5">
<path d="M140.842 51.7573C140.77 52.7223 140.36 53.5184 139.612 54.1457C138.864 54.7729 137.996 55.0624 137.007 54.99C136.017 54.9177 135.197 54.5076 134.546 53.7838C133.894 53.0601 133.605 52.2157 133.677 51.2507" stroke="#212020" stroke-width="0.603116" stroke-linecap="round" stroke-linejoin="round"/>
</g>
<path d="M127.935 48.5008C127.211 49.2245 126.85 50.093 126.85 51.1062C126.85 52.1195 127.211 52.9879 127.935 53.7117C128.659 54.4354 129.503 54.7973 130.541 54.7973C131.337 54.7973 132.061 54.5802 132.688 54.1218C133.315 53.6634 133.749 53.0844 134.015 52.3607C134.28 53.0844 134.714 53.6634 135.341 54.1218C135.969 54.5802 136.692 54.7973 137.489 54.7973C138.502 54.7973 139.37 54.4354 140.094 53.7117C140.818 52.9879 141.18 52.1436 141.18 51.1062C141.18 50.0689 140.818 49.2245 140.094 48.5008C139.37 47.777 138.502 47.4152 137.489 47.4152C136.692 47.4152 135.993 47.6564 135.341 48.1148C134.714 48.5731 134.28 49.1521 134.015 49.8759C133.749 49.1521 133.315 48.5731 132.688 48.1148C132.036 47.6564 131.337 47.4152 130.541 47.4152C129.527 47.4152 128.659 47.777 127.935 48.5008Z" fill="white"/>
<path d="M137.948 53.9045C138.358 53.4944 138.551 52.9877 138.551 52.4329C138.551 51.878 138.358 51.3714 137.948 50.9613C137.538 50.5512 137.055 50.3582 136.476 50.3582C135.897 50.3582 135.415 50.5512 135.004 50.9613C134.594 51.3714 134.401 51.8539 134.401 52.4329C134.401 53.0119 134.594 53.4944 135.004 53.9045C135.415 54.3146 135.897 54.5076 136.476 54.5076C137.055 54.5076 137.538 54.3146 137.948 53.9045Z" fill="#B7715D"/>
<path d="M136.5 53.0603C136.669 52.8914 136.741 52.6984 136.741 52.4813C136.741 52.2642 136.669 52.0471 136.5 51.8782C136.331 51.7093 136.138 51.637 135.897 51.637C135.656 51.637 135.487 51.7093 135.318 51.8782C135.149 52.0471 135.077 52.2401 135.077 52.4813C135.077 52.7226 135.149 52.9156 135.318 53.0603C135.487 53.2292 135.68 53.3016 135.897 53.3016C136.114 53.3016 136.331 53.2292 136.5 53.0603Z" fill="#212020"/>
<path d="M128.997 51.7573C128.997 51.7573 129.141 51.5643 129.141 51.4196C129.141 51.2748 129.093 51.1783 128.997 51.0577C128.9 50.9612 128.804 50.913 128.659 50.913C128.514 50.913 128.418 50.9612 128.297 51.0577C128.201 51.1542 128.152 51.2748 128.152 51.4196C128.152 51.5643 128.201 51.6608 128.297 51.7573C128.394 51.8538 128.514 51.9021 128.659 51.9021C128.804 51.9021 128.9 51.8538 128.997 51.7573Z" fill="#FDF8E4"/>
<path d="M138.478 51.637C138.647 51.4681 138.744 51.251 138.744 51.0097C138.744 50.7685 138.647 50.5514 138.478 50.4066C138.309 50.2377 138.092 50.1412 137.851 50.1412C137.61 50.1412 137.393 50.2377 137.248 50.4066C137.079 50.5755 136.982 50.7685 136.982 51.0097C136.982 51.251 137.079 51.4681 137.248 51.637C137.417 51.8058 137.61 51.9023 137.851 51.9023C138.092 51.9023 138.309 51.8058 138.478 51.637Z" fill="#FDF8E4"/>
<path d="M127.164 52.1917C127.164 52.7707 127.357 53.2531 127.767 53.6633C128.177 54.0734 128.684 54.2664 129.239 54.2664C129.794 54.2664 130.3 54.0734 130.71 53.6633C131.121 53.2531 131.313 52.7465 131.313 52.1917C131.313 51.6127 131.121 51.1302 130.71 50.7201C130.3 50.3099 129.818 50.1169 129.239 50.1169C128.66 50.1169 128.177 50.3099 127.767 50.7201C127.357 51.1302 127.164 51.6127 127.164 52.1917Z" fill="#B7715D"/>
<path d="M129.263 52.7225C129.432 52.5778 129.504 52.3848 129.504 52.1436C129.504 51.9023 129.432 51.7093 129.263 51.5404C129.094 51.3716 128.901 51.2992 128.66 51.2992C128.418 51.2992 128.249 51.3716 128.081 51.5404C127.912 51.7093 127.839 51.9023 127.839 52.1436C127.839 52.3848 127.912 52.5778 128.081 52.7225C128.249 52.8914 128.442 52.9638 128.66 52.9638C128.877 52.9638 129.094 52.8914 129.263 52.7225Z" fill="#212020"/>
<path d="M131.264 51.3953C131.433 51.2264 131.506 51.0093 131.506 50.768C131.506 50.5268 131.433 50.3097 131.264 50.1649C131.096 49.996 130.878 49.8995 130.637 49.8995C130.396 49.8995 130.179 49.996 130.01 50.1649C129.841 50.3338 129.745 50.5268 129.745 50.768C129.745 51.0093 129.841 51.2264 130.01 51.3953C130.179 51.5641 130.396 51.6606 130.637 51.6606C130.878 51.6606 131.096 51.5641 131.264 51.3953Z" fill="#FDF8E4"/>
<g opacity="0.5">
<path d="M133.581 59.9355H135.149" stroke="#212020" stroke-width="0.554866" stroke-linecap="round" stroke-linejoin="round"/>
</g>
<path d="M149.092 74.1932C148.899 73.5177 148.441 73.0111 147.717 72.6734C146.993 72.3597 146.221 72.3115 145.401 72.5286C144.581 72.7699 143.954 73.2041 143.519 73.8796C143.085 74.531 142.964 75.2065 143.157 75.8819L149.237 96.9427C149.43 97.6423 149.912 98.149 150.636 98.4626C151.36 98.7762 152.108 98.8245 152.928 98.5832C153.748 98.342 154.375 97.9077 154.81 97.2564C155.244 96.605 155.364 95.9295 155.171 95.254L149.092 74.1691V74.1932Z" fill="#B767E5"/>
<path d="M121.446 72.6733C120.723 72.987 120.24 73.4936 120.047 74.1932L113.968 95.2781C113.775 95.9536 113.895 96.6291 114.354 97.2805C114.812 97.9318 115.439 98.3902 116.284 98.6314C117.128 98.8727 117.924 98.8486 118.648 98.5349C119.396 98.2213 119.854 97.7147 120.047 97.0151L126.127 75.9543C126.32 75.2547 126.199 74.5792 125.741 73.9278C125.282 73.2765 124.655 72.8181 123.811 72.5768C122.966 72.3356 122.17 72.3597 121.446 72.6733Z" fill="#B767E5"/>
<path d="M147.476 72.9629C147.476 72.8181 147.428 72.6734 147.332 72.5769C147.211 72.4804 147.09 72.4321 146.946 72.4321L140.987 71.3224C140.818 71.3224 140.673 71.3706 140.553 71.4671C140.432 71.5636 140.335 71.6843 140.287 71.829C139.829 73.5177 139.081 75.2547 138.019 77.0882C136.717 79.3318 135.51 80.4415 134.425 80.4415C133.339 80.4415 132.181 79.3318 130.951 77.0882C129.986 75.3271 129.262 73.5901 128.78 71.829C128.731 71.6843 128.659 71.5636 128.538 71.4671C128.418 71.3706 128.249 71.3224 128.104 71.3224L121.928 72.4321C121.784 72.4321 121.663 72.4804 121.542 72.5769C121.446 72.6734 121.398 72.794 121.398 72.9629L121.253 85.0734C121.977 90.9116 121.301 96.5326 119.25 101.961C124.196 104.614 129.503 106.014 135.173 106.134C137.368 106.038 139.563 105.869 141.759 105.652C142.507 105.531 143.254 105.435 143.978 105.338C144.388 104.445 144.726 103.529 144.991 102.54C145.498 100.779 145.956 98.9933 146.391 97.2081C146.656 96.026 146.897 94.8439 147.114 93.6618C147.645 90.8392 147.862 87.9925 147.79 85.1217L147.428 73.0111L147.476 72.9629Z" fill="#B767E5"/>
<path d="M145.692 99.3552L147.622 91.4423L147.453 85.5559C147.212 86.9793 145.837 88.7886 143.352 91.0081C140.481 93.5894 137.345 95.5194 133.895 96.798C133.292 97.0392 132.809 97.4252 132.447 97.9318C132.086 98.4626 131.893 99.0416 131.893 99.6929L145.668 99.3069L145.692 99.3552Z" fill="#B767E5"/>
<path d="M144.655 45.702L145.499 54.218C146.006 60.1768 146.126 63.8679 145.885 65.243C145.62 66.6422 145.958 67.3659 146.874 67.4142C147.333 67.4142 147.815 67.3177 148.322 67.0523L150.155 56.6787L148.635 48.4281L147.115 42.6382L144.679 45.702H144.655Z" fill="#683929"/>
<path d="M122.483 53.8805L123.327 45.3645L120.89 42.3007L119.37 48.1147L117.851 56.3653L119.684 66.763L120.167 66.956C120.528 67.0766 120.866 67.1249 121.132 67.1249C122.048 67.0766 122.386 66.3529 122.121 64.9537C121.855 63.5544 122 59.8875 122.507 53.9287L122.483 53.8805Z" fill="#683929"/>
<path d="M126.344 39.6712C124.438 40.6361 122.99 41.7941 121.977 43.1451C120.964 44.4961 120.699 45.6299 121.157 46.5708C121.639 47.5117 122.725 47.97 124.414 47.97C126.102 47.97 127.888 47.4634 129.794 46.4984C131.699 45.5334 133.147 44.3755 134.184 43.0245C135.197 41.6735 135.463 40.5155 134.98 39.5988C134.498 38.6579 133.412 38.1996 131.748 38.2237C130.059 38.2237 128.274 38.7303 126.368 39.6953L126.344 39.6712Z" fill="#683929"/>
<path d="M132.229 61.4796V61.5279C132.229 62.1069 132.422 62.5893 132.833 62.9995C133.243 63.4096 133.725 63.6026 134.304 63.6026C134.883 63.6026 135.366 63.4096 135.752 62.9995C136.162 62.5893 136.355 62.1069 136.355 61.5279V61.4796H132.229Z" fill="white"/>
<path d="M132.229 61.4796V61.5279C132.229 62.1069 132.422 62.5893 132.833 62.9995C133.243 63.4096 133.725 63.6026 134.304 63.6026C134.883 63.6026 135.366 63.4096 135.752 62.9995C136.162 62.5893 136.355 62.1069 136.355 61.5279V61.4796H132.229Z" fill="white" stroke="#44352B" stroke-width="0.289495" stroke-linecap="round" stroke-linejoin="round"/>
<path d="M112.52 79.4523C112.375 79.5005 112.279 79.5246 112.206 79.5488C112.11 79.5729 112.038 79.6211 111.989 79.6935C112.182 79.6453 112.375 79.5729 112.52 79.4523Z" fill="#F8E691"/>
<path d="M116.621 96.9911C116.308 97.9561 115.922 98.4386 115.463 98.3904C116.211 98.7522 117.031 98.8487 117.924 98.6557C118.768 98.4627 119.444 98.1009 119.902 97.5219L122.218 89.223C122.291 89.0059 122.218 88.837 122.001 88.7405C121.808 88.644 121.615 88.6923 121.47 88.8853L117.345 94.844C117.345 94.844 117.08 95.616 116.621 97.0153V96.9911Z" fill="#B767E5"/>
<path d="M149.117 74.1449C148.996 73.7107 148.755 73.3488 148.417 73.0593C148.08 72.7698 147.67 72.5527 147.187 72.4562C147.115 72.4079 147.018 72.3838 146.922 72.3838L140.963 71.2982C140.794 71.2982 140.625 71.3465 140.48 71.4671L145.498 72.3838C145.498 72.3838 145.691 72.4079 145.788 72.4562C146.246 72.5768 146.656 72.7698 146.994 73.0593C147.332 73.3729 147.573 73.7348 147.694 74.1449L152.326 91.0563C152.47 91.6112 152.422 92.1178 152.133 92.6244C151.843 93.131 151.433 93.4687 150.878 93.6376C150.154 93.8547 149.6 94.3855 149.165 95.2298C148.972 95.64 148.852 96.0018 148.828 96.2913C148.9 96.1948 148.972 96.1225 149.093 96.0983C149.189 96.0742 149.286 96.0983 149.382 96.1707L151.674 97.9318C151.674 97.9318 151.843 98.1248 151.819 98.2937C151.795 98.4384 151.698 98.5349 151.578 98.559L151.312 98.6314C151.867 98.752 152.422 98.7279 153.001 98.559C153.821 98.3178 154.449 97.8836 154.883 97.2322C155.317 96.5808 155.438 95.9053 155.245 95.2298L149.165 74.1449H149.117Z" fill="#B767E5"/>
<path d="M147.453 89.5365C147.453 89.2229 147.284 89.0058 146.971 88.9093C146.657 88.861 146.464 88.9816 146.367 89.2711C145.885 90.6945 145.451 92.142 145.065 93.6136C145.016 93.7824 144.968 93.9754 144.944 94.1443C144.727 95.447 144.486 96.7739 144.22 98.0766C143.955 99.3794 143.714 100.706 143.448 102.009C143.376 102.298 143.328 102.612 143.255 102.902L145.258 102.371C146.03 98.9934 146.681 95.6159 147.26 92.2143C147.405 91.3217 147.477 90.405 147.453 89.4883V89.5365Z" fill="#B767E5"/>
<path d="M145.739 98.6076L129.768 93.8068L111.675 110.983L127.645 115.447L145.739 98.6076Z" fill="#323139"/>
<path d="M111.675 110.983L129.792 93.8068L145.763 98.6076L127.669 115.447L111.699 110.983H111.675Z" stroke="#524F64" stroke-width="0.192997" stroke-linecap="round" stroke-linejoin="round"/>
<path d="M143.907 99.3552L129.77 95.1093L113.751 110.308L127.888 114.24L143.907 99.3552Z" fill="#524F64"/>
<path d="M113.751 110.308L129.77 95.1093L143.907 99.3552L127.888 114.24L113.751 110.308Z" stroke="#323139" stroke-width="0.192997" stroke-linecap="round" stroke-linejoin="round"/>
<path d="M127.839 113.661L142.821 99.7412L129.601 95.7848L114.619 109.994L127.839 113.661Z" fill="#55C1D0"/>
<path d="M127.671 115.495L127.888 116.435L145.933 99.2828L145.788 98.6315L127.671 115.495Z" fill="#323139"/>
<path d="M111.724 110.983L112.086 111.804L127.936 116.387L127.888 115.133L111.724 110.983Z" fill="#323139"/>
<path d="M122.991 102.684L124.969 103.384L126.73 101.068L126.802 103.191L129.794 99.5242L127.285 106.303L130.686 101.744M130.614 102.033L129.842 104.807L130.928 104.204L130.349 106.641L133.388 108.113" stroke="#FFCF10" stroke-width="0.603116" stroke-linecap="round" stroke-linejoin="round"/>
<path d="M141.952 107.582C143.375 107.316 144.027 106.52 143.906 105.193C143.761 103.408 143.134 101.888 142.049 100.61C141.735 100.224 141.301 100.103 140.794 100.2C138.116 100.779 137.127 102.395 137.827 105.025C138.406 107.244 139.781 108.088 141.952 107.606V107.582Z" fill="#E7A485"/>
<path d="M132.736 34.8219C130.347 33.9775 128.176 33.9534 126.198 34.7495C127.742 34.4841 129.382 34.653 131.119 35.2802C131.553 35.1355 132.108 34.9666 132.711 34.846M151.794 59.7185C151.625 60.1045 151.384 60.6111 151.022 61.2625C150.539 62.3481 150.877 63.2889 152.011 64.085C152.662 64.5434 152.88 65.05 152.735 65.5808C152.662 65.8703 152.301 66.401 151.722 67.1247C151.143 67.8244 150.829 68.4034 150.732 68.8376C150.588 69.5613 150.829 70.261 151.504 70.9364C152.638 72.0944 152.759 73.2524 151.842 74.338C151.311 74.9894 150.515 75.5442 149.454 76.0026L150.853 75.6407C151.746 75.303 152.494 74.8446 153.121 74.2415C154.375 73.0353 154.375 71.8049 153.121 70.5022C152.445 69.8026 152.18 69.103 152.349 68.4034C152.445 67.945 152.783 67.366 153.338 66.6664C153.941 65.9426 154.279 65.436 154.351 65.1465C154.52 64.5917 154.279 64.1092 153.627 63.6508C152.494 62.8547 152.156 61.8897 152.638 60.8041C152.976 60.1527 153.241 59.6461 153.41 59.2842C153.724 58.6329 153.869 58.0056 153.893 57.4267C153.893 56.534 153.676 55.7379 153.217 55.0383C152.976 54.6764 152.445 54.1216 151.649 53.3496C150.901 52.6259 150.371 52.0227 150.057 51.4679C149.575 50.6235 149.309 49.6344 149.285 48.5247C149.237 45.3402 148.754 42.6141 147.789 40.3223C146.728 37.7651 145.377 35.9799 143.688 34.9425C141.879 33.8328 139.587 33.495 136.764 33.9534C135.003 34.2429 133.652 34.5324 132.711 34.8701C133.411 34.7013 134.207 34.5565 135.148 34.4118C137.971 33.9534 140.287 34.2911 142.072 35.4009C143.736 36.4382 145.111 38.2235 146.173 40.7807C147.138 43.0966 147.62 45.8468 147.669 48.983C147.669 50.0928 147.934 51.0819 148.441 51.9262C148.754 52.457 149.285 53.0842 150.033 53.808C150.829 54.5558 151.36 55.1348 151.601 55.4967C152.059 56.1963 152.301 56.9924 152.276 57.885C152.276 58.464 152.108 59.0671 151.794 59.7426V59.7185Z" fill="#683929"/>
<path d="M121.326 102.636C120.819 103.191 120.216 103.456 119.54 103.408C118.865 103.384 118.334 103.07 117.9 102.467L114.523 97.8112C114.088 97.2322 113.919 96.5326 113.992 95.7365C114.04 94.9163 114.354 94.2408 114.86 93.71C115.367 93.1552 115.97 92.9139 116.621 92.938C117.297 92.938 117.828 93.2758 118.286 93.8548L121.639 98.5108C122.074 99.1139 122.267 99.8136 122.194 100.61C122.122 101.406 121.832 102.081 121.326 102.636Z" fill="#E7A485"/>
<path d="M124.776 101.309C124.776 100.779 124.631 100.32 124.269 99.9344L123.593 99.1865C122.99 98.5351 122.242 98.1974 121.374 98.1733C120.481 98.125 119.709 98.4145 119.058 99.0176L118.262 99.7414C117.611 100.344 117.273 101.092 117.225 101.985C117.2 102.878 117.49 103.65 118.093 104.301L118.769 105.049C119.13 105.435 119.565 105.652 120.095 105.652C120.626 105.652 121.109 105.507 121.495 105.145L124.197 102.66C124.583 102.299 124.8 101.864 124.8 101.334L124.776 101.309Z" fill="#E7A485"/>
<path d="M127.164 128.232C127.333 128.232 128.033 128.064 129.215 127.75C130.421 127.436 131.941 126.423 133.75 124.686C135.584 122.973 137.634 120.392 139.926 116.99C136.259 121.188 132.013 124.951 127.164 128.232Z" fill="#FF7B25"/>
<path d="M147.332 104.036L152.663 99.862C153.339 99.3312 153.725 98.704 153.797 97.9561C153.894 97.1841 153.653 96.5569 153.074 96.0261C152.519 95.4954 151.795 95.2542 150.926 95.2542C150.058 95.2542 149.262 95.5195 148.586 96.0744L143.568 100.875C141.759 102.395 140.818 103.36 140.673 103.77C140.553 104.204 140.746 104.952 141.252 105.99C141.759 107.051 142.724 107.148 144.123 106.351C145.547 105.555 146.608 104.783 147.332 104.06V104.036Z" fill="#E7A485"/>
<path d="M153.218 96.1466C152.736 95.6641 152.229 95.3746 151.722 95.254C151.216 95.1333 150.54 95.1816 149.696 95.3987C150.854 95.4469 151.674 95.6882 152.181 96.1707C152.736 96.7014 152.977 97.3287 152.905 98.0765C152.832 98.8244 152.446 99.4516 151.771 99.9824L146.439 104.156L143.52 106.641C144.847 105.941 146.125 105.073 147.356 104.084L152.687 99.8859C153.363 99.3551 153.725 98.7279 153.821 97.98C153.894 97.2322 153.701 96.6049 153.218 96.1224V96.1466Z" fill="#D8957A"/>
</g>
<g clip-path="url(#clip2_109_30)">
<path d="M172.924 95.7847C172.924 95.471 172.659 95.2057 172.104 94.9885C171.549 94.7714 170.898 94.6749 170.102 94.6749C169.306 94.6749 168.654 94.7714 168.1 94.9885C167.545 95.2057 167.279 95.471 167.279 95.7847C167.279 96.0983 167.545 96.3637 168.1 96.5808C168.654 96.7979 169.306 96.8944 170.102 96.8944C170.898 96.8944 171.549 96.7979 172.104 96.5808C172.659 96.3637 172.924 96.0983 172.924 95.7847Z" fill="#FFD0BA"/>
<path d="M191.548 146.205C191.91 142.756 190.656 140.078 187.785 138.172C184.842 136.652 181.464 135.108 177.653 133.54C175.337 132.575 171.838 131.224 167.207 129.439C165.228 128.691 163.684 128.208 162.575 128.04C161.561 127.871 160.066 127.847 158.136 127.919C153.697 128.112 150.585 128.233 148.775 128.329C145.277 128.522 142.165 128.715 139.415 128.956C138.474 129.053 137.726 129.198 137.147 129.391C136.351 129.704 135.796 130.138 135.507 130.742C135.434 130.886 135.386 131.031 135.338 131.176C134.711 132.334 134.204 133.54 133.842 134.794C133.77 135.084 133.697 135.349 133.625 135.663C133.432 136.507 133.287 137.4 133.167 138.293C133.046 139.306 133.167 140.319 133.504 141.308C133.818 142.225 134.325 143.045 135.024 143.721C135.386 144.082 135.796 144.42 136.231 144.734C136.81 145.168 137.389 145.626 137.968 146.061C138.402 146.398 138.86 146.76 139.294 147.098C139.753 147.46 140.211 147.822 140.694 148.16C141.248 148.57 141.803 149.004 142.382 149.414C143.709 150.355 145.35 151.537 147.328 152.936C147.883 153.322 148.462 153.708 149.065 154.142C149.764 154.625 150.319 154.987 150.705 155.228C151.308 155.59 151.912 155.879 152.442 156.048C153.07 156.265 153.817 156.434 154.638 156.531C155.168 156.579 155.916 156.627 156.905 156.651C158.618 156.7 160.307 156.7 161.972 156.651C170.487 156.507 178.207 155.493 185.131 153.588C186.048 153.346 186.772 153.105 187.326 152.864C187.495 152.791 187.64 152.719 187.785 152.647C190.004 151.054 191.235 148.883 191.548 146.133M187.254 143.841C187.447 143.769 187.616 143.721 187.785 143.648C187.954 143.6 188.098 143.528 188.243 143.431C188.726 143.238 189.136 142.949 189.498 142.587C189.498 142.683 189.546 142.804 189.57 142.924C190.607 145.868 190.27 148.546 188.509 150.91C187.688 151.513 187.109 151.899 186.772 152.116C186.434 152.309 184.263 152.816 180.258 153.612C176.253 154.408 171.935 154.987 167.303 155.349C162.647 155.711 158.618 155.686 155.217 155.276C156.206 153.563 156.519 151.633 156.182 149.462C155.989 151.947 155.434 153.901 154.493 155.276C152.901 155.035 151.526 154.601 150.392 153.925C149.258 153.25 148.1 152.502 146.918 151.633C146.001 150.958 145.012 150.21 143.95 149.39C143.323 148.883 142.672 148.377 142.045 147.894C141.369 147.363 140.718 146.833 140.042 146.326C139.318 145.747 138.571 145.192 137.847 144.637C137.027 144.034 136.279 143.383 135.579 142.635C134.952 141.959 134.469 141.212 134.132 140.343C133.794 139.475 133.722 138.606 133.842 137.689C133.963 136.7 134.204 135.711 134.518 134.746C134.783 133.974 135.097 133.13 135.483 132.213L136.713 134.529C136.713 134.529 136.81 134.674 136.882 134.746C137.34 135.301 137.871 135.808 138.426 136.266C139.029 136.724 139.608 137.183 140.211 137.641C140.814 138.148 141.441 138.654 142.069 139.137C142.744 139.644 143.396 140.126 144.071 140.633C144.674 141.043 145.253 141.477 145.856 141.887C146.291 142.201 146.797 142.538 147.328 142.9C148.848 143.938 150.512 145.023 152.322 146.157C154.131 147.291 155.385 147.967 156.109 148.256C156.809 148.521 157.677 148.642 158.715 148.666C159.728 148.666 160.982 148.642 162.454 148.594C163.901 148.546 165.638 148.401 167.665 148.111C169.595 147.846 172.49 147.315 176.35 146.567C178.738 146.085 180.572 145.699 181.85 145.409C183.877 144.927 185.662 144.396 187.23 143.841M171.742 136.194L171.573 135.977C173.334 134.77 175.047 134.819 176.712 136.145C176.808 136.218 176.905 136.29 177.001 136.363C175.867 135.591 174.106 135.542 171.766 136.218M164.408 140.078C166.435 138.775 168.582 138.486 170.898 139.185C172.345 139.644 173.648 140.416 174.758 141.501L175.047 142.321C171.694 140.609 168.147 139.861 164.408 140.078Z" fill="#FF7B25"/>
<path d="M170.897 139.233C168.581 138.533 166.434 138.823 164.407 140.126C168.171 139.909 171.717 140.632 175.046 142.369L174.757 141.549C173.647 140.463 172.344 139.691 170.897 139.233ZM171.596 136.049L171.765 136.266C174.105 135.59 175.866 135.663 177 136.435C177 136.435 176.807 136.266 176.711 136.217C175.046 134.891 173.333 134.842 171.572 136.049M187.76 143.72C187.591 143.793 187.398 143.841 187.229 143.913C185.661 144.468 183.852 144.999 181.849 145.481C180.571 145.795 178.737 146.181 176.349 146.639C172.489 147.411 169.594 147.918 167.664 148.183C165.638 148.473 163.901 148.618 162.453 148.666C160.981 148.69 159.751 148.714 158.714 148.738C157.676 148.738 156.808 148.593 156.108 148.328C155.385 148.063 154.13 147.363 152.321 146.229C150.511 145.095 148.847 144.034 147.327 142.972C146.796 142.61 146.29 142.273 145.855 141.959C145.252 141.549 144.673 141.115 144.07 140.705C143.395 140.198 142.743 139.691 142.068 139.209C141.441 138.726 140.813 138.22 140.21 137.713C139.607 137.255 139.028 136.796 138.425 136.338C137.846 135.88 137.339 135.373 136.881 134.818C136.833 134.746 136.784 134.673 136.712 134.601L135.482 132.285C135.096 133.202 134.758 134.022 134.517 134.818C134.203 135.783 133.962 136.772 133.841 137.761C133.721 138.678 133.817 139.571 134.131 140.415C134.444 141.26 134.927 142.032 135.578 142.707C136.278 143.455 137.026 144.13 137.846 144.709C138.57 145.264 139.318 145.819 140.041 146.398C140.717 146.905 141.368 147.435 142.044 147.966C142.671 148.473 143.322 148.955 143.949 149.462C144.987 150.282 145.976 151.03 146.917 151.705C148.099 152.55 149.257 153.322 150.391 153.997C151.525 154.649 152.876 155.107 154.492 155.348C155.433 153.973 155.988 152.043 156.181 149.534C156.543 151.705 156.229 153.66 155.216 155.348C158.617 155.758 162.646 155.758 167.302 155.421C171.934 155.059 176.252 154.48 180.257 153.684C184.262 152.888 186.433 152.381 186.771 152.188C187.133 151.971 187.712 151.561 188.508 150.982C190.245 148.618 190.607 145.964 189.569 142.996C189.521 142.876 189.497 142.755 189.497 142.659C189.135 143.021 188.725 143.31 188.242 143.503C188.098 143.6 187.929 143.648 187.784 143.72H187.76Z" fill="#FF6127"/>
<path d="M182.212 76.22C179.341 75.062 176.639 74.4106 174.082 74.2418C170.97 74.0488 168.196 74.6036 165.759 75.8822C163.033 77.3056 160.91 79.5974 159.342 82.7577L159.004 83.6504C169.957 86.9072 180.138 92.0457 189.546 99.0419C190.994 97.0878 191.79 94.3858 191.886 90.9842C192.007 87.5103 191.138 84.4465 189.305 81.7928C187.592 79.3079 185.228 77.4745 182.212 76.2441V76.22Z" fill="#9B6732"/>
<path d="M147.932 104.373L147.232 106.472C147.691 107.365 148.197 108.185 148.776 108.933C152.419 113.348 157.317 115.253 163.492 114.699C164.819 114.554 165.495 113.903 165.495 112.745C165.567 112.262 165.543 111.707 165.447 111.08C165.447 111.008 165.447 110.959 165.447 110.911C162.238 110.332 159.753 109.874 157.944 109.488C157.341 109.391 156.762 109.246 156.183 109.078C152.805 107.727 150.079 106.183 147.956 104.397L147.932 104.373Z" fill="#EC4893"/>
<path d="M149.307 105.652L149.186 105.121C149.017 104.422 148.776 103.77 148.487 103.119C148.414 102.926 148.27 102.902 148.077 103.046C147.884 103.191 147.811 103.408 147.859 103.674C147.691 103.553 147.522 103.457 147.353 103.36C147.063 103.191 146.75 103.143 146.388 103.264C145.785 103.481 145.35 103.939 145.085 104.615C145.013 104.783 145.013 104.976 145.061 105.194C145.278 106.086 145.833 106.762 146.677 107.196C146.943 107.365 147.256 107.485 147.57 107.606C147.618 107.606 147.666 107.558 147.715 107.534C148.221 107.172 148.607 106.737 148.921 106.183C149.114 105.917 149.235 105.748 149.283 105.652H149.307Z" fill="#F5B897"/>
<path d="M157.966 89.3674L157.701 95.1091C157.339 99.2827 156.615 102.322 155.602 104.18L156.06 104.542C156.543 104.855 157.194 105.217 158.039 105.627C160.741 106.858 164.794 108.136 170.149 109.487C175.505 110.838 179.654 111.61 182.646 111.803C184.141 111.9 185.082 111.876 185.517 111.683C185.517 109.536 186.313 106.544 187.977 102.708L190.462 97.5457L174.636 91.804L157.99 89.3674H157.966Z" fill="#9B6732"/>
<path d="M149.644 128.064L146.026 126.351L138.523 142.273L143.179 141.815L149.644 128.088V128.064Z" fill="#F5B897"/>
<path d="M141.152 136.797L138.86 141.67L142.937 142.418L144.77 138.509L141.152 136.797Z" fill="#F1F2F0"/>
<path d="M139.946 141.115C139.535 140.85 139.415 140.512 139.584 140.126C137.22 141.187 136.013 142.273 135.941 143.407C135.989 144.275 136.809 144.782 138.378 144.903C139.801 145.023 140.79 144.878 141.393 144.444C141.972 144.01 142.696 142.924 143.54 141.139C143.034 141.38 142.43 141.501 141.707 141.549C140.959 141.501 140.356 141.356 139.946 141.067V141.115Z" fill="#E28597"/>
<path d="M152.297 126.375C151.911 126.278 151.525 126.182 151.139 126.085C149.571 125.699 148.003 125.627 146.411 125.844C145.446 125.989 144.698 126.447 144.143 127.219C143.854 127.629 143.637 128.088 143.444 128.57C143.275 128.98 143.154 129.414 143.034 129.849C143.009 129.993 142.961 130.162 142.937 130.355C143.564 130.693 144.191 131.007 144.819 131.32C145.422 131.634 146.025 131.948 146.652 132.213C147.569 132.647 148.486 133.033 149.402 133.395C150.295 133.757 151.212 134.095 152.128 134.384C152.707 134.577 153.311 134.77 153.914 134.963C154.517 135.108 155.12 135.253 155.723 135.397C156.736 135.566 157.75 135.783 158.787 136.025L161.971 130.983C161.802 130.838 161.634 130.693 161.465 130.548C161.272 130.379 161.079 130.235 160.862 130.066C160.62 129.921 160.379 129.752 160.138 129.607C159.535 129.294 158.932 128.98 158.329 128.691C157.967 128.522 157.629 128.353 157.267 128.184C157.074 128.112 156.905 128.015 156.712 127.943C155.241 127.34 153.769 126.785 152.273 126.327L152.297 126.375Z" fill="#0CA7DA"/>
<path d="M147.979 146.229L143.323 146.615L151.164 130.862L154.758 132.647L148.003 146.229H147.979Z" fill="#FFD0BA"/>
<path d="M147.69 146.808L143.637 145.964L146.026 141.163L149.62 142.949L147.69 146.808Z" fill="#F1F2F0"/>
<path d="M144.385 144.444C144.312 144.879 144.433 145.216 144.723 145.433C145.133 145.723 145.712 145.892 146.46 145.94C147.183 145.916 147.786 145.771 148.293 145.554C147.425 147.315 146.677 148.401 146.074 148.811C145.47 149.221 144.481 149.342 143.058 149.197C141.49 149.052 140.694 148.521 140.646 147.653C140.742 146.519 141.972 145.458 144.361 144.444H144.385Z" fill="#E28597"/>
<path d="M156.954 124.18C153.215 128.763 151.647 132.454 152.298 135.253C153.505 135.446 155.941 136.194 159.632 137.448C163.323 138.727 166.435 138.654 169.041 137.231C171.622 135.808 173.745 133.757 175.361 131.055C175.506 130.187 175.651 129.463 175.772 128.908L156.978 124.204L156.954 124.18Z" fill="#55C1D0"/>
<path d="M158.57 109.536C158.305 112.045 158.136 114.747 158.063 117.69C157.991 120.609 157.171 123.263 155.651 125.627C157.171 126.375 158.739 127.098 160.307 127.822C161.441 128.353 162.623 128.691 163.901 128.787C164.456 128.859 165.108 128.932 165.856 128.98L167.014 129.077C171.838 129.438 174.951 129.535 176.398 129.366C177.122 126.399 177.484 122.925 177.508 118.92C177.508 118.824 177.484 118.052 177.411 116.628C177.001 112.792 174.951 110.091 171.308 108.547C169.378 107.726 167.375 107.557 165.301 108.016L158.594 109.56L158.57 109.536Z" fill="#F27DB4"/>
<path d="M175.386 131.2C175.386 131.2 175.554 131.103 175.627 131.055C175.747 130.983 175.844 130.862 175.916 130.669C176.013 130.428 176.085 130.162 176.158 129.921C176.206 129.704 176.278 129.511 176.326 129.294C176.399 129.053 176.447 128.811 176.495 128.57C176.568 128.281 176.64 128.015 176.688 127.726L156.641 123.504L155.145 126.302C156.182 126.737 156.93 127.05 157.364 127.195C157.992 127.388 158.619 127.581 159.246 127.798C159.656 127.919 160.066 128.039 160.477 128.16C160.887 128.281 161.297 128.401 161.731 128.522C162.141 128.618 162.551 128.739 162.961 128.86C163.372 128.956 163.782 129.077 164.192 129.173C164.602 129.27 164.988 129.366 165.398 129.463C165.808 129.559 166.218 129.656 166.628 129.752C167.038 129.825 167.424 129.921 167.859 129.993C168.269 130.066 168.655 130.162 169.065 130.235C169.475 130.307 169.861 130.379 170.271 130.452C170.681 130.524 171.067 130.597 171.477 130.669C171.888 130.717 172.273 130.79 172.684 130.838C173.094 130.886 173.48 130.958 173.89 131.007C174.396 131.103 174.879 131.151 175.361 131.176L175.386 131.2Z" fill="#EC4893"/>
<path d="M165.084 103.77L164.601 106.424C164.384 107.678 164.553 108.836 165.132 109.85C165.735 110.887 166.555 111.49 167.593 111.683C168.63 111.876 169.643 111.587 170.536 110.839C171.429 110.091 172.008 109.078 172.225 107.823L172.707 105.169L165.06 103.794L165.084 103.77Z" fill="#F4A289"/>
<path d="M181.898 96.0503C181.73 96.7258 181.826 97.353 182.188 97.9561C182.55 98.5593 183.056 98.9453 183.732 99.1141C184.407 99.283 185.035 99.1865 185.638 98.8246C186.241 98.4628 186.627 97.9561 186.796 97.2807C186.965 96.6052 186.868 95.9779 186.506 95.3748C186.144 94.7717 185.638 94.3857 184.962 94.2168C184.287 94.048 183.66 94.1445 183.056 94.5063C182.453 94.8682 182.067 95.3748 181.898 96.0503Z" fill="#F4A289"/>
<path d="M176.881 80.5141C176.713 80.0798 176.447 79.8386 176.085 79.7421C175.555 79.5973 175.096 79.7903 174.734 80.2969C173.938 81.4067 172.298 82.1304 169.837 82.4199C167.376 82.7094 163.975 82.444 159.681 81.6238C158.884 82.83 158.281 84.7359 157.847 87.3655C156.81 91.4908 157.22 95.3748 159.077 98.9694C160.935 102.54 163.685 104.808 167.328 105.748C170.971 106.665 174.445 105.99 177.75 103.722C181.055 101.454 183.202 98.2457 184.239 94.1204L185.084 90.6705C184.288 90.4775 183.323 89.8985 182.261 88.9577C180.09 87.0518 178.305 84.2534 176.93 80.5141H176.881Z" fill="#FFD0BA"/>
<path d="M175.385 125.169L172.177 124.855C172.177 124.855 172.177 124.927 172.177 124.952L172.032 125.531C172.008 125.675 172.032 125.82 172.129 125.941C172.177 126.061 172.297 126.134 172.442 126.158L172.78 126.23L172.466 126.568C172.129 126.93 171.984 127.34 172.008 127.798C172.008 128.257 172.201 128.643 172.539 128.956L173.214 129.511C173.552 129.849 173.986 129.994 174.469 129.945C174.927 129.921 175.337 129.704 175.675 129.318L177.701 126.471L175.385 125.169Z" fill="#F5B897"/>
<path d="M181.127 116.749C179.366 113.71 176.953 111.562 173.841 110.26C173.576 110.139 173.141 110.501 172.538 111.369C171.935 112.238 172.37 113.517 173.841 115.157C175.313 116.822 176.833 118.366 178.425 119.813L173.865 124.831L177.291 126.857L179.245 125.193C182.454 122.901 183.081 120.103 181.127 116.749Z" fill="#EC4893"/>
<path d="M174.638 90.6946C174.155 89.7538 173.408 89.1507 172.418 88.9094C171.429 88.6682 170.513 88.837 169.62 89.4402C168.727 90.0433 168.148 90.9118 167.883 92.0215C167.618 93.1312 167.714 94.1686 168.197 95.1094C168.679 96.0744 169.427 96.6775 170.392 96.9188C171.357 97.16 172.298 96.9912 173.19 96.3639C174.083 95.7608 174.662 94.9164 174.927 93.8067C175.217 92.697 175.096 91.6596 174.614 90.6946H174.638Z" fill="white"/>
<path d="M165.664 88.668C165.254 87.8719 164.651 87.3894 163.83 87.1723C163.01 86.9551 162.238 87.124 161.514 87.6065C160.767 88.1131 160.284 88.8369 160.067 89.7536C159.85 90.6703 159.922 91.5388 160.332 92.3108C160.742 93.1069 161.346 93.6135 162.166 93.8065C162.986 93.9995 163.758 93.8548 164.482 93.3482C165.206 92.8415 165.688 92.1419 165.929 91.2252C166.17 90.3085 166.074 89.44 165.664 88.6439V88.668Z" fill="white"/>
<path d="M162.576 91.1046C163.01 90.8151 163.275 90.405 163.42 89.8984C163.565 89.3918 163.492 88.8852 163.251 88.4268C163.01 87.9684 162.672 87.6789 162.19 87.5583C161.707 87.4377 161.273 87.5342 160.839 87.7995C160.404 88.089 160.115 88.4992 159.994 89.0299C159.874 89.5606 159.922 90.0431 160.163 90.5015C160.404 90.9599 160.766 91.2494 161.225 91.37C161.683 91.4906 162.141 91.3941 162.551 91.1046H162.576Z" fill="#60831D"/>
<path d="M163.13 88.644C163.13 88.644 163.299 88.4751 163.323 88.3545C163.347 88.2339 163.323 88.1132 163.299 87.9926C163.251 87.8961 163.154 87.8237 163.034 87.7996C162.913 87.7755 162.817 87.7996 162.72 87.8479C162.624 87.9202 162.551 88.0167 162.527 88.1374C162.503 88.258 162.527 88.3786 162.551 88.4751C162.599 88.5716 162.696 88.644 162.792 88.6681C162.889 88.6922 163.01 88.6681 163.106 88.6199L163.13 88.644Z" fill="#FDF8E4"/>
<path d="M160.452 88.4268C160.404 88.6198 160.428 88.8369 160.501 89.0058C160.597 89.1746 160.742 89.2953 160.935 89.3435C161.104 89.3918 161.297 89.3435 161.466 89.247C161.634 89.1264 161.755 88.9575 161.803 88.7645C161.852 88.5474 161.827 88.3544 161.731 88.1855C161.634 88.0167 161.49 87.896 161.321 87.8478C161.128 87.7995 160.959 87.8478 160.766 87.9443C160.597 88.0649 160.501 88.2097 160.428 88.4268H160.452Z" fill="#212020"/>
<path d="M170.946 93.6134C171.452 93.2756 171.79 92.7932 171.959 92.1659C172.128 91.5387 172.055 90.9356 171.766 90.3807C171.476 89.8258 171.066 89.4881 170.487 89.3433C169.908 89.1986 169.378 89.2951 168.871 89.6328C168.34 89.9947 168.003 90.4772 167.858 91.1044C167.689 91.7317 167.761 92.3107 168.051 92.8655C168.34 93.4204 168.775 93.7581 169.329 93.9029C169.884 94.0476 170.439 93.9511 170.946 93.5893V93.6134Z" fill="#60831D"/>
<path d="M171.309 90.6705C171.309 90.6705 171.502 90.4775 171.55 90.3327C171.599 90.188 171.575 90.0432 171.502 89.8985C171.43 89.7779 171.333 89.6814 171.189 89.6572C171.068 89.6331 170.923 89.6572 170.827 89.7296C170.706 89.8261 170.634 89.9467 170.585 90.0915C170.537 90.2362 170.585 90.381 170.634 90.5016C170.706 90.6222 170.803 90.7187 170.923 90.7428C171.044 90.767 171.189 90.7428 171.309 90.6705Z" fill="#FDF8E4"/>
<path d="M168.388 90.4048C168.316 90.646 168.34 90.8873 168.461 91.1285C168.581 91.3457 168.75 91.4663 168.967 91.5387C169.184 91.611 169.402 91.5387 169.619 91.418C169.836 91.2733 169.956 91.0803 170.029 90.839C170.101 90.5978 170.053 90.3565 169.956 90.1394C169.836 89.9223 169.667 89.7776 169.45 89.7293C169.233 89.6811 169.016 89.7293 168.798 89.8499C168.605 89.9706 168.461 90.1635 168.388 90.4289V90.4048Z" fill="#212020"/>
<path d="M188.34 83.023C184.601 79.5008 181.055 77.3296 177.677 76.4852L169.499 74.4105C168.703 74.121 167.159 74.2175 164.867 74.6517C162.599 75.086 160.742 76.3646 159.294 78.4634C157.847 80.5864 156.954 82.4922 156.592 84.2292L160.452 85.2907L161.731 82.5646C161.61 83.8191 161.924 84.9529 162.72 85.9903L167.931 87.293C167.569 86.4969 167.521 85.1459 167.786 83.2883C167.858 85.1218 168.341 86.5693 169.234 87.6308L179.414 90.188C179.366 90.0191 179.318 89.8502 179.318 89.6814C179.269 89.2471 179.245 88.837 179.269 88.4028C179.318 87.7514 179.438 87.1242 179.631 86.521C179.631 86.714 179.68 87.0277 179.752 87.4619C179.8 87.8961 179.945 88.4269 180.21 89.0541C180.476 89.6814 180.789 90.2121 181.175 90.6463L182.526 90.96L182.792 87.293C184.601 90.3086 185.952 93.0106 186.845 95.4471C191.573 90.6946 192.08 86.5693 188.34 83.0471V83.023Z" fill="#9B6732"/>
<path d="M173.504 74.8688C172.973 75.2307 172.708 75.5684 172.708 75.9061C181.224 80.8758 185.06 87.0035 184.191 94.2891C187.545 87.5825 184.891 81.0688 176.182 74.7964C174.927 74.4828 174.035 74.5069 173.504 74.8688Z" fill="#0CA7DA"/>
<path d="M170.03 77.3779C170.633 77.5227 171.019 77.5709 171.14 77.4985C171.285 77.4262 171.478 77.1125 171.719 76.5577C171.816 76.6783 171.864 76.7989 171.864 76.9678C171.864 76.9678 171.864 77.1125 171.816 77.3297C171.719 77.8363 171.912 78.3188 172.395 78.7771C172.974 79.2838 173.601 79.7663 174.228 80.2005C174.807 80.5624 175.41 80.8519 176.037 81.0931C176.496 81.2379 176.858 81.0931 177.171 80.6347C177.195 80.49 177.244 80.3694 177.316 80.2729C177.823 79.2596 178.16 78.174 178.305 77.016C178.426 76.4129 178.522 75.8339 178.546 75.3514C178.57 74.8931 178.45 74.5553 178.16 74.3141C177.871 74.097 177.533 74.0246 177.147 74.1211C174.952 74.6277 173.311 74.9896 172.202 75.1585C170.899 75.3756 169.717 75.0861 168.679 74.29C168.149 73.8798 167.473 73.3491 166.701 72.6736L164.747 71.009C164.385 70.7195 164.072 70.5989 163.758 70.6713C163.444 70.7436 163.203 70.9849 163.034 71.395C162.769 71.9499 162.6 72.3841 162.503 72.6736C162.383 73.1079 162.19 73.7592 161.924 74.6036C161.731 75.3514 161.659 76.0028 161.683 76.6059C161.924 77.2573 162.142 77.6192 162.286 77.7157C162.455 77.8363 162.889 77.8604 163.589 77.8363C164.602 77.8122 165.76 77.6192 167.063 77.2814C167.425 77.1849 167.763 76.8472 168.052 76.2682L168.414 75.5203V75.6168C168.342 76.2923 168.317 76.6783 168.414 76.8231C168.51 76.9678 168.896 77.1125 169.572 77.2814L170.006 77.3779H170.03Z" fill="#55C1D0"/>
<g opacity="0.5">
<path d="M166.339 95.664L164.481 95.1815" stroke="#212020" stroke-width="0.62724" stroke-linecap="round" stroke-linejoin="round"/>
</g>
<path d="M178.377 99.307C178.497 98.8487 178.425 98.4144 178.184 98.0043C177.943 97.5942 177.581 97.3288 177.098 97.2082C176.616 97.0876 176.182 97.1599 175.771 97.4012C175.361 97.6424 175.096 97.9802 174.975 98.4627C174.855 98.9452 174.927 99.3794 175.168 99.7895C175.41 100.2 175.771 100.465 176.254 100.586C176.736 100.706 177.171 100.634 177.581 100.393C177.991 100.151 178.256 99.7895 178.377 99.307Z" fill="#E75593"/>
<path d="M150.899 129.801C151.357 129.728 151.743 129.68 152.033 129.632C154.952 129.439 158.378 129.945 162.31 131.2C161.827 130.983 161.321 130.766 160.838 130.573C157.774 129.125 154.469 128.811 150.923 129.68V129.801H150.899Z" fill="#0CA7DA"/>
<path d="M149.452 134.433C150.32 135.18 152.13 136.097 154.88 137.207C157.63 138.317 161.297 138.63 165.881 138.196C168.414 135.735 167.208 133.419 162.286 131.224C158.354 129.97 154.928 129.463 152.009 129.656C151.72 129.68 151.334 129.752 150.875 129.825C149.428 131.031 148.776 132.358 148.897 133.805C149.042 134.022 149.211 134.24 149.452 134.457V134.433Z" fill="#55C1D0"/>
<path d="M177.943 79.0666L170.56 74.7483L161.562 75.3997L161.272 76.7506C161.152 77.6915 161.248 78.2222 161.586 78.3429C161.9 78.4635 163.082 78.3429 165.156 77.8845C166.194 77.6674 167.231 77.4502 168.269 77.209C168.51 77.209 168.968 77.2331 169.668 77.3537C170.585 77.5226 171.212 77.788 171.574 78.1016C174.3 80.6588 175.747 81.9374 175.916 81.9374L176.688 82.1304C177.098 82.1545 177.388 81.8892 177.532 81.3102L177.991 79.0425L177.943 79.0666Z" fill="#0CA7DA"/>
<path d="M170.03 76.3403C170.682 76.4609 171.092 76.4609 171.212 76.3885C171.357 76.292 171.526 75.9543 171.719 75.3512C171.888 75.4718 171.912 75.7372 171.864 76.1473C171.815 76.678 172.057 77.1605 172.612 77.5706C173.456 78.2461 174.373 78.8251 175.338 79.3076L176.64 79.8625C176.64 79.8625 176.809 79.7419 176.882 79.6936C177.774 79.1629 178.208 78.3909 178.208 77.3294C178.329 76.7022 178.426 76.2197 178.474 75.8819C178.594 74.9893 178.667 74.2173 178.643 73.566C178.643 73.1076 178.474 72.7698 178.16 72.5527C177.871 72.3356 177.509 72.3115 177.123 72.4562C174.686 73.2041 173.022 73.7107 172.129 73.9278C170.802 74.2173 169.572 74.0002 168.462 73.3006C168.269 73.18 166.822 72.1667 164.144 70.2126C163.758 69.9473 163.396 69.8508 163.082 69.9714C162.769 70.0679 162.552 70.3574 162.383 70.7916C162.117 71.5154 161.973 71.9737 161.948 72.1667C161.683 73.373 161.514 74.0243 161.49 74.1932C161.369 74.9411 161.345 75.6407 161.442 76.2438C161.755 76.8952 161.997 77.257 162.141 77.3535C162.31 77.45 162.745 77.4741 163.468 77.3776C164.457 77.257 165.64 76.9675 167.015 76.485C167.377 76.3644 167.666 76.0025 167.931 75.3994L168.221 74.5792L168.269 74.6516C168.197 75.3512 168.221 75.7613 168.317 75.906C168.438 76.0267 168.848 76.1473 169.548 76.2679L170.006 76.3403H170.03Z" fill="#55C1D0"/>
<path d="M164.023 98.3662C163.83 98.3179 163.685 98.2697 163.54 98.2214C163.685 99.5242 164.409 100.32 165.711 100.61C167.014 100.875 168.027 100.441 168.727 99.3312C168.896 99.0658 168.992 98.7763 169.065 98.4868L168.944 98.3662C167.979 99.0175 166.338 99.0417 164.047 98.3662H164.023Z" fill="white" stroke="#44352B" stroke-width="0.289495" stroke-linecap="round" stroke-linejoin="round"/>
<path d="M164.023 98.3662C163.83 98.3179 163.685 98.2697 163.54 98.2214C163.685 99.5242 164.409 100.32 165.711 100.61C167.014 100.875 168.027 100.441 168.727 99.3312C168.896 99.0658 168.992 98.7763 169.065 98.4868L168.944 98.3662C167.979 99.0175 166.338 99.0417 164.047 98.3662H164.023Z" fill="white" stroke="#44352B" stroke-width="0.289495" stroke-linecap="round" stroke-linejoin="round"/>
</g>
<g clip-path="url(#clip3_109_30)">
<path d="M87.1777 60.1106C87.3948 59.9417 87.5154 59.7005 87.5154 59.3869V57.9876C87.5154 57.674 87.3948 57.4328 87.1777 57.2639C86.9605 57.0468 86.6952 56.9261 86.3815 56.9261H81.5084C81.1947 56.9261 80.9294 57.0468 80.7123 57.2639C80.4951 57.4328 80.3745 57.674 80.3745 57.9876V59.3869C80.3745 59.7005 80.4951 59.9417 80.7123 60.1106C80.9294 60.3277 81.1947 60.4483 81.5084 60.4483H86.3815C86.6952 60.4483 86.9605 60.3277 87.1777 60.1106Z" fill="#FFECAC"/>
<path d="M83.9691 63.4882V62.0889C83.9691 61.7753 83.8485 61.5341 83.6313 61.3652C83.4142 61.1481 83.1488 61.0275 82.8352 61.0275H81.5084C81.1947 61.0275 80.9294 61.1481 80.7123 61.3652C80.4951 61.5341 80.3745 61.7753 80.3745 62.0889V63.4882C80.3745 63.8018 80.4951 64.043 80.7123 64.2119C80.9294 64.429 81.1947 64.5497 81.5084 64.5497H82.8352C83.1488 64.5497 83.4142 64.429 83.6313 64.2119C83.8485 64.043 83.9691 63.8018 83.9691 63.4882Z" fill="#FFECAC"/>
<path d="M104.21 76.9495C103.1 78.1799 102.183 79.3137 101.411 80.3752L101.315 81.7744L102.569 82.8359L104.21 80.5441C106.453 77.5768 108.118 75.695 109.18 74.8748C109.035 73.8374 108.528 73.3308 107.66 73.3549C106.55 74.3682 105.392 75.5503 104.186 76.9254L104.21 76.9495Z" fill="#F5B897"/>
<path d="M109.204 74.8989L110.097 73.6685C110.338 73.4032 110.41 73.0895 110.338 72.7277C110.338 72.4141 110.169 72.1728 109.879 72.0522L109.373 71.8109C108.77 71.4249 108.191 71.5697 107.636 72.2934L106.792 73.4997L109.204 74.8989Z" fill="#F5B897"/>
<path d="M109.204 74.8989L110.097 73.6685C110.338 73.4032 110.41 73.0895 110.338 72.7277C110.338 72.4141 110.169 72.1728 109.879 72.0522L109.373 71.8109C108.77 71.4249 108.191 71.5697 107.636 72.2934L106.792 73.4997L109.204 74.8989Z" fill="#F5B897"/>
<path d="M109.661 74.2236L107.249 72.8243L106.766 73.4757L108.937 75.0438L109.637 74.2236H109.661Z" fill="#F5B897"/>
<path d="M109.661 74.2236L107.249 72.8243L106.766 73.4757L108.793 75.1644L109.661 74.2236Z" fill="#F5B897"/>
<path d="M102.497 77.2151C101.267 78.566 99.9883 79.6275 98.6855 80.3995C98.782 81.5334 99.5299 83.1256 100.977 85.1762C101.243 85.0314 101.412 84.9349 101.484 84.8626L106.647 80.4719C107.033 80.11 107.057 79.724 106.671 79.3139C105.633 78.3007 104.524 77.5528 103.342 77.0462C103.052 76.8532 102.763 76.9256 102.473 77.2151H102.497Z" fill="#FFCF10"/>
<path d="M92.4606 72.3901H96.7306C97.6956 72.3901 98.54 72.0523 99.1913 71.401C99.8427 70.7496 100.18 69.9294 100.18 69.0126V61.6305C100.18 60.6896 99.8427 59.8935 99.1913 59.2422C98.5158 58.5667 97.6956 58.2531 96.7306 58.2531H92.4606C91.4956 58.2531 90.6512 58.5908 89.9999 59.2422C89.3244 59.9177 89.0107 60.7138 89.0107 61.6305V69.0126C89.0107 69.9535 89.3485 70.7496 89.9999 71.401C90.6512 72.0523 91.4956 72.3901 92.4606 72.3901Z" fill="#F58720"/>
<path d="M95.9112 59.9174H93.2575C92.6302 59.9174 92.0995 60.1345 91.6652 60.5928C91.231 61.0271 90.9897 61.5578 90.9897 62.1851V68.3851C90.9897 69.0123 91.2069 69.5431 91.6652 69.9773C92.0995 70.4116 92.6302 70.6528 93.2575 70.6528H95.9112C96.5384 70.6528 97.0692 70.4357 97.5034 69.9773C97.9376 69.5431 98.1789 69.0123 98.1789 68.3851V62.1851C98.1789 61.5578 97.9618 61.0271 97.5034 60.5928C97.0692 60.1586 96.5384 59.9174 95.9112 59.9174Z" fill="#D2EAFA"/>
<path d="M96.4902 112.533L98.8062 114.463L100.64 103.487L98.0825 103.052L96.4902 112.509V112.533Z" fill="#F5B897"/>
<path d="M89.3252 114.15L91.8583 112.606V103.004H89.3252V114.126V114.15Z" fill="#F5B897"/>
<path d="M99.0473 112.968C98.9267 113.209 98.7337 113.354 98.5166 113.354C98.203 113.354 97.8411 113.209 97.431 112.968C97.0208 112.678 96.7314 112.389 96.5625 112.075C96.5625 112.268 96.5625 112.678 96.4901 113.354C96.4419 113.981 96.4419 114.391 96.5625 114.584C96.7072 115.018 97.1897 115.453 97.9617 115.911C98.8302 116.418 99.4092 116.442 99.6987 116.008C100.061 115.525 99.8434 114.512 99.0473 112.992V112.968Z" fill="#334E6D"/>
<path d="M89.7829 113.064C89.5658 113.016 89.3969 112.871 89.3245 112.606C88.263 113.86 87.8771 114.801 88.1907 115.477C88.4078 115.959 88.9868 116.031 89.9276 115.67C90.772 115.356 91.3028 114.994 91.5199 114.608C91.737 114.294 91.8576 113.474 91.8576 112.147C91.6887 112.413 91.3751 112.654 90.9168 112.871C90.4825 113.04 90.0965 113.112 89.7829 113.064Z" fill="#334E6D"/>
<path d="M101.895 97.1901C101.702 96.6352 101.364 96.2251 100.857 95.9115C100.351 95.6461 99.7959 95.622 99.2169 95.815L96.5391 96.6593C95.9601 96.8523 95.5258 97.1901 95.2605 97.6967C94.971 98.2516 94.8986 98.8064 95.0916 99.3613L96.3461 103.294C96.5391 103.873 96.9009 104.307 97.4558 104.548C98.0107 104.838 98.5655 104.886 99.1204 104.717L101.798 103.873C102.353 103.68 102.763 103.318 103.053 102.763C103.318 102.256 103.342 101.726 103.149 101.122L101.895 97.1901Z" fill="#6D9ACF"/>
<path d="M91.2057 96.0806L88.4314 96.3942C87.9972 96.4424 87.6112 96.5872 87.2734 96.8526C86.9115 98.1553 86.815 100.158 86.9839 102.86C87.0563 103.463 87.2975 103.945 87.7559 104.307C88.2625 104.693 88.7933 104.862 89.3481 104.814L92.1225 104.5C92.7497 104.428 93.2322 104.162 93.5699 103.68C93.9801 103.221 94.1489 102.691 94.0766 102.088L93.6423 97.9864C93.5699 97.4074 93.3046 96.9249 92.798 96.5389C92.3637 96.1771 91.833 96.0323 91.2057 96.1047V96.0806Z" fill="#6D9ACF"/>
<path d="M86.9368 100.953L102.377 100.109C102.208 97.2141 101.556 95.5736 100.423 95.1394L87.3228 94.9222C86.768 96.5627 86.6232 98.5651 86.9368 100.978V100.953Z" fill="#6D9ACF"/>
<path d="M96.1764 79.362C95.4285 79.0002 94.8736 78.7589 94.5118 78.6383C94.0293 78.4694 93.4744 78.4935 92.8472 78.7107L86.7437 78.8554C87.4433 80.6406 87.781 81.678 87.7328 81.9675C87.6845 82.7153 87.4433 84.6694 87.009 87.7815C86.6954 91.0625 86.7195 94.0057 87.0814 96.6353L88.2394 97.166C89.4697 97.4796 91.1826 97.6485 93.3779 97.6967H94.2223C97.7927 97.6485 100.302 97.359 101.797 96.78C101.725 94.5123 101.58 91.6173 101.411 88.0951C101.098 84.7177 100.905 82.643 100.808 81.8951L100.881 78.9519L96.2005 79.362H96.1764Z" fill="#FFF00F"/>
<path d="M97.383 74.7783H90.8452V77.9145C90.8452 79.3861 91.1588 80.6406 91.7861 81.7021C92.4616 82.7153 93.2336 83.2461 94.1262 83.2461C95.0188 83.2461 95.7908 82.7394 96.4663 81.7021C97.0935 80.6406 97.4071 79.362 97.4071 77.9145V74.7783H97.383Z" fill="#ED9681"/>
<path d="M104.499 67.5892C104.499 68.1682 104.716 68.6507 105.174 69.0608C105.584 69.4951 106.067 69.7363 106.646 69.7363C107.225 69.7363 107.731 69.5192 108.19 69.0608C108.6 68.6507 108.793 68.1682 108.793 67.5892C108.793 67.0102 108.6 66.5036 108.19 66.0453C107.779 65.6351 107.273 65.4421 106.646 65.4421C106.067 65.4421 105.584 65.6351 105.174 66.0453C104.74 66.4795 104.499 67.0102 104.499 67.5892Z" fill="#F4A289"/>
<path d="M82.6671 69.0367C83.0773 68.6265 83.2703 68.1441 83.2703 67.5651C83.2703 66.9861 83.0773 66.4795 82.6671 66.0211C82.257 65.611 81.7504 65.418 81.1232 65.418C80.5442 65.418 80.0376 65.611 79.5792 66.0211C79.1691 66.4553 78.9761 66.9861 78.9761 67.5651C78.9761 68.1441 79.1691 68.6265 79.5792 69.0367C80.0134 69.4709 80.5442 69.7122 81.1232 69.7122C81.7022 69.7122 82.2088 69.495 82.6671 69.0367Z" fill="#F4A289"/>
<path d="M96.4655 55.6717C96.2725 55.4787 96.1036 55.4063 95.9348 55.4063C95.404 55.4063 95.0422 55.6475 94.8733 56.13C92.6538 55.6958 90.4344 55.551 88.2149 55.7199C83.8725 56.0818 81.5324 58.3736 81.2188 62.5713V65.7075C81.2188 69.3986 82.4732 72.5589 84.9581 75.1644C87.3947 77.7457 90.362 79.0243 93.8842 79.0243C97.4064 79.0243 100.325 77.7216 102.81 75.092C105.247 72.5107 106.477 69.3986 106.477 65.7075V62.5713C106.67 61.0273 106.405 59.5799 105.681 58.2289C104.306 55.5752 101.363 54.7791 96.8756 55.8405C96.7791 55.8888 96.6585 55.8405 96.4896 55.6475L96.4655 55.6717Z" fill="#F5B897"/>
<g opacity="0.5">
<path d="M93.5707 65.3457C93.5225 66.2866 93.1365 67.0344 92.3645 67.6134C91.6649 68.2407 90.8205 68.506 89.8314 68.4095C88.8906 68.3613 88.1186 67.9994 87.4913 67.2757C86.8641 66.5761 86.5746 65.7558 86.6228 64.8873" stroke="#212020" stroke-width="0.530742" stroke-linecap="round" stroke-linejoin="round"/>
</g>
<g opacity="0.5">
<path d="M100.229 65.3457C100.18 66.2866 99.7943 67.0344 99.0223 67.6134C98.3227 68.2407 97.4783 68.506 96.5616 68.4095C95.5966 68.3613 94.7764 67.9994 94.1733 67.2757C93.5943 66.5761 93.3289 65.7558 93.3771 64.8873" stroke="#212020" stroke-width="0.530742" stroke-linecap="round" stroke-linejoin="round"/>
</g>
<path d="M97.1167 61.2445C95.428 61.2445 94.3183 62.0165 93.7875 63.5846C93.2085 62.0406 92.0747 61.2445 90.386 61.2445C89.421 61.2445 88.5766 61.5823 87.9253 62.2336C87.2256 62.9332 86.8638 63.7776 86.8638 64.7667C86.8638 65.7558 87.2256 66.576 87.9253 67.2274C88.6007 67.927 89.421 68.2889 90.386 68.2889C92.0264 68.2889 93.1603 67.4928 93.7875 65.9006C94.0047 66.6002 94.4389 67.1792 95.042 67.6375C95.621 68.0718 96.2965 68.313 97.1167 68.313C98.0817 68.313 98.9261 67.9512 99.5774 67.2515C100.277 66.576 100.639 65.7558 100.639 64.7908C100.639 63.8258 100.277 62.9815 99.5774 62.2577C98.902 61.5823 98.0817 61.2686 97.1167 61.2686V61.2445Z" fill="white"/>
<path d="M98.9753 65.8521C99.3854 65.442 99.5784 64.9595 99.5784 64.3805C99.5784 63.8498 99.3854 63.3914 98.9753 62.9813C98.6134 62.5712 98.1551 62.3782 97.5761 62.3782C97.0453 62.3782 96.587 62.5712 96.1768 62.9813C95.7667 63.3914 95.5737 63.8498 95.5737 64.3805C95.5737 64.9595 95.7667 65.442 96.1768 65.8521C96.587 66.2622 97.0453 66.4552 97.5761 66.4552C98.1551 66.4552 98.6134 66.2622 98.9753 65.8521Z" fill="#B47052"/>
<path d="M98.1789 64.5496C98.7097 64.5496 98.975 64.2843 98.975 63.7535C98.975 63.2228 98.7097 62.9574 98.1789 62.9574C98.0101 62.9574 97.8171 63.0539 97.6482 63.2228C97.4793 63.3916 97.3828 63.5846 97.3828 63.7535C97.3828 64.2843 97.6482 64.5496 98.1789 64.5496Z" fill="#212020"/>
<path d="M99.7943 65.1043C100.325 65.1043 100.615 64.8148 100.615 64.2358C100.615 63.6569 100.349 63.3915 99.7943 63.3915C99.2153 63.3915 98.9258 63.681 98.9258 64.2358C98.9258 64.7907 99.2153 65.1043 99.7943 65.1043Z" fill="#FDF8E4"/>
<path d="M92.3161 65.8521C92.7262 65.442 92.9192 64.9595 92.9192 64.3805C92.9192 63.8498 92.7262 63.3914 92.3161 62.9813C91.9543 62.5712 91.4959 62.3782 90.9169 62.3782C90.3379 62.3782 89.8795 62.5712 89.5177 62.9813C89.1075 63.3914 88.9146 63.8498 88.9146 64.3805C88.9146 64.9595 89.1075 65.442 89.5177 65.8521C89.8795 66.2622 90.3379 66.4552 90.9169 66.4552C91.4959 66.4552 91.9543 66.2622 92.3161 65.8521Z" fill="#B47052"/>
<path d="M92.1477 64.4531C92.3165 64.3083 92.413 64.1395 92.413 63.9223C92.413 63.3916 92.1477 63.1262 91.6169 63.1262C91.0862 63.1262 90.8208 63.3916 90.8208 63.9223C90.8208 64.4531 91.0862 64.7184 91.6169 64.7184C91.834 64.7184 92.027 64.6219 92.1477 64.4531Z" fill="#212020"/>
<path d="M98.5161 59.4109C99.2157 59.4109 99.843 59.7004 100.398 60.2553C100.832 60.8101 101.049 61.3891 101.049 61.944" stroke="#44352B" stroke-width="0.723739" stroke-linecap="round" stroke-linejoin="round"/>
<path d="M85.4414 64.1154C85.3208 63.7294 85.3449 63.1746 85.5379 62.4267C85.6103 62.089 85.7068 61.7995 85.8515 61.5582" stroke="#44352B" stroke-width="0.723739" stroke-linecap="round" stroke-linejoin="round"/>
<g opacity="0.5">
<path d="M92.7031 71.2803H94.2471" stroke="#212020" stroke-width="0.458368" stroke-linecap="round" stroke-linejoin="round"/>
</g>
<path d="M93.5223 74.3201C92.509 74.1754 91.737 73.6929 91.2545 72.8485H91.1098C91.0133 73.5481 91.2063 74.1754 91.6405 74.7061C92.0507 75.2851 92.6055 75.5987 93.3051 75.647C94.0048 75.7435 94.632 75.5505 95.1627 75.1162C95.6935 74.682 96.0071 74.1271 96.1036 73.4516L95.9589 73.3793C95.2834 74.1271 94.4631 74.4407 93.4981 74.3201H93.5223Z" fill="white"/>
<path d="M93.4744 74.2959C92.4612 74.1512 91.6892 73.6687 91.2067 72.8243H91.062C90.9655 73.524 91.1584 74.1512 91.5927 74.6819C92.0028 75.2609 92.5577 75.5745 93.2573 75.6228C93.9569 75.7193 94.5841 75.5263 95.1149 75.0921C95.6456 74.6578 95.9592 74.1029 96.0557 73.4275L95.911 73.3551C95.2355 74.1029 94.4153 74.4166 93.4503 74.2959H93.4744Z" fill="white" stroke="#44352B" stroke-width="0.289495" stroke-linecap="round" stroke-linejoin="round"/>
<path d="M86.6716 71.5699C86.9369 71.2563 87.0817 70.8944 87.0817 70.5084C87.0817 70.1224 86.9369 69.7847 86.6716 69.5193C86.3579 69.2057 85.9961 69.0609 85.6101 69.0609C85.2241 69.0609 84.8863 69.2057 84.621 69.5193C84.3073 69.7847 84.1626 70.1224 84.1626 70.5084C84.1626 70.9185 84.3073 71.2563 84.621 71.5699C84.8863 71.8352 85.2241 71.98 85.6101 71.98C85.9961 71.98 86.3579 71.8352 86.6716 71.5699Z" fill="#E78081"/>
<path d="M102.521 71.5699C102.787 71.2563 102.931 70.8944 102.931 70.5084C102.931 70.0983 102.787 69.7847 102.521 69.5193C102.208 69.2057 101.846 69.0609 101.46 69.0609C101.074 69.0609 100.736 69.2057 100.471 69.5193C100.157 69.7847 100.012 70.1224 100.012 70.5084C100.012 70.8944 100.157 71.2563 100.471 71.5699C100.736 71.8352 101.074 71.98 101.46 71.98C101.846 71.98 102.208 71.8352 102.521 71.5699Z" fill="#E78081"/>
<path d="M87.1292 49.737C87.4911 49.737 88.0218 49.8818 88.7214 50.1954C86.8639 50.3642 85.1269 51.2086 83.5347 52.7285L81.6771 54.8514C82.3043 54.5378 83.0763 54.2242 84.0171 53.9106C82.642 54.7067 81.5323 56.2989 80.6879 58.7114C79.8436 60.9308 79.6506 62.5231 80.0848 63.5122C80.5673 64.7666 81.0498 66.19 81.5564 67.8305L82.5455 65.2974C83.4864 63.5122 84.5479 62.4507 85.7541 62.0888C87.7082 61.5098 89.5899 60.5448 91.4234 59.1697C91.0133 59.797 90.3619 60.5207 89.4211 61.3651L88.1666 62.4266C91.3269 61.7269 93.5946 60.6413 94.9697 59.218C94.6079 60.1588 93.6429 61.0997 92.0506 62.0888C94.3184 61.8234 96.2242 60.9791 97.7682 59.5557C98.5643 58.8802 99.1192 58.2289 99.4328 57.5534C99.9635 58.9285 100.88 60.0865 102.159 61.0273C102.834 61.5098 103.413 61.8476 103.968 62.0164C103.823 61.7511 103.751 61.3409 103.703 60.8102L103.63 60.0865L105.753 63.1503C106.501 64.1635 106.767 65.3456 106.55 66.6725C107.756 62.9332 108.118 60.376 107.683 58.9526C107.418 58.06 106.936 57.1915 106.212 56.3472L105.15 55.2857L106.405 55.8888C105.971 54.9238 105.223 54.0312 104.209 53.2351L102.81 52.2942C103.775 51.5946 104.644 51.2086 105.416 51.1604C104.668 50.5331 103.655 50.2677 102.424 50.3642L100.76 50.702C100.35 49.6405 99.4087 48.8685 97.8888 48.3619L95.6935 47.9518C96.369 48.386 96.8273 48.9168 97.0927 49.544C95.1386 48.8444 92.895 48.6514 90.3619 49.0133L87.1533 49.6888L87.1292 49.737Z" fill="#662F18"/>
<path d="M92.6547 92.8236C93.3544 91.8586 93.7404 91.0143 93.7886 90.3629C93.8369 89.9286 93.5474 89.5909 92.9201 89.3738C92.3411 89.1567 91.8828 89.1084 91.5209 89.229L89.9287 90.2905C88.2882 89.3255 87.1302 88.5535 86.4547 88.0228C86.0446 87.7092 85.7792 87.4438 85.6586 87.2267L85.5139 86.9613L86.7201 85.7068L84.1146 84.5006C83.8493 84.8142 83.5839 85.2002 83.3185 85.6345C82.7878 86.4306 82.45 87.0578 82.3294 87.4921C82.1605 88.1917 84.4765 89.7598 89.3255 92.1481C90.6042 92.7754 91.7139 92.9925 92.6547 92.8236Z" fill="#F5B897"/>
<path d="M89.0357 78.928L86.1408 78.8556C85.2964 79.5793 84.6209 80.4478 84.1385 81.461C83.9696 81.8229 83.8007 82.2089 83.656 82.5708C83.4147 83.2945 83.1735 84.0665 82.9805 84.8385C83.1493 84.9591 83.3423 85.1521 83.5353 85.3934C84.3073 85.9241 85.3447 86.672 86.6715 87.637L89.0357 78.928Z" fill="#FFCF10"/>
<path d="M92.5335 65.852C93.0643 65.852 93.3538 65.5625 93.3538 64.9835C93.3538 64.4045 93.0884 64.1392 92.5335 64.1392C91.9545 64.1392 91.665 64.4287 91.665 64.9835C91.665 65.5384 91.9545 65.852 92.5335 65.852Z" fill="#FDF8E4"/>
</g>
</g>
<g clip-path="url(#clip4_109_30)">
<path d="M74.1206 23.3608C76.008 23.3608 76.9678 24.6084 76.9678 27.0718V45.243C76.9678 47.7063 76.008 48.954 74.1206 48.954H48.8472C46.9597 48.954 46 47.7063 46 45.243V27.0718C46 24.6084 46.9597 23.3608 48.8472 23.3608H74.1206Z" fill="#EC4893"/>
<path d="M55.1479 39.4528H62.538L68.1045 59.8953L55.1479 39.4528Z" fill="#EC4893"/>
<path d="M62.9877 42.4598C63.3716 42.8437 63.5635 43.2915 63.5635 43.8034C63.5635 44.3153 63.3716 44.7951 62.9877 45.147C62.6038 45.4989 62.1559 45.7229 61.644 45.7229C61.1322 45.7229 60.6523 45.5309 60.3004 45.147C59.9165 44.7631 59.7245 44.3153 59.7245 43.8034C59.7245 43.2915 59.9165 42.8117 60.3004 42.4598C60.6843 42.0759 61.1322 41.8839 61.644 41.8839C62.1559 41.8839 62.6358 42.0759 62.9877 42.4598ZM59.6286 27.0398C59.6286 27.0398 59.6606 26.9439 59.6925 26.9119C60.9082 26.0161 61.9959 26.0161 62.9877 26.9119C63.1156 27.0078 63.2436 27.1678 63.3716 27.3917C63.5315 31.6786 63.2756 36.0295 62.6038 40.4123L60.5883 40.2523C59.5006 36.3174 59.1807 31.9026 59.6286 27.0078V27.0398Z" fill="#FFCF10"/>
</g>
<path d="M127.943 0C125.992 0 125 1.24767 125 3.71102V21.8822C125 24.3456 125.992 25.5932 127.943 25.5932H154.112C156.064 25.5932 157.056 24.3456 157.056 21.8822V3.71102C157.056 1.24767 156.064 0 154.112 0H127.943Z" fill="#97D34F"/>
<path d="M147.202 13.4362H139.812L134.245 33.8787L147.202 13.4362Z" fill="#97D34F"/>
<path d="M140.452 21.3061C140.452 20.8263 140.292 20.4104 139.94 20.0905C139.588 19.7386 139.204 19.5786 138.724 19.5786C138.245 19.5786 137.829 19.7386 137.509 20.0905C137.157 20.4104 136.997 20.8263 136.997 21.3061C136.997 21.786 137.157 22.2019 137.509 22.5218C137.829 22.8417 138.245 23.0337 138.724 23.0337C139.204 23.0337 139.62 22.8737 139.94 22.5218C140.26 22.1699 140.452 21.786 140.452 21.3061ZM135.813 4.89448C135.301 5.82224 135.173 6.68601 135.493 7.54978C135.589 7.77372 135.685 7.96567 135.845 8.15762C136.005 8.34957 136.229 8.44554 136.421 8.47753C136.677 8.50953 136.901 8.44554 137.125 8.25359C137.317 8.09364 137.477 7.86969 137.541 7.61376C137.605 7.38982 137.637 7.13389 137.637 6.87796C137.637 6.68601 137.605 6.43008 137.541 6.11016C138.468 5.5663 139.396 5.2144 140.324 5.11842C141.412 5.02245 142.275 5.24639 142.979 5.82224C143.203 6.01419 143.363 6.20614 143.459 6.43008C143.587 6.68601 143.619 6.90995 143.587 7.16588C143.555 7.4538 143.395 7.70974 143.139 7.96567C142.915 8.15762 142.627 8.31758 142.307 8.44554C141.988 8.54152 141.604 8.66948 141.092 8.76546C140.388 8.92542 139.972 9.02139 139.844 9.02139C138.884 9.27732 138.181 9.66122 137.797 10.2051C137.573 10.525 137.413 10.9409 137.349 11.4208C137.285 11.7087 137.253 12.1566 137.253 12.7644V15.1318C137.221 15.5157 137.253 15.7716 137.253 15.9316C137.253 16.2195 137.317 16.4754 137.413 16.6994C137.509 16.9553 137.669 17.1792 137.861 17.3392C138.085 17.5311 138.309 17.6271 138.564 17.6591C138.852 17.6591 139.108 17.5951 139.364 17.4032C139.588 17.2112 139.78 16.9873 139.876 16.6994C139.972 16.4754 140.036 16.1875 140.068 15.8676C140.068 15.6756 140.068 15.3877 140.068 15.0038V12.7324C140.004 12.2845 140.068 11.9646 140.228 11.8047C140.388 11.6127 140.676 11.4847 141.092 11.3888C142.275 11.1328 143.203 10.8449 143.907 10.493C144.867 10.0131 145.539 9.3733 145.891 8.6055C146.274 7.74173 146.306 6.84597 145.891 5.82224C145.539 4.86249 144.931 4.09469 144.131 3.51885C143.235 2.87902 142.243 2.49512 141.092 2.39914C139.94 2.30317 138.884 2.46313 137.893 2.943C136.997 3.35889 136.293 4.03071 135.813 4.89448Z" fill="white"/>
<defs>
<filter id="filter0_d_109_30" x="0.458008" y="8" width="213.693" height="213.693" filterUnits="userSpaceOnUse" color-interpolation-filters="sRGB">
<feFlood flood-opacity="0" result="BackgroundImageFix"/>
<feColorMatrix in="SourceAlpha" type="matrix" values="0 0 0 0 0 0 0 0 0 0 0 0 0 0 0 0 0 0 127 0" result="hardAlpha"/>
<feOffset dy="14"/>
<feGaussianBlur stdDeviation="12"/>
<feComposite in2="hardAlpha" operator="out"/>
<feColorMatrix type="matrix" values="0 0 0 0 0 0 0 0 0 0 0 0 0 0 0 0 0 0 0.06 0"/>
<feBlend mode="normal" in2="BackgroundImageFix" result="effect1_dropShadow_109_30"/>
<feBlend mode="normal" in="SourceGraphic" in2="effect1_dropShadow_109_30" result="shape"/>
</filter>
<clipPath id="clip0_109_30">
<rect width="83.4471" height="113.748" fill="white" transform="translate(23.77 53.3619)"/>
</clipPath>
<clipPath id="clip1_109_30">
<rect width="44.2928" height="99.4899" fill="white" transform="translate(111 33.7122)"/>
</clipPath>
<clipPath id="clip2_109_30">
<rect width="58.7193" height="86.8245" fill="white" transform="translate(133.167 69.899)"/>
</clipPath>
<clipPath id="clip3_109_30">
<rect width="31.362" height="68.2968" fill="white" transform="translate(79 48)"/>
</clipPath>
<clipPath id="clip4_109_30">
<rect width="151" height="54.6095" fill="white" transform="translate(46 5.28564)"/>
</clipPath>
</defs>
</svg>
