<svg width="215" height="222" viewBox="0 0 215 222" fill="none" xmlns="http://www.w3.org/2000/svg">
<g filter="url(#filter0_d_109_34)">
<rect x="24.458" y="18" width="165.693" height="165.693" rx="82.8464" fill="white"/>
</g>
<mask id="mask0_109_34" style="mask-type:alpha" maskUnits="userSpaceOnUse" x="24" y="18" width="167" height="166">
<rect x="24.458" y="18" width="165.693" height="165.693" rx="82.8464" fill="white"/>
</mask>
<g mask="url(#mask0_109_34)">
<path d="M210.249 135.189C210.249 122.47 198.671 112.164 184.419 112.164C177.864 112.164 171.863 114.349 167.298 117.937C165.602 117.317 163.906 116.763 162.21 116.339C152.459 113.925 142.609 113.86 132.76 114.773C127.803 107.859 116.715 103 103.832 103C90.9503 103 80.2206 107.696 75.1329 114.447C66.6209 113.925 58.1089 114.252 49.6947 116.339C45.7485 117.317 41.8676 118.883 38.0518 120.97C33.8774 117.676 28.8223 115.784 23.3759 115.784C9.97196 115.784 -1.05127 127.427 -2.6167 142.429H98.4839C100.212 142.625 101.974 142.723 103.8 142.723C105.626 142.723 107.387 142.592 109.116 142.429H208.847C209.695 140.146 210.184 137.7 210.184 135.157L210.249 135.189Z" fill="#69BE5A"/>
<path d="M106.5 251C178.021 251 236 156.191 236 146.873C236 137.554 178.021 130 106.5 130C34.9791 130 -23 137.554 -23 146.873C-23 156.191 34.9791 251 106.5 251Z" fill="#A1CE58"/>
</g>
<path d="M159.113 103.782C159.389 103.053 158.886 102.122 157.855 101.141C158.157 101.192 158.434 101.242 158.736 101.292C167.338 102.751 174.732 101.896 175.261 99.3807C175.512 98.1231 174.003 96.7145 171.337 95.4066C171.437 95.3815 171.538 95.3563 171.664 95.3312C184.944 92.0865 194.955 86.3518 194.024 82.5287C193.093 78.7056 181.574 78.2529 168.293 81.4975C168.193 81.5226 168.092 81.5478 167.966 81.5729C169.727 79.2086 170.406 77.2468 169.601 76.2407C167.992 74.2537 161.05 76.9198 154.057 82.1766C153.806 82.3527 153.579 82.5539 153.353 82.7299C153.831 81.3717 153.831 80.3405 153.252 79.8123C151.617 78.3032 145.983 81.422 140.676 86.7794C138.086 89.3953 136.048 92.0614 134.841 94.2748C133.936 94.5263 133.332 94.9036 133.131 95.4569C132.929 95.9851 133.131 96.6139 133.659 97.293C133.508 98.1231 133.634 98.777 134.036 99.1794C134.464 99.5819 135.193 99.6322 136.099 99.431C138.186 100.839 141.23 102.248 144.751 103.38C151.919 105.669 158.358 105.845 159.138 103.757" fill="#009247"/>
<path d="M136.299 62.9856C137.029 63.2874 137.381 64.2432 137.431 65.6769C137.582 65.4254 137.733 65.1739 137.909 64.9223C142.587 57.5528 148.171 52.6229 150.359 53.9057C151.466 54.5596 151.516 56.6221 150.686 59.4643C150.787 59.414 150.862 59.3386 150.963 59.2883C162.256 51.5665 173.223 47.9446 175.436 51.1893C177.649 54.4339 170.305 63.3126 159.012 71.0343C158.911 71.0846 158.835 71.1601 158.735 71.2104C161.678 71.487 163.589 72.2919 163.79 73.5495C164.193 76.0647 157.578 79.4603 149.001 81.1455C148.699 81.1958 148.422 81.2461 148.121 81.2964C149.429 81.8497 150.208 82.5288 150.208 83.3337C150.208 85.5471 144.147 87.6599 136.626 88.0372C132.954 88.2132 129.609 87.9617 127.144 87.3832C126.364 87.8863 125.66 88.0875 125.132 87.8611C124.603 87.6599 124.276 87.0814 124.1 86.2514C123.371 85.7986 122.969 85.2704 122.969 84.7171C122.969 84.1386 123.396 83.5601 124.151 83.0067C124.503 80.5167 125.484 77.2972 126.993 73.952C130.087 67.0854 134.262 62.1807 136.324 63.0108" fill="#009247"/>
<path d="M165.551 93.6714C165.727 92.6653 164.897 91.6089 163.363 90.6028C163.74 90.6028 164.143 90.6028 164.52 90.6028C175.788 90.477 184.969 87.7103 185.044 84.4154C185.095 82.7805 182.831 81.2965 179.184 80.2653C179.31 80.215 179.435 80.1646 179.561 80.0892C195.658 72.946 207.052 63.3882 205.015 58.7602C202.953 54.1322 188.239 56.1695 172.116 63.3127C171.99 63.363 171.864 63.4385 171.739 63.4888C173.424 60.0681 173.852 57.4271 172.619 56.3456C170.129 54.2076 161.904 59.1626 154.258 67.4125C153.981 67.6892 153.73 67.991 153.478 68.2677C153.755 66.4567 153.529 65.1237 152.673 64.5955C150.259 63.0612 143.82 68.2928 138.286 76.2912C135.595 80.215 133.608 84.0381 132.577 87.1318C131.495 87.6348 130.816 88.2636 130.69 89.0182C130.565 89.7476 130.967 90.5022 131.772 91.2316C131.772 92.3383 132.074 93.1432 132.703 93.5204C133.331 93.9229 134.262 93.8474 135.369 93.3695C138.362 94.6774 142.512 95.7841 147.241 96.4129C156.874 97.6957 165.073 96.4129 165.551 93.5959" fill="#35A850"/>
<path d="M136.124 91.4578C130.414 78.6051 114.191 73.298 99.9047 79.6615C76.9156 92.2124 56.8442 106.197 43.3123 126.193C41.8535 128.683 41.6774 131.198 42.4572 133.009C43.2872 134.82 45.2742 136.354 48.0912 136.958C71.9858 140.354 95.83 134.845 120.58 126.243C134.866 119.905 141.833 104.336 136.124 91.4578Z" fill="#F57E25"/>
<path d="M113.335 90.678C112.48 91.0553 111.121 89.848 110.317 87.9867C109.487 86.1254 109.512 84.3145 110.367 83.9372C111.222 83.5599 112.58 84.7672 113.385 86.6285C114.215 88.4897 114.19 90.3007 113.335 90.678Z" fill="#F05A28"/>
<path d="M114.87 114.195C114.015 114.572 112.657 113.365 111.852 111.504C111.022 109.643 111.047 107.832 111.902 107.454C112.757 107.077 114.116 108.284 114.921 110.146C115.751 112.007 115.725 113.818 114.87 114.195Z" fill="#F05A28"/>
<path d="M127.068 101.644C126.213 102.022 124.855 100.814 124.05 98.953C123.22 97.0917 123.245 95.2808 124.1 94.9035C124.955 94.5262 126.313 95.7335 127.118 97.5948C127.948 99.456 127.923 101.267 127.068 101.644Z" fill="#F05A28"/>
<path d="M96.986 104.235C96.1308 104.612 94.7726 103.405 93.9677 101.544C93.1377 99.6826 93.1628 97.8716 94.018 97.4943C94.8732 97.117 96.2314 98.3243 97.0363 100.186C97.8663 102.047 97.8411 103.858 96.986 104.235Z" fill="#F05A28"/>
<path d="M90.8246 124.86C89.9694 125.237 88.6112 124.03 87.8063 122.169C86.9763 120.307 87.0015 118.496 87.8566 118.119C88.7118 117.742 90.07 118.949 90.8749 120.81C91.7049 122.672 91.6798 124.483 90.8246 124.86Z" fill="#F05A28"/>
<path d="M77.9218 114.447C77.0666 114.824 75.7084 113.617 74.9035 111.756C74.0735 109.894 74.0986 108.084 74.9538 107.706C75.809 107.329 77.1672 108.536 77.9721 110.398C78.8021 112.259 78.7769 114.07 77.9218 114.447Z" fill="#F05A28"/>
<path d="M75.3304 128.633C74.4753 129.01 73.1171 127.803 72.3122 125.942C71.4822 124.08 71.5073 122.269 72.3625 121.892C73.2177 121.515 74.5759 122.722 75.3808 124.583C76.2108 126.445 76.1856 128.256 75.3304 128.633Z" fill="#F05A28"/>
<path d="M65.7228 122.143C64.8676 122.521 63.5094 121.313 62.7045 119.452C61.8745 117.591 61.8997 115.78 62.7548 115.403C63.61 115.025 64.9682 116.233 65.7731 118.094C66.6031 119.955 66.578 121.766 65.7228 122.143Z" fill="#F05A28"/>
<path d="M56.1395 130.972C55.2844 131.349 53.9261 130.142 53.1213 128.281C52.2913 126.419 52.3164 124.608 53.1716 124.231C54.0268 123.854 55.385 125.061 56.1898 126.922C57.0199 128.784 56.9947 130.595 56.1395 130.972Z" fill="#F05A28"/>
<defs>
<filter id="filter0_d_109_34" x="0.458008" y="8" width="213.693" height="213.693" filterUnits="userSpaceOnUse" color-interpolation-filters="sRGB">
<feFlood flood-opacity="0" result="BackgroundImageFix"/>
<feColorMatrix in="SourceAlpha" type="matrix" values="0 0 0 0 0 0 0 0 0 0 0 0 0 0 0 0 0 0 127 0" result="hardAlpha"/>
<feOffset dy="14"/>
<feGaussianBlur stdDeviation="12"/>
<feComposite in2="hardAlpha" operator="out"/>
<feColorMatrix type="matrix" values="0 0 0 0 0 0 0 0 0 0 0 0 0 0 0 0 0 0 0.06 0"/>
<feBlend mode="normal" in2="BackgroundImageFix" result="effect1_dropShadow_109_34"/>
<feBlend mode="normal" in="SourceGraphic" in2="effect1_dropShadow_109_34" result="shape"/>
</filter>
</defs>
</svg>
