<svg width="215" height="222" viewBox="0 0 215 222" fill="none" xmlns="http://www.w3.org/2000/svg">
<g filter="url(#filter0_d_109_36)">
<rect x="24.458" y="18" width="165.693" height="165.693" rx="82.8464" fill="white"/>
</g>
<mask id="mask0_109_36" style="mask-type:alpha" maskUnits="userSpaceOnUse" x="24" y="18" width="167" height="166">
<rect x="24.458" y="18" width="165.693" height="165.693" rx="82.8464" fill="white"/>
</mask>
<g mask="url(#mask0_109_36)">
<path d="M85.6927 81.4059C104.06 63.0389 124.545 53.7095 131.406 60.5899L144.254 47.7427C128.685 42.7282 102.447 53.729 80.2312 75.9444C57.9963 98.1793 46.9955 124.418 52.0295 139.967L64.8767 127.12C57.9963 120.239 67.3257 99.773 85.6927 81.4059Z" fill="#FFE100"/>
<path d="M118.967 137.44C97.8792 146.05 73.7979 135.943 65.1877 114.855C56.5775 93.7671 66.6843 69.6858 87.7724 61.0756C108.861 52.4654 132.942 62.5722 141.552 83.6603C150.162 104.748 140.055 128.83 118.967 137.44Z" fill="#AC85BC"/>
<mask id="mask1_109_36" style="mask-type:luminance" maskUnits="userSpaceOnUse" x="62" y="58" width="83" height="83">
<path d="M118.967 137.44C97.8792 146.05 73.7979 135.943 65.1877 114.855C56.5775 93.7671 66.6843 69.6858 87.7724 61.0756C108.861 52.4654 132.942 62.5722 141.552 83.6603C150.162 104.748 140.055 128.83 118.967 137.44Z" fill="white"/>
</mask>
<g mask="url(#mask1_109_36)">
<g opacity="0.7">
<path d="M56.52 88.85C56.52 88.85 91.1745 75.1476 106.51 45.08L112.632 47.8204C112.632 47.8204 103.711 82.4749 53.4297 101.814L56.5395 88.85H56.52Z" fill="#765694"/>
<path d="M52.3408 111.299C52.3408 111.299 100.698 92.1735 122.097 50.2111L130.629 54.04C130.629 54.04 118.19 102.397 48.0066 129.374L52.3603 111.299H52.3408Z" fill="#765694"/>
<path d="M56.8302 132.639C56.8302 132.639 111.465 111.046 135.624 63.6219L145.264 67.9562C145.264 67.9562 131.212 122.591 51.9128 153.067L56.8302 132.639Z" fill="#765694"/>
<path d="M68.9971 152.542C68.9971 152.542 129.443 128.636 156.187 76.1776L166.858 80.9783C166.858 80.9783 151.309 141.424 63.5745 175.146L68.9971 152.542Z" fill="#765694"/>
</g>
</g>
<g style="mix-blend-mode:multiply" opacity="0.4">
<path d="M115.275 59.7346C123.321 64.4187 129.735 71.9793 132.826 81.5419C139.453 102.125 128.161 124.185 107.578 130.812C93.9535 135.205 79.668 131.726 69.6584 122.902C79.7652 137.343 98.4433 144.165 116.091 138.49C137.782 131.512 149.677 108.266 142.699 86.5953C138.384 73.1844 127.85 63.5247 115.294 59.7541L115.275 59.7346Z" fill="#AC85BC"/>
</g>
<path d="M144.254 47.723L131.406 60.5703C138.287 67.4507 128.957 87.9168 110.59 106.284C92.2233 124.651 71.7377 133.98 64.8768 127.1L52.0295 139.947C52.9625 142.824 54.3619 145.37 56.4027 147.411C69.5609 160.569 101.572 149.898 127.908 123.582C154.224 97.2656 164.895 65.2544 151.737 52.0767C149.696 50.0359 147.13 48.6171 144.273 47.7036L144.254 47.723Z" fill="#FFE100"/>
<path d="M135.994 52.4653H135.644H135.605H135.566H135.527H135.488H135.449H135.43H135.411C135.372 52.4653 135.352 52.4653 135.313 52.4653H135.275H135.236H135.216H135.197H135.177H135.158H135.138H135.119H135.1H135.08H135.061H135.041H135.022H134.983C133.953 52.5042 132.903 52.6014 131.815 52.7374H131.795H131.757C131.348 52.7957 130.921 52.854 130.493 52.9318C128.88 53.2039 127.811 54.7393 128.083 56.3525C128.355 57.9657 129.891 59.0347 131.504 58.7626C133.117 58.4711 134.75 58.335 136.382 58.3156C138.015 58.3156 139.337 56.9939 139.337 55.3419C139.337 53.7092 138.015 52.3876 136.382 52.3876L135.994 52.4653ZM148.258 68.228C146.761 68.228 145.498 69.3553 145.323 70.8518C144.954 73.6895 144.312 76.4883 143.379 79.1899C139.453 90.9876 130.979 103.796 119.512 115.244C105.207 129.549 87.6951 139.694 74.9061 141.074C73.2735 141.249 72.1073 142.707 72.2823 144.34C72.4572 145.972 73.9149 147.138 75.5475 146.963C88.6085 145.545 105.304 136.546 119.998 122.979C120.114 122.863 120.25 122.746 120.367 122.63C120.367 122.63 120.484 122.513 120.542 122.455L120.581 122.416L120.62 122.377C120.62 122.377 120.736 122.26 120.795 122.202L120.834 122.163C120.834 122.163 120.853 122.144 120.872 122.124L120.911 122.085L120.95 122.046L120.989 122.008L121.028 121.969L121.067 121.93L121.106 121.891L121.145 121.852C121.145 121.852 121.242 121.755 121.281 121.716L121.319 121.677C121.319 121.677 121.339 121.638 121.358 121.638C121.358 121.638 121.378 121.599 121.397 121.599C121.397 121.599 121.417 121.561 121.436 121.561C121.436 121.561 121.494 121.502 121.533 121.463L121.572 121.424L121.611 121.386C121.611 121.386 121.63 121.347 121.65 121.347C121.65 121.347 121.669 121.308 121.689 121.308C121.689 121.308 121.786 121.211 121.825 121.172C121.825 121.172 121.844 121.152 121.864 121.133C121.864 121.133 121.883 121.094 121.903 121.094L121.941 121.055L121.98 121.016C121.98 121.016 122 120.977 122.019 120.977L122.058 120.939C122.058 120.939 122.077 120.9 122.097 120.9C122.097 120.9 122.116 120.861 122.136 120.861L122.175 120.822C122.175 120.822 122.194 120.783 122.214 120.783C122.214 120.783 122.272 120.725 122.311 120.686L122.35 120.647L122.388 120.608C122.388 120.608 122.408 120.569 122.427 120.569L122.466 120.53C122.466 120.53 122.486 120.492 122.505 120.492C122.505 120.492 122.563 120.433 122.583 120.394L122.622 120.355C122.622 120.355 122.641 120.336 122.661 120.317C122.661 120.317 122.68 120.278 122.699 120.278L122.738 120.219L122.816 120.142C122.816 120.142 122.835 120.103 122.855 120.103C122.855 120.103 122.874 120.064 122.894 120.064C122.894 120.064 122.913 120.025 122.933 120.025C122.933 120.025 122.952 119.986 122.972 119.986C122.972 119.986 122.991 119.947 123.01 119.947C123.01 119.947 123.03 119.908 123.049 119.908C123.049 119.908 123.069 119.87 123.088 119.87C123.088 119.87 123.108 119.831 123.127 119.831C123.127 119.831 123.146 119.792 123.166 119.792L123.205 119.753C123.205 119.753 123.224 119.714 123.244 119.714C123.244 119.714 123.263 119.675 123.282 119.675C135.372 107.586 144.351 93.9613 148.569 81.3084V81.2696V81.2307C148.569 81.2307 148.569 81.2307 148.569 81.2113V81.1724V81.1335V81.0946V81.0558V81.0169C148.569 81.0169 148.569 80.9586 148.588 80.9392V80.9003C148.588 80.9003 148.588 80.9003 148.588 80.8808V80.842V80.8031C148.588 80.8031 148.588 80.7837 148.588 80.7642C148.588 80.7642 148.588 80.7448 148.588 80.7254V80.6865C148.588 80.6865 148.588 80.6282 148.608 80.6087V80.5699C148.608 80.5699 148.608 80.5504 148.608 80.531C148.608 80.531 148.627 80.4533 148.647 80.4144C148.647 80.4144 148.647 80.3949 148.647 80.3755V80.3366C148.647 80.3366 148.647 80.2783 148.666 80.2589C148.666 80.2589 148.666 80.2395 148.666 80.22C148.666 80.22 148.666 80.2006 148.666 80.1811C148.666 80.1811 148.685 80.1034 148.705 80.0645C148.705 80.0645 148.705 80.0451 148.705 80.0257C148.705 80.0257 148.744 79.9285 148.744 79.8702C148.744 79.8702 148.783 79.7341 148.802 79.6758C149.23 78.257 149.579 76.877 149.852 75.5554C149.852 75.5165 149.852 75.4776 149.871 75.4387V75.3999C149.871 75.3999 149.89 75.3027 149.91 75.2638V75.225V75.1861V75.1083V75.0695C149.91 75.0695 149.91 75.0695 149.91 75.05C149.91 75.05 149.91 74.9917 149.91 74.9723C149.91 74.9723 149.91 74.9528 149.91 74.9334C149.91 74.9334 149.91 74.914 149.91 74.8945V74.8557C149.91 74.8557 149.91 74.8362 149.91 74.8168C149.91 74.8168 149.91 74.7974 149.91 74.7779V74.739V74.7002V74.6613V74.6224C149.91 74.6224 149.91 74.603 149.91 74.5836C149.91 74.5836 149.91 74.5641 149.91 74.5447C149.91 74.5447 149.91 74.5253 149.91 74.5058C149.91 74.5058 149.91 74.4669 149.91 74.4475V74.4086V74.3698C149.91 74.3698 149.91 74.3698 149.91 74.3503C149.91 74.3503 149.91 74.292 149.91 74.2726C149.91 74.2726 149.91 74.2531 149.91 74.2337V74.1948C150.065 73.3785 150.182 72.5816 150.26 71.8042C150.435 70.191 149.288 68.7139 147.655 68.5389C147.539 68.5389 147.422 68.5195 147.305 68.5195L148.258 68.228ZM144.604 54.7199C142.971 54.7199 141.65 56.0416 141.65 57.6742C141.65 58.6265 142.097 59.5012 142.855 60.0648C143.03 60.2009 143.185 60.3369 143.34 60.4924C143.846 61.0172 144.254 61.6391 144.546 62.3C145.206 63.7965 146.956 64.4574 148.452 63.7965C149.949 63.1357 150.61 61.3865 149.949 59.8899C149.677 59.2485 149.327 58.646 148.958 58.0629C148.938 58.024 148.919 58.0046 148.899 57.9657C148.899 57.9657 148.86 57.9269 148.86 57.888C148.86 57.888 148.821 57.8491 148.821 57.8102C148.821 57.8102 148.802 57.7714 148.783 57.7519C148.783 57.7519 148.783 57.7325 148.763 57.7131L148.744 57.6742C148.744 57.6742 148.744 57.6742 148.744 57.6547V57.6353C148.744 57.6353 148.744 57.6159 148.724 57.5964V57.577V57.5576V57.5381V57.5187V57.4993V57.4798V57.4604V57.441C148.724 57.441 148.724 57.4215 148.705 57.4021H148.685V57.3826H148.666V57.3438H148.647V57.3049V57.2855C148.647 57.2855 148.647 57.266 148.647 57.2466L148.627 57.2077L148.588 57.1688V57.1494V57.13C148.588 57.13 148.569 57.1105 148.549 57.0911C148.549 57.0911 148.51 57.0522 148.472 57.0328C148.238 56.819 148.005 56.6246 147.752 56.4497C147.247 56.0804 146.645 55.8861 146.003 55.8861L144.604 54.7199Z" fill="#FFCF01"/>
<path d="M61.7476 117.168C60.4648 117.168 59.3181 118.004 58.9294 119.228C56.772 126.07 56.2667 132.056 57.2579 136.604C57.2579 136.643 57.2579 136.663 57.2773 136.701V136.76C57.2773 136.76 57.2773 136.799 57.2773 136.818V136.857V136.915C57.2773 136.915 57.2773 136.954 57.2773 136.974V137.012C57.2773 137.012 57.2773 137.012 57.2773 137.032C57.2773 137.032 57.2773 137.051 57.2773 137.071C57.2773 137.071 57.2773 137.09 57.2773 137.11C57.2773 137.11 57.2773 137.11 57.2773 137.129V137.168C57.2773 137.168 57.2773 137.168 57.2773 137.187V137.226V137.265V137.304V137.323V137.362V137.382V137.421V137.459V137.498V137.537V137.557V137.596V137.634V137.654V137.693V137.712C57.2773 137.712 57.2773 137.732 57.2773 137.751V137.79V137.809C57.2773 137.809 57.2773 137.829 57.2773 137.848V137.868C57.2773 137.868 57.2773 137.887 57.2773 137.906V137.945C57.2773 137.945 57.2773 137.945 57.2773 137.965V138.004V138.023V138.062V138.101C57.2773 138.101 57.2773 138.101 57.2773 138.12C57.2773 138.12 57.2773 138.14 57.2773 138.159V138.179V138.217V138.256V138.276C57.2773 138.276 57.2773 138.315 57.2773 138.334C57.7049 139.733 58.3657 141.036 59.2015 142.221C60.1733 143.524 62.0392 143.796 63.3414 142.824C64.6436 141.852 64.9157 140.006 63.9439 138.684C63.458 137.984 63.1081 137.226 62.8749 136.429C61.7282 132.892 62.1947 127.294 64.1383 121.114C64.6242 119.559 63.7495 117.887 62.1947 117.401C61.9031 117.304 61.6116 117.265 61.3006 117.265L61.7476 117.168Z" fill="#FFCF01"/>
<path d="M136.537 62.1447C134.904 62.1447 133.563 63.4664 133.563 65.099C133.563 65.2156 133.563 65.3322 133.583 65.4488C133.719 66.7122 133.699 67.995 133.524 69.2389C133.524 69.2389 133.524 69.3749 133.505 69.4332C133.505 69.4332 133.505 69.4721 133.505 69.4915V69.5304C133.505 69.5498 133.505 69.5693 133.505 69.5887V69.6276C133.505 69.6276 133.505 69.6665 133.505 69.6859C133.505 69.6859 133.505 69.7442 133.505 69.7831V69.8414V69.8803C133.505 69.8803 133.505 69.9191 133.505 69.9386V69.9774C133.505 69.9774 133.505 70.0163 133.505 70.0357C133.505 70.0357 133.505 70.0552 133.505 70.0746C133.505 70.0746 133.505 70.0746 133.505 70.0941V70.1329V70.1718V70.1912C133.505 70.1912 133.505 70.2107 133.505 70.2301V70.269V70.2884C133.505 70.2884 133.505 70.3078 133.505 70.3273V70.3662C133.505 70.3662 133.505 70.3662 133.505 70.3856V70.4245V70.4439C133.505 70.4439 133.505 70.4439 133.505 70.4633V70.5022V70.5216C133.505 70.5216 133.505 70.5216 133.505 70.5411C133.505 70.5411 133.505 70.5605 133.505 70.58V70.6188C133.505 70.6188 133.505 70.6188 133.505 70.6383C133.505 70.6383 133.505 70.6577 133.505 70.6771V70.6966C133.505 70.6966 133.505 70.716 133.505 70.7354V70.7743C133.505 70.7743 133.505 70.7937 133.505 70.8132V70.8521C133.505 70.8521 133.505 70.8715 133.505 70.8909C133.505 70.8909 133.505 70.9104 133.505 70.9298C133.505 70.9298 133.505 70.9492 133.505 70.9687V70.9881V71.027V71.0659V71.1047V71.1436C133.505 71.1436 133.505 71.1436 133.505 71.163V71.2019V71.2408V71.2796V71.3185V71.3574V71.3963V71.4351C133.505 71.4351 133.505 71.4351 133.505 71.4546V71.4934V71.5323C133.505 71.5323 133.505 71.5518 133.505 71.5712V71.6101V71.6489V71.6878V71.7267C133.505 71.7267 133.505 71.7267 133.505 71.7461V71.785V71.8239V71.8627C133.505 71.8627 133.505 71.8627 133.505 71.8822V71.921C133.505 71.921 133.505 71.9405 133.505 71.9599C133.505 71.9599 133.505 71.9599 133.505 71.9793V72.0182V72.0571V72.096V72.1348V72.1737V72.2126C133.505 72.2126 133.505 72.2126 133.505 72.232V72.2709C133.505 72.2709 133.505 72.2903 133.505 72.3098C133.505 72.3098 133.505 72.3292 133.505 72.3486C133.505 72.3486 133.505 72.3681 133.505 72.3875V72.4264V72.4653V72.5041V72.543V72.5819C133.505 72.5819 133.505 72.6013 133.505 72.6207V72.6596V72.6985C133.505 72.6985 133.505 72.7179 133.505 72.7374V72.7762C133.505 72.7762 133.505 72.7957 133.505 72.8151V72.854V72.8928V72.9317V72.9706V73.0095C133.505 73.0095 133.505 73.0289 133.505 73.0483C133.505 73.0483 133.505 73.0678 133.505 73.0872V73.1261C133.505 73.1261 133.505 73.1455 133.505 73.165V73.2038C133.505 73.2038 133.505 73.2233 133.505 73.2427V73.2816V73.3204V73.3593V73.3982C133.505 73.3982 133.505 73.4176 133.505 73.4371C133.505 73.4371 133.505 73.4565 133.505 73.4759V73.5148C133.505 73.5148 133.505 73.5342 133.505 73.5537C133.505 73.5537 133.505 73.5731 133.505 73.5925V73.6314V73.6703C133.505 73.6703 133.505 73.6897 133.505 73.7092V73.748C133.505 73.748 133.505 73.7675 133.505 73.7869V73.8258C133.505 73.8258 133.505 73.8452 133.505 73.8646V73.9035C133.505 73.9035 133.505 73.923 133.505 73.9424V73.9813C133.505 73.9813 133.505 74.0007 133.505 74.0201V74.059C133.505 74.059 133.505 74.0784 133.505 74.0979C133.505 74.0979 133.505 74.1173 133.505 74.1368C133.505 74.1368 133.505 74.1562 133.505 74.1756V74.2145V74.2534C133.505 74.2534 133.505 74.2728 133.505 74.2922C133.505 74.2922 133.505 74.3117 133.505 74.3311V74.37V74.4089C133.505 74.4089 133.505 74.4283 133.505 74.4477C133.505 74.4477 133.505 74.4672 133.505 74.4866C133.505 74.4866 133.505 74.506 133.505 74.5255C133.505 74.5255 133.505 74.5449 133.505 74.5643C133.505 74.5643 133.505 74.5838 133.505 74.6032C133.505 74.6032 133.505 74.6615 133.486 74.681C133.486 74.681 133.486 74.7004 133.486 74.7198V74.7587C133.486 74.7587 133.486 74.7781 133.486 74.7976V74.8364C133.486 74.8364 133.486 74.8559 133.486 74.8753C133.486 74.8753 133.486 74.8948 133.486 74.9142V74.9531C133.486 74.9531 133.486 74.9725 133.486 74.9919C133.486 74.9919 133.486 75.0114 133.486 75.0308L133.466 75.1086C133.466 75.1086 133.466 75.128 133.466 75.1474C133.466 75.1474 133.466 75.2057 133.447 75.2252C133.447 75.2252 133.447 75.2446 133.447 75.264C133.447 75.264 133.447 75.3224 133.427 75.3418V75.3807V75.4195C133.427 75.4195 133.427 75.439 133.427 75.4584C133.427 75.4584 133.427 75.4778 133.427 75.4973V75.5361C133.427 75.5361 133.427 75.5556 133.427 75.575C133.427 75.575 133.427 75.6333 133.408 75.6528C133.408 75.6528 133.408 75.6722 133.408 75.6916C133.408 75.6916 133.408 75.7499 133.388 75.7694C133.388 75.7694 133.369 75.8471 133.35 75.886C133.35 75.886 133.35 75.9054 133.35 75.9249C133.35 75.9249 133.35 75.9832 133.33 76.0026C133.33 76.0026 133.33 76.0609 133.311 76.0804V76.1192C133.311 76.1192 133.291 76.197 133.272 76.2358C133.214 76.3719 133.175 76.508 133.116 76.6634C132.844 77.3437 132.572 78.024 132.261 78.7237C131.153 81.192 129.89 83.6021 128.491 85.915C128.471 85.9539 128.432 85.9928 128.413 86.0511C128.413 86.0511 128.355 86.1288 128.335 86.1871C128.335 86.1871 128.296 86.2454 128.277 86.2649C128.277 86.2649 128.277 86.3037 128.257 86.3037C128.257 86.3037 128.218 86.362 128.199 86.3815C128.199 86.3815 128.199 86.4009 128.18 86.4203C128.18 86.4203 128.141 86.4787 128.121 86.4981L128.102 86.537C128.102 86.5564 128.063 86.5953 128.044 86.6147C128.044 86.6147 127.985 86.6925 127.966 86.7508C127.966 86.7508 127.927 86.8091 127.907 86.8285C127.907 86.8285 127.907 86.8479 127.888 86.8674C127.888 86.8674 127.849 86.9257 127.83 86.9451C127.83 86.9451 127.83 86.984 127.81 86.984C127.81 86.984 127.771 87.0423 127.752 87.0617C127.752 87.0617 127.694 87.1589 127.674 87.1978C127.674 87.1978 127.616 87.2755 127.596 87.3338C127.596 87.3338 127.538 87.431 127.519 87.4699L127.46 87.5476L127.441 87.5865C127.441 87.5865 127.402 87.6448 127.383 87.6643C127.383 87.6643 127.383 87.7031 127.363 87.7031C127.363 87.7031 127.324 87.7614 127.305 87.7809C127.305 87.7809 127.305 87.8197 127.286 87.8197C127.286 87.8197 127.286 87.8586 127.266 87.8586V87.8975H127.227C127.208 87.9364 127.169 87.9752 127.149 88.0335C127.149 88.0335 127.111 88.0918 127.091 88.1307V88.1696H127.072L127.013 88.2473C127.013 88.2473 127.013 88.2862 126.994 88.2862C126.994 88.2862 126.955 88.3445 126.936 88.364C126.936 88.364 126.936 88.4028 126.916 88.4028C126.916 88.4028 126.916 88.4223 126.897 88.4417L126.877 88.4806C126.877 88.4806 126.838 88.5389 126.819 88.5777C126.819 88.5777 126.819 88.5972 126.8 88.6166C126.8 88.6166 126.761 88.6749 126.741 88.7138C126.741 88.7138 126.741 88.7527 126.722 88.7527C126.722 88.7527 126.683 88.811 126.664 88.8499C126.664 88.8499 126.664 88.8887 126.644 88.8887C126.644 88.8887 126.605 88.947 126.586 88.9665C126.586 88.9665 126.586 89.0053 126.566 89.0053C126.566 89.0053 126.566 89.0442 126.547 89.0442C126.547 89.0442 126.547 89.0637 126.528 89.0831L126.508 89.122C126.508 89.122 126.508 89.1414 126.489 89.1608L126.469 89.1997C126.469 89.1997 126.469 89.2386 126.45 89.2386C126.45 89.2386 126.45 89.258 126.43 89.2774C126.43 89.2774 126.43 89.3163 126.411 89.3163C126.411 89.3163 126.372 89.3746 126.353 89.3941C126.353 89.3941 126.353 89.4329 126.333 89.4329C126.333 89.4329 126.294 89.4912 126.275 89.5107C126.275 89.5107 126.275 89.5496 126.255 89.5496L126.236 89.5884L126.217 89.6273L126.197 89.6662L126.178 89.705C126.178 89.705 126.178 89.7439 126.158 89.7439L126.139 89.7828C126.139 89.7828 126.139 89.8022 126.119 89.8217L126.1 89.8605C126.1 89.8605 126.061 89.9188 126.042 89.9383L126.022 89.9771C126.022 89.9771 125.983 90.0355 125.964 90.0743L125.944 90.1132L125.925 90.1521C125.925 90.1521 125.925 90.1715 125.886 90.1909L125.867 90.2298L125.828 90.2687L125.808 90.3076C125.808 90.3076 125.808 90.3464 125.789 90.3464C125.789 90.3464 125.789 90.3659 125.77 90.3853C125.77 90.3853 125.77 90.4242 125.75 90.4242C125.75 90.4242 125.75 90.463 125.731 90.463V90.5019H125.692C125.692 90.5019 125.692 90.5214 125.672 90.5408C125.672 90.5408 125.633 90.5991 125.614 90.6185L125.595 90.6574L125.575 90.6963L125.556 90.7352L125.536 90.774L125.517 90.8129L125.497 90.8518L125.478 90.8906L125.459 90.9295L125.439 90.9684L125.42 91.0073L125.4 91.0461C125.4 91.0461 125.4 91.085 125.381 91.085C125.381 91.085 125.381 91.1239 125.361 91.1239C125.361 91.1239 125.361 91.1433 125.342 91.1628C125.342 91.1628 125.342 91.2016 125.322 91.2016C125.322 91.2016 125.322 91.2405 125.303 91.2405L125.284 91.2794C125.284 91.2794 125.284 91.3182 125.264 91.3182C125.264 91.3182 125.264 91.3571 125.245 91.3571L125.225 91.396C125.225 91.396 125.225 91.4349 125.206 91.4349C125.206 91.4349 125.206 91.4737 125.186 91.4737C125.186 91.4737 125.186 91.5126 125.167 91.5126L125.148 91.5515L125.128 91.5903C125.128 91.5903 125.128 91.6292 125.109 91.6292L125.089 91.6681C125.089 91.6681 125.089 91.707 125.07 91.707C125.07 91.707 125.07 91.7458 125.05 91.7458C125.05 91.7458 125.05 91.7847 125.031 91.7847C125.031 91.7847 125.031 91.8041 125.011 91.8236C125.011 91.8236 125.011 91.8624 124.992 91.8624C124.992 91.8624 124.992 91.9013 124.973 91.9013C124.973 91.9013 124.973 91.9402 124.953 91.9402L124.934 91.9791C124.934 91.9791 124.934 92.0179 124.914 92.0179L124.895 92.0568L124.875 92.0957C124.875 92.0957 124.875 92.1151 124.856 92.1346L124.837 92.1734C124.837 92.1734 124.837 92.2123 124.817 92.2123C124.817 92.2123 124.817 92.2512 124.798 92.2512L124.778 92.29L124.759 92.3289C124.759 92.3289 124.759 92.3678 124.739 92.3678C124.739 92.3678 124.739 92.4067 124.72 92.4067C124.72 92.4067 124.72 92.4455 124.701 92.4455L124.681 92.4844L124.662 92.5233L124.642 92.5621L124.623 92.601C124.623 92.601 124.623 92.6399 124.603 92.6399C124.603 92.6399 124.603 92.6788 124.584 92.6788C124.584 92.6788 124.584 92.7176 124.564 92.7176C124.564 92.7176 124.564 92.7565 124.545 92.7565L124.526 92.7954C124.526 92.7954 124.526 92.8343 124.506 92.8343L124.487 92.8731L124.467 92.912C124.467 92.912 124.467 92.9509 124.448 92.9509L124.428 92.9897C124.428 92.9897 124.428 93.0286 124.409 93.0286C124.409 93.0286 124.409 93.0675 124.39 93.0675C124.39 93.0675 124.39 93.1064 124.37 93.1064L124.351 93.1452C124.351 93.1452 124.351 93.1841 124.331 93.2035L124.312 93.2424C124.312 93.2424 124.312 93.2813 124.292 93.2813C124.292 93.2813 124.292 93.3202 124.273 93.3202L124.253 93.359C124.253 93.359 124.253 93.3979 124.234 93.3979L124.215 93.4368L124.176 93.4756V93.5145H124.137C124.137 93.5145 124.137 93.5145 124.117 93.534C124.117 93.534 124.117 93.5728 124.098 93.5728C124.098 93.5728 124.098 93.6117 124.079 93.6117C124.079 93.6117 124.079 93.6117 124.059 93.6311L124.04 93.67C124.04 93.67 124.04 93.6894 124.02 93.7089H124.001V93.7477C124.001 93.7477 124.001 93.7672 123.981 93.7866C123.981 93.7866 123.981 93.7866 123.962 93.8061C123.962 93.8061 123.962 93.8061 123.962 93.8255C123.962 93.8255 123.962 93.8255 123.943 93.8449C123.943 93.8449 123.943 93.8838 123.923 93.8838C123.923 93.8838 123.923 93.8838 123.904 93.9032C123.904 93.9032 123.904 93.9421 123.884 93.9421V93.981H123.845V94.0199V94.0587H123.826C123.826 94.0587 123.826 94.0976 123.826 94.117V94.1559H123.806V94.1948C123.806 94.1948 123.806 94.2142 123.787 94.2336V94.2725L123.768 94.3114V94.3503H123.748V94.3891L123.729 94.4474V94.4863C123.729 94.4863 123.729 94.4863 123.729 94.5058C123.729 94.5058 123.729 94.5058 123.729 94.5252L123.709 94.5641V94.6029C123.709 94.6029 123.709 94.6418 123.69 94.6612C123.69 94.6612 123.69 94.7001 123.67 94.7001V94.739C123.67 94.739 123.67 94.7779 123.651 94.7779H123.632V94.8167C123.632 94.8167 123.632 94.8167 123.632 94.8362C123.632 94.8362 123.632 94.875 123.612 94.875C123.612 94.875 123.612 94.9139 123.593 94.9139H123.573V94.9528C123.573 94.9528 123.573 94.9722 123.554 94.9917L123.534 95.0305L123.515 95.0694V95.1083H123.476C123.476 95.1083 123.476 95.1083 123.476 95.1277C123.476 95.1277 123.476 95.1277 123.476 95.1471L123.418 95.2249C123.418 95.2249 123.418 95.2249 123.418 95.2443H123.398V95.3026V95.3415C123.398 95.3415 123.398 95.3415 123.379 95.3609V95.3998V95.4387H123.34C123.34 95.4387 123.34 95.4387 123.321 95.4581C123.321 95.4581 123.321 95.497 123.301 95.497C123.301 95.497 123.301 95.5359 123.282 95.5359C123.282 95.5359 123.282 95.5747 123.262 95.5747V95.6136C123.262 95.6136 123.262 95.633 123.243 95.6525C123.243 95.6525 123.243 95.6525 123.243 95.6719C123.243 95.6914 123.243 95.6719 123.223 95.6913C123.223 95.6913 123.223 95.6914 123.223 95.7108C123.223 95.7108 123.223 95.7497 123.204 95.7691C123.204 95.7691 123.204 95.808 123.185 95.808C123.185 95.808 123.185 95.8468 123.165 95.8468L123.146 95.8857C123.146 95.8857 123.146 95.8857 123.146 95.9051C123.146 95.9051 123.146 95.9052 123.146 95.9246C123.146 95.9246 123.146 95.9246 123.146 95.944H123.126V95.9829C123.126 95.9829 123.126 96.0218 123.107 96.0412V96.0801C123.107 96.0801 123.107 96.0995 123.087 96.1189L123.048 96.1578C123.048 96.1578 123.048 96.1967 123.029 96.1967V96.2356H122.99V96.2744H122.971V96.3133V96.3522H122.932V96.391C122.932 96.391 122.932 96.3911 122.912 96.4105C122.912 96.4105 122.912 96.4494 122.893 96.4688L122.874 96.5077C122.874 96.5077 122.874 96.5465 122.854 96.566C122.854 96.566 122.854 96.6048 122.835 96.6048H122.815V96.6437V96.6826L122.776 96.702C122.776 96.702 122.776 96.702 122.776 96.7215H122.757V96.7603V96.7992H122.718L122.699 96.8381C122.699 96.8381 122.699 96.8381 122.699 96.8575L122.66 96.9158H122.64V96.9547V96.9936H122.601V97.0324H122.563C122.563 97.0324 122.563 97.0713 122.543 97.0713H122.524V97.1102H122.504V97.1491V97.1879C122.504 97.1879 122.504 97.2074 122.485 97.2268L122.465 97.2657V97.3045L122.446 97.3629H122.426V97.4017C122.426 97.4017 122.426 97.4017 122.407 97.4212C122.407 97.4212 122.407 97.4406 122.388 97.46C122.388 97.46 122.388 97.4989 122.368 97.4989C122.368 97.4989 122.368 97.5183 122.349 97.5378L122.329 97.5766C122.329 97.5766 122.329 97.6155 122.31 97.6155C122.31 97.6155 122.31 97.6544 122.29 97.6544C122.29 97.6544 122.29 97.6738 122.252 97.6933C122.252 97.6933 122.252 97.7321 122.232 97.7321L122.213 97.771C122.213 97.771 122.213 97.7904 122.193 97.8099L122.174 97.8488C122.174 97.8488 122.174 97.8876 122.154 97.8876C122.154 97.8876 122.154 97.9265 122.135 97.9265H122.116V97.9654L122.096 98.0237C122.096 98.0237 122.096 98.0626 122.077 98.0626L122.057 98.1014C122.057 98.1014 122.038 98.1403 122.018 98.1597C122.018 98.1597 122.018 98.1986 121.999 98.1986C121.999 98.1986 121.999 98.2375 121.979 98.2375C121.979 98.2375 121.979 98.2763 121.96 98.2763C121.96 98.2763 121.96 98.2763 121.96 98.2958C121.96 98.2958 121.96 98.2958 121.96 98.3152L121.941 98.3541C121.941 98.3541 121.941 98.393 121.921 98.393L121.902 98.4318L121.882 98.4901C121.882 98.4901 121.882 98.529 121.863 98.529L121.843 98.5679H121.824V98.6262C121.824 98.6262 121.824 98.6651 121.805 98.6651C121.805 98.6651 121.805 98.7039 121.785 98.7234V98.7623C121.785 98.7623 121.785 98.7817 121.766 98.8011V98.84C121.766 98.84 121.766 98.84 121.746 98.8594H121.727V98.8983L121.707 98.9566V98.9955C121.707 98.9955 121.707 98.9955 121.688 99.0149C121.688 99.0149 121.688 99.0538 121.668 99.0732L121.63 99.1121C121.63 99.1121 121.63 99.1315 121.61 99.151V99.1898C121.61 99.1898 121.61 99.2093 121.591 99.2287V99.2676V99.3065H121.552C121.552 99.3065 121.552 99.3065 121.532 99.3259C121.532 99.3259 121.513 99.3648 121.494 99.3648C121.494 99.3648 121.494 99.3842 121.474 99.4036V99.4425C121.474 99.4425 121.474 99.4814 121.455 99.5008L121.435 99.5397C121.435 99.5397 121.435 99.5397 121.416 99.5591H121.396L121.377 99.6174C121.377 99.6174 121.377 99.6563 121.358 99.6563C121.358 99.6563 121.358 99.6563 121.338 99.6758L121.319 99.7146H121.299V99.7535L121.26 99.7924H121.241C121.241 99.7924 121.241 99.8312 121.221 99.8312C121.221 99.8312 121.221 99.8312 121.202 99.8507C121.202 99.8507 121.202 99.8895 121.183 99.8895V99.9284V99.9673H121.144C121.144 99.9673 121.144 99.9673 121.144 99.9867V100.026L121.105 100.045H121.085C121.085 100.045 121.085 100.084 121.066 100.084C121.066 100.084 121.066 100.123 121.047 100.142L121.027 100.181V100.22L120.988 100.239L120.969 100.298V100.337V100.375H120.93L120.91 100.414C120.91 100.414 120.91 100.434 120.891 100.453C120.891 100.453 120.891 100.492 120.872 100.492H120.852C120.852 100.492 120.852 100.531 120.833 100.531L120.813 100.57H120.794V100.609L120.755 100.667H120.736L120.716 100.706C120.716 100.706 120.716 100.706 120.716 100.725C120.716 100.725 120.716 100.725 120.697 100.745C120.697 100.745 120.697 100.745 120.677 100.764C120.677 100.764 120.677 100.764 120.658 100.784C120.638 100.803 120.658 100.784 120.638 100.803H120.619V100.842L120.58 100.881C120.58 100.881 120.58 100.92 120.561 100.92H120.541L120.522 100.959C120.522 100.959 120.522 100.997 120.483 101.017C120.483 101.017 120.483 101.056 120.463 101.056C120.463 101.056 120.463 101.095 120.444 101.095L120.405 101.133C120.405 101.133 120.405 101.172 120.386 101.172C120.386 101.172 120.386 101.211 120.366 101.211C120.366 101.211 120.347 101.25 120.327 101.27C120.327 101.27 120.327 101.308 120.308 101.308L120.269 101.347C120.269 101.347 120.269 101.386 120.25 101.386C120.25 101.386 120.25 101.425 120.23 101.425C120.23 101.425 120.211 101.464 120.191 101.464C120.191 101.464 120.191 101.503 120.172 101.503C120.172 101.503 120.172 101.542 120.152 101.542L120.114 101.6C120.114 101.6 120.114 101.639 120.094 101.639C120.094 101.639 120.075 101.678 120.055 101.678C120.055 101.678 120.036 101.697 120.016 101.717L119.997 101.755C119.997 101.755 119.978 101.794 119.958 101.794L119.939 101.833C119.939 101.833 119.939 101.833 119.939 101.853L119.919 101.891H119.9V101.93H119.88L119.861 101.969H119.841V102.008L119.803 102.047L119.783 102.086C119.783 102.086 119.783 102.105 119.764 102.105C119.764 102.105 119.744 102.144 119.725 102.144C119.725 102.144 119.725 102.183 119.705 102.183C119.705 102.183 119.705 102.222 119.686 102.222C119.686 102.222 119.667 102.241 119.647 102.261C119.647 102.261 119.647 102.3 119.628 102.3C119.628 102.3 119.628 102.319 119.608 102.338C119.608 102.338 119.589 102.358 119.569 102.377C119.569 102.377 119.569 102.416 119.55 102.416C119.55 102.416 119.531 102.455 119.511 102.455C119.511 102.455 119.492 102.494 119.472 102.494C119.472 102.494 119.472 102.533 119.453 102.533C119.453 102.533 119.433 102.572 119.414 102.572L119.375 102.611L119.356 102.649C119.356 102.649 119.336 102.688 119.317 102.688C119.317 102.688 119.297 102.727 119.278 102.727C119.278 102.727 119.258 102.766 119.239 102.766L119.2 102.805L119.161 102.844L119.122 102.883C119.122 102.883 119.103 102.922 119.083 102.922L119.045 102.96L119.006 102.999L118.967 103.058C118.967 103.058 118.947 103.077 118.928 103.096C118.928 103.096 118.909 103.135 118.889 103.135L118.87 103.174C118.87 103.174 118.87 103.213 118.85 103.213C118.85 103.213 118.831 103.252 118.811 103.252C118.811 103.252 118.811 103.291 118.792 103.291L118.753 103.33C118.753 103.33 118.734 103.369 118.714 103.369L118.675 103.407C118.675 103.407 118.656 103.446 118.636 103.446L118.598 103.485L118.559 103.524L118.52 103.563L118.481 103.602L118.442 103.641C118.442 103.641 118.423 103.68 118.403 103.68C118.403 103.68 118.384 103.718 118.364 103.718L118.325 103.757L118.287 103.796L118.248 103.835C118.248 103.835 118.228 103.874 118.209 103.874C118.209 103.874 118.189 103.913 118.17 103.913L118.131 103.952L118.092 103.991C118.092 103.991 118.073 104.029 118.053 104.029C118.053 104.029 118.034 104.068 118.015 104.068L117.976 104.127C117.976 104.127 117.956 104.146 117.937 104.165C117.937 104.165 117.917 104.204 117.898 104.204C117.898 104.204 117.878 104.243 117.859 104.243C117.859 104.243 117.84 104.282 117.82 104.282L117.781 104.321C117.781 104.321 117.762 104.36 117.742 104.36C117.742 104.36 117.723 104.399 117.704 104.399L117.665 104.438C117.665 104.438 117.665 104.476 117.645 104.476C117.645 104.476 117.645 104.515 117.626 104.515C117.626 104.515 117.606 104.554 117.587 104.554C117.587 104.554 117.567 104.593 117.548 104.593C117.548 104.593 117.529 104.613 117.509 104.632C117.509 104.632 117.49 104.671 117.47 104.671L117.431 104.71C117.431 104.71 117.354 104.807 117.315 104.846C117.315 104.846 117.295 104.865 117.276 104.885C117.276 104.885 117.159 105.001 117.12 105.06C117.12 105.06 117.101 105.098 117.082 105.098C105.537 116.469 93.2335 124.243 84.0597 126.672C82.4854 127.081 81.533 128.713 81.9412 130.288C82.3493 131.862 83.982 132.814 85.5563 132.406C96.2656 129.568 109.871 120.667 121.96 108.597C138.306 92.2512 148.004 74.2922 146.644 62.8638C146.469 61.3673 145.206 60.2594 143.709 60.2594L136.537 62.1447Z" fill="#FFCF01"/>
<path d="M159.336 119.481C159.336 119.481 159.355 119.481 159.355 119.501L159.452 119.831L159.53 120.064L159.608 120.297V120.433L159.666 120.647C159.822 121.444 159.997 122.163 160.23 122.805C160.483 123.543 160.774 124.165 161.105 124.709C161.493 125.37 161.901 125.914 162.329 126.361C162.834 126.886 163.359 127.333 163.903 127.664C164.525 128.052 165.186 128.344 165.866 128.538C166.236 128.635 166.586 128.713 166.955 128.772C166.586 128.985 166.138 129.238 165.769 129.51C165.167 129.938 164.642 130.404 164.214 130.871C163.301 131.881 162.543 133.086 161.999 134.447C161.435 135.807 161.046 137.304 160.852 138.859C160.852 139.014 160.813 139.17 160.794 139.325C160.735 139.267 160.716 139.228 160.696 139.17C160.658 139.053 160.638 138.995 160.619 138.917C160.541 138.295 160.424 137.732 160.269 137.187C159.88 135.846 159.316 134.68 158.617 133.728C157.82 132.639 156.829 131.765 155.779 131.182C155.177 130.851 154.613 130.599 154.049 130.443C153.952 130.404 153.835 130.385 153.738 130.346L153.933 130.171C154.652 129.666 155.274 129.141 155.779 128.577C156.323 127.975 156.809 127.314 157.217 126.653C157.606 125.992 157.936 125.312 158.209 124.612C158.772 123.154 159.142 121.561 159.297 119.87V119.559L159.355 119.539" fill="#FFF200"/>
<path d="M119.123 28.2287V28.3454L119.162 28.5203C119.434 30.0752 119.861 31.5134 120.483 32.7962C120.755 33.3987 121.125 34.0013 121.533 34.6038C121.941 35.1869 122.427 35.7505 122.971 36.2753C123.476 36.7612 124.079 37.2276 124.779 37.6164L124.973 37.733C124.973 37.733 124.837 37.8107 124.759 37.8302C124.196 38.044 123.671 38.3161 123.146 38.6465C122.213 39.249 121.358 40.1236 120.697 41.1732C120.095 42.1061 119.667 43.214 119.395 44.4579C119.278 44.9632 119.22 45.488 119.181 46.0711L119.123 46.2848L119.084 46.4598C119.026 46.3626 119.006 46.246 118.987 46.1488V46.0322C118.695 44.6328 118.248 43.2917 117.626 42.0478C117.024 40.8428 116.266 39.7738 115.352 38.9186C114.925 38.5104 114.419 38.1217 113.836 37.7719C113.486 37.5581 113.117 37.3831 112.689 37.2082C113.02 37.0916 113.35 37.0138 113.681 36.8972C114.283 36.6834 114.866 36.3725 115.411 35.9643C115.877 35.6339 116.343 35.2063 116.771 34.6621C117.121 34.2345 117.451 33.7097 117.782 33.0683C118.034 32.5436 118.268 31.9605 118.462 31.2608C118.637 30.6388 118.754 29.978 118.831 29.2394C118.831 29.1422 118.851 29.0256 118.87 28.909C118.909 28.773 118.928 28.6369 118.967 28.5008L119.006 28.3454L119.045 28.151L119.123 28.2287Z" fill="#FFF200"/>
<path d="M45.7127 102.98C45.7127 102.98 45.7321 102.98 45.7321 102.999L45.771 103.174L45.8098 103.31C46.2374 104.982 46.8594 106.556 47.6563 107.955C48.0256 108.616 48.4726 109.258 48.9779 109.88C49.5027 110.521 50.0858 111.104 50.7272 111.609C51.3297 112.095 52.0488 112.562 52.8457 112.95C52.9234 112.989 53.0012 113.028 53.0789 113.048L52.8846 113.184C52.2626 113.475 51.7378 113.806 51.1548 114.253C50.1635 115.011 49.3083 116.06 48.6669 117.265C48.1033 118.334 47.7146 119.598 47.5202 121.016C47.4425 121.599 47.4036 122.221 47.423 122.805V122.941L47.3453 123.252C47.287 123.135 47.2481 123.018 47.2092 122.921L47.1704 122.805C46.7233 121.25 46.1208 119.811 45.3239 118.509C44.5659 117.226 43.6136 116.138 42.5251 115.244C42.0198 114.836 41.4173 114.447 40.7565 114.097C40.3483 113.883 39.9013 113.708 39.4348 113.572C39.8041 113.417 40.1539 113.281 40.5038 113.125C41.1646 112.814 41.7866 112.426 42.3502 111.94C42.8556 111.512 43.3415 110.987 43.7496 110.385C44.1189 109.841 44.4493 109.238 44.7214 108.538C44.9741 107.936 45.1685 107.256 45.3045 106.478C45.4406 105.759 45.5183 105.021 45.5572 104.204C45.5572 104.088 45.5572 103.971 45.5572 103.854L45.596 103.602L45.6349 103.349V103.174L45.6738 102.999L45.6932 102.98" fill="#FFF200"/>
<path d="M131.095 158.781C124.662 157.556 120.444 151.376 121.669 144.942C122.893 138.509 129.093 134.291 135.507 135.516C141.94 136.74 146.158 142.921 144.933 149.354C143.709 155.788 137.509 160.005 131.095 158.781Z" fill="#5FC8D7"/>
<mask id="mask2_109_36" style="mask-type:luminance" maskUnits="userSpaceOnUse" x="121" y="135" width="25" height="24">
<path d="M131.095 158.781C124.662 157.556 120.444 151.376 121.669 144.942C122.893 138.509 129.093 134.291 135.507 135.516C141.94 136.74 146.158 142.921 144.933 149.354C143.709 155.788 137.509 160.005 131.095 158.781Z" fill="white"/>
</mask>
<g mask="url(#mask2_109_36)">
<path d="M121.747 139.675C121.747 139.675 130.143 138.606 135.235 144.884C140.328 151.162 144.079 152.561 147.577 153.106C147.577 153.106 138.267 154.524 134.769 149.646C131.29 144.787 127.403 140.803 121.747 139.656V139.675Z" fill="#00B0DF"/>
<path d="M118.423 145.176C118.423 145.176 126.878 145.35 130.998 152.289C135.119 159.247 138.637 161.171 141.999 162.24C141.999 162.24 132.573 162.279 129.832 156.954C127.092 151.628 123.826 147.119 118.404 145.176H118.423Z" fill="#00B0DF"/>
<path d="M120.289 136.663C120.289 136.663 127.811 132.795 134.75 136.954C141.669 141.113 145.692 141.152 149.152 140.491C149.152 140.491 140.872 145.001 135.935 141.619C130.999 138.237 125.984 135.807 120.289 136.682V136.663Z" fill="#00B0DF"/>
<path d="M127.13 143.018C127.81 143.582 127.966 144.515 127.48 145.117C126.994 145.7 126.041 145.72 125.361 145.156C124.681 144.592 124.525 143.66 125.011 143.057C125.497 142.474 126.45 142.455 127.13 143.018Z" fill="#00B0DF"/>
<path d="M145.439 145.72C146.197 146.808 146.158 148.169 145.342 148.732C144.526 149.296 143.262 148.868 142.485 147.78C141.727 146.692 141.766 145.331 142.582 144.767C143.399 144.204 144.662 144.631 145.439 145.72Z" fill="#00B0DF"/>
<path d="M139.822 133.805C140.911 134.486 141.338 135.788 140.755 136.74C140.172 137.693 138.812 137.906 137.723 137.246C136.615 136.565 136.207 135.263 136.79 134.311C137.373 133.358 138.734 133.145 139.822 133.805Z" fill="#00B0DF"/>
<path d="M137.626 152.872C138.365 153.922 138.229 155.302 137.315 155.943C136.402 156.585 135.061 156.235 134.342 155.185C133.603 154.136 133.739 152.756 134.653 152.114C135.566 151.473 136.907 151.823 137.646 152.872H137.626Z" fill="#00B0DF"/>
<path d="M125.128 153.067C125.284 154.349 124.526 155.496 123.418 155.632C122.31 155.768 121.299 154.855 121.124 153.572C120.969 152.289 121.727 151.143 122.835 151.006C123.943 150.87 124.953 151.784 125.128 153.067Z" fill="#00B0DF"/>
</g>
<g style="mix-blend-mode:multiply" opacity="0.4">
<path d="M142.33 139.5C143.535 141.891 143.904 144.709 143.146 147.488C141.533 153.475 135.352 157.031 129.366 155.418C125.401 154.349 122.505 151.278 121.475 147.586C121.65 152.639 125.09 157.206 130.221 158.586C136.538 160.297 143.029 156.546 144.74 150.229C145.789 146.322 144.759 142.357 142.33 139.481V139.5Z" fill="#00B0DF"/>
</g>
</g>
<path d="M34.6434 87.0159C24.0669 84.1343 17.8209 73.2198 20.7024 62.6434C23.584 52.0669 34.4985 45.8209 45.0749 48.7024C55.6514 51.584 61.8974 62.4985 59.0159 73.0749C56.1343 83.6513 45.2198 89.8974 34.6434 87.0159Z" fill="#F6921E"/>
<mask id="mask3_109_36" style="mask-type:luminance" maskUnits="userSpaceOnUse" x="20" y="48" width="40" height="40">
<path d="M34.6434 87.0159C24.0669 84.1343 17.8209 73.2198 20.7024 62.6434C23.584 52.0669 34.4985 45.8209 45.0749 48.7024C55.6514 51.584 61.8974 62.4985 59.0159 73.0749C56.1343 83.6513 45.2198 89.8974 34.6434 87.0159Z" fill="white"/>
</mask>
<g mask="url(#mask3_109_36)">
<g opacity="0.7">
<path d="M20.3969 60.454C20.3969 60.454 24.019 60.5345 27.3513 64.3175C30.6836 68.0845 36.1247 70.1933 39.296 69.485C42.4835 68.7767 48.15 72.5436 51.8525 77.695C55.5551 82.8464 59.0967 82.621 61.6724 81.5585C61.6724 81.5585 58.7425 85.4543 56.1024 84.585C53.4624 83.7157 49.9691 80.8985 45.1075 76.0047C41.2922 72.1734 36.7043 73.1232 33.8227 72.8173C30.9411 72.5275 26.2566 68.6157 24.4858 66.5229C22.715 64.4463 18.2559 64.0599 18.2559 64.0599L20.3969 60.4379V60.454Z" fill="#F05A28"/>
<path d="M16.517 67.2955C16.517 67.2955 20.1391 67.376 23.4714 71.1591C26.8037 74.926 32.2448 77.0349 35.4162 76.3265C38.6036 75.6182 44.2701 79.3852 47.9727 84.5366C51.6752 89.6879 55.2168 89.4626 57.7925 88.4001C57.7925 88.4001 54.8626 92.2958 52.2226 91.4265C49.5825 90.5572 46.0892 87.7401 41.2276 82.8463C37.4123 79.0149 32.8244 79.9647 29.9428 79.6588C27.0613 79.3691 22.3767 75.4572 20.6059 73.3645C18.8351 71.2878 14.376 70.9015 14.376 70.9015L16.517 67.2794V67.2955Z" fill="#F05A28"/>
<path d="M12.9589 73.5417C12.9589 73.5417 16.581 73.6222 19.9133 77.4053C23.2456 81.1722 28.6867 83.2811 31.8581 82.5728C35.0455 81.8644 40.712 85.6314 44.4146 90.7828C48.1171 95.9342 51.6587 95.7088 54.2344 94.6463C54.2344 94.6463 51.3045 98.5421 48.6645 97.6728C46.0244 96.8035 42.5311 93.9863 37.6695 89.0925C33.8542 85.2611 29.2663 86.2109 26.3847 85.9051C23.5032 85.6153 18.8186 81.7035 17.0478 79.6107C15.277 77.518 10.8179 77.1477 10.8179 77.1477L12.9589 73.5256V73.5417Z" fill="#F05A28"/>
<path d="M23.9863 54.1433C23.9863 54.1433 27.6083 54.2238 30.9406 58.0069C34.2729 61.7738 39.7141 63.8826 42.8854 63.1743C46.0728 62.466 51.7393 66.233 55.4419 71.3844C59.1445 76.5357 62.686 76.3104 65.2617 75.264C65.2617 75.264 62.3319 79.1597 59.6918 78.2904C57.0517 77.4211 53.5745 74.604 48.6968 69.7102C44.8816 65.8788 40.2936 66.8125 37.4121 66.5227C34.5305 66.233 29.846 62.3211 28.0752 60.2284C26.3044 58.1356 21.8452 57.7654 21.8452 57.7654L23.9863 54.1433Z" fill="#F05A28"/>
<path d="M27.947 47.157C27.947 47.157 31.569 47.2375 34.9013 51.0205C38.2336 54.7875 43.6748 56.8963 46.8461 56.188C50.0335 55.4797 55.7 59.2466 59.4026 64.398C63.1052 69.5494 66.6467 69.324 69.2224 68.2777C69.2224 68.2777 66.2926 72.1734 63.6525 71.3041C61.0124 70.4348 57.5191 67.6176 52.6575 62.7238C48.8423 58.8925 44.2543 59.8423 41.3728 59.5364C38.4912 59.2466 33.8067 55.3348 32.0359 53.2421C30.2651 51.1493 25.8059 50.7791 25.8059 50.7791L27.947 47.157Z" fill="#F05A28"/>
<path d="M31.9391 40.1382C31.9391 40.1382 35.5612 40.2348 38.8935 44.0017C42.2258 47.7687 47.667 49.8775 50.8383 49.1692C54.0257 48.4609 59.6922 52.2278 63.3948 57.3792C67.0973 62.5306 70.6389 62.3052 73.2146 61.2427C73.2146 61.2427 70.2848 65.1385 67.6447 64.2692C65.0046 63.3999 61.5113 60.5827 56.6497 55.6889C52.8344 51.8576 48.2465 52.8074 45.3649 52.5015C42.4834 52.2117 37.7988 48.2999 36.0281 46.2071C34.2573 44.1144 29.7981 43.7441 29.7981 43.7441L31.9552 40.1221L31.9391 40.1382Z" fill="#F05A28"/>
</g>
</g>
<g style="mix-blend-mode:multiply" opacity="0.4">
<path d="M55.9738 56.2362C57.6802 60.3895 57.9216 65.1545 56.2957 69.7103C52.8025 79.5301 42.0167 84.6493 32.213 81.156C25.7094 78.8379 21.2824 73.3324 20.0268 67.0219C19.6565 75.4895 24.8079 83.5707 33.2111 86.565C43.5461 90.2353 54.8952 84.8425 58.5817 74.5075C60.8515 68.1166 59.6602 61.3393 55.9738 56.2201V56.2362Z" fill="#F57E25"/>
</g>
<mask id="mask4_109_36" style="mask-type:luminance" maskUnits="userSpaceOnUse" x="132" y="26" width="53" height="53">
<path d="M158.413 78.825C173 78.825 184.825 66.9997 184.825 52.4125C184.825 37.8253 173 26 158.413 26C143.825 26 132 37.8253 132 52.4125C132 66.9997 143.825 78.825 158.413 78.825Z" fill="white"/>
</mask>
<g mask="url(#mask4_109_36)">
<path d="M158.412 78.825C172.999 78.825 184.825 66.9997 184.825 52.4125C184.825 37.8253 172.999 26 158.412 26C143.825 26 132 37.8253 132 52.4125C132 66.9997 143.825 78.825 158.412 78.825Z" fill="#069BDD"/>
<path d="M166.475 28.1374C165.671 28.6453 164.634 27.8199 163.682 27.9046C163.301 27.9469 162.899 28.1162 162.539 27.9469C162.243 27.7987 162.116 27.4178 161.798 27.2696C161.587 27.185 161.354 27.2273 161.121 27.1638C160.592 27.0368 160.211 26.3173 159.682 26.4866C159.28 26.6136 159.195 27.2062 159.428 27.5448C159.661 27.8834 160.105 28.0527 160.486 28.2009C160.888 28.349 161.311 28.4972 161.544 28.8569C161.608 28.9628 161.671 29.0686 161.777 29.1532C162.031 29.3225 162.391 29.1109 162.666 29.2379C162.856 29.3225 162.962 29.5342 163.089 29.7035C163.216 29.8728 163.47 29.9998 163.618 29.8516C163.788 30.0844 163.301 30.2538 163.174 30.5077C163.026 30.7829 163.364 31.1003 163.682 31.1638C163.999 31.2273 164.359 31.1638 164.613 31.3754C164.973 31.6717 164.994 32.349 165.46 32.4336C165.671 32.4548 165.883 32.3278 166.073 32.4125C166.285 32.4971 166.37 32.7723 166.327 33.0051C166.306 33.2379 166.2 33.4495 166.221 33.6823C166.221 33.8304 166.285 33.9786 166.264 34.1056C166.2 34.5077 165.544 34.6347 165.481 35.0368C165.438 35.2696 165.608 35.4812 165.819 35.587C166.031 35.6929 166.264 35.714 166.497 35.7352C166.92 35.7775 167.364 35.8833 167.724 36.1373C168.084 36.3913 168.359 36.7934 168.338 37.2378C168.274 38.2749 166.751 38.7616 166.772 39.7987C166.772 40.0738 166.899 40.3489 167.047 40.5817C167.407 41.1743 167.936 41.7457 168.634 41.8304C169.248 41.915 169.84 41.5976 170.348 41.2378C170.475 41.1531 170.602 41.0473 170.687 40.9203C170.835 40.7087 170.835 40.4547 170.856 40.2008C170.877 39.6293 170.899 39.0791 170.92 38.5077C170.941 37.8516 170.92 37.0897 170.391 36.7299C170.539 36.4971 170.814 36.3489 171.089 36.3066C171.047 36.0738 171.026 35.8198 170.983 35.587C171.661 35.6929 172.338 35.7987 173.015 35.9257C173.565 36.0103 174.137 36.1161 174.518 36.5394C174.666 36.7087 174.793 36.9415 174.962 37.0897C175.153 37.2378 175.47 37.259 175.576 37.0474C175.724 36.7934 175.449 36.5183 175.237 36.3278C175.026 36.1161 174.92 35.6929 175.195 35.6082C175.47 35.5236 175.639 35.9468 175.936 35.968C176.147 35.968 176.295 35.7352 176.274 35.5236C176.253 35.3119 176.105 35.1426 175.957 34.9733C176.105 34.7405 176.486 34.9098 176.634 35.1426C176.782 35.3754 176.867 35.6929 177.142 35.7775C177.417 35.8833 177.735 35.6717 177.967 35.4812C177.925 36.1373 179.11 36.222 179.237 36.8569C179.28 37.0897 179.174 37.3436 179.237 37.5765C179.301 37.7669 179.449 37.8939 179.618 38.0209C180.232 38.5077 180.867 38.9944 181.481 39.4812C181.544 39.5235 181.586 39.5659 181.65 39.6082C181.65 39.5024 181.65 39.3965 181.629 39.2907C178.391 33.5553 173.184 29.2379 167.089 27.058C167.089 27.4813 166.899 27.9469 166.539 28.1797L166.475 28.1374Z" fill="#94D353"/>
<path d="M153.459 27.0582C152.613 27.9894 151.533 28.7089 150.369 29.1957C149.523 29.5343 148.507 29.8518 148.253 30.7407C149.036 30.5925 149.819 30.4232 150.602 30.2751C150.285 30.8253 150.644 31.5026 151.047 31.9682C151.449 32.4549 151.935 32.9417 151.914 33.5766C151.258 33.6825 150.56 33.4708 150.073 33.0264C150.179 33.5978 150.285 34.1692 150.369 34.7618C150.137 34.9523 149.819 35.0369 149.523 34.9734C149.396 35.2062 149.29 35.4179 149.163 35.6507C148.359 35.2274 147.428 34.4867 147.766 33.6401C147.936 33.2168 148.359 32.984 148.676 32.6666C148.973 32.3491 149.121 31.7354 148.74 31.5026C148.232 31.6719 147.618 31.3333 147.47 30.8042C147.195 30.7407 146.898 30.7618 146.623 30.8677C146.75 31.4814 147.131 32.0105 147.66 32.3491C146.983 32.8147 146.285 33.2592 145.607 33.7248C144.465 34.4867 143.301 35.2486 142.264 36.1798C141.967 36.4338 141.692 36.73 141.629 37.111C141.586 37.365 141.671 37.6189 141.565 37.8517C141.481 38.0634 141.248 38.1904 141.078 38.3808C140.676 38.8676 140.888 39.5872 141.184 40.1374C141.481 40.6877 141.883 41.238 141.819 41.8729C141.798 42.1057 141.713 42.3596 141.756 42.5924C141.861 43.1004 142.708 43.2274 142.941 42.7617C143.258 42.1268 142.475 41.2168 143.004 40.7512C143.258 40.5184 143.66 40.5819 143.999 40.4761C144.93 40.1586 144.74 38.8464 144.951 37.8729C145.227 36.6242 146.581 35.7353 147.83 35.9893C148.147 36.1798 147.978 36.6877 147.724 36.984C147.47 37.2591 147.152 37.6189 147.322 37.9787C147.533 38.4443 148.232 38.2115 148.613 37.8729C148.994 37.5343 149.459 37.111 149.904 37.3438C149.861 38.1904 151.152 38.9311 150.687 39.6295C150.581 39.7776 150.391 39.8835 150.327 40.0739C149.988 40.9205 152.316 40.984 151.978 41.8305C151.914 41.9787 151.766 42.0845 151.618 42.1692C150.793 42.6983 149.988 43.2062 149.163 43.7353C148.909 43.9046 148.634 44.0739 148.338 44.1797C147.449 44.4972 146.158 44.3279 145.798 45.2168C145.946 45.64 146.602 45.3437 146.983 45.5554C147.131 45.64 147.216 45.7882 147.279 45.9363C147.724 47.0157 146.814 48.1585 145.883 48.8358C144.951 49.5342 143.83 50.1903 143.555 51.312C143.491 51.5659 143.47 51.8199 143.322 52.0315C143.025 52.4336 142.391 52.3701 141.988 52.6876C141.375 53.1744 141.65 54.1902 141.248 54.8675C140.93 55.3754 140.253 55.6082 140.02 56.1796C139.872 56.5818 140.02 57.0474 140.02 57.4918C140.02 58.7616 138.835 59.6717 137.756 60.3701C137.459 61.0473 137.311 61.7034 137.332 62.423C137.375 63.5447 137.565 64.6452 137.883 65.7034C137.967 65.9573 138.052 66.1901 138.01 66.4653C137.988 66.7192 137.798 66.9732 137.544 66.9944C137.184 65.788 136.803 64.5605 136.444 63.3542C136.401 63.206 136.359 63.0579 136.253 62.9521C136.147 62.8463 136.02 62.7616 135.893 62.6769C135.301 62.2748 135.047 61.4918 134.433 61.1108C134.348 61.0473 134.242 61.005 134.158 61.0262C133.967 61.0685 133.946 61.3225 134.01 61.5129C134.052 61.7034 134.137 61.8939 134.01 62.0632C133.819 62.3172 133.417 62.2113 133.142 62.0209C132.867 61.8516 132.571 61.6188 132.274 61.7246C131.766 62.8463 131.597 64.1161 131.745 65.3224C131.83 65.9997 132.02 66.6769 132.126 67.3542C132.19 67.7351 132.211 68.1161 132.253 68.4758L130.708 68.7721C130.645 68.6452 130.581 68.5393 130.539 68.4123C129.989 67.1214 130.073 65.661 129.777 64.2854C129.565 63.3119 128.994 62.296 128.19 61.7881C128.147 47.2697 136.105 33.9576 148.57 27.0158C148.592 27.2275 148.676 27.4179 148.846 27.5661C149.29 27.9682 150.01 27.6719 150.517 27.3756C151.555 26.783 152.57 26.1904 153.607 25.619C154.158 25.8518 153.861 26.6984 153.459 27.1428V27.0582Z" fill="#94D353"/>
<path d="M186.39 40.9415L190.983 65.0048C190.581 65.1107 190.2 65.1953 189.798 65.2165C188.232 65.3011 187.216 64.3699 186.031 63.7985C184.126 62.8673 181.311 62.825 178.962 63.6715C179.258 64.1583 178.877 64.8567 178.158 65.1742C177.438 65.4916 176.443 65.407 176.02 64.9837C175.787 64.7509 175.681 64.4334 175.322 64.2853C174.433 63.989 173.459 65.0683 172.401 65.1742C171.639 65.2376 171.089 64.772 170.898 64.2853C170.687 63.7985 170.666 63.2482 170.242 62.8461C169.883 62.5075 169.29 62.317 168.719 62.1266C166.687 61.407 165.015 60.3065 163.385 59.2271C163.068 59.0155 162.75 58.8038 162.602 58.5075C162.306 57.9573 162.708 57.2589 163.385 56.7721C164.062 56.2853 164.951 56.0102 165.819 55.7986C166.242 55.6927 166.75 55.5658 166.92 55.2695C167.004 55.1213 166.983 54.9732 166.962 54.825C166.814 53.7245 166.666 52.624 166.517 51.5446C165.692 52.0526 164.697 52.4123 163.66 52.5817C163.364 52.0949 164.041 51.5235 164.655 51.1002C166.285 49.9997 167.978 48.878 170.01 48.2642C170.814 48.0314 171.703 47.8409 172.295 47.3753C172.888 46.9097 172.846 46.042 172.02 46.0209C171.745 46.0209 171.449 46.1055 171.152 46.1902C169.819 46.5923 168.465 46.8886 167.089 47.0579C166.835 47.1002 166.581 47.1214 166.327 47.1425C166.729 46.9732 167.131 46.8039 167.555 46.6134C173.375 44.1796 179.681 42.2537 186.369 40.9839L186.39 40.9415Z" fill="#94D353"/>
<path d="M152.739 71.7139C152.337 72.2218 151.723 72.5393 151.279 73.026C151.046 73.3012 150.877 73.6398 150.813 73.9996L140.062 76.0525C140.062 76.0525 140.062 75.989 140.083 75.9467C140.358 74.825 140.951 73.7879 141.078 72.6451C141.205 71.4811 140.845 70.2324 141.311 69.1531C141.797 68.0314 143.11 67.3118 143.342 66.1055C143.448 65.5552 143.3 65.0049 143.3 64.4547C143.279 62.7827 145.861 59.4812 147.237 61.915C147.554 62.4653 147.66 63.1002 147.914 63.6716C148.379 64.7086 149.289 65.4705 150.199 66.169C151.11 66.8462 152.062 67.5234 152.676 68.497C153.289 69.4494 153.459 70.8038 152.76 71.6927L152.739 71.7139Z" fill="#94D353"/>
</g>
<g style="mix-blend-mode:multiply" opacity="0.21">
<path d="M163.915 26.5715C168.36 30.3387 171.598 35.5873 172.783 41.7672C175.513 56.0951 166.116 69.9363 151.788 72.6876C148.212 73.3648 144.677 73.3013 141.333 72.5818C147.217 77.5553 155.217 79.9468 163.386 78.3807C177.714 75.6505 187.111 61.8094 184.381 47.4603C182.328 36.709 174.01 28.7302 163.936 26.5715H163.915Z" fill="#069BDD"/>
</g>
<defs>
<filter id="filter0_d_109_36" x="0.458008" y="8" width="213.693" height="213.693" filterUnits="userSpaceOnUse" color-interpolation-filters="sRGB">
<feFlood flood-opacity="0" result="BackgroundImageFix"/>
<feColorMatrix in="SourceAlpha" type="matrix" values="0 0 0 0 0 0 0 0 0 0 0 0 0 0 0 0 0 0 127 0" result="hardAlpha"/>
<feOffset dy="14"/>
<feGaussianBlur stdDeviation="12"/>
<feComposite in2="hardAlpha" operator="out"/>
<feColorMatrix type="matrix" values="0 0 0 0 0 0 0 0 0 0 0 0 0 0 0 0 0 0 0.06 0"/>
<feBlend mode="normal" in2="BackgroundImageFix" result="effect1_dropShadow_109_36"/>
<feBlend mode="normal" in="SourceGraphic" in2="effect1_dropShadow_109_36" result="shape"/>
</filter>
</defs>
</svg>
