<svg xmlns="http://www.w3.org/2000/svg" width="166.681" height="247.502" viewBox="0 0 166.681 247.502">
  <g id="Group_4148" data-name="Group 4148" transform="translate(267.772 -133.441)">
    <g id="Group_4123" data-name="Group 4123" transform="translate(-243.554 133.441)">
      <g id="Group_4079" data-name="Group 4079" transform="translate(92.067 41.365)">
        <path id="Path_3929" data-name="Path 3929" d="M-138.415,181.1a4.8,4.8,0,0,1-4.8,4.8,4.8,4.8,0,0,1-4.8-4.8,4.8,4.8,0,0,1,4.8-4.8A4.8,4.8,0,0,1-138.415,181.1Z" transform="translate(148.404 -175.909)" fill="#f58522" fill-rule="evenodd"/>
        <path id="Path_3930" data-name="Path 3930" d="M-143.221,186.287a5.2,5.2,0,0,1-5.194-5.194,5.2,5.2,0,0,1,5.194-5.195,5.2,5.2,0,0,1,5.195,5.195A5.2,5.2,0,0,1-143.221,186.287Zm0-9.591a4.4,4.4,0,0,0-4.4,4.4,4.4,4.4,0,0,0,4.4,4.4,4.4,4.4,0,0,0,4.4-4.4A4.4,4.4,0,0,0-143.221,176.7Z" transform="translate(148.415 -175.898)" fill="#f58522"/>
      </g>
      <g id="Group_4080" data-name="Group 4080" transform="translate(100.209 27.923)">
        <path id="Path_3931" data-name="Path 3931" d="M-139.649,181.136a.725.725,0,0,0,.725.724.725.725,0,0,0,.725-.724v-17.9a.724.724,0,0,0-.725-.724.724.724,0,0,0-.725.724Z" transform="translate(140.047 -162.112)" fill="#f58522" fill-rule="evenodd"/>
        <path id="Path_3932" data-name="Path 3932" d="M-138.935,182.249a1.125,1.125,0,0,1-1.123-1.124v-17.9a1.124,1.124,0,0,1,1.123-1.122,1.124,1.124,0,0,1,1.123,1.122v17.9A1.125,1.125,0,0,1-138.935,182.249Zm0-19.351a.327.327,0,0,0-.326.325v17.9a.327.327,0,0,0,.326.326.326.326,0,0,0,.326-.326v-17.9A.326.326,0,0,0-138.935,162.9Z" transform="translate(140.058 -162.101)" fill="#f58522"/>
      </g>
      <g id="Group_4086" data-name="Group 4086" transform="translate(69.874)">
        <g id="Group_4081" data-name="Group 4081" transform="translate(0 22.72)">
          <path id="Path_3933" data-name="Path 3933" d="M-161.193,161.966a4.8,4.8,0,0,1-4.8,4.8,4.8,4.8,0,0,1-4.8-4.8,4.8,4.8,0,0,1,4.8-4.8A4.8,4.8,0,0,1-161.193,161.966Z" transform="translate(171.183 -156.772)" fill="#f58522" fill-rule="evenodd"/>
          <path id="Path_3934" data-name="Path 3934" d="M-166,167.15a5.2,5.2,0,0,1-5.194-5.194A5.2,5.2,0,0,1-166,156.761a5.2,5.2,0,0,1,5.195,5.195A5.2,5.2,0,0,1-166,167.15Zm0-9.591a4.4,4.4,0,0,0-4.4,4.4,4.4,4.4,0,0,0,4.4,4.4,4.4,4.4,0,0,0,4.4-4.4A4.4,4.4,0,0,0-166,157.559Z" transform="translate(171.194 -156.761)" fill="#f58522"/>
        </g>
        <g id="Group_4082" data-name="Group 4082" transform="translate(8.142 9.276)">
          <path id="Path_3935" data-name="Path 3935" d="M-162.428,162a.725.725,0,0,0,.724.725.726.726,0,0,0,.726-.725V144.1a.726.726,0,0,0-.726-.725.725.725,0,0,0-.724.725Z" transform="translate(162.826 -142.973)" fill="#f58522" fill-rule="evenodd"/>
          <path id="Path_3936" data-name="Path 3936" d="M-161.715,163.111a1.124,1.124,0,0,1-1.122-1.123v-17.9a1.125,1.125,0,0,1,1.122-1.124,1.125,1.125,0,0,1,1.124,1.124v17.9A1.125,1.125,0,0,1-161.715,163.111Zm0-19.351a.326.326,0,0,0-.325.326v17.9a.327.327,0,0,0,.325.326.327.327,0,0,0,.326-.326v-17.9A.326.326,0,0,0-161.715,143.76Z" transform="translate(162.837 -142.962)" fill="#f58522"/>
        </g>
        <g id="Group_4083" data-name="Group 4083" transform="translate(15.525 15.911)">
          <path id="Path_3937" data-name="Path 3937" d="M-145.259,154.977a4.8,4.8,0,0,1-4.8,4.8,4.8,4.8,0,0,1-4.8-4.8,4.8,4.8,0,0,1,4.8-4.8A4.8,4.8,0,0,1-145.259,154.977Z" transform="translate(155.248 -149.783)" fill="#f58522" fill-rule="evenodd"/>
          <path id="Path_3938" data-name="Path 3938" d="M-150.065,160.161a5.2,5.2,0,0,1-5.194-5.194,5.2,5.2,0,0,1,5.194-5.195,5.2,5.2,0,0,1,5.194,5.195A5.2,5.2,0,0,1-150.065,160.161Zm0-9.591a4.4,4.4,0,0,0-4.4,4.4,4.4,4.4,0,0,0,4.4,4.4,4.4,4.4,0,0,0,4.4-4.4A4.4,4.4,0,0,0-150.065,150.57Z" transform="translate(155.259 -149.772)" fill="#f58522"/>
        </g>
        <g id="Group_4084" data-name="Group 4084" transform="translate(23.667 2.469)">
          <path id="Path_3939" data-name="Path 3939" d="M-146.493,155.01a.725.725,0,0,0,.725.724.725.725,0,0,0,.725-.724v-17.9a.724.724,0,0,0-.725-.724.724.724,0,0,0-.725.724Z" transform="translate(146.891 -135.986)" fill="#f58522" fill-rule="evenodd"/>
          <path id="Path_3940" data-name="Path 3940" d="M-145.779,156.122A1.124,1.124,0,0,1-146.9,155V137.1a1.124,1.124,0,0,1,1.123-1.122,1.124,1.124,0,0,1,1.123,1.122V155A1.124,1.124,0,0,1-145.779,156.122Zm0-19.35a.326.326,0,0,0-.326.325V155a.326.326,0,0,0,.326.326.326.326,0,0,0,.325-.326V137.1A.325.325,0,0,0-145.779,136.772Z" transform="translate(146.902 -135.975)" fill="#f58522"/>
        </g>
        <g id="Group_4085" data-name="Group 4085" transform="translate(8.143)">
          <path id="Path_3941" data-name="Path 3941" d="M-161.064,141.742v3.936l14.247-6.2v-3.907Zm-.682,5.661a.681.681,0,0,1-.372-.11.683.683,0,0,1-.309-.571V141.3a.683.683,0,0,1,.408-.625l15.61-6.763a.683.683,0,0,1,.647.055.683.683,0,0,1,.308.571v5.394a.683.683,0,0,1-.407.624l-15.61,6.795A.675.675,0,0,1-161.746,147.4Z" transform="translate(162.825 -133.451)" fill="#f58522"/>
          <path id="Path_3942" data-name="Path 3942" d="M-161.757,147.791a1.083,1.083,0,0,1-.589-.174,1.078,1.078,0,0,1-.49-.905v-5.426a1.079,1.079,0,0,1,.647-.991l15.612-6.763a1.075,1.075,0,0,1,1.023.086,1.082,1.082,0,0,1,.488.905v5.394a1.08,1.08,0,0,1-.646.989l-15.611,6.8A1.087,1.087,0,0,1-161.757,147.791Zm15.611-13.552a.287.287,0,0,0-.113.023l-15.612,6.764a.281.281,0,0,0-.169.259v5.426a.281.281,0,0,0,.129.237.288.288,0,0,0,.269.021l15.61-6.8a.282.282,0,0,0,.169-.258v-5.394a.285.285,0,0,0-.129-.238A.284.284,0,0,0-146.146,134.239Zm-15.327,12.037v-4.807l15.044-6.512v4.775Zm.8-4.283v3.066l13.45-5.85v-3.038Z" transform="translate(162.836 -133.441)" fill="#f58522"/>
        </g>
      </g>
      <g id="Group_4087" data-name="Group 4087" transform="translate(48.348 20.879)">
        <path id="Path_3943" data-name="Path 3943" d="M-183.288,160.075a4.8,4.8,0,0,1-4.8,4.8,4.8,4.8,0,0,1-4.8-4.8,4.8,4.8,0,0,1,4.8-4.8A4.8,4.8,0,0,1-183.288,160.075Z" transform="translate(193.278 -154.882)" fill="#f58522" fill-rule="evenodd"/>
        <path id="Path_3944" data-name="Path 3944" d="M-188.1,165.259a5.2,5.2,0,0,1-5.194-5.194,5.2,5.2,0,0,1,5.194-5.194,5.2,5.2,0,0,1,5.195,5.194A5.2,5.2,0,0,1-188.1,165.259Zm0-9.591a4.4,4.4,0,0,0-4.4,4.4,4.4,4.4,0,0,0,4.4,4.4,4.4,4.4,0,0,0,4.4-4.4A4.4,4.4,0,0,0-188.1,155.668Z" transform="translate(193.289 -154.871)" fill="#f58522"/>
      </g>
      <g id="Group_4088" data-name="Group 4088" transform="translate(56.49 7.436)">
        <path id="Path_3945" data-name="Path 3945" d="M-184.523,160.108a.725.725,0,0,0,.725.724.725.725,0,0,0,.725-.724v-17.9a.724.724,0,0,0-.725-.724.724.724,0,0,0-.725.724Z" transform="translate(184.921 -141.084)" fill="#f58522" fill-rule="evenodd"/>
        <path id="Path_3946" data-name="Path 3946" d="M-183.808,161.22a1.124,1.124,0,0,1-1.124-1.122V142.2a1.125,1.125,0,0,1,1.124-1.123,1.125,1.125,0,0,1,1.123,1.123v17.9A1.125,1.125,0,0,1-183.808,161.22Zm0-19.35a.326.326,0,0,0-.326.326v17.9a.326.326,0,0,0,.326.325.326.326,0,0,0,.325-.325V142.2A.326.326,0,0,0-183.808,141.87Z" transform="translate(184.932 -141.073)" fill="#f58522"/>
      </g>
      <g id="Group_4089" data-name="Group 4089" transform="translate(45.825 161.891)">
        <path id="Path_3947" data-name="Path 3947" d="M-189.624,329.3a3.127,3.127,0,0,1-3.127,3.127h0a3.127,3.127,0,0,1-3.127-3.127V302.734a3.128,3.128,0,0,1,3.127-3.127h0a3.128,3.128,0,0,1,3.127,3.127Z" transform="translate(195.879 -299.607)" fill="#7cc042"/>
      </g>
      <g id="Group_4090" data-name="Group 4090" transform="translate(73.117 161.891)">
        <path id="Path_3948" data-name="Path 3948" d="M-161.612,329.3a3.127,3.127,0,0,1-3.126,3.127h0a3.127,3.127,0,0,1-3.127-3.127V302.734a3.128,3.128,0,0,1,3.127-3.127h0a3.128,3.128,0,0,1,3.126,3.127Z" transform="translate(167.866 -299.607)" fill="#7cc042"/>
      </g>
      <g id="Group_4091" data-name="Group 4091" transform="translate(29.499 184.757)">
        <path id="Path_3949" data-name="Path 3949" d="M-200.962,323.657a11.3,11.3,0,0,0-11.094,9.187h22.189A11.3,11.3,0,0,0-200.962,323.657Z" transform="translate(212.621 -323.092)" fill="#375542"/>
        <path id="Path_3950" data-name="Path 3950" d="M-189.882,333.394h-22.189a.562.562,0,0,1-.435-.2.563.563,0,0,1-.121-.466,11.865,11.865,0,0,1,11.65-9.647,11.866,11.866,0,0,1,11.649,9.647.569.569,0,0,1-.12.466A.567.567,0,0,1-189.882,333.394Zm-21.485-1.13h20.78a10.736,10.736,0,0,0-10.39-8.057A10.735,10.735,0,0,0-211.367,332.264Z" transform="translate(212.636 -323.077)" fill="#375542"/>
      </g>
      <g id="Group_4092" data-name="Group 4092" transform="translate(57.379 185.011)">
        <path id="Path_3951" data-name="Path 3951" d="M-172.344,323.918a11.3,11.3,0,0,0-11.095,9.187h22.189A11.3,11.3,0,0,0-172.344,323.918Z" transform="translate(184.004 -323.353)" fill="#375542"/>
        <path id="Path_3952" data-name="Path 3952" d="M-161.265,333.655h-22.189a.563.563,0,0,1-.435-.2.564.564,0,0,1-.121-.466,11.864,11.864,0,0,1,11.65-9.647,11.864,11.864,0,0,1,11.649,9.647.567.567,0,0,1-.12.466A.566.566,0,0,1-161.265,333.655Zm-21.485-1.13h20.78a10.734,10.734,0,0,0-10.39-8.056A10.734,10.734,0,0,0-182.75,332.525Z" transform="translate(184.019 -323.338)" fill="#375542"/>
      </g>
      <g id="Group_4093" data-name="Group 4093" transform="translate(11.316 31.215)" opacity="0.4">
        <path id="Path_3953" data-name="Path 3953" d="M-226.155,206.338c1.019-18.836,16.875-33.292,35.416-32.289,18.519,1,32.71,17.047,31.729,35.853l4.668-2.018c.947-21.992-15.086-40.653-36.024-41.785-21.087-1.14-39.156,15.93-40.356,38.129-.007.129-.006.256-.012.386l4.573,1.954C-226.158,206.491-226.159,206.415-226.155,206.338Z" transform="translate(231.284 -165.495)" fill="#bbc7c4"/>
        <path id="Path_3954" data-name="Path 3954" d="M-159.025,210.438a.548.548,0,0,1-.314-.1.548.548,0,0,1-.236-.48c.964-18.468-13.037-34.292-31.209-35.275s-33.833,13.266-34.836,31.767l-.007.23a.55.55,0,0,1-.258.439.553.553,0,0,1-.509.039l-4.572-1.954a.549.549,0,0,1-.333-.53l.012-.392A41.633,41.633,0,0,1-218.395,176a37.636,37.636,0,0,1,28.043-10.462c21.108,1.141,37.5,20.143,36.545,42.359a.55.55,0,0,1-.332.481l-4.668,2.018A.547.547,0,0,1-159.025,210.438Zm-33.536-37q.915,0,1.837.049c18.488,1,32.8,16.859,32.284,35.551l3.546-1.533c.748-21.467-15.119-39.766-35.518-40.868A36.5,36.5,0,0,0-217.638,176.8a40.524,40.524,0,0,0-12.549,27.443l3.5,1.5C-225.415,187.522-210.4,173.435-192.561,173.435Z" transform="translate(231.299 -165.48)" fill="#ffe800"/>
      </g>
      <g id="Group_4094" data-name="Group 4094" transform="translate(11.316 33.686)">
        <path id="Path_3955" data-name="Path 3955" d="M-226.155,208.874c1.019-18.836,16.875-33.292,35.416-32.289,18.519,1,32.71,17.047,31.729,35.854l4.668-2.018c.947-21.993-15.086-40.654-36.024-41.786-21.087-1.14-39.156,15.931-40.356,38.129-.007.13-.006.257-.012.386l4.573,1.954C-226.158,209.027-226.159,208.951-226.155,208.874Z" transform="translate(231.284 -168.031)" fill="#ffe800"/>
        <path id="Path_3956" data-name="Path 3956" d="M-159.025,212.975a.556.556,0,0,1-.314-.1.551.551,0,0,1-.236-.481c.964-18.468-13.037-34.292-31.209-35.274a32.569,32.569,0,0,0-23.878,8.562,33.658,33.658,0,0,0-10.958,23.2l-.007.23a.549.549,0,0,1-.258.439.55.55,0,0,1-.509.039l-4.572-1.953a.551.551,0,0,1-.333-.531l.012-.392a41.628,41.628,0,0,1,12.892-28.186,37.614,37.614,0,0,1,28.043-10.463c21.108,1.141,37.5,20.144,36.545,42.359a.55.55,0,0,1-.332.481l-4.668,2.018A.548.548,0,0,1-159.025,212.975Zm-33.559-37c.619,0,1.237.017,1.86.051,18.488,1,32.8,16.858,32.284,35.55l3.546-1.533c.748-21.467-15.119-39.765-35.518-40.868a36.513,36.513,0,0,0-27.227,10.163,40.524,40.524,0,0,0-12.549,27.443l3.5,1.5a34.738,34.738,0,0,1,11.282-23.4A33.682,33.682,0,0,1-192.584,175.97Z" transform="translate(231.299 -168.016)" fill="#ffe800"/>
      </g>
      <g id="Group_4095" data-name="Group 4095" transform="translate(0 70.696)" opacity="0.2">
        <path id="Path_3957" data-name="Path 3957" d="M-226.581,222.63a7.7,7.7,0,0,1-6.9,8.428h0a7.7,7.7,0,0,1-8.428-6.9l-.968-9.689a7.7,7.7,0,0,1,6.9-8.429h0a7.7,7.7,0,0,1,8.429,6.9Z" transform="translate(242.914 -206.004)" fill="#231f20"/>
      </g>
      <g id="Group_4096" data-name="Group 4096" transform="translate(0.561 67.739)">
        <path id="Path_3958" data-name="Path 3958" d="M-225.269,220.331a7.7,7.7,0,0,1-6.9,8.429h0a7.7,7.7,0,0,1-8.429-6.9l-.968-9.69a7.7,7.7,0,0,1,6.9-8.428h0a7.7,7.7,0,0,1,8.428,6.9Z" transform="translate(242.32 -202.987)" fill="#ff4438"/>
        <path id="Path_3959" data-name="Path 3959" d="M-232.966,229.5a8.358,8.358,0,0,1-5.317-1.9,8.368,8.368,0,0,1-3.046-5.679l-.968-9.69a8.427,8.427,0,0,1,7.539-9.215,8.371,8.371,0,0,1,6.169,1.862,8.356,8.356,0,0,1,3.046,5.678l.969,9.69a8.429,8.429,0,0,1-7.54,9.215A8.351,8.351,0,0,1-232.966,229.5Zm-.949-25.093c-.231,0-.465.012-.7.035a6.993,6.993,0,0,0-6.254,7.643l.969,9.69a6.937,6.937,0,0,0,2.526,4.71,6.937,6.937,0,0,0,5.117,1.543A6.99,6.99,0,0,0-226,220.383l-.968-9.69A7,7,0,0,0-233.914,204.405Z" transform="translate(242.338 -202.968)" fill="#ff4438"/>
      </g>
      <g id="Group_4097" data-name="Group 4097" transform="translate(4.995 73.373)">
        <path id="Path_3960" data-name="Path 3960" d="M-228.861,219.485A4.216,4.216,0,0,1-232.755,224h0a4.217,4.217,0,0,1-4.516-3.894l-.5-6.829a4.218,4.218,0,0,1,3.894-4.516h0a4.217,4.217,0,0,1,4.516,3.894Z" transform="translate(237.787 -208.751)" fill="#f5333f"/>
      </g>
      <g id="Group_4098" data-name="Group 4098" transform="translate(15.174 49.317)">
        <path id="Path_3961" data-name="Path 3961" d="M-190.28,184.08a36.316,36.316,0,0,0-4.891.723c-24.431,5.55-37.812,38.333-29.886,73.22s34.156,58.671,58.588,53.121a32.34,32.34,0,0,0,7.17-2.546l2.917-1.868c10.558-5.883,16.492-17.844,13.781-29.779a26.128,26.128,0,0,0-4.392-9.655,68.85,68.85,0,0,1-9.734-19.59,64.217,64.217,0,0,1-3.344-21.757c.382-9.838,3.4-18.771-1.676-27.9a27.69,27.69,0,0,0-23.178-13.864S-189.368,184-190.28,184.08Z" transform="translate(227.339 -184.06)" fill="#638c1c"/>
      </g>
      <g id="Group_4099" data-name="Group 4099" transform="translate(11.857 47.434)">
        <path id="Path_3962" data-name="Path 3962" d="M-193.685,182.147a36.32,36.32,0,0,0-4.891.724c-24.431,5.549-37.811,38.332-29.886,73.22s34.156,58.671,58.588,53.121a32.371,32.371,0,0,0,7.17-2.547l2.917-1.868c10.558-5.883,16.492-17.844,13.781-29.779a26.132,26.132,0,0,0-4.392-9.654,68.855,68.855,0,0,1-9.734-19.591,64.213,64.213,0,0,1-3.344-21.757c.382-9.838,3.4-18.77-1.675-27.9a27.7,27.7,0,0,0-23.179-13.864S-192.773,182.068-193.685,182.147Z" transform="translate(230.743 -182.127)" fill="#7cc042"/>
      </g>
      <g id="Group_4100" data-name="Group 4100" transform="translate(21.388 129.911)" opacity="0.1">
        <path id="Path_3963" data-name="Path 3963" d="M-149.787,267.1c2.842-2.019,3.577,6.067,4.391,9.654,2.711,11.936-3.223,23.9-13.78,29.779l-2.917,1.868a32.4,32.4,0,0,1-7.171,2.547c-19.489,4.427-40.124-9.812-51.7-33.465C-220.961,277.484-183.765,291.227-149.787,267.1Z" transform="translate(220.961 -266.783)" fill="#c0df88"/>
      </g>
      <g id="Group_4102" data-name="Group 4102" transform="translate(49.392 47.642)" opacity="0.1">
        <g id="Group_4101" data-name="Group 4101">
          <path id="Path_3964" data-name="Path 3964" d="M-145.144,274.4a26.2,26.2,0,0,0-4.247-9.568,68.951,68.951,0,0,1-9.411-19.414,65.114,65.114,0,0,1-3.233-21.562c.37-9.75,3.29-18.6-1.619-27.65a26.687,26.687,0,0,0-22.41-13.739s-4.3-.184-5.177-.1c-.325.029-.65.077-.975.113a26.677,26.677,0,0,1,22.289,13.73c4.909,9.048,1.989,17.9,1.62,27.65a65.089,65.089,0,0,0,3.233,21.562,68.925,68.925,0,0,0,9.411,19.414,26.214,26.214,0,0,1,4.246,9.568,27.333,27.333,0,0,1-13.324,29.512l-2.82,1.852a30.817,30.817,0,0,1-6.933,2.522,30.381,30.381,0,0,1-3.81.621,30.769,30.769,0,0,0,10.084-.621,30.808,30.808,0,0,0,6.932-2.522l2.821-1.852A27.335,27.335,0,0,0-145.144,274.4Z" transform="translate(192.217 -182.341)" fill="#5d7261"/>
        </g>
      </g>
      <g id="Group_4103" data-name="Group 4103" transform="translate(39.016 129.985)" opacity="0.1">
        <path id="Path_3965" data-name="Path 3965" d="M-188.766,284.734a14.57,14.57,0,0,1-7.956-2.352,13.847,13.847,0,0,1-6.123-8.993,1.129,1.129,0,0,1,.889-1.327,1.13,1.13,0,0,1,1.327.889,11.608,11.608,0,0,0,5.137,7.535,12.408,12.408,0,0,0,9.2,1.745,12.406,12.406,0,0,0,7.856-5.105,11.6,11.6,0,0,0,1.9-8.918,1.13,1.13,0,0,1,.89-1.327,1.13,1.13,0,0,1,1.326.89,13.844,13.844,0,0,1-2.256,10.643,14.654,14.654,0,0,1-9.277,6.034A15.047,15.047,0,0,1-188.766,284.734Z" transform="translate(202.867 -266.859)" fill="#231f20"/>
      </g>
      <g id="Group_4104" data-name="Group 4104" transform="translate(16.827 87.863)" opacity="0.1">
        <path id="Path_3966" data-name="Path 3966" d="M-211.037,239.851c-.359,0-.718-.013-1.08-.039a14.357,14.357,0,0,1-13.49-15.139,1.124,1.124,0,0,1,1.208-1.046,1.131,1.131,0,0,1,1.046,1.208,12.1,12.1,0,0,0,11.4,12.723,12.1,12.1,0,0,0,13.1-10.965,1.127,1.127,0,0,1,1.208-1.046,1.131,1.131,0,0,1,1.046,1.208A14.325,14.325,0,0,1-211.037,239.851Z" transform="translate(225.643 -223.624)" fill="#231f20"/>
      </g>
      <g id="Group_4105" data-name="Group 4105" transform="translate(77.987 64.851)">
        <path id="Path_3967" data-name="Path 3967" d="M-143.52,223.074a9.348,9.348,0,0,1-10.535,7.986h0a9.347,9.347,0,0,1-7.986-10.535l1.611-11.711a9.348,9.348,0,0,1,10.535-7.986h0a9.349,9.349,0,0,1,7.986,10.535Z" transform="translate(162.848 -200.023)" fill="#ff4438"/>
        <path id="Path_3968" data-name="Path 3968" d="M-152.777,231.848a10.2,10.2,0,0,1-1.394-.1,10,10,0,0,1-6.649-3.89,10,10,0,0,1-1.95-7.454l1.611-11.71a10.08,10.08,0,0,1,11.344-8.6,10.077,10.077,0,0,1,8.6,11.344l-1.611,11.711a9.994,9.994,0,0,1-3.891,6.648A9.984,9.984,0,0,1-152.777,231.848Zm1.584-30.408a8.644,8.644,0,0,0-8.543,7.454l-1.611,11.71a8.578,8.578,0,0,0,1.672,6.39,8.573,8.573,0,0,0,5.7,3.335,8.56,8.56,0,0,0,6.389-1.671,8.572,8.572,0,0,0,3.336-5.7l1.612-11.71a8.64,8.64,0,0,0-7.373-9.725A8.527,8.527,0,0,0-151.193,201.44Z" transform="translate(162.867 -200.004)" fill="#ff4438"/>
      </g>
      <g id="Group_4106" data-name="Group 4106" transform="translate(82.902 73.805)">
        <path id="Path_3969" data-name="Path 3969" d="M-147.691,223.487a5.119,5.119,0,0,1-6.046,3.979h0a5.119,5.119,0,0,1-3.979-6.047l1.68-8.139a5.118,5.118,0,0,1,6.046-3.979h0a5.117,5.117,0,0,1,3.978,6.046Z" transform="translate(157.822 -209.195)" fill="#f5333f"/>
      </g>
      <g id="Group_4107" data-name="Group 4107" transform="translate(10.339 47.443)" opacity="0.1">
        <path id="Path_3970" data-name="Path 3970" d="M-223.533,256.1c-7.926-34.888,5.455-67.67,29.887-73.22a33.874,33.874,0,0,1,3.883-.609c-.042,0-.083-.007-.125-.009,0,0-4.444-.185-5.356-.105a36.451,36.451,0,0,0-4.891.723c-24.432,5.55-37.812,38.333-29.887,73.22,7.5,33.019,31.4,56.073,54.647,53.746C-196.437,307.793-216.729,286.048-223.533,256.1Z" transform="translate(232.302 -182.136)" fill="#c0df88"/>
      </g>
      <g id="Group_4108" data-name="Group 4108" transform="translate(37.108 128.217)">
        <path id="Path_3971" data-name="Path 3971" d="M-190.134,284.045a14.831,14.831,0,0,1-14.66-11.8,1.7,1.7,0,0,1,1.336-1.99,1.7,1.7,0,0,1,1.99,1.336,11.527,11.527,0,0,0,13.678,8.835,11.53,11.53,0,0,0,9.308-13.36,1.7,1.7,0,0,1,1.336-1.99,1.7,1.7,0,0,1,1.99,1.336,14.924,14.924,0,0,1-11.98,17.341A15.551,15.551,0,0,1-190.134,284.045Z" transform="translate(204.826 -265.044)" fill="#231f20"/>
      </g>
      <g id="Group_4109" data-name="Group 4109" transform="translate(18.345 74.544)">
        <circle id="Ellipse_967" data-name="Ellipse 967" cx="13.74" cy="13.74" r="13.74" fill="#fff"/>
      </g>
      <g id="Group_4110" data-name="Group 4110" transform="translate(20.09 77.74)">
        <circle id="Ellipse_968" data-name="Ellipse 968" cx="11.269" cy="11.269" r="11.269" fill="#f1f1f2"/>
      </g>
      <g id="Group_4111" data-name="Group 4111" transform="translate(22.205 67.779)">
        <path id="Path_3972" data-name="Path 3972" d="M-218.729,209.438a1.394,1.394,0,0,1-.88-.313,1.4,1.4,0,0,1-.2-1.963,11.192,11.192,0,0,1,7.585-4.094,11.282,11.282,0,0,1,7.438,1.861,1.394,1.394,0,0,1,.377,1.936,1.392,1.392,0,0,1-1.935.377,8.482,8.482,0,0,0-5.6-1.4,8.414,8.414,0,0,0-5.706,3.081A1.394,1.394,0,0,1-218.729,209.438Z" transform="translate(220.123 -203.01)" fill="#638c1c"/>
      </g>
      <g id="Group_4112" data-name="Group 4112" transform="translate(51.807 67.116)">
        <path id="Path_3973" data-name="Path 3973" d="M-175.415,209.489a1.392,1.392,0,0,1-1.159-.618,8.478,8.478,0,0,0-4.653-3.408,8.433,8.433,0,0,0-6.447.7,1.394,1.394,0,0,1-1.893-.554,1.4,1.4,0,0,1,.554-1.893,11.2,11.2,0,0,1,8.569-.928,11.272,11.272,0,0,1,6.187,4.53,1.4,1.4,0,0,1-.382,1.936A1.389,1.389,0,0,1-175.415,209.489Z" transform="translate(189.739 -202.329)" fill="#638c1c"/>
      </g>
      <g id="Group_4113" data-name="Group 4113" transform="translate(31.628 81.723)">
        <circle id="Ellipse_969" data-name="Ellipse 969" cx="3.1" cy="3.1" r="3.1" fill="#231f20"/>
      </g>
      <g id="Group_4114" data-name="Group 4114" transform="translate(42.735 87.863)" opacity="0.1">
        <path id="Path_3974" data-name="Path 3974" d="M-184.446,239.851q-.536,0-1.079-.039a14.357,14.357,0,0,1-13.49-15.139,1.127,1.127,0,0,1,1.208-1.046,1.13,1.13,0,0,1,1.045,1.208,12.1,12.1,0,0,0,11.4,12.723,12.1,12.1,0,0,0,13.1-10.965,1.129,1.129,0,0,1,1.208-1.046,1.13,1.13,0,0,1,1.045,1.208A14.325,14.325,0,0,1-184.446,239.851Z" transform="translate(199.051 -223.624)" fill="#231f20"/>
      </g>
      <g id="Group_4115" data-name="Group 4115" transform="translate(18.49 74.544)">
        <path id="Path_3975" data-name="Path 3975" d="M-184.289,209.953a13.735,13.735,0,0,0-12.954,9.194,13.733,13.733,0,0,0-12.953-9.194,13.74,13.74,0,0,0-13.74,13.74,13.741,13.741,0,0,0,13.74,13.74,13.733,13.733,0,0,0,12.953-9.194,13.735,13.735,0,0,0,12.954,9.194,13.741,13.741,0,0,0,13.74-13.74A13.74,13.74,0,0,0-184.289,209.953Z" transform="translate(223.936 -209.953)" fill="#fff"/>
      </g>
      <g id="Group_4116" data-name="Group 4116" transform="translate(50.756 77.066)">
        <circle id="Ellipse_970" data-name="Ellipse 970" cx="7.791" cy="7.791" r="7.791" fill="#a87c4f"/>
      </g>
      <g id="Group_4117" data-name="Group 4117" transform="translate(57.535 81.723)">
        <circle id="Ellipse_971" data-name="Ellipse 971" cx="3.1" cy="3.1" r="3.1" fill="#231f20"/>
      </g>
      <g id="Group_4118" data-name="Group 4118" transform="translate(23.417 87.564)">
        <circle id="Ellipse_972" data-name="Ellipse 972" cx="1.84" cy="1.84" r="1.84" fill="#fffce6"/>
      </g>
      <g id="Group_4119" data-name="Group 4119" transform="translate(23.817 79.714)">
        <circle id="Ellipse_973" data-name="Ellipse 973" cx="3.28" cy="3.28" r="3.28" fill="#fffce6"/>
      </g>
      <g id="Group_4120" data-name="Group 4120" transform="translate(63.178 90.27)">
        <circle id="Ellipse_974" data-name="Ellipse 974" cx="3.28" cy="3.28" r="3.28" fill="#fffce6"/>
      </g>
      <g id="Group_4121" data-name="Group 4121" transform="translate(24.848 77.066)">
        <circle id="Ellipse_975" data-name="Ellipse 975" cx="7.791" cy="7.791" r="7.791" fill="#a87c4f"/>
      </g>
      <g id="Group_4122" data-name="Group 4122" transform="translate(31.483 81.363)">
        <circle id="Ellipse_976" data-name="Ellipse 976" cx="3.1" cy="3.1" r="3.1" fill="#231f20"/>
      </g>
    </g>
    <g id="Group_4147" data-name="Group 4147" transform="translate(-267.772 333.846)">
      <g id="Group_4130" data-name="Group 4130" transform="translate(135.699 6.768)">
        <g id="Group_4126" data-name="Group 4126" transform="translate(1.489 2.097)">
          <g id="Group_4124" data-name="Group 4124" transform="translate(19.199 4.715)">
            <circle id="Ellipse_977" data-name="Ellipse 977" cx="2.624" cy="2.624" r="2.624" fill="#d50057"/>
          </g>
          <g id="Group_4125" data-name="Group 4125">
            <path id="Path_3976" data-name="Path 3976" d="M-100.43,372.1l-.07-.01a7.811,7.811,0,0,0,1.534-3.688,7.859,7.859,0,0,0-6.718-8.853,7.859,7.859,0,0,0-8.853,6.718,7.829,7.829,0,0,0,.485,3.964l-5.622-.771,2.639-17.33a3.427,3.427,0,0,0-2.93-3.861,3.426,3.426,0,0,0-3.86,2.93l-3.1,20.726A3.427,3.427,0,0,0-124,375.787l22.64,3.1a3.427,3.427,0,0,0,3.86-2.93A3.427,3.427,0,0,0-100.43,372.1Zm-5.964-7.364a2.624,2.624,0,0,1,2.244,2.956,2.625,2.625,0,0,1-2.957,2.244,2.625,2.625,0,0,1-2.243-2.957A2.623,2.623,0,0,1-106.394,364.737Z" transform="translate(126.961 -348.239)" fill="#d50057"/>
          </g>
        </g>
        <g id="Group_4129" data-name="Group 4129">
          <g id="Group_4127" data-name="Group 4127" transform="translate(19.135 4.692)">
            <circle id="Ellipse_978" data-name="Ellipse 978" cx="2.615" cy="2.615" r="2.615" fill="#ff4438"/>
          </g>
          <g id="Group_4128" data-name="Group 4128">
            <path id="Path_3977" data-name="Path 3977" d="M-102.046,369.862l-.07-.01a7.8,7.8,0,0,0,1.53-3.675,7.832,7.832,0,0,0-6.7-8.823,7.831,7.831,0,0,0-8.823,6.694,7.793,7.793,0,0,0,.483,3.952l-5.6-.769,2.631-17.266a3.415,3.415,0,0,0-2.919-3.847,3.415,3.415,0,0,0-3.848,2.92l-3.094,20.649a3.416,3.416,0,0,0,2.92,3.848l22.563,3.094a3.415,3.415,0,0,0,3.847-2.92A3.415,3.415,0,0,0-102.046,369.862Zm-5.944-7.34a2.614,2.614,0,0,1,2.235,2.946A2.615,2.615,0,0,1-108.7,367.7a2.615,2.615,0,0,1-2.236-2.946A2.617,2.617,0,0,1-107.99,362.522Z" transform="translate(128.489 -346.086)" fill="#ff4438"/>
          </g>
        </g>
      </g>
      <g id="Group_4139" data-name="Group 4139" transform="translate(0 12.885)">
        <g id="Group_4134" data-name="Group 4134" transform="translate(2.191 1.489)">
          <g id="Group_4131" data-name="Group 4131" transform="translate(12.916 27.475)">
            <circle id="Ellipse_979" data-name="Ellipse 979" cx="2.624" cy="2.624" r="2.624" fill="#ee4036"/>
          </g>
          <g id="Group_4132" data-name="Group 4132" transform="translate(20.199 26.092)">
            <circle id="Ellipse_980" data-name="Ellipse 980" cx="2.624" cy="2.624" r="2.624" fill="#ee4036"/>
          </g>
          <g id="Group_4133" data-name="Group 4133">
            <path id="Path_3978" data-name="Path 3978" d="M-233.664,363.637a3.332,3.332,0,0,0-3.9-2.652,3.331,3.331,0,0,0-2.652,3.9l1.008,5.314-15.9,3.019-3.623-16.531a3.427,3.427,0,0,0-4.006-2.728,3.426,3.426,0,0,0-2.727,4.006l4.262,19.9a3.427,3.427,0,0,0,4.006,2.728l22.45-4.262a3.427,3.427,0,0,0,2.727-4.006,3.336,3.336,0,0,0-.114-.387,3.506,3.506,0,0,0-.035-.4Z" transform="translate(265.524 -353.893)" fill="#ee4036"/>
          </g>
        </g>
        <g id="Group_4138" data-name="Group 4138">
          <g id="Group_4135" data-name="Group 4135" transform="translate(14.02 27.698)">
            <circle id="Ellipse_981" data-name="Ellipse 981" cx="2.615" cy="2.615" r="2.615" fill="#f58522"/>
          </g>
          <g id="Group_4136" data-name="Group 4136" transform="translate(21.278 26.32)">
            <circle id="Ellipse_982" data-name="Ellipse 982" cx="2.615" cy="2.615" r="2.615" fill="#f58522"/>
          </g>
          <g id="Group_4137" data-name="Group 4137">
            <path id="Path_3979" data-name="Path 3979" d="M-236.02,362.067a3.322,3.322,0,0,0-3.882-2.644,3.323,3.323,0,0,0-2.644,3.883l1.005,5.3-15.848,3.009L-261,355.143a3.416,3.416,0,0,0-3.993-2.718,3.415,3.415,0,0,0-2.719,3.993l4.249,19.822a3.415,3.415,0,0,0,3.993,2.719l22.374-4.249a3.415,3.415,0,0,0,2.719-3.993,3.374,3.374,0,0,0-.115-.385,3.281,3.281,0,0,0-.034-.4Z" transform="translate(267.772 -352.364)" fill="#f58522"/>
          </g>
        </g>
      </g>
      <g id="Group_4146" data-name="Group 4146" transform="translate(40.225)">
        <g id="Group_4142" data-name="Group 4142" transform="translate(1.455 1.871)">
          <g id="Group_4140" data-name="Group 4140">
            <path id="Path_3980" data-name="Path 3980" d="M-200.43,344.486a3.427,3.427,0,0,0-3.427-3.427,3.427,3.427,0,0,0-3.427,3.427v22.48l.021,1.29a5.482,5.482,0,0,1-5.448,4.973,5.5,5.5,0,0,1-5.5-5.5l-.029-.676v-2.587a3.375,3.375,0,0,0-3.376-3.376,3.376,3.376,0,0,0-3.376,3.376v3.788c0,.1.02.186.028.28s.02.191.029.286c.007.041.007.085.015.126A12.276,12.276,0,0,0-213.11,380a12.282,12.282,0,0,0,12.674-11.875Z" transform="translate(224.992 -341.059)" fill="#009345"/>
          </g>
          <g id="Group_4141" data-name="Group 4141" transform="translate(26.219 13.304)">
            <path id="Path_3981" data-name="Path 3981" d="M-135.934,361.813a9.667,9.667,0,0,0-11.089-6.942c-5.315.966-10.319,5.354-13.453,9.731h-2v-2.226a3.333,3.333,0,0,0-3.332-3.333,3.333,3.333,0,0,0-3.333,3.333V364.6h-6.127a7.876,7.876,0,0,0,.221-1.824,7.858,7.858,0,0,0-7.858-7.858,7.858,7.858,0,0,0-7.857,7.858,7.851,7.851,0,0,0,7.544,7.842,5.493,5.493,0,0,1-5.1,3.471,5.438,5.438,0,0,1-1.6-.262l-2.954-1.9a3.375,3.375,0,0,0-4.666,1.01,3.37,3.37,0,0,0,.391,4.14l-.033.017a11.146,11.146,0,0,0,8.462,3.772,12.286,12.286,0,0,0,12.345-9.41h14.615c5.453.034,11.485.018,17.142-.031,2.155-.019,4.31-.043,6.462-.043C-134.794,371.382-135.132,364.851-135.934,361.813Zm-46.974,3.589a2.624,2.624,0,0,1-2.624-2.624,2.624,2.624,0,0,1,2.624-2.625,2.624,2.624,0,0,1,2.625,2.625A2.624,2.624,0,0,1-182.909,365.4Zm39.638-.5c-.7.01-9.276,0-9.333,0-.009,0,0,0,0,0h0c.042-.023.5-.324,4.617-3.2,4.221-2.945,5.967.1,5.967,1.342S-142.78,364.89-143.271,364.9Z" transform="translate(198.08 -354.714)" fill="#009345"/>
          </g>
        </g>
        <g id="Group_4145" data-name="Group 4145">
          <g id="Group_4143" data-name="Group 4143">
            <path id="Path_3982" data-name="Path 3982" d="M-202.006,342.555a3.415,3.415,0,0,0-3.416-3.416,3.415,3.415,0,0,0-3.415,3.416v22.4l.02,1.286a5.463,5.463,0,0,1-5.429,4.956,5.483,5.483,0,0,1-5.483-5.483l-.029-.674v-2.578a3.364,3.364,0,0,0-3.364-3.364,3.364,3.364,0,0,0-3.364,3.364v3.776c0,.094.02.185.028.278s.02.191.029.286c.007.041.006.084.015.125a12.233,12.233,0,0,0,11.77,11.021,12.24,12.24,0,0,0,12.631-11.835Z" transform="translate(226.485 -339.139)" fill="#7cc042"/>
          </g>
          <g id="Group_4144" data-name="Group 4144" transform="translate(26.131 13.259)">
            <path id="Path_3983" data-name="Path 3983" d="M-137.727,359.822a9.635,9.635,0,0,0-11.052-6.918c-5.3.962-10.285,5.336-13.408,9.7h-2v-2.218a3.321,3.321,0,0,0-3.321-3.321,3.321,3.321,0,0,0-3.321,3.321V362.6h-6.108a7.818,7.818,0,0,0,.221-1.818,7.832,7.832,0,0,0-7.832-7.831,7.832,7.832,0,0,0-7.831,7.831,7.826,7.826,0,0,0,7.518,7.817,5.474,5.474,0,0,1-5.086,3.46,5.4,5.4,0,0,1-1.595-.262l-2.944-1.9a3.364,3.364,0,0,0-4.65,1.006,3.359,3.359,0,0,0,.39,4.126l-.033.017a11.106,11.106,0,0,0,8.434,3.76,12.244,12.244,0,0,0,12.3-9.378h14.566c5.434.034,11.447.017,17.085-.031,2.147-.019,4.3-.043,6.441-.043C-136.591,369.359-136.927,362.85-137.727,359.822Zm-46.816,3.578a2.616,2.616,0,0,1-2.615-2.616,2.615,2.615,0,0,1,2.615-2.615,2.616,2.616,0,0,1,2.616,2.615A2.616,2.616,0,0,1-184.543,363.4Zm39.506-.5c-.694.01-9.246,0-9.3,0-.008,0,0,0,0,0h0c.042-.023.5-.323,4.6-3.188,4.206-2.936,5.947.1,5.947,1.337S-144.549,362.889-145.038,362.9Z" transform="translate(199.664 -352.748)" fill="#7cc042"/>
          </g>
        </g>
      </g>
    </g>
  </g>
</svg>
