<svg width="145" height="50" viewBox="0 0 145 50" fill="none" xmlns="http://www.w3.org/2000/svg">
<g clip-path="url(#clip0_20_222)">
<path d="M132.576 0.924717H11.4775C11.0361 0.924717 10.5999 0.924717 10.1597 0.927125C9.79116 0.929532 9.42556 0.936526 9.05349 0.942412C8.24518 0.951924 7.43877 1.02304 6.64127 1.15513C5.84489 1.2901 5.07346 1.54455 4.35307 1.90989C3.63355 2.27831 2.97611 2.75704 2.4046 3.32871C1.83008 3.89878 1.35118 4.55769 0.986302 5.28012C0.620419 6.00111 0.366715 6.77372 0.233951 7.57126C0.0999254 8.3678 0.0278049 9.17352 0.018237 9.9812C0.00706608 10.3503 0.00588639 10.7206 0 11.0897V38.9138C0.00588639 39.2875 0.00706608 39.6496 0.018237 40.0235C0.0278079 40.8311 0.0999283 41.6368 0.233951 42.4333C0.366348 43.2313 0.620067 44.0044 0.986302 44.7256C1.35101 45.4457 1.82998 46.102 2.4046 46.6689C2.97395 47.2431 3.63181 47.7221 4.35307 48.0877C5.07346 48.4541 5.84481 48.71 6.64127 48.8471C7.43891 48.9781 8.24523 49.0493 9.05349 49.0599C9.42556 49.0681 9.79116 49.0728 10.1597 49.0728C10.5999 49.0752 11.0361 49.0752 11.4775 49.0752H132.576C133.009 49.0752 133.448 49.0752 133.881 49.0728C134.248 49.0728 134.624 49.0681 134.991 49.0599C135.797 49.0498 136.602 48.9787 137.398 48.8471C138.197 48.7091 138.971 48.4532 139.695 48.0877C140.416 47.7219 141.073 47.2429 141.642 46.6689C142.215 46.0998 142.695 45.444 143.064 44.7256C143.428 44.0038 143.679 43.2309 143.81 42.4333C143.944 41.6367 144.018 40.8312 144.033 40.0235C144.038 39.6496 144.038 39.2875 144.038 38.9138C144.047 38.4764 144.047 38.0415 144.047 37.5971V12.4039C144.047 11.9631 144.047 11.5258 144.038 11.0897C144.038 10.7206 144.038 10.3503 144.033 9.98115C144.018 9.1734 143.944 8.36786 143.81 7.57122C143.679 6.77414 143.427 6.00159 143.064 5.28007C142.321 3.83204 141.143 2.65335 139.695 1.90978C138.971 1.54534 138.197 1.29095 137.398 1.15502C136.602 1.02235 135.797 0.951209 134.991 0.942244C134.624 0.936369 134.248 0.929315 133.881 0.926968C133.448 0.924561 133.009 0.924561 132.576 0.924561V0.924717Z" fill="#A6A6A6"/>
<path d="M10.1657 48.0219C9.79893 48.0219 9.44103 48.0172 9.07714 48.009C8.32333 47.9992 7.57127 47.9336 6.82714 47.8127C6.13328 47.6932 5.46112 47.4709 4.83282 47.1532C4.21029 46.838 3.64249 46.4249 3.15117 45.9294C2.65274 45.4398 2.23777 44.872 1.92272 44.2484C1.60419 43.6207 1.38375 42.9479 1.26907 42.2535C1.14524 41.5073 1.07824 40.7528 1.06865 39.9964C1.06102 39.7426 1.05103 38.8973 1.05103 38.8973V11.0897C1.05103 11.0897 1.06167 10.2574 1.06871 10.0129C1.07789 9.25776 1.1445 8.50441 1.26797 7.75937C1.38285 7.06302 1.60346 6.38831 1.92216 5.7586C2.23606 5.13543 2.64872 4.56715 3.14415 4.0758C3.63902 3.57978 4.20864 3.16446 4.83223 2.84499C5.45909 2.52826 6.12998 2.30754 6.82244 2.19021C7.56901 2.06811 8.32367 2.0021 9.0801 1.99273L10.1663 1.97803H133.875L134.974 1.99332C135.724 2.00222 136.472 2.06765 137.211 2.18903C137.911 2.30783 138.589 2.53009 139.223 2.84852C140.472 3.49234 141.489 4.51094 142.13 5.76154C142.443 6.3869 142.661 7.0561 142.774 7.74644C142.899 8.49759 142.969 9.25686 142.983 10.0182C142.987 10.3591 142.987 10.7253 142.987 11.0897C142.996 11.5411 142.996 11.9708 142.996 12.404V37.5971C142.996 38.0344 142.996 38.4612 142.987 38.8914C142.987 39.2828 142.987 39.6414 142.982 40.0105C142.968 40.7583 142.899 41.504 142.776 42.2417C142.664 42.9412 142.445 43.6192 142.126 44.252C141.809 44.8688 141.396 45.4317 140.904 45.92C140.412 46.4181 139.843 46.8337 139.219 47.1509C138.587 47.4711 137.91 47.6942 137.211 47.8127C136.467 47.9342 135.715 47.9999 134.961 48.009C134.609 48.0172 134.24 48.0219 133.881 48.0219L132.576 48.0243L10.1657 48.0219Z" fill="black"/>
<path d="M50.9215 33.5945H45.2236L43.8553 37.6348H41.4419L46.8388 22.6865H49.3463L54.7432 37.6348H52.2887L50.9215 33.5945ZM45.8138 31.73H50.3303L48.1038 25.1728H48.0415L45.8138 31.73Z" fill="white"/>
<path d="M66.3989 32.186C66.3989 35.5728 64.5862 37.7487 61.8507 37.7487C61.1578 37.7849 60.4686 37.6253 59.8622 37.2881C59.2557 36.9509 58.7565 36.4497 58.4216 35.8419H58.3699V41.2401H56.1328V26.7362H58.2982V28.5489H58.3394C58.6896 27.944 59.1973 27.4454 59.8083 27.1061C60.4194 26.7669 61.111 26.5996 61.8096 26.6221C64.5756 26.6221 66.3989 28.8087 66.3989 32.186ZM64.0995 32.186C64.0995 29.9795 62.9592 28.5289 61.2194 28.5289C59.5102 28.5289 58.3605 30.0101 58.3605 32.186C58.3605 34.3819 59.5102 35.8525 61.2194 35.8525C62.9593 35.8525 64.0995 34.4125 64.0995 32.186Z" fill="white"/>
<path d="M78.3943 32.186C78.3943 35.5728 76.5816 37.7487 73.8461 37.7487C73.1531 37.7849 72.464 37.6253 71.8575 37.2881C71.2511 36.9509 70.7519 36.4497 70.417 35.8419H70.3652V41.2401H68.1282V26.7361H70.2935V28.5488H70.3347C70.6849 27.944 71.1926 27.4454 71.8036 27.1061C72.4147 26.7669 73.1063 26.5996 73.8049 26.6221C76.571 26.6221 78.3943 28.8086 78.3943 32.186ZM76.0949 32.186C76.0949 29.9795 74.9546 28.5289 73.2148 28.5289C71.5056 28.5289 70.3559 30.0101 70.3559 32.186C70.3559 34.3819 71.5056 35.8525 73.2148 35.8525C74.9546 35.8525 76.0949 34.4125 76.0949 32.186H76.0949Z" fill="white"/>
<path d="M86.322 33.4698C86.4877 34.9522 87.9278 35.9255 89.8957 35.9255C91.7812 35.9255 93.1378 34.9522 93.1378 33.6156C93.1378 32.4553 92.3196 31.7606 90.3823 31.2844L88.445 30.8177C85.7001 30.1547 84.4258 28.871 84.4258 26.788C84.4258 24.2088 86.6735 22.4373 89.8651 22.4373C93.0238 22.4373 95.1891 24.2088 95.262 26.788H93.0038C92.8686 25.2962 91.6354 24.3957 89.8333 24.3957C88.0312 24.3957 86.7981 25.3068 86.7981 26.6328C86.7981 27.6896 87.5857 28.3115 89.5124 28.7875L91.1593 29.1919C94.2263 29.9172 95.5006 31.1492 95.5006 33.3357C95.5006 36.1324 93.273 37.8839 89.7299 37.8839C86.4148 37.8839 84.1766 36.1735 84.032 33.4697L86.322 33.4698Z" fill="white"/>
<path d="M100.329 24.1572V26.7364H102.401V28.5079H100.329V34.5162C100.329 35.4495 100.744 35.8845 101.655 35.8845C101.901 35.8802 102.146 35.8629 102.391 35.8327V37.5937C101.981 37.6702 101.565 37.7049 101.148 37.6972C98.9415 37.6972 98.081 36.8684 98.081 34.7548V28.5079H96.4963V26.7364H98.0809V24.1572H100.329Z" fill="white"/>
<path d="M103.602 32.1861C103.602 28.7571 105.621 26.6023 108.77 26.6023C111.93 26.6023 113.941 28.757 113.941 32.1861C113.941 35.6246 111.941 37.77 108.77 37.77C105.601 37.77 103.602 35.6246 103.602 32.1861ZM111.661 32.1861C111.661 29.8339 110.583 28.4456 108.77 28.4456C106.958 28.4456 105.881 29.8445 105.881 32.1861C105.881 34.5478 106.958 35.9256 108.77 35.9256C110.583 35.9256 111.661 34.5478 111.661 32.1861H111.661Z" fill="white"/>
<path d="M115.785 26.7365H117.919V28.5915H117.97C118.115 28.0122 118.454 27.5002 118.931 27.1416C119.409 26.783 119.995 26.5997 120.592 26.6225C120.85 26.6216 121.107 26.6496 121.358 26.706V28.7984C121.033 28.699 120.693 28.6533 120.353 28.6633C120.028 28.6501 119.704 28.7074 119.403 28.8312C119.103 28.9551 118.832 29.1425 118.611 29.3808C118.389 29.619 118.222 29.9023 118.12 30.2113C118.019 30.5202 117.985 30.8475 118.022 31.1707V37.635H115.785L115.785 26.7365Z" fill="white"/>
<path d="M131.672 34.4338C131.371 36.4122 129.445 37.77 126.98 37.77C123.809 37.77 121.841 35.6458 121.841 32.2379C121.841 28.8194 123.82 26.6023 126.886 26.6023C129.901 26.6023 131.797 28.6736 131.797 31.9781V32.7445H124.1V32.8797C124.064 33.2808 124.114 33.6849 124.247 34.0651C124.379 34.4453 124.591 34.7929 124.869 35.0849C125.146 35.3768 125.482 35.6065 125.855 35.7585C126.228 35.9105 126.629 35.9815 127.031 35.9667C127.56 36.0162 128.091 35.8938 128.544 35.6176C128.997 35.3414 129.35 34.9262 129.548 34.4338L131.672 34.4338ZM124.11 31.1811H129.559C129.579 30.8204 129.524 30.4595 129.398 30.121C129.272 29.7825 129.078 29.4737 128.827 29.214C128.576 28.9542 128.274 28.7492 127.94 28.6117C127.606 28.4742 127.247 28.4072 126.886 28.415C126.521 28.4128 126.16 28.4828 125.823 28.6209C125.486 28.7591 125.18 28.9626 124.922 29.2197C124.663 29.4769 124.459 29.7826 124.32 30.1193C124.18 30.4559 124.109 30.8168 124.11 31.1811V31.1811Z" fill="white"/>
<path d="M45.5334 11.4347C46.0024 11.401 46.473 11.4719 46.9113 11.6421C47.3496 11.8124 47.7447 12.0778 48.068 12.4192C48.3913 12.7606 48.6348 13.1695 48.781 13.6164C48.9271 14.0634 48.9722 14.5371 48.9131 15.0036C48.9131 17.2983 47.6729 18.6173 45.5334 18.6173H42.939V11.4347H45.5334ZM44.0546 17.6015H45.4088C45.7439 17.6216 46.0793 17.5666 46.3905 17.4407C46.7017 17.3148 46.981 17.121 47.2079 16.8736C47.4348 16.6261 47.6036 16.3312 47.7022 16.0102C47.8007 15.6893 47.8265 15.3504 47.7775 15.0183C47.8229 14.6874 47.7946 14.3507 47.6945 14.0321C47.5944 13.7135 47.4252 13.4209 47.1988 13.1755C46.9724 12.93 46.6945 12.7376 46.385 12.6121C46.0756 12.4867 45.7422 12.4312 45.4088 12.4497H44.0546V17.6015Z" fill="white"/>
<path d="M50.173 15.9047C50.1389 15.5485 50.1797 15.1891 50.2926 14.8496C50.4056 14.51 50.5883 14.1978 50.8289 13.933C51.0696 13.6682 51.363 13.4566 51.6902 13.3119C52.0175 13.1671 52.3714 13.0923 52.7292 13.0923C53.0871 13.0923 53.4409 13.1671 53.7682 13.3119C54.0954 13.4566 54.3888 13.6682 54.6295 13.933C54.8702 14.1978 55.0528 14.51 55.1658 14.8496C55.2788 15.1891 55.3195 15.5485 55.2854 15.9047C55.3202 16.2613 55.2799 16.6212 55.1672 16.9613C55.0546 17.3014 54.872 17.6142 54.6313 17.8795C54.3905 18.1448 54.0969 18.3568 53.7694 18.5019C53.4418 18.647 53.0875 18.722 52.7292 18.722C52.3709 18.722 52.0166 18.647 51.6891 18.5019C51.3615 18.3568 51.0679 18.1448 50.8272 17.8795C50.5864 17.6142 50.4038 17.3014 50.2912 16.9613C50.1785 16.6212 50.1383 16.2613 50.173 15.9047ZM54.1851 15.9047C54.1851 14.7298 53.6573 14.0427 52.731 14.0427C51.8011 14.0427 51.278 14.7298 51.278 15.9047C51.278 17.0891 51.8012 17.7709 52.731 17.7709C53.6573 17.7709 54.1851 17.0844 54.1851 15.9047H54.1851Z" fill="white"/>
<path d="M62.0816 18.6175H60.9719L59.8516 14.6253H59.767L58.6514 18.6175H57.5522L56.0581 13.197H57.1431L58.1141 17.3331H58.1941L59.3085 13.197H60.3348L61.4492 17.3331H61.5338L62.5001 13.197H63.5699L62.0816 18.6175Z" fill="white"/>
<path d="M64.8267 13.1969H65.8564V14.058H65.9364C66.072 13.7487 66.3007 13.4894 66.5907 13.3163C66.8806 13.1432 67.2174 13.0649 67.5539 13.0922C67.8177 13.0724 68.0825 13.1122 68.3288 13.2086C68.5751 13.305 68.7965 13.4556 68.9767 13.6492C69.1569 13.8429 69.2912 14.0745 69.3697 14.3271C69.4482 14.5797 69.4688 14.8467 69.4301 15.1083V18.6173H68.3604V15.3769C68.3604 14.5059 67.9818 14.0727 67.1907 14.0727C67.0116 14.0643 66.8329 14.0948 66.6667 14.162C66.5005 14.2292 66.3508 14.3316 66.2279 14.462C66.1049 14.5925 66.0117 14.748 65.9545 14.9179C65.8972 15.0878 65.8774 15.268 65.8964 15.4463V18.6173H64.8267L64.8267 13.1969Z" fill="white"/>
<path d="M71.1345 11.0808H72.2043V18.6172H71.1345V11.0808Z" fill="white"/>
<path d="M73.691 15.9048C73.657 15.5486 73.6977 15.1892 73.8107 14.8496C73.9237 14.5101 74.1064 14.1979 74.3471 13.933C74.5878 13.6682 74.8812 13.4566 75.2085 13.3119C75.5358 13.1671 75.8897 13.0923 76.2475 13.0923C76.6054 13.0923 76.9593 13.1671 77.2866 13.3119C77.6139 13.4566 77.9072 13.6682 78.148 13.933C78.3887 14.1979 78.5714 14.5101 78.6844 14.8496C78.7973 15.1892 78.8381 15.5486 78.8041 15.9048C78.8387 16.2614 78.7984 16.6213 78.6857 16.9614C78.5731 17.3015 78.3904 17.6143 78.1497 17.8796C77.9089 18.1449 77.6153 18.3569 77.2877 18.502C76.9601 18.6471 76.6058 18.722 76.2475 18.722C75.8893 18.722 75.5349 18.6471 75.2074 18.502C74.8798 18.3569 74.5862 18.1449 74.3454 17.8796C74.1046 17.6143 73.922 17.3015 73.8093 16.9614C73.6966 16.6213 73.6563 16.2614 73.691 15.9048ZM77.7032 15.9048C77.7032 14.7299 77.1753 14.0428 76.249 14.0428C75.3192 14.0428 74.7961 14.7299 74.7961 15.9048C74.7961 17.0892 75.3192 17.771 76.249 17.771C77.1753 17.771 77.7032 17.0845 77.7032 15.9048H77.7032Z" fill="white"/>
<path d="M79.9307 17.0844C79.9307 16.1087 80.6572 15.5462 81.9467 15.4663L83.415 15.3817V14.9138C83.415 14.3413 83.0365 14.018 82.3053 14.018C81.7081 14.018 81.2943 14.2373 81.1756 14.6205H80.1399C80.2492 13.6895 81.125 13.0923 82.3546 13.0923C83.7136 13.0923 84.48 13.7688 84.48 14.9138V18.6174H83.4503V17.8556H83.3656C83.1938 18.1289 82.9526 18.3516 82.6665 18.5011C82.3805 18.6506 82.0599 18.7216 81.7375 18.7067C81.5099 18.7303 81.2799 18.7061 81.0624 18.6354C80.8448 18.5647 80.6444 18.4493 80.4742 18.2964C80.3039 18.1436 80.1676 17.9568 80.074 17.748C79.9804 17.5393 79.9316 17.3132 79.9307 17.0844ZM83.415 16.6213V16.1681L82.0913 16.2527C81.3448 16.3027 81.0063 16.5566 81.0063 17.0345C81.0063 17.5223 81.4295 17.8062 82.0114 17.8062C82.1819 17.8235 82.3542 17.8063 82.5179 17.7556C82.6816 17.7049 82.8335 17.6218 82.9644 17.5113C83.0954 17.4007 83.2027 17.265 83.2801 17.1121C83.3575 16.9592 83.4034 16.7923 83.415 16.6213Z" fill="white"/>
<path d="M85.886 15.9047C85.886 14.1919 86.7665 13.1069 88.136 13.1069C88.4747 13.0913 88.8109 13.1724 89.1053 13.3408C89.3996 13.5092 89.64 13.7579 89.7982 14.0579H89.8782V11.0808H90.9479V18.6172H89.9228V17.7609H89.8382C89.6677 18.0588 89.419 18.3044 89.119 18.4711C88.8189 18.6378 88.479 18.7192 88.136 18.7066C86.7571 18.7066 85.886 17.6216 85.886 15.9047ZM86.991 15.9047C86.991 17.0544 87.533 17.7462 88.4393 17.7462C89.3409 17.7462 89.8982 17.0444 89.8982 15.9094C89.8982 14.7797 89.3351 14.0679 88.4393 14.0679C87.5388 14.0679 86.991 14.7644 86.991 15.9047H86.991Z" fill="white"/>
<path d="M95.3734 15.9047C95.3393 15.5485 95.3801 15.1891 95.4931 14.8496C95.606 14.51 95.7887 14.1978 96.0294 13.933C96.2701 13.6682 96.5634 13.4566 96.8907 13.3119C97.2179 13.1671 97.5718 13.0923 97.9297 13.0923C98.2875 13.0923 98.6414 13.1671 98.9686 13.3119C99.2959 13.4566 99.5892 13.6682 99.8299 13.933C100.071 14.1978 100.253 14.51 100.366 14.8496C100.479 15.1891 100.52 15.5485 100.486 15.9047C100.521 16.2613 100.48 16.6212 100.368 16.9613C100.255 17.3014 100.072 17.6142 99.8317 17.8795C99.591 18.1448 99.2974 18.3568 98.9698 18.5019C98.6422 18.647 98.2879 18.722 97.9297 18.722C97.5714 18.722 97.2171 18.647 96.8895 18.5019C96.5619 18.3568 96.2683 18.1448 96.0276 17.8795C95.7869 17.6142 95.6043 17.3014 95.4916 16.9613C95.379 16.6212 95.3387 16.2613 95.3734 15.9047ZM99.3856 15.9047C99.3856 14.7298 98.8577 14.0427 97.9314 14.0427C97.0016 14.0427 96.4785 14.7298 96.4785 15.9047C96.4785 17.0891 97.0016 17.7709 97.9314 17.7709C98.8577 17.7709 99.3856 17.0844 99.3856 15.9047Z" fill="white"/>
<path d="M101.922 13.1969H102.951V14.058H103.031C103.167 13.7487 103.396 13.4894 103.686 13.3163C103.976 13.1432 104.312 13.0649 104.649 13.0922C104.913 13.0724 105.177 13.1122 105.424 13.2086C105.67 13.305 105.891 13.4556 106.072 13.6492C106.252 13.8429 106.386 14.0745 106.465 14.3271C106.543 14.5797 106.564 14.8467 106.525 15.1083V18.6173H105.455V15.3769C105.455 14.5059 105.077 14.0727 104.286 14.0727C104.107 14.0643 103.928 14.0948 103.762 14.162C103.595 14.2292 103.446 14.3316 103.323 14.462C103.2 14.5925 103.107 14.748 103.049 14.9179C102.992 15.0878 102.972 15.268 102.991 15.4463V18.6173H101.922V13.1969Z" fill="white"/>
<path d="M112.57 11.8474V13.2216H113.744V14.1227H112.57V16.9099C112.57 17.4777 112.804 17.7263 113.336 17.7263C113.472 17.7259 113.609 17.7177 113.744 17.7016V18.5927C113.552 18.6271 113.357 18.6454 113.162 18.6474C111.972 18.6474 111.499 18.2289 111.499 17.1838V14.1226H110.638V13.2216H111.499V11.8474H112.57Z" fill="white"/>
<path d="M115.205 11.0808H116.266V14.0679H116.35C116.493 13.7557 116.728 13.495 117.023 13.3212C117.319 13.1475 117.661 13.0691 118.003 13.0969C118.265 13.0826 118.528 13.1264 118.771 13.2252C119.015 13.3239 119.233 13.4752 119.412 13.6682C119.59 13.8612 119.724 14.0912 119.803 14.3418C119.882 14.5923 119.905 14.8572 119.87 15.1176V18.6173H118.799V15.3816C118.799 14.5158 118.396 14.0773 117.64 14.0773C117.456 14.0622 117.271 14.0875 117.098 14.1513C116.925 14.2152 116.768 14.3161 116.638 14.447C116.508 14.5779 116.408 14.7356 116.345 14.9091C116.283 15.0826 116.259 15.2677 116.275 15.4515V18.6172H115.205L115.205 11.0808Z" fill="white"/>
<path d="M126.107 17.1539C125.962 17.6493 125.647 18.0778 125.218 18.3645C124.788 18.6512 124.272 18.7777 123.759 18.7221C123.402 18.7315 123.047 18.6631 122.719 18.5216C122.391 18.3801 122.097 18.169 121.859 17.9028C121.621 17.6366 121.443 17.3217 121.339 16.9801C121.235 16.6384 121.206 16.2782 121.255 15.9243C121.207 15.5693 121.237 15.2083 121.341 14.8656C121.445 14.5229 121.621 14.2066 121.858 13.9381C122.095 13.6695 122.387 13.4551 122.714 13.3092C123.041 13.1632 123.396 13.0893 123.754 13.0924C125.262 13.0924 126.172 14.1228 126.172 15.8249V16.1982H122.345V16.2581C122.328 16.4571 122.353 16.6573 122.418 16.846C122.483 17.0347 122.587 17.2076 122.723 17.3539C122.859 17.5001 123.024 17.6162 123.207 17.695C123.391 17.7737 123.588 17.8132 123.788 17.811C124.044 17.8417 124.303 17.7956 124.533 17.6786C124.763 17.5616 124.952 17.3789 125.078 17.1539L126.107 17.1539ZM122.345 15.407H125.082C125.096 15.2251 125.071 15.0424 125.01 14.8706C124.948 14.6988 124.852 14.5417 124.726 14.4095C124.601 14.2772 124.449 14.1727 124.28 14.1027C124.112 14.0327 123.93 13.9987 123.748 14.0028C123.563 14.0005 123.379 14.0353 123.208 14.105C123.037 14.1748 122.881 14.2781 122.75 14.409C122.619 14.5398 122.516 14.6956 122.446 14.867C122.377 15.0384 122.342 15.222 122.345 15.407H122.345Z" fill="white"/>
<path d="M29.8159 25.3619C29.8288 24.3572 30.0957 23.372 30.5917 22.4981C31.0876 21.6243 31.7966 20.89 32.6526 20.3638C32.1088 19.5872 31.3914 18.948 30.5574 18.4972C29.7234 18.0463 28.7958 17.7961 27.8482 17.7665C25.8268 17.5543 23.8671 18.976 22.837 18.976C21.787 18.976 20.2011 17.7875 18.4933 17.8227C17.3886 17.8584 16.312 18.1796 15.3684 18.755C14.4248 19.3305 13.6464 20.1406 13.1089 21.1064C10.7809 25.1371 12.5174 31.0608 14.7475 34.319C15.8633 35.9144 17.1673 37.6965 18.8736 37.6333C20.5432 37.564 21.1668 36.5686 23.1823 36.5686C25.1791 36.5686 25.7641 37.6333 27.505 37.5931C29.2967 37.564 30.4255 35.9906 31.5021 34.3801C32.3038 33.2433 32.9207 31.9869 33.3299 30.6574C32.289 30.2172 31.4007 29.4803 30.7758 28.5386C30.1509 27.5969 29.8171 26.4921 29.8159 25.3619Z" fill="white"/>
<path d="M26.5275 15.6237C27.5044 14.451 27.9856 12.9437 27.8691 11.4219C26.3766 11.5786 24.998 12.2919 24.0079 13.4196C23.5238 13.9706 23.1531 14.6115 22.9168 15.3058C22.6806 16.0001 22.5835 16.7341 22.6312 17.466C23.3777 17.4736 24.1162 17.3118 24.7911 16.9927C25.466 16.6736 26.0597 16.2056 26.5275 15.6237Z" fill="white"/>
</g>
<defs>
<clipPath id="clip0_20_222">
<rect width="144.047" height="48.1505" fill="white" transform="translate(0 0.924805)"/>
</clipPath>
</defs>
</svg>
