<svg width="163" height="50" viewBox="0 0 163 50" fill="none" xmlns="http://www.w3.org/2000/svg">
<g clip-path="url(#clip0_20_251)">
<path fill-rule="evenodd" clip-rule="evenodd" d="M156.955 49.0753H6.53701C3.20545 49.0753 0.492188 46.3616 0.492188 43.0565V6.94361C0.492188 3.62651 3.20545 0.924805 6.53701 0.924805H156.955C160.284 0.924805 163 3.62651 163 6.94361V43.0565C163 46.3616 160.284 49.0753 156.955 49.0753Z" fill="black"/>
<path fill-rule="evenodd" clip-rule="evenodd" d="M156.955 1.88841C159.75 1.88841 162.037 4.16085 162.037 6.94361V43.0565C162.037 45.8392 159.765 48.1117 156.955 48.1117H6.53701C3.7427 48.1117 1.45564 45.8392 1.45564 43.0565V6.94361C1.45564 4.16085 3.7277 1.88841 6.53701 1.88841H156.955ZM156.955 0.924805H6.53701C3.20545 0.924805 0.492188 3.63852 0.492188 6.94361V43.0565C0.492188 46.3736 3.20545 49.0753 6.53701 49.0753H156.955C160.284 49.0753 163 46.3736 163 43.0565V6.94361C163 3.63852 160.284 0.924805 156.955 0.924805Z" fill="#A6A6A6"/>
<path d="M82.5117 27.109C79.6804 27.109 77.3728 29.2613 77.3728 32.2286C77.3728 35.1766 79.6804 37.3482 82.5117 37.3482C85.3429 37.3482 87.6506 35.1766 87.6506 32.2286C87.6506 29.2613 85.3429 27.109 82.5117 27.109ZM82.5117 35.3319C80.96 35.3319 79.6215 34.0523 79.6215 32.2286C79.6215 30.3856 80.96 29.1253 82.5117 29.1253C84.0633 29.1253 85.4007 30.3856 85.4007 32.2286C85.4007 34.0511 84.0633 35.3319 82.5117 35.3319ZM71.2999 27.109C68.4686 27.109 66.161 29.2613 66.161 32.2286C66.161 35.1766 68.4686 37.3482 71.2999 37.3482C74.1311 37.3482 76.4387 35.1766 76.4387 32.2286C76.4399 29.2613 74.1311 27.109 71.2999 27.109ZM71.2999 35.3319C69.7482 35.3319 68.4108 34.0523 68.4108 32.2286C68.4108 30.3856 69.7494 29.1253 71.2999 29.1253C72.8515 29.1253 74.1889 30.3856 74.1889 32.2286C74.1901 34.0511 72.8515 35.3319 71.2999 35.3319ZM57.9646 28.6799V30.8515H63.1624C63.0071 32.0733 62.6003 32.9653 61.9791 33.5865C61.2232 34.3424 60.0399 35.1766 57.9646 35.1766C54.765 35.1766 52.2636 32.597 52.2636 29.3974C52.2636 26.1978 54.765 23.6181 57.9646 23.6181C59.6908 23.6181 60.9511 24.297 61.8816 25.1698L63.414 23.6374C62.1152 22.3963 60.389 21.4453 57.9646 21.4453C53.5817 21.4453 49.897 25.0133 49.897 29.3962C49.897 33.7791 53.5817 37.347 57.9646 37.347C60.33 37.347 62.1152 36.5718 63.5115 35.1164C64.9464 33.6815 65.393 31.664 65.393 30.0354C65.393 29.531 65.3545 29.0651 65.2762 28.6775H57.9646V28.6799ZM112.505 30.3664C112.078 29.2216 110.778 27.1078 108.122 27.1078C105.484 27.1078 103.293 29.1831 103.293 32.2274C103.293 35.0972 105.465 37.347 108.375 37.347C110.721 37.347 112.078 35.9121 112.641 35.0779L110.895 33.9139C110.314 34.7673 109.518 35.3295 108.375 35.3295C107.23 35.3295 106.416 34.8059 105.892 33.7779L112.738 30.9466L112.505 30.3664ZM105.523 32.0733C105.465 30.0955 107.055 29.0868 108.199 29.0868C109.091 29.0868 109.847 29.5322 110.1 30.1726L105.523 32.0733ZM99.9566 37.0376H102.206V21.9894H99.9566V37.0376ZM96.2719 28.2526H96.1949C95.6905 27.6519 94.7214 27.1078 93.4996 27.1078C90.9392 27.1078 88.5931 29.3576 88.5931 32.2467C88.5931 35.1164 90.9392 37.347 93.4996 37.347C94.7214 37.347 95.6905 36.8041 96.1949 36.183H96.2719V36.9197C96.2719 38.8782 95.2246 39.9255 93.5369 39.9255C92.1598 39.9255 91.3064 38.936 90.9573 38.103L88.9988 38.9179C89.5609 40.2758 91.0548 41.943 93.5369 41.943C96.1744 41.943 98.405 40.3913 98.405 36.6103V27.4184H96.2719V28.2526ZM93.6934 35.3319C92.1418 35.3319 90.8429 34.033 90.8429 32.2479C90.8429 30.4446 92.1418 29.1253 93.6934 29.1253C95.2258 29.1253 96.4272 30.4434 96.4272 32.2479C96.4272 34.0318 95.2258 35.3319 93.6934 35.3319ZM123.042 21.9894H117.66V37.0376H119.905V31.3366H123.041C125.531 31.3366 127.978 29.5346 127.978 26.6636C127.978 23.7926 125.532 21.9894 123.042 21.9894ZM123.1 29.2421H119.905V24.084H123.1C124.779 24.084 125.733 25.4743 125.733 26.6636C125.733 27.8289 124.779 29.2421 123.1 29.2421ZM136.982 27.0813C135.356 27.0813 133.672 27.7976 132.975 29.3853L134.969 30.2183C135.395 29.3853 136.189 29.1145 137.022 29.1145C138.183 29.1145 139.364 29.8115 139.383 31.0501V31.2054C138.977 30.9731 138.105 30.624 137.041 30.624C134.892 30.624 132.704 31.8049 132.704 34.0126C132.704 36.0265 134.466 37.3229 136.44 37.3229C137.951 37.3229 138.783 36.6452 139.305 35.8519H139.382V37.0136H141.55V31.2439C141.55 28.5716 139.557 27.0813 136.982 27.0813ZM136.71 35.3283C135.974 35.3283 134.948 34.9599 134.948 34.0511C134.948 32.8895 136.226 32.4441 137.329 32.4441C138.316 32.4441 138.78 32.6571 139.381 32.9473C139.208 34.3412 138.008 35.3283 136.71 35.3283ZM149.449 27.41L146.874 33.9343H146.797L144.126 27.41H141.707L145.714 36.5284L143.429 41.6011H145.772L151.948 27.41H149.449ZM129.218 37.0376H131.464V21.9894H129.218V37.0376Z" fill="white"/>
<path d="M25.4307 24.3071L12.6143 37.9096C12.6155 37.912 12.6155 37.9145 12.6167 37.9169C13.0091 39.3951 14.3585 40.4821 15.9595 40.4821C16.5999 40.4821 17.2006 40.3087 17.7158 40.0054L17.7567 39.9813L32.1826 31.6573L25.4307 24.3071Z" fill="#EB4335"/>
<path d="M38.3967 21.991L38.3846 21.9826L32.1564 18.3713L25.1396 24.6152L32.1804 31.6548L38.3762 28.0809C39.462 27.4946 40.1987 26.3499 40.1987 25.0293C40.1987 23.7184 39.4716 22.5785 38.3967 21.991Z" fill="#FABC13"/>
<path d="M12.6143 12.0925C12.5373 12.3766 12.4963 12.6739 12.4963 12.9833V37.0188C12.4963 37.3282 12.5361 37.6267 12.6143 37.9096L25.8713 24.655L12.6143 12.0925Z" fill="#547DBF"/>
<path d="M25.5246 25.0004L32.1585 18.3689L17.7483 10.0148C17.2247 9.70058 16.6144 9.52002 15.9595 9.52002C14.3585 9.52002 13.0079 10.6094 12.6143 12.0888V12.0925L25.5246 25.0004Z" fill="#30A851"/>
<path d="M57.5205 12.7107H54.0199V13.5786H56.6429C56.5719 14.284 56.289 14.839 55.816 15.2422C55.3417 15.6455 54.7362 15.8477 54.0199 15.8477C53.2327 15.8477 52.567 15.5757 52.0229 15.0303C51.4884 14.4754 51.2152 13.7905 51.2152 12.9623C51.2152 12.1353 51.4884 11.4492 52.0229 10.8942C52.567 10.3501 53.2327 10.0781 54.0199 10.0781C54.4232 10.0781 54.8072 10.1479 55.1599 10.2996C55.5126 10.4512 55.7955 10.6631 56.017 10.9352L56.6827 10.2695C56.3805 9.9264 55.9965 9.66398 55.5234 9.47258C55.0492 9.28118 54.5544 9.1897 54.0199 9.1897C52.9703 9.1897 52.0831 9.55323 51.3572 10.2791C50.6302 11.0062 50.2678 11.903 50.2678 12.9623C50.2678 14.0216 50.6302 14.9196 51.3572 15.6455C52.0831 16.3725 52.9703 16.7349 54.0199 16.7349C55.119 16.7349 55.9965 16.3822 56.673 15.6659C57.2677 15.0713 57.571 14.2636 57.571 13.2548C57.571 13.0839 57.5506 12.9021 57.5205 12.7107Z" fill="white"/>
<path d="M58.9024 9.351V16.5736H63.1192V15.6864H59.8305V13.3968H62.7954V12.5289H59.8305V10.2394H63.1192V9.351H58.9024Z" fill="white"/>
<path d="M69.0489 10.2394V9.351H64.0858V10.2394H66.1033V16.5736H67.0314V10.2394H69.0489Z" fill="white"/>
<path d="M73.569 9.351H72.6409V16.5736H73.569V9.351Z" fill="white"/>
<path d="M79.7022 10.2394V9.351H74.7391V10.2394H76.7566V16.5736H77.6847V10.2394H79.7022Z" fill="white"/>
<path d="M89.094 10.2899C88.3777 9.55323 87.5002 9.1897 86.4505 9.1897C85.402 9.1897 84.5233 9.55323 83.807 10.2791C83.0908 10.9953 82.7381 11.8933 82.7381 12.9623C82.7381 14.0324 83.0908 14.9292 83.807 15.6455C84.5233 16.3725 85.402 16.7349 86.4505 16.7349C87.4893 16.7349 88.3777 16.3725 89.094 15.6455C89.8102 14.9292 90.1629 14.0324 90.1629 12.9623C90.1629 11.903 89.8102 11.0062 89.094 10.2899ZM84.4739 10.8942C85.0084 10.3501 85.6632 10.0781 86.4505 10.0781C87.2378 10.0781 87.8926 10.3501 88.4174 10.8942C88.9519 11.4299 89.2143 12.1257 89.2143 12.9623C89.2143 13.8001 88.9519 14.4959 88.4174 15.0303C87.8926 15.5757 87.2378 15.8477 86.4505 15.8477C85.6632 15.8477 85.0084 15.5757 84.4739 15.0303C83.9491 14.4862 83.6867 13.8001 83.6867 12.9623C83.6867 12.1257 83.9491 11.4395 84.4739 10.8942Z" fill="white"/>
<path d="M92.3923 12.0751L92.3525 10.6824H92.3923L96.0649 16.5736H97.0328V9.351H96.1047V13.5786L96.1456 14.9702H96.1047L92.5945 9.351H91.4654V16.5736H92.3923V12.0751Z" fill="white"/>
</g>
<defs>
<clipPath id="clip0_20_251">
<rect width="162.508" height="48.1505" fill="white" transform="translate(0.492188 0.924805)"/>
</clipPath>
</defs>
</svg>
