<svg width="76" height="77" viewBox="0 0 76 77" fill="none" xmlns="http://www.w3.org/2000/svg">
<path d="M72.135 3.74469C70.95 2.55533 69.5413 1.61213 67.9902 0.969457C66.4392 0.32678 64.7762 -0.00267968 63.0973 1.64144e-05H20.1615C19.4225 0.00472509 18.7136 0.293027 18.1811 0.805441C17.6487 1.31786 17.3333 2.01521 17.3003 2.75345C17.2672 3.49168 17.519 4.21444 18.0035 4.77238C18.4881 5.33033 19.1684 5.68088 19.904 5.75161H24.78C24.7983 5.76656 24.8149 5.78483 24.8331 5.80145C25.7555 6.72326 26.4861 7.81854 26.983 9.02416C27.4799 10.2298 27.7333 11.5219 27.7283 12.8259C27.7234 14.1299 27.4604 15.42 26.9543 16.6218C26.4483 17.8236 25.7093 18.9134 24.78 19.8282H19.9322C19.2138 19.9382 18.5635 20.3156 18.1115 20.8847C17.6594 21.4538 17.4391 22.1727 17.4945 22.8973C17.55 23.622 17.8771 24.2989 18.4105 24.7927C18.9438 25.2864 19.644 25.5604 20.3708 25.5598H63.099C65.6262 25.5593 68.0965 24.8096 70.1977 23.4054C72.299 22.0012 73.9367 20.0056 74.9039 17.6708C75.8712 15.336 76.1247 12.7669 75.6321 10.2881C75.1395 7.80936 73.9232 5.53228 72.1367 3.74469H72.135Z" fill="#62C038"/>
<path d="M59.188 12.7825C59.1875 16.1714 57.841 19.4214 55.4445 21.8175C53.048 24.2137 49.7978 25.5598 46.4089 25.5598H3.68232C2.95554 25.5604 2.25539 25.2864 1.72205 24.7927C1.1887 24.299 0.861546 23.622 0.806094 22.8974C0.750641 22.1727 0.971 21.4538 1.42301 20.8847C1.87503 20.3156 2.52536 19.9383 3.24376 19.8282H46.487C47.4203 19.8426 48.3472 19.6711 49.2137 19.3238C50.0802 18.9765 50.869 18.4604 51.5342 17.8054C52.1993 17.1504 52.7275 16.3697 53.088 15.5086C53.4486 14.6476 53.6342 13.7234 53.6342 12.7899C53.6342 11.8564 53.4486 10.9323 53.088 10.0712C52.7275 9.21015 52.1993 8.42942 51.5342 7.77443C50.869 7.11944 50.0802 6.60328 49.2137 6.25601C48.3472 5.90874 47.4203 5.7373 46.487 5.75164H3.21715C2.4749 5.68989 1.78542 5.34306 1.29337 4.78393C0.801326 4.2248 0.544945 3.49679 0.578044 2.75272C0.611142 2.00865 0.931176 1.30634 1.47093 0.793104C2.01068 0.279873 2.72824 -0.00434721 3.47303 5.02777e-05H46.4089C48.0873 5.0221e-05 49.7493 0.330673 51.2999 0.97309C52.8506 1.61551 54.2595 2.55711 55.4462 3.74411C56.6329 4.93111 57.5741 6.34028 58.2162 7.89109C58.8582 9.44191 59.1884 11.104 59.188 12.7825Z" fill="#A1D858"/>
<path d="M53.5261 12.7908C53.5261 13.7151 53.3439 14.6303 52.9902 15.4843C52.6364 16.3382 52.1179 17.1141 51.4643 17.7676C50.8106 18.4211 50.0345 18.9395 49.1805 19.293C48.3265 19.6466 47.4112 19.8284 46.4869 19.8282H8.09155C9.02115 18.9136 9.7604 17.824 10.2667 16.6222C10.773 15.4205 11.0363 14.1303 11.0414 12.8263C11.0465 11.5222 10.7933 10.23 10.2964 9.02435C9.79952 7.81865 9.06878 6.7233 8.14636 5.80148C8.12476 5.78487 8.11149 5.76658 8.09155 5.74997H46.4952C47.4199 5.74953 48.3355 5.93136 49.1899 6.28506C50.0442 6.63876 50.8205 7.15739 51.4742 7.81129C52.128 8.4652 52.6464 9.24158 52.9999 10.096C53.3534 10.9504 53.535 11.8661 53.5344 12.7908H53.5261Z" fill="#DFE6F2"/>
<path d="M53.5261 12.7908C53.5273 13.6105 53.3851 14.4241 53.1058 15.1947C52.6109 13.8368 51.7104 12.6639 50.5264 11.835C49.3424 11.0062 47.9322 10.5615 46.4869 10.5612H10.7879C10.3723 8.75787 9.4568 7.10821 8.14636 5.80148C8.12476 5.78487 8.11149 5.76658 8.09155 5.74997H46.4952C47.4199 5.74953 48.3355 5.93136 49.1899 6.28506C50.0442 6.63876 50.8205 7.15739 51.4742 7.81129C52.128 8.4652 52.6464 9.24158 52.9999 10.096C53.3534 10.9504 53.535 11.8661 53.5344 12.7908H53.5261Z" fill="#CFD5E3"/>
<path d="M72.1347 54.8643C70.9499 53.6746 69.5413 52.7313 67.9902 52.0886C66.4391 51.4459 64.776 51.1166 63.097 51.1196H20.1612C19.4197 51.1199 18.7068 51.4061 18.171 51.9187C17.6351 52.4313 17.3176 53.1307 17.2844 53.8715C17.2512 54.6123 17.505 55.3374 17.9929 55.8958C18.4807 56.4542 19.1652 56.803 19.9037 56.8695H24.7798L24.8329 56.9211C25.7552 57.8429 26.4859 58.9382 26.9828 60.1438C27.4797 61.3494 27.733 62.6415 27.7281 63.9455C27.7231 65.2495 27.4601 66.5396 26.9541 67.7415C26.4481 68.9433 25.7091 70.033 24.7798 70.9478H19.932C19.2135 71.0578 18.5632 71.4352 18.1112 72.0043C17.6592 72.5734 17.4388 73.2923 17.4943 74.0169C17.5497 74.7416 17.8769 75.4186 18.4102 75.9123C18.9436 76.406 19.6437 76.68 20.3705 76.6795H63.0987C65.6259 76.679 68.0963 75.9292 70.1975 74.525C72.2987 73.1208 73.9364 71.1252 74.9037 68.7904C75.871 66.4556 76.1244 63.8865 75.6318 61.4077C75.1393 58.929 73.9229 56.6519 72.1365 54.8643H72.1347Z" fill="#62C038"/>
<path d="M59.1882 63.9004C59.1878 67.2895 57.8413 70.5396 55.4448 72.9361C53.0484 75.3325 49.7982 76.6791 46.4091 76.6795H3.68257C2.95579 76.68 2.25564 76.406 1.72229 75.9123C1.18895 75.4186 0.861794 74.7416 0.806342 74.017C0.750889 73.2923 0.971248 72.5734 1.42326 72.0043C1.87528 71.4352 2.52561 71.0579 3.24401 70.9478H46.4872C48.3543 70.9478 50.1449 70.2061 51.4652 68.8859C52.7854 67.5656 53.5271 65.775 53.5271 63.9079C53.5271 62.0408 52.7854 60.2501 51.4652 58.9299C50.1449 57.6096 48.3543 56.8679 46.4872 56.8679H3.21739C2.479 56.8014 1.79472 56.4527 1.30685 55.8945C0.818985 55.3362 0.565109 54.6114 0.598065 53.8707C0.631021 53.13 0.948226 52.4306 1.48375 51.9179C2.01927 51.4052 2.73189 51.1187 3.47328 51.118H46.4091C48.0874 51.118 49.7493 51.4486 51.2999 52.0909C52.8504 52.7332 54.2592 53.6747 55.4458 54.8615C56.6325 56.0483 57.5738 57.4572 58.2159 59.0079C58.858 60.5585 59.1884 62.2204 59.1882 63.8987V63.9004Z" fill="#A1D858"/>
<path d="M53.5261 63.9137C53.5256 65.7803 52.7838 67.5703 51.4638 68.89C50.1437 70.2097 48.3535 70.9511 46.4869 70.9511H8.09155C9.02115 70.0365 9.7604 68.9469 10.2667 67.7451C10.773 66.5434 11.0363 65.2532 11.0414 63.9492C11.0465 62.6451 10.7933 61.3529 10.2964 60.1472C9.79952 58.9415 9.06878 57.8462 8.14636 56.9244C8.12899 56.9063 8.1107 56.8891 8.09155 56.8729H46.4952C47.4199 56.8724 48.3355 57.0543 49.1899 57.408C50.0442 57.7617 50.8205 58.2803 51.4742 58.9342C52.128 59.5881 52.6464 60.3644 52.9999 61.2188C53.3534 62.0733 53.535 62.989 53.5344 63.9137H53.5261Z" fill="#DFE6F2"/>
<path d="M53.5261 63.9137C53.5272 64.7339 53.3849 65.548 53.1058 66.3193C52.6114 64.9609 51.7111 63.7875 50.527 62.9583C49.343 62.1291 47.9325 61.6842 46.4869 61.6841H10.7879C10.3727 59.8806 9.45709 58.2309 8.14636 56.9244C8.12899 56.9063 8.1107 56.8891 8.09155 56.8729H46.4952C47.4199 56.8724 48.3355 57.0543 49.1899 57.408C50.0442 57.7617 50.8205 58.2803 51.4742 58.9342C52.128 59.5881 52.6464 60.3644 52.9999 61.2188C53.3534 62.0733 53.535 62.989 53.5344 63.9137H53.5261Z" fill="#CFD5E3"/>
<path d="M4.33347 29.3028C5.51851 28.114 6.92694 27.1713 8.47772 26.5289C10.0285 25.8865 11.691 25.5572 13.3696 25.5598H56.3004C57.0449 25.5549 57.7625 25.8386 58.3023 26.3514C58.8421 26.8642 59.1622 27.5662 59.1955 28.31C59.2288 29.0538 58.9727 29.7816 58.4809 30.3406C57.9891 30.8996 57.2999 31.2464 56.558 31.3081H51.6852C51.6636 31.3247 51.6486 31.3429 51.6287 31.3612C50.7066 32.2833 49.9762 33.3787 49.4796 34.5845C48.983 35.7902 48.73 37.0823 48.7352 38.3863C48.7405 39.6904 49.0038 40.9804 49.5101 42.1821C50.0164 43.3838 50.7556 44.4734 51.6852 45.388H56.533C57.2534 45.4954 57.9062 45.8718 58.3603 46.4412C58.8143 47.0106 59.0359 47.7309 58.9803 48.4571C58.9247 49.1833 58.5962 49.8614 58.0607 50.3551C57.5253 50.8488 56.8228 51.1214 56.0945 51.118H13.3696C10.8425 51.1171 8.37234 50.3672 6.27139 48.9628C4.17044 47.5585 2.53296 45.5629 1.5659 43.2282C0.598832 40.8935 0.345588 38.3245 0.838196 35.8459C1.3308 33.3673 2.54714 31.0903 4.33347 29.3028Z" fill="#62C038"/>
<path d="M17.2803 38.3407C17.2803 41.7295 18.6264 44.9795 21.0227 47.3757C23.4189 49.772 26.6689 51.1181 30.0577 51.1181H72.7875C73.5158 51.1215 74.2184 50.849 74.7539 50.3553C75.2893 49.8616 75.6179 49.1835 75.6735 48.4573C75.7291 47.7311 75.5075 47.0108 75.0534 46.4414C74.5993 45.872 73.9465 45.4956 73.2262 45.3881H29.9813C28.1139 45.3881 26.3231 44.6464 25.0027 43.326C23.6823 42.0055 22.9405 40.2147 22.9405 38.3474C22.9405 36.4801 23.6823 34.6892 25.0027 33.3688C26.3231 32.0484 28.1139 31.3066 29.9813 31.3066H73.251C73.993 31.2449 74.6823 30.8981 75.1741 30.3391C75.6659 29.7801 75.922 29.0523 75.8886 28.3085C75.8553 27.5647 75.5352 26.8628 74.9954 26.35C74.4556 25.8372 73.7381 25.5534 72.9936 25.5583H30.0577C28.3794 25.5579 26.7173 25.8882 25.1667 26.5304C23.616 27.1725 22.2072 28.114 21.0205 29.3009C19.8339 30.4879 18.8928 31.897 18.251 33.4478C17.6093 34.9986 17.2794 36.6607 17.2803 38.3391V38.3407Z" fill="#A1D858"/>
<path d="M22.9424 38.3539C22.9422 39.2782 23.124 40.1935 23.4776 41.0476C23.8311 41.9016 24.3495 42.6775 25.003 43.3312C25.6566 43.9849 26.4325 44.5034 27.2864 44.8572C28.1403 45.211 29.0556 45.393 29.9799 45.393H68.3752C67.4459 44.4783 66.7069 43.3887 66.2007 42.1871C65.6945 40.9854 65.4311 39.6954 65.4259 38.3914C65.4206 37.0875 65.6736 35.7954 66.1701 34.5897C66.6666 33.3839 67.3968 32.2884 68.3187 31.3663C68.3403 31.3447 68.3536 31.3297 68.3752 31.3131H29.9799C29.0554 31.3129 28.1398 31.4949 27.2857 31.8487C26.4315 32.2025 25.6555 32.7212 25.0019 33.375C24.3484 34.0289 23.8301 34.8052 23.4767 35.6595C23.1233 36.5138 22.9417 37.4294 22.9424 38.3539Z" fill="#DFE6F2"/>
<path d="M22.9424 38.3539C22.9407 39.1746 23.0824 39.9893 23.3611 40.7612C23.8554 39.4028 24.7557 38.2294 25.9398 37.4002C27.1239 36.571 28.5344 36.1262 29.9799 36.126H65.6805C66.0941 34.3223 67.0092 32.6722 68.3204 31.3663C68.342 31.3447 68.3554 31.3297 68.377 31.3131H29.9799C29.0554 31.3129 28.1398 31.4949 27.2857 31.8487C26.4315 32.2025 25.6555 32.7212 25.0019 33.375C24.3484 34.0289 23.8301 34.8052 23.4767 35.6595C23.1233 36.5138 22.9417 37.4294 22.9424 38.3539Z" fill="#CFD5E3"/>
</svg>
