<svg width="64" height="86" viewBox="0 0 64 86" fill="none" xmlns="http://www.w3.org/2000/svg">
<path d="M29.1452 70.3447V81.2365C29.0323 81.6482 29.0159 82.0805 29.0973 82.4996C29.1787 82.9188 29.3558 83.3134 29.6147 83.6529C29.8736 83.9924 30.2074 84.2676 30.59 84.457C30.9727 84.6464 31.3939 84.7449 31.8208 84.7449C32.2478 84.7449 32.669 84.6464 33.0516 84.457C33.4343 84.2676 33.7681 83.9924 34.027 83.6529C34.2859 83.3134 34.4629 82.9188 34.5444 82.4996C34.6258 82.0805 34.6094 81.6482 34.4964 81.2365V70.3447H29.1452Z" fill="#5796F4"/>
<path d="M44.9347 85.9099H18.7053C17.94 85.9099 17.206 85.6058 16.6648 85.0647C16.1236 84.5235 15.8196 83.7895 15.8196 83.0241C15.8196 82.2588 16.1236 81.5248 16.6648 80.9836C17.206 80.4424 17.94 80.1384 18.7053 80.1384H44.9347C45.3137 80.1384 45.6889 80.213 46.039 80.3581C46.3891 80.5031 46.7073 80.7156 46.9752 80.9836C47.2432 81.2516 47.4558 81.5697 47.6008 81.9198C47.7458 82.2699 47.8205 82.6452 47.8205 83.0241C47.8205 83.4031 47.7458 83.7784 47.6008 84.1285C47.4558 84.4786 47.2432 84.7967 46.9752 85.0647C46.7073 85.3326 46.3891 85.5452 46.039 85.6903C45.6889 85.8353 45.3137 85.9099 44.9347 85.9099Z" fill="#5796F4"/>
<path d="M54.1852 40.9855C54.2106 43.9384 53.651 46.8671 52.5386 49.6026C51.4262 52.3381 49.783 54.8261 47.7039 56.9232C45.6248 59.0203 43.151 60.6849 40.4252 61.8208C37.6994 62.9568 34.7756 63.5416 31.8226 63.5416C28.8696 63.5416 25.9458 62.9568 23.22 61.8208C20.4942 60.6849 18.0204 59.0203 15.9413 56.9232C13.8622 54.8261 12.2191 52.3381 11.1067 49.6026C9.99424 46.8671 9.43461 43.9384 9.46006 40.9855V22.3651C9.51089 16.4676 11.8893 10.8289 16.0776 6.67654C20.2659 2.52421 25.9249 0.194458 31.8226 0.194458C37.7204 0.194458 43.3794 2.52421 47.5676 6.67654C51.7559 10.8289 54.1343 16.4676 54.1852 22.3651V40.9855Z" fill="#77C8F4"/>
<path opacity="0.5" d="M54.1851 22.365V40.9937C54.1853 43.9306 53.607 46.8387 52.4832 49.5521C51.3594 52.2654 49.7122 54.7308 47.6355 56.8075C45.5588 58.8842 43.0934 60.5315 40.3801 61.6552C37.6667 62.779 34.7586 63.3573 31.8217 63.3571C31.0243 63.357 30.2274 63.3154 29.4343 63.2325C33.9373 61.6114 37.8306 58.6408 40.5832 54.7257C43.3357 50.8107 44.8136 46.1417 44.8151 41.3559V21.9962C44.815 17.2106 43.3376 12.5418 40.5848 8.62721C37.8319 4.71265 33.9378 1.74325 29.4343 0.124568C30.2274 0.0408884 31.0243 -0.00072388 31.8217 -5.3053e-05C34.7591 -0.00158186 37.6679 0.575891 40.382 1.69932C43.096 2.82275 45.562 4.47012 47.639 6.54723C49.716 8.62434 51.3631 11.0905 52.4864 13.8046C53.6096 16.5188 54.1868 19.4276 54.1851 22.365Z" fill="#5796F4"/>
<path opacity="0.5" d="M9.46006 38.1146V40.9888C9.43461 43.9417 9.99424 46.8704 11.1067 49.6059C12.2191 52.3414 13.8622 54.8294 15.9413 56.9265C18.0204 59.0236 20.4942 60.6882 23.22 61.8241C25.9458 62.9601 28.8696 63.5449 31.8226 63.5449C34.7756 63.5449 37.6994 62.9601 40.4252 61.8241C43.151 60.6882 45.6248 59.0236 47.7039 56.9265C49.783 54.8294 51.4262 52.3414 52.5386 49.6059C53.651 46.8704 54.2106 43.9417 54.1852 40.9888V38.1146H9.46006Z" fill="#5796F4"/>
<path d="M44.8168 38.1146V41.3493C44.8149 46.1349 43.3369 50.8034 40.5844 54.7182C37.8318 58.6329 33.9387 61.6033 29.436 63.2242C32.5563 63.5579 35.7119 63.2315 38.6979 62.2662C41.6838 61.3009 44.4333 59.7183 46.7678 57.6212C49.1022 55.524 50.9695 52.9593 52.2482 50.0936C53.5269 47.2278 54.1885 44.1252 54.1901 40.9871V38.1146H44.8168Z" fill="#5796F4"/>
<path d="M5.81982 38.8838C5.26302 38.8847 4.72932 39.1065 4.33591 39.5005C3.9425 39.8946 3.72154 40.4286 3.72154 40.9854C3.72154 48.438 6.68207 55.5854 11.9518 60.8551C17.2216 66.1249 24.369 69.0854 31.8216 69.0854C39.2742 69.0854 46.4215 66.1249 51.6913 60.8551C56.961 55.5854 59.9216 48.438 59.9216 40.9854C59.9216 40.4289 59.7005 39.8952 59.307 39.5017C58.9135 39.1082 58.3798 38.8871 57.8233 38.8871C57.2668 38.8871 56.7331 39.1082 56.3396 39.5017C55.9461 39.8952 55.725 40.4289 55.725 40.9854C55.725 47.325 53.2066 53.4049 48.7239 57.8877C44.2411 62.3705 38.1612 64.8888 31.8216 64.8888C25.482 64.8888 19.402 62.3705 14.9193 57.8877C10.4365 53.4049 7.9181 47.325 7.9181 40.9854C7.91766 40.4287 7.69656 39.8949 7.30325 39.501C6.90993 39.107 6.37649 38.8851 5.81982 38.8838ZM31.8216 72.2021C23.5437 72.1898 15.6079 68.8982 9.75159 63.0478C3.89528 57.1974 0.595597 49.2649 0.574951 40.9871C0.598082 39.6119 1.16025 38.3009 2.14044 37.3361C3.12062 36.3714 4.44044 35.8301 5.81576 35.8288C7.19108 35.8274 8.51193 36.3662 9.49394 37.3291C10.476 38.292 11.0406 39.602 11.0664 40.9771C11.0664 46.4819 13.2532 51.7613 17.1457 55.6538C21.0382 59.5463 26.3175 61.7331 31.8224 61.7331C37.3272 61.7331 42.6066 59.5463 46.4991 55.6538C50.3916 51.7613 52.5784 46.4819 52.5784 40.9771C52.5668 40.2803 52.6941 39.5883 52.9529 38.9413C53.2117 38.2943 53.5968 37.7054 54.0857 37.2088C54.5746 36.7123 55.1575 36.3181 55.8004 36.0493C56.4432 35.7804 57.1332 35.6424 57.8301 35.6432C58.5269 35.644 59.2166 35.7835 59.8589 36.0538C60.5012 36.324 61.0832 36.7195 61.571 37.2171C62.0588 37.7147 62.4425 38.3045 62.6999 38.9521C62.9572 39.5997 63.083 40.292 63.0698 40.9887C63.0488 49.2667 59.7487 57.1992 53.8921 63.0495C48.0356 68.8999 40.0996 72.1915 31.8216 72.2038V72.2021Z" fill="#5796F4"/>
<g style="mix-blend-mode:screen" opacity="0.302">
<path d="M24.6148 29.9756C24.6497 34.4791 24.2041 38.9736 23.2857 43.3826C22.8654 44.823 22.0779 46.074 20.5943 46.074H20.5461H20.4963C19.0111 46.074 18.2252 44.823 17.8066 43.3826C16.8881 38.9736 16.4426 34.4791 16.4775 29.9756C16.5883 25.449 17.0326 20.9367 17.8066 16.4754C18.1023 14.5333 19.0127 13.7857 20.4963 13.7857H20.5461H20.5943C22.0796 13.7857 22.99 14.535 23.2857 16.4754C24.0588 20.9368 24.503 25.449 24.6148 29.9756Z" fill="white"/>
</g>
<path d="M21.3271 21.8334C21.3277 22.178 21.2604 22.5193 21.1289 22.8379C20.9974 23.1564 20.8044 23.4459 20.5609 23.6898C20.3173 23.9336 20.0281 24.127 19.7097 24.2589C19.3913 24.3907 19.0501 24.4585 18.7054 24.4583H9.46171V22.3567C9.45965 21.3039 9.53294 20.2524 9.68102 19.2101H18.7038C19.3995 19.2101 20.0668 19.4864 20.5587 19.9784C21.0507 20.4704 21.3271 21.1376 21.3271 21.8334Z" fill="#5796F4"/>
<path d="M25.6232 33.7102C25.6232 34.0546 25.5554 34.3957 25.4235 34.7138C25.2917 35.032 25.0984 35.3211 24.8548 35.5645C24.6112 35.808 24.322 36.0011 24.0038 36.1327C23.6855 36.2644 23.3444 36.332 23 36.3318H9.46167V31.0853H23C23.6959 31.0857 24.3631 31.3625 24.855 31.8547C25.3469 32.3469 25.6232 33.0143 25.6232 33.7102Z" fill="#5796F4"/>
<path d="M54.1904 22.3567V24.4566H44.9367C44.241 24.4566 43.5738 24.1802 43.0818 23.6883C42.5899 23.1963 42.3135 22.5291 42.3135 21.8334C42.3135 21.1376 42.5899 20.4704 43.0818 19.9784C43.5738 19.4864 44.241 19.2101 44.9367 19.2101H53.9645C54.1148 20.2522 54.1903 21.3038 54.1904 22.3567Z" fill="#5796F4"/>
<path d="M54.1852 31.0853V36.3318H40.6452C39.9495 36.3318 39.2823 36.0554 38.7903 35.5635C38.2984 35.0715 38.022 34.4043 38.022 33.7085C38.022 33.0128 38.2984 32.3455 38.7903 31.8536C39.2823 31.3616 39.9495 31.0853 40.6452 31.0853H54.1852Z" fill="#5796F4"/>
</svg>
