<svg width="104" height="83" viewBox="0 0 104 83" fill="none" xmlns="http://www.w3.org/2000/svg">
<path d="M93.0567 55.7561L100.387 71.72C100.542 72.0584 100.591 72.4361 100.527 72.803C100.463 73.1699 100.29 73.5088 100.029 73.775C99.7689 74.0412 99.4338 74.2221 99.0684 74.2939C98.703 74.3657 98.3244 74.325 97.9826 74.1771L76.8237 65.0131C74.6696 65.6407 72.4692 66.0968 70.2431 66.3771C65.4748 66.9876 60.6367 66.7667 55.9439 65.7242C58.9498 61.9891 60.844 57.4834 61.4097 52.7225C61.8207 49.105 61.4828 45.4417 60.417 41.9605C59.3511 38.4792 57.5803 35.2546 55.2145 32.4873C50.3069 26.6452 43.3776 22.8677 35.8083 21.9078C34.4458 21.7265 33.0728 21.635 31.6982 21.6337H31.4573C32.8642 18.5708 34.7174 15.7334 36.9563 13.214C43.443 6.01755 52.3342 1.43727 61.9596 0.333564C63.7131 0.113078 65.4787 0.00210524 67.246 0.00129301C75.9259 -0.0685109 84.3812 2.75811 91.2741 8.03391C94.5332 10.5191 97.2707 13.6221 99.33 17.1657C101.389 20.7094 102.73 24.6241 103.276 28.6861C103.933 33.9007 103.207 39.1966 101.171 44.0419C99.3069 48.4667 96.5438 52.4557 93.0567 55.7561Z" fill="url(#paint0_linear_20_177)"/>
<path d="M57.3925 24.4C57.5983 22.6619 58.295 21.0183 59.401 19.6618C60.6889 18.0332 62.3784 16.7679 64.3036 15.9903C66.5435 15.072 68.9801 14.7387 71.3843 15.0217C73.6288 15.1878 75.8062 15.8615 77.7522 16.9921C79.4382 17.966 80.823 19.3858 81.7544 21.0956C82.6183 22.691 82.9857 24.5082 82.8094 26.3139C82.7147 27.6304 82.2908 28.902 81.5766 30.012C80.9306 30.9942 80.1397 31.873 79.2308 32.6187C78.3537 33.3286 76.7864 34.516 74.5292 36.1806C74.0021 36.5701 73.4969 36.9883 73.0157 37.4333C72.6832 37.736 72.3886 38.0779 72.1385 38.4517C71.9448 38.7519 71.7818 39.0708 71.6518 39.4036C71.5288 39.7243 71.3328 40.2908 71.0687 41.1015C71.01 41.4712 70.8786 41.8256 70.6823 42.1443C70.4859 42.463 70.2284 42.7397 69.9247 42.9584C69.6209 43.1771 69.2768 43.3335 68.9123 43.4185C68.5477 43.5036 68.17 43.5156 67.8008 43.454C67.3909 43.4259 66.9907 43.3167 66.6234 43.1328C66.2561 42.9488 65.929 42.6938 65.661 42.3824C65.3733 42.0108 65.1658 41.5837 65.0514 41.1279C64.937 40.6721 64.9183 40.1976 64.9964 39.7342C65.1466 37.3501 66.2342 35.1222 68.0217 33.5374C69.0483 32.642 70.1196 31.7992 71.2315 31.0122C72.4033 30.1671 73.2528 29.5264 73.78 29.09C74.3036 28.6577 74.7644 28.1545 75.1489 27.5948C75.534 27.0372 75.7676 26.3892 75.8267 25.7141C75.8977 25.069 75.8285 24.4161 75.6238 23.8002C75.419 23.1843 75.0836 22.6198 74.6405 22.1456C73.6636 21.0911 72.3146 20.4583 70.8792 20.3812C70.1399 20.2474 69.3809 20.2691 68.6504 20.4447C67.9198 20.6203 67.2339 20.9461 66.6362 21.4013C65.4931 22.5137 64.5984 23.8556 64.0112 25.3387C63.8199 26.1161 63.3584 26.8002 62.7093 27.2688C62.0602 27.7374 61.2657 27.9601 60.4676 27.8971C60.0195 27.8637 59.5834 27.7373 59.1869 27.5259C58.7904 27.3145 58.4424 27.0228 58.165 26.6694C57.8922 26.363 57.6834 26.0051 57.551 25.6168C57.4186 25.2284 57.3652 24.8176 57.3941 24.4083L57.3925 24.4ZM67.1213 53.1014C66.0431 53.016 65.0358 52.5307 64.297 51.7408C63.9107 51.3201 63.6236 50.8182 63.4568 50.2719C63.2901 49.7256 63.2479 49.149 63.3334 48.5842C63.3733 48.0408 63.5258 47.5116 63.7812 47.0302C64.0366 46.5489 64.3893 46.1259 64.817 45.7882C65.2433 45.439 65.7356 45.1793 66.2646 45.0246C66.7935 44.8699 67.3482 44.8233 67.8955 44.8877C68.4364 44.9309 68.9631 45.0823 69.4443 45.3329C69.9256 45.5835 70.3516 45.9282 70.6971 46.3465C71.0427 46.7649 71.3007 47.2484 71.4558 47.7683C71.6109 48.2883 71.66 48.8341 71.6002 49.3734C71.576 49.9398 71.4271 50.494 71.1641 50.9963C70.901 51.4985 70.5303 51.9366 70.0785 52.2791C69.2332 52.9211 68.1755 53.218 67.1196 53.1098" fill="white"/>
<path d="M60.2982 53.0199C59.723 57.6012 57.8534 61.9235 54.9088 65.48C53.2459 67.4939 51.3028 69.2591 49.1389 70.7215C47.7569 71.6622 46.2981 72.4847 44.7779 73.1803C39.2779 75.6615 33.1944 76.558 27.2125 75.7687C25.479 75.5513 23.7649 75.2003 22.0856 74.7187L5.49368 81.904C5.26301 82.0042 5.01416 82.0557 4.76269 82.0552C4.45405 82.0559 4.15021 81.9789 3.8792 81.8312C3.60819 81.6836 3.37875 81.47 3.21205 81.2103C3.04534 80.9505 2.94675 80.6529 2.92537 80.3451C2.90399 80.0372 2.96051 79.7289 3.08971 79.4486L8.7682 67.0815C6.06243 64.4771 3.91454 61.3496 2.45507 57.8893C0.819668 53.9985 0.236405 49.7461 0.763824 45.5587C1.20218 42.2981 2.27881 39.1558 3.93218 36.3114C5.58555 33.4671 7.78324 30.9764 10.3996 28.9818C14.031 26.169 18.2542 24.2181 22.7501 23.2768C25.0102 22.7933 27.3151 22.55 29.6264 22.5508C30.0993 22.5508 30.5734 22.5613 31.0485 22.5823C31.9839 22.6205 32.9209 22.6986 33.8512 22.8166C37.7205 23.2925 41.4759 24.4453 44.9457 26.2223C48.3173 27.9489 51.3373 30.2893 53.8505 33.1236C56.2913 35.7822 58.1306 38.9355 59.2432 42.3688C60.3559 45.8022 60.7157 49.435 60.2982 53.0199Z" fill="url(#paint1_linear_20_177)"/>
<path d="M31.0586 57.2746C31.1752 57.494 31.3652 57.6654 31.5954 57.7589C31.8255 57.8524 32.0813 57.8621 32.3179 57.7863H32.3527C32.9409 57.67 33.3645 57.263 33.3379 56.8543C33.0057 51.9599 32.6734 47.4012 32.6219 42.899C32.6003 41.6779 32.6119 40.8655 32.5737 40.2591C32.5955 40.0594 32.6066 39.8586 32.6069 39.6577C32.7248 39.1153 32.7196 38.5534 32.5919 38.0133C32.4641 37.4731 32.217 36.9685 31.8687 36.5363C31.5204 36.1042 31.0797 35.7556 30.579 35.516C30.0783 35.2765 29.5303 35.1522 28.9752 35.1522C28.4202 35.1522 27.8722 35.2765 27.3715 35.516C26.8708 35.7556 26.4301 36.1042 26.0817 36.5363C25.7334 36.9685 25.4863 37.4731 25.3586 38.0133C25.2308 38.5534 25.2257 39.1153 25.3435 39.6577C25.3404 40.392 25.488 41.1191 25.7771 41.7942C25.9665 42.3391 26.2473 43.0402 26.6194 44.0353C28.2974 48.2319 29.6198 52.6012 31.0619 57.2846" fill="white"/>
<path d="M36.4363 61.9064C36.4222 61.4894 36.3231 61.0797 36.1449 60.7025C35.9668 60.3252 35.7135 59.9883 35.4005 59.7124C35.0874 59.4366 34.7214 59.2277 34.3247 59.0984C33.928 58.9692 33.5091 58.9223 33.0937 58.9608C32.6845 58.9871 32.2849 59.0965 31.9194 59.2823C31.5539 59.4681 31.2301 59.7265 30.9678 60.0417C30.7055 60.3568 30.5102 60.7222 30.3939 61.1153C30.2775 61.5085 30.2425 61.9212 30.2909 62.3284C30.2879 62.7356 30.3694 63.139 30.5303 63.513C30.6911 63.8871 30.9278 64.2238 31.2254 64.5017C31.523 64.7796 31.8751 64.9928 32.2593 65.1277C32.6434 65.2626 33.0514 65.3164 33.4575 65.2856H33.5272C33.947 65.2756 34.36 65.1777 34.7395 64.9982C35.1191 64.8187 35.4568 64.5616 35.7308 64.2434C36.0048 63.9253 36.209 63.5532 36.3302 63.1512C36.4514 62.7493 36.487 62.3263 36.4346 61.9097" fill="white"/>
<defs>
<linearGradient id="paint0_linear_20_177" x1="44.0667" y1="37.1642" x2="103.511" y2="37.1642" gradientUnits="userSpaceOnUse">
<stop stop-color="#F3704C"/>
<stop offset="0.488" stop-color="#F3704C"/>
<stop offset="1" stop-color="#EF3B48"/>
</linearGradient>
<linearGradient id="paint1_linear_20_177" x1="72.6248" y1="52.303" x2="-3.55733" y2="52.303" gradientUnits="userSpaceOnUse">
<stop stop-color="#F3704C"/>
<stop offset="0.61" stop-color="#F3704C"/>
<stop offset="1" stop-color="#EF3B48"/>
</linearGradient>
</defs>
</svg>
