<svg width="64" height="83" viewBox="0 0 64 83" fill="none" xmlns="http://www.w3.org/2000/svg">
<path fill-rule="evenodd" clip-rule="evenodd" d="M24.5816 69.8758C24.5816 72.2498 23.8777 74.5706 22.5588 76.5445C21.2398 78.5184 19.3652 80.0569 17.1718 80.9654C14.9785 81.8739 12.5651 82.1116 10.2367 81.6484C7.90831 81.1853 5.76955 80.0421 4.09087 78.3634C2.41219 76.6847 1.26899 74.546 0.805844 72.2176C0.342697 69.8892 0.580382 67.4757 1.48888 65.2824C2.39737 63.0891 3.93587 61.2145 5.90979 59.8955C7.88371 58.5766 10.2044 57.8726 12.5785 57.8726C15.7619 57.8726 18.8149 59.1373 21.066 61.3883C23.317 63.6393 24.5816 66.6924 24.5816 69.8758Z" fill="#FF8625" stroke="#FF8625" stroke-width="0.830674" stroke-miterlimit="10"/>
<path fill-rule="evenodd" clip-rule="evenodd" d="M20.9551 70.8478C20.9551 71.329 21.1462 71.7904 21.4865 72.1306C21.8267 72.4709 22.2881 72.662 22.7693 72.662C23.2504 72.662 23.7119 72.4709 24.0521 72.1306C24.3923 71.7904 24.5835 71.329 24.5835 70.8478V26.0413C24.5835 25.5601 24.3923 25.0987 24.0521 24.7585C23.7119 24.4183 23.2504 24.2271 22.7693 24.2271C22.2881 24.2271 21.8267 24.4183 21.4865 24.7585C21.1462 25.0987 20.9551 25.5601 20.9551 26.0413V70.8478Z" fill="#FF8625" stroke="#FF8625" stroke-width="0.830674" stroke-miterlimit="10"/>
<path fill-rule="evenodd" clip-rule="evenodd" d="M63.4489 52.8339C63.4485 55.2079 62.7443 57.5284 61.4252 59.5021C60.106 61.4758 58.2312 63.014 56.0379 63.9223C53.8446 64.8305 51.4312 65.068 49.1029 64.6047C46.7746 64.1413 44.636 62.998 42.9575 61.3193C41.279 59.6405 40.1359 57.5018 39.6729 55.1734C39.2099 52.845 39.4477 50.4317 40.3562 48.2385C41.2648 46.0453 42.8033 44.1707 44.7772 42.8519C46.751 41.533 49.0717 40.8291 51.4456 40.8291C53.0221 40.8289 54.5832 41.1392 56.0397 41.7425C57.4962 42.3457 58.8196 43.23 59.9343 44.3448C61.0489 45.4597 61.9331 46.7831 62.5361 48.2397C63.1391 49.6963 63.4493 51.2574 63.4489 52.8339Z" fill="#FF8625" stroke="#FF8625" stroke-width="0.830674" stroke-miterlimit="10"/>
<path fill-rule="evenodd" clip-rule="evenodd" d="M59.8154 53.804C59.8154 54.2851 60.0065 54.7466 60.3468 55.0868C60.687 55.427 61.1484 55.6181 61.6296 55.6181C62.1107 55.6181 62.5722 55.427 62.9125 55.0868C63.2527 54.7466 63.4438 54.2851 63.4438 53.804V8.99411C63.4438 8.51296 63.2527 8.05152 62.9125 7.71129C62.5722 7.37106 62.1107 7.1799 61.6296 7.1799C61.1484 7.1799 60.687 7.37106 60.3468 7.71129C60.0065 8.05152 59.8154 8.51296 59.8154 8.99411V53.804Z" fill="#FF8625" stroke="#FF8625" stroke-width="0.830674" stroke-miterlimit="10"/>
<path d="M24.3638 20.7531V30.6066L60.0229 15.0962V5.31758L24.3638 20.7531ZM22.6576 34.9244C22.4335 34.9246 22.2116 34.8807 22.0045 34.7952C21.7974 34.7096 21.6092 34.5842 21.4506 34.4259C21.292 34.2676 21.1662 34.0796 21.0802 33.8727C20.9943 33.6658 20.9499 33.4439 20.9497 33.2199V19.6367C20.95 19.3045 21.0471 18.9795 21.2292 18.7015C21.4112 18.4236 21.6703 18.2048 21.9748 18.0717L61.048 1.14261C61.3076 1.02923 61.5914 0.982297 61.8737 1.00603C62.156 1.02976 62.428 1.12341 62.665 1.27854C62.9021 1.43367 63.0968 1.6454 63.2316 1.8946C63.3663 2.1438 63.437 2.4226 63.437 2.70591V16.2077C63.4369 16.5393 63.3402 16.8638 63.1588 17.1414C62.9773 17.419 62.719 17.6378 62.4153 17.771L23.3504 34.7815C23.1342 34.8768 22.9005 34.9261 22.6642 34.9261L22.6576 34.9244Z" fill="#FF8625" stroke="#FF8625" stroke-width="0.830674" stroke-miterlimit="10"/>
</svg>
